<?xml version="1.0" encoding="UTF-8" standalone="no"?>
<svg
   xmlns:dc="http://purl.org/dc/elements/1.1/"
   xmlns:cc="http://creativecommons.org/ns#"
   xmlns:rdf="http://www.w3.org/1999/02/22-rdf-syntax-ns#"
   xmlns:svg="http://www.w3.org/2000/svg"
   xmlns="http://www.w3.org/2000/svg"
   xml:space="preserve"
   enable-background="new 0 0 402.52 218.268"
   viewBox="0 0 354.33073 141.73229"
   height="4cm"
   width="10cm"
   y="0px"
   x="0px"
   id="Layer_1"
   version="1.1"><metadata
     id="metadata51"><rdf:RDF><cc:Work
         rdf:about=""><dc:format>image/svg+xml</dc:format><dc:type
           rdf:resource="http://purl.org/dc/dcmitype/StillImage" /><dc:title></dc:title></cc:Work></rdf:RDF></metadata><defs
     id="defs49" /><g
     transform="translate(-25.695278,-35.522099)"
     id="g4179"><rect
       x="216.504"
       y="42.839008"
       width="8.5039997"
       height="127.561"
       id="rect5"
       style="fill:#bacdea" /><rect
       x="182.48801"
       y="42.839008"
       width="8.5039997"
       height="127.562"
       id="rect7"
       style="fill:#bacdea" /><rect
       x="225.008"
       y="42.201008"
       width="8.5050001"
       height="127.561"
       id="rect9"
       style="fill:#bacdea" /><rect
       x="173.98399"
       y="42.839008"
       width="8.5039997"
       height="127.561"
       id="rect11"
       style="fill:#bacdea" /><line
       x1="118.706"
       y1="42.843006"
       x2="118.706"
       y2="170.39999"
       id="line13"
       style="fill:none;stroke:#000000;stroke-width:0.75;stroke-dasharray:3, 3" /><line
       x1="288.785"
       y1="42.843006"
       x2="288.785"
       y2="170.39999"
       id="line15"
       style="fill:none;stroke:#000000;stroke-width:0.75;stroke-dasharray:3, 3" /><polyline
       points="118.706,64.099 190.989,64.099 190.989,42.84 216.501,42.84   216.501,64.099 288.785,64.099 "
       id="polyline17"
       style="fill:none;stroke:#000000;stroke-width:1.75"
       transform="translate(0,7.0136363e-6)" /><polyline
       points="118.706,106.623 182.488,106.623 182.488,85.363   225.008,85.363 225.008,106.623 288.785,106.623 "
       id="polyline19"
       style="fill:none;stroke:#000000;stroke-width:1.75"
       transform="translate(0,7.0136363e-6)" /><polyline
       points="118.706,149.139 173.982,149.139 173.982,127.878   233.508,127.878 233.508,149.139 288.785,149.139 "
       id="polyline21"
       style="fill:none;stroke:#000000;stroke-width:1.75"
       transform="translate(0,7.0136363e-6)" /><line
       x1="203.745"
       y1="42.843006"
       x2="203.745"
       y2="170.39999"
       id="line23"
       style="fill:none;stroke:#000000;stroke-width:0.75;stroke-dasharray:3, 3" /><line
       x1="173.548"
       y1="42.843006"
       x2="173.548"
       y2="170.39999"
       id="line25"
       style="fill:none;stroke:#000000;stroke-width:0.5" /><line
       x1="182.48801"
       y1="42.843006"
       x2="182.48801"
       y2="170.39999"
       id="line27"
       style="fill:none;stroke:#000000;stroke-width:0.5" /><line
       x1="190.989"
       y1="42.843006"
       x2="190.989"
       y2="170.39999"
       id="line29"
       style="fill:none;stroke:#000000;stroke-width:0.5" /><line
       x1="216.50101"
       y1="42.843006"
       x2="216.50101"
       y2="170.39999"
       id="line31"
       style="fill:none;stroke:#000000;stroke-width:0.5" /><line
       x1="225.008"
       y1="42.843006"
       x2="225.008"
       y2="170.39999"
       id="line33"
       style="fill:none;stroke:#000000;stroke-width:0.5" /><line
       x1="276.02899"
       y1="42.843006"
       x2="276.02899"
       y2="170.39999"
       id="line35"
       style="fill:none;stroke:#000000;stroke-width:0.5" /><line
       x1="118.706"
       y1="149.13901"
       x2="288.785"
       y2="149.13901"
       id="line37"
       style="fill:none;stroke:#000000;stroke-width:0.75" /><line
       x1="118.709"
       y1="106.61901"
       x2="288.78699"
       y2="106.61901"
       id="line43"
       style="fill:none;stroke:#000000;stroke-width:0.75" /><line
       x1="118.709"
       y1="64.099007"
       x2="288.78699"
       y2="64.099007"
       id="line45"
       style="fill:none;stroke:#000000;stroke-width:0.75" /></g></svg>