<svg width="1280" height="720" xmlns="http://www.w3.org/2000/svg" xmlns:xlink="http://www.w3.org/1999/xlink" overflow="hidden"><defs><clipPath id="clip0"><rect x="0" y="0" width="1280" height="720"/></clipPath></defs><g clip-path="url(#clip0)"><rect x="0" y="0" width="1280" height="720" fill="#FFFFFF"/><text fill="#FF0000" font-family="Arial,Arial_MSFontService,sans-serif" font-weight="400" font-size="16" transform="translate(1166.35 712)">ST Restricted</text><path d="M349.5 362.5C349.5 203.442 479.337 74.5001 639.5 74.5001 799.663 74.5001 929.5 203.442 929.5 362.5 929.5 521.558 799.663 650.5 639.5 650.5 479.337 650.5 349.5 521.558 349.5 362.5Z" stroke="#7030A0" stroke-width="1.33333" stroke-miterlimit="8" fill="none" fill-rule="evenodd"/><path d="M447.5 362C447.5 256.79 533.685 171.5 640 171.5 746.315 171.5 832.5 256.79 832.5 362 832.5 467.21 746.315 552.5 640 552.5 533.685 552.5 447.5 467.21 447.5 362Z" stroke="#2F528F" stroke-width="1.33333" stroke-miterlimit="8" fill="none" fill-rule="evenodd"/><path d="M643 361 651 361 651 363 643 363ZM657 361 665 361 665 363 657 363ZM671 361 679 361 679 363 671 363ZM685 361 693 361 693 363 685 363ZM699 361 707 361 707 363 699 363ZM713 361 721 361 721 363 713 363ZM727 361 735 361 735 363 727 363ZM741 361 749 361 749 363 741 363ZM755 361 763 361 763 363 755 363ZM769 361 777 361 777 363 769 363ZM783 361 791 361 791 363 783 363ZM797 361 800.905 361 800.905 363 797 363ZM799.571 358 807.571 362 799.571 366Z"/><path d="M805 205.667 805 213.667 803 213.667 803 205.667ZM805 219.667 805 227.667 803 227.667 803 219.667ZM805 233.667 805 241.667 803 241.667 803 233.667ZM805 247.667 805 255.667 803 255.667 803 247.667ZM805 261.667 805 269.667 803 269.667 803 261.667ZM805 275.667 805 283.667 803 283.667 803 275.667ZM805 289.667 805 297.667 803 297.667 803 289.667ZM805 303.667 805 311.667 803 311.667 803 303.667ZM805 317.667 805 325.667 803 325.667 803 317.667ZM805 331.667 805 339.667 803 339.667 803 331.667ZM805 345.667 805 353.667 803 353.667 803 345.667ZM805 359.667 805 362.681 803 362.681 803 359.667ZM800 207 804 199 808 207Z"/><path d="M639 362 775.829 496.883" stroke="#4472C4" stroke-width="2" stroke-miterlimit="8" stroke-dasharray="8 6 2 6" fill="none" fill-rule="evenodd"/><path d="M639 364 733.753 634.545" stroke="#7030A0" stroke-width="2" stroke-miterlimit="8" stroke-dasharray="8 6 2 6" fill="none" fill-rule="evenodd"/><text fill="#7030A0" font-family="Cambria Math,Cambria Math_MSFontService,sans-serif" font-weight="400" font-size="24" transform="translate(675.634 573)">𝑟<tspan font-size="18" x="8.14001" y="5">1</tspan><tspan font-size="18" x="18.3066" y="5"> </tspan><tspan font-family="Calibri,Calibri_MSFontService,sans-serif" font-size="24" x="23.1333" y="0">S16_MAX</tspan><tspan fill="#0070C0" font-size="24" x="48.9973" y="-128">𝑟</tspan><tspan fill="#0070C0" font-size="18" x="57.6906" y="-123">2</tspan><tspan fill="#0070C0" font-family="Calibri,Calibri_MSFontService,sans-serif" font-size="24" x="74.3506" y="-128">MMI S16_MAX</tspan><tspan fill="#000000" font-size="24" x="57.9847" y="-185">𝑣</tspan><tspan fill="#000000" font-size="18" x="70.7514" y="-180">𝑑</tspan><tspan fill="#000000" font-size="24" x="90.1314" y="-185">=</tspan><tspan fill="#000000" font-size="24" x="114.798" y="-185">𝑣</tspan><tspan fill="#000000" font-size="18" x="127.565" y="-180">𝑑</tspan><tspan fill="#000000" font-size="18" x="129.198" y="-195">∗</tspan><tspan fill="#000000" font-size="24" x="139.909" y="-328">𝑣</tspan><tspan fill="#000000" font-size="18" x="151.503" y="-323">𝑞</tspan><tspan fill="#000000" font-size="18" x="154.309" y="-337">∗</tspan><tspan fill="#FF0000" font-size="24" x="93.4939" y="-243">𝑣</tspan><tspan fill="#FF0000" font-size="18" x="105.087" y="-238">𝑞</tspan></text><path d="M810.88 168.588 812.685 168.588 812.685 197.58 810.88 197.58ZM779.393 168.588 781.198 168.588 781.198 197.58 779.393 197.58Z" fill="#836967" fill-rule="evenodd"/><text font-family="Cambria Math,Cambria Math_MSFontService,sans-serif" font-weight="400" font-size="24" transform="translate(784.092 190)">𝑣<tspan font-size="18" x="14.4" y="-7">∗</tspan></text><path d="M805.04 167.036 807.981 169.579 807.981 170.258 805.04 172.801 804.419 172.098 806.294 170.469 801.483 170.469 799.145 170.469 798.037 170.469 794.583 170.469 794.452 170.469 791.13 170.469 791.005 170.469 787.552 170.469 784.099 170.469 784.099 169.368 787.552 169.368 791.005 169.368 791.13 169.368 794.452 169.368 794.583 169.368 798.037 169.368 799.145 169.368 801.483 169.368 806.294 169.368 804.419 167.739Z" fill="#836967" fill-rule="evenodd"/><path d="M763.743 258.169 765.547 258.169 765.547 279.978 763.743 279.978ZM742.449 258.169 744.254 258.169 744.254 279.978 742.449 279.978Z" fill="#836967" fill-rule="evenodd"/><text font-family="Cambria Math,Cambria Math_MSFontService,sans-serif" font-weight="400" font-size="24" transform="translate(747.148 276)">𝑣</text><path d="M8.83594-15.668 5.89453-13.125 5.27344-13.8281 7.14844-15.457 0-15.457 0-16.5586 7.14844-16.5586 5.27344-18.1875 5.89453-18.8906 8.83594-16.3477Z" fill="#836967" transform="translate(751.221 276)"/><path d="M816 79 816 653.041" stroke="#FF0000" stroke-width="2" stroke-miterlimit="8" stroke-dasharray="8 6" fill="none" fill-rule="evenodd"/><text fill="#FF0000" font-family="Cambria Math,Cambria Math_MSFontService,sans-serif" font-weight="400" font-size="24" transform="translate(826.314 647)">𝑣<tspan font-size="18" x="12.7667" y="5">𝑑</tspan><tspan font-family="Calibri,Calibri_MSFontService,sans-serif" font-size="24" x="25.48" y="0">MAX= 95% of </tspan><tspan font-size="24" x="162.313" y="0">𝑟</tspan><tspan font-size="18" x="171.007" y="5">2</tspan></text><path d="M2.21354 0.145527 9.1026 4.21257 8.08584 5.93483 1.19678 1.86779ZM14.2694 7.26285 21.1585 11.3299 20.1417 13.0521 13.2526 8.98511ZM26.3253 14.3802 33.2143 18.4472 32.1976 20.1695 25.3085 16.1024ZM38.3811 21.4975 45.2702 25.5645 44.2534 27.2868 37.3644 23.2197ZM50.437 28.6148 57.326 32.6818 56.3093 34.4041 49.4202 30.3371ZM62.4928 35.7321 69.3819 39.7992 68.3651 41.5214 61.4761 37.4544ZM74.5487 42.8494 81.4378 46.9165 80.421 48.6387 73.5319 44.5717ZM86.6046 49.9668 93.4936 54.0338 92.4769 55.7561 85.5878 51.689ZM98.6604 57.0841 105.549 61.1511 104.533 62.8734 97.6437 58.8063ZM110.716 64.2014 117.605 68.2684 116.589 69.9907 109.7 65.9237ZM122.772 71.3187 129.661 75.3857 128.644 77.108 121.755 73.041ZM134.828 78.436 141.717 82.5031 140.7 84.2253 133.811 80.1583ZM146.884 85.5533 153.773 89.6204 152.756 91.3427 145.867 87.2756ZM158.94 92.6707 163.121 95.1389 162.104 96.8611 157.923 94.3929ZM5.34864 9.57992-0.00399124-0.00235626 10.9718 0.0550263C11.524 0.0579137 11.9694 0.507963 11.9665 1.06024 11.9636 1.61252 11.5136 2.05789 10.9613 2.055L1.69981 2.00658 2.57807 0.518922 7.09469 8.60458C7.36403 9.08674 7.19149 9.69595 6.70933 9.96528 6.22718 10.2346 5.61797 10.0621 5.34864 9.57992Z" fill="#FF0000" transform="matrix(-1 0 0 1 802.612 266)"/><path d="M0.233587-0.237799 160.625 157.313 160.158 157.789-0.233587 0.237799ZM162.244 153.764 165.148 162.223 156.638 159.471Z" transform="matrix(1 0 0 -1 640.5 360.723)"/><path d="M805 274.667 805 282.667 803 282.667 803 274.667ZM805 288.667 805 296.667 803 296.667 803 288.667ZM805 302.667 805 310.667 803 310.667 803 302.667ZM805 316.667 805 324.667 803 324.667 803 316.667ZM805 330.667 805 338.667 803 338.667 803 330.667ZM805 344.667 805 352.667 803 352.667 803 344.667ZM805 358.667 805 360.171 803 360.171 803 358.667ZM800 276 804 268 808 276Z" fill="#FF0000"/><rect x="1127" y="666" width="153" height="54" fill="#FFFFFF"/></g></svg>