<?xml version="1.0" encoding="UTF-8" standalone="no"?>
<!DOCTYPE svg PUBLIC "-//W3C//DTD SVG 1.1//EN" "http://www.w3.org/Graphics/SVG/1.1/DTD/svg11.dtd">
<!-- Generated by Microsoft Visio, SVG Export current_sensing_network.svg Page-1 -->
<svg xmlns="http://www.w3.org/2000/svg" xmlns:xlink="http://www.w3.org/1999/xlink" xmlns:ev="http://www.w3.org/2001/xml-events"
		xmlns:v="http://schemas.microsoft.com/visio/2003/SVGExtensions/" width="2.95667in" height="2.20543in"
		viewBox="0 0 212.88 158.791" xml:space="preserve" color-interpolation-filters="sRGB" class="st17">
	<v:documentProperties v:langID="1033" v:metric="true" v:viewMarkup="false"/>

	<style type="text/css">
	<![CDATA[
		.st1 {stroke:#595959;stroke-linecap:round;stroke-linejoin:round;stroke-width:1.2}
		.st2 {marker-end:url(#mrkr10-65);stroke:#595959;stroke-linecap:round;stroke-linejoin:round;stroke-width:1.2}
		.st3 {fill:#595959;fill-opacity:1;stroke:#595959;stroke-opacity:1;stroke-width:0.4}
		.st4 {marker-start:url(#mrkr10-71);stroke:#595959;stroke-linecap:round;stroke-linejoin:round;stroke-width:1.2}
		.st5 {marker-end:url(#mrkr5-267);stroke:#595959;stroke-linecap:round;stroke-linejoin:round;stroke-width:1.2}
		.st6 {fill:none;stroke:none;stroke-linecap:round;stroke-linejoin:round;stroke-width:0.72}
		.st7 {fill:#595959;font-family:Times New Roman;font-size:0.833336em;font-style:italic;font-weight:bold}
		.st8 {baseline-shift:-32.4947%;font-size:0.649894em}
		.st9 {fill:#595959;font-family:Times New Roman;font-size:0.75em;font-style:italic;font-weight:bold}
		.st10 {baseline-shift:-32.4951%;font-size:0.649902em}
		.st11 {stroke:#595959;stroke-linecap:round;stroke-linejoin:round;stroke-width:0.72}
		.st12 {fill:#ffffff;stroke:#595959;stroke-linecap:round;stroke-linejoin:round;stroke-width:1.2}
		.st13 {fill:#595959;font-family:Arial;font-size:0.75em;font-weight:bold}
		.st14 {fill:#595959;font-family:Arial;font-size:0.666664em;font-weight:bold}
		.st15 {marker-start:url(#mrkr13-428);stroke:#595959;stroke-linecap:round;stroke-linejoin:round;stroke-width:1.2}
		.st16 {fill:none;stroke:#808080;stroke-dasharray:0.72,1.44;stroke-linecap:round;stroke-linejoin:round;stroke-width:0.72}
		.st17 {fill:none;fill-rule:evenodd;font-size:12px;overflow:visible;stroke-linecap:square;stroke-miterlimit:3}
	]]>
	</style>

	<defs id="Markers">
		<g id="lend10">
			<path
					d="M 0 0.75 C -0.414214 0.75 -0.75 0.414214 -0.75 0 -0.75 -0.414214 -0.414214 -0.75 0 -0.75 0.414214 -0.75 0.75 -0.414214 0.75 0 0.75 0.414214 0.414214 0.75 0 0.75 Z "
					style="stroke:none"/>
		</g>
		<marker id="mrkr10-65" class="st3" v:arrowType="10" v:arrowSize="1" v:setback="1.875" refX="-1.875" orient="auto"
				markerUnits="strokeWidth" overflow="visible">
			<use xlink:href="#lend10" transform="scale(-2.5,-2.5) "/>
		</marker>
		<marker id="mrkr10-71" class="st3" v:arrowType="10" v:arrowSize="1" v:setback="1.575" refX="1.575" orient="auto"
				markerUnits="strokeWidth" overflow="visible">
			<use xlink:href="#lend10" transform="scale(2.5) "/>
		</marker>
		<g id="lend5">
			<path d="M 2 1 L 0 0 L 1.98117 -0.993387 C 1.67173 -0.364515 1.67301 0.372641 1.98465 1.00043 " style="stroke:none"/>
		</g>
		<marker id="mrkr5-267" class="st3" v:arrowType="5" v:arrowSize="1" v:setback="4.375" refX="-4.375" orient="auto"
				markerUnits="strokeWidth" overflow="visible">
			<use xlink:href="#lend5" transform="scale(-2.5,-2.5) "/>
		</marker>
		<g id="lend13">
			<path d="M 3 1 L 0 0 L 3 -1 L 3 1 " style="stroke:none"/>
		</g>
		<marker id="mrkr13-428" class="st3" v:arrowType="13" v:arrowSize="1" v:setback="7.2" refX="7.2" orient="auto"
				markerUnits="strokeWidth" overflow="visible">
			<use xlink:href="#lend13" transform="scale(2.5) "/>
		</marker>
	</defs>
	<g v:mID="0" v:index="1" v:groupContext="foregroundPage">
		<title>Page-1</title>
		<v:pageProperties v:drawingScale="0.0393701" v:pageScale="0.0393701" v:drawingUnits="24" v:shadowOffsetX="9"
				v:shadowOffsetY="-9"/>
		<g id="group444-1" transform="translate(0.6,-2.78432)" v:mID="444" v:groupContext="group">
			<title>Sheet.444</title>
			<g id="shape298-2" v:mID="298" v:groupContext="shape" transform="translate(-125.387,57.1886) rotate(-90)">
				<title>Sheet.298</title>
				<path d="M0 158.79 L8.81 158.79" class="st1"/>
			</g>
			<g id="shape299-5" v:mID="299" v:groupContext="shape" transform="translate(-122.745,61.5912) rotate(-90)">
				<title>Sheet.299</title>
				<path d="M0 158.79 L17.61 158.79" class="st1"/>
			</g>
			<g id="shape300-8" v:mID="300" v:groupContext="shape" transform="translate(28.1213,-106.005)">
				<title>Sheet.300</title>
				<path d="M0 158.79 L5.28 158.79" class="st1"/>
			</g>
			<g id="shape301-11" v:mID="301" v:groupContext="shape" transform="translate(-76.2364,166.829) rotate(45) scale(1,-1)">
				<title>Sheet.301</title>
				<path d="M0 158.79 L4.98 158.79" class="st1"/>
			</g>
			<g id="shape302-14" v:mID="302" v:groupContext="shape" transform="translate(-119.223,56.7484) rotate(-90) scale(-1,1)">
				<title>Sheet.302</title>
				<path d="M0 158.79 L1.32 158.79" class="st1"/>
			</g>
			<g id="shape303-17" v:mID="303" v:groupContext="shape" transform="translate(38.2471,216.86) scale(1,-1)">
				<title>Sheet.303</title>
				<path d="M0 158.79 L1.13 158.79" class="st1"/>
			</g>
			<g id="shape304-20" v:mID="304" v:groupContext="shape" transform="translate(-76.2364,-61.6975) rotate(-45)">
				<title>Sheet.304</title>
				<path d="M0 158.79 L4.98 158.79" class="st1"/>
			</g>
			<g id="shape305-23" v:mID="305" v:groupContext="shape" transform="translate(-119.223,78.2979) rotate(-90)">
				<title>Sheet.305</title>
				<path d="M0 158.79 L21.75 158.79" class="st1"/>
			</g>
			<g id="shape306-26" v:mID="306" v:groupContext="shape" transform="translate(-125.387,88.4238) rotate(-90)">
				<title>Sheet.306</title>
				<path d="M0 158.79 L8.81 158.79" class="st1"/>
			</g>
			<g id="shape307-29" v:mID="307" v:groupContext="shape" transform="translate(-122.745,92.8263) rotate(-90)">
				<title>Sheet.307</title>
				<path d="M0 158.79 L17.61 158.79" class="st1"/>
			</g>
			<g id="shape308-32" v:mID="308" v:groupContext="shape" transform="translate(28.1213,-74.7699)">
				<title>Sheet.308</title>
				<path d="M0 158.79 L5.28 158.79" class="st1"/>
			</g>
			<g id="shape309-35" v:mID="309" v:groupContext="shape" transform="translate(-76.2364,198.065) rotate(45) scale(1,-1)">
				<title>Sheet.309</title>
				<path d="M0 158.79 L4.98 158.79" class="st1"/>
			</g>
			<g id="shape310-38" v:mID="310" v:groupContext="shape" transform="translate(-119.223,87.9835) rotate(-90) scale(-1,1)">
				<title>Sheet.310</title>
				<path d="M0 158.79 L1.32 158.79" class="st1"/>
			</g>
			<g id="shape311-41" v:mID="311" v:groupContext="shape" transform="translate(38.2471,248.095) scale(1,-1)">
				<title>Sheet.311</title>
				<path d="M0 158.79 L1.13 158.79" class="st1"/>
			</g>
			<g id="shape312-44" v:mID="312" v:groupContext="shape" transform="translate(-76.2364,-30.4624) rotate(-45)">
				<title>Sheet.312</title>
				<path d="M0 158.79 L4.98 158.79" class="st1"/>
			</g>
			<g id="group313-47" transform="translate(41.6224,-104.244)" v:mID="313" v:groupContext="group">
				<title>Sheet.313</title>
				<g id="shape314-48" v:mID="314" v:groupContext="shape" transform="translate(-132.122,70.7097) rotate(-56.3099)">
					<title>Sheet.314</title>
					<path d="M0 158.79 L4.23 158.79" class="st1"/>
				</g>
				<g id="shape315-51" v:mID="315" v:groupContext="shape"
						transform="translate(136.818,70.7097) rotate(56.3099) scale(-1,1)">
					<title>Sheet.315</title>
					<path d="M0 158.79 L4.23 158.79" class="st1"/>
				</g>
				<g id="shape316-54" v:mID="316" v:groupContext="shape" transform="translate(0.146752,0)">
					<title>Sheet.316</title>
					<path d="M0 158.79 L4.4 158.79" class="st1"/>
				</g>
				<g id="shape317-57" v:mID="317" v:groupContext="shape" transform="translate(0.146752,-3.52204)">
					<title>Sheet.317</title>
					<path d="M0 158.79 L4.4 158.79" class="st1"/>
				</g>
			</g>
			<g id="shape318-60" v:mID="318" v:groupContext="shape" transform="translate(-119.223,47.0627) rotate(-90)">
				<title>Sheet.318</title>
				<path d="M0 158.79 L9.64 158.79" class="st2"/>
			</g>
			<g id="shape319-66" v:mID="319" v:groupContext="shape" transform="translate(-119.223,101.191) rotate(-90)">
				<title>Sheet.319</title>
				<path d="M1.89 158.79 L2.25 158.79 L11.89 158.79" class="st4"/>
			</g>
			<g id="shape320-72" v:mID="320" v:groupContext="shape" transform="translate(39.5679,-114.81)">
				<title>Sheet.320</title>
				<path d="M0 158.79 L4.4 158.79" class="st1"/>
			</g>
			<g id="shape321-75" v:mID="321" v:groupContext="shape" transform="translate(202.762,43.981) rotate(90)">
				<title>Sheet.321</title>
				<path d="M0 158.79 L7.04 158.79" class="st1"/>
			</g>
			<g id="shape322-78" v:mID="322" v:groupContext="shape" transform="translate(39.5679,-97.2)">
				<title>Sheet.322</title>
				<path d="M0 158.79 L4.4 158.79" class="st1"/>
			</g>
			<g id="shape323-81" v:mID="323" v:groupContext="shape" transform="translate(202.762,54.5471) rotate(90)">
				<title>Sheet.323</title>
				<path d="M0 158.79 L7.04 158.79" class="st1"/>
			</g>
			<g id="group324-84" transform="translate(41.6224,-73.0089)" v:mID="324" v:groupContext="group">
				<title>Sheet.324</title>
				<g id="shape325-85" v:mID="325" v:groupContext="shape" transform="translate(-132.122,70.7097) rotate(-56.3099)">
					<title>Sheet.325</title>
					<path d="M0 158.79 L4.23 158.79" class="st1"/>
				</g>
				<g id="shape326-88" v:mID="326" v:groupContext="shape"
						transform="translate(136.818,70.7097) rotate(56.3099) scale(-1,1)">
					<title>Sheet.326</title>
					<path d="M0 158.79 L4.23 158.79" class="st1"/>
				</g>
				<g id="shape327-91" v:mID="327" v:groupContext="shape" transform="translate(0.146752,0)">
					<title>Sheet.327</title>
					<path d="M0 158.79 L4.4 158.79" class="st1"/>
				</g>
				<g id="shape328-94" v:mID="328" v:groupContext="shape" transform="translate(0.146752,-3.52204)">
					<title>Sheet.328</title>
					<path d="M0 158.79 L4.4 158.79" class="st1"/>
				</g>
			</g>
			<g id="shape329-97" v:mID="329" v:groupContext="shape" transform="translate(39.5679,-83.575)">
				<title>Sheet.329</title>
				<path d="M0 158.79 L4.4 158.79" class="st1"/>
			</g>
			<g id="shape330-100" v:mID="330" v:groupContext="shape" transform="translate(202.762,75.2161) rotate(90)">
				<title>Sheet.330</title>
				<path d="M0 158.79 L7.04 158.79" class="st1"/>
			</g>
			<g id="shape331-103" v:mID="331" v:groupContext="shape" transform="translate(39.5679,-65.9648)">
				<title>Sheet.331</title>
				<path d="M0 158.79 L4.4 158.79" class="st1"/>
			</g>
			<g id="shape332-106" v:mID="332" v:groupContext="shape" transform="translate(202.762,85.7822) rotate(90)">
				<title>Sheet.332</title>
				<path d="M0 158.79 L7.04 158.79" class="st1"/>
			</g>
			<g id="shape333-109" v:mID="333" v:groupContext="shape" transform="translate(39.6,-90.18) scale(-1,1)">
				<title>Sheet.333</title>
				<path d="M1.89 158.79 L2.25 158.79 L25.2 158.79" class="st4"/>
			</g>
			<g id="shape334-114" v:mID="334" v:groupContext="shape" transform="translate(38.9213,-57.6)">
				<title>Sheet.334</title>
				<path d="M0 158.79 L25.88 158.79" class="st1"/>
			</g>
			<g id="group335-117" transform="translate(-9.99201E-15,-95.76)" v:mID="335" v:groupContext="group">
				<title>Sheet.335</title>
				<g id="group336-118" transform="translate(0,-21.6)" v:mID="336" v:groupContext="group">
					<title>Sheet.336</title>
					<g id="shape337-119" v:mID="337" v:groupContext="shape" transform="translate(38.1616,2.54456) rotate(14.0362)">
						<title>Sheet.337</title>
						<path d="M-0 157.34 A14.4 3.6 -14.04 0 0 14.84 157.34" class="st1"/>
					</g>
					<g id="shape338-122" v:mID="338" v:groupContext="shape"
							transform="translate(38.1616,307.838) rotate(-14.0362) scale(1,-1)">
						<title>Sheet.338</title>
						<path d="M-0 157.34 A14.4 3.6 -14.04 0 0 14.84 157.34" class="st1"/>
					</g>
				</g>
				<g id="group339-125" transform="translate(0,-14.4)" v:mID="339" v:groupContext="group">
					<title>Sheet.339</title>
					<g id="shape340-126" v:mID="340" v:groupContext="shape" transform="translate(38.1616,2.54456) rotate(14.0362)">
						<title>Sheet.340</title>
						<path d="M-0 157.34 A14.4 3.6 -14.04 0 0 14.84 157.34" class="st1"/>
					</g>
					<g id="shape341-129" v:mID="341" v:groupContext="shape"
							transform="translate(38.1616,307.838) rotate(-14.0362) scale(1,-1)">
						<title>Sheet.341</title>
						<path d="M-0 157.34 A14.4 3.6 -14.04 0 0 14.84 157.34" class="st1"/>
					</g>
				</g>
				<g id="group342-132" transform="translate(0,-7.2)" v:mID="342" v:groupContext="group">
					<title>Sheet.342</title>
					<g id="shape343-133" v:mID="343" v:groupContext="shape" transform="translate(38.1616,2.54456) rotate(14.0362)">
						<title>Sheet.343</title>
						<path d="M-0 157.34 A14.4 3.6 -14.04 0 0 14.84 157.34" class="st1"/>
					</g>
					<g id="shape344-136" v:mID="344" v:groupContext="shape"
							transform="translate(38.1616,307.838) rotate(-14.0362) scale(1,-1)">
						<title>Sheet.344</title>
						<path d="M-0 157.34 A14.4 3.6 -14.04 0 0 14.84 157.34" class="st1"/>
					</g>
				</g>
				<g id="group345-139" v:mID="345" v:groupContext="group">
					<title>Sheet.345</title>
					<g id="shape346-140" v:mID="346" v:groupContext="shape" transform="translate(38.1616,2.54456) rotate(14.0362)">
						<title>Sheet.346</title>
						<path d="M-0 157.34 A14.4 3.6 -14.04 0 0 14.84 157.34" class="st1"/>
					</g>
					<g id="shape347-143" v:mID="347" v:groupContext="shape"
							transform="translate(38.1616,307.838) rotate(-14.0362) scale(1,-1)">
						<title>Sheet.347</title>
						<path d="M-0 157.34 A14.4 3.6 -14.04 0 0 14.84 157.34" class="st1"/>
					</g>
				</g>
			</g>
			<g id="shape348-146" v:mID="348" v:groupContext="shape" transform="translate(-144.391,68.6112) rotate(-90)">
				<title>Sheet.348</title>
				<path d="M0 158.79 L5.72 158.79" class="st1"/>
			</g>
			<g id="shape349-149" v:mID="349" v:groupContext="shape" transform="translate(-144.391,34.2312) rotate(-90)">
				<title>Sheet.349</title>
				<path d="M0 158.79 L7.2 158.79" class="st1"/>
			</g>
			<g id="shape350-152" v:mID="350" v:groupContext="shape" transform="translate(93.6,-28.8)">
				<title>Sheet.350</title>
				<path d="M0 158.79 L10.98 158.79" class="st1"/>
			</g>
			<g id="shape351-155" v:mID="351" v:groupContext="shape" transform="translate(-119.15,115.591) rotate(-90)">
				<title>Sheet.351</title>
				<path d="M0 158.79 L14.03 158.79" class="st1"/>
			</g>
			<g id="shape352-158" v:mID="352" v:groupContext="shape" transform="translate(-119.191,144.391) rotate(-90)">
				<title>Sheet.352</title>
				<path d="M0 158.79 L10.43 158.79" class="st1"/>
			</g>
			<g id="group353-161" transform="translate(31.68,-25.2)" v:mID="353" v:groupContext="group">
				<title>Sheet.353</title>
				<g id="shape354-162" v:mID="354" v:groupContext="shape" transform="translate(49.7007,-12.4048) rotate(15.2551)">
					<title>Sheet.354</title>
					<path d="M0 158.79 L8.21 158.79" class="st1"/>
				</g>
				<g id="shape355-165" v:mID="355" v:groupContext="shape"
						transform="translate(-12.5654,-13.2787) rotate(-10.3048) scale(-1,1)">
					<title>Sheet.355</title>
					<path d="M0 158.79 L8.05 158.79" class="st1"/>
				</g>
				<g id="shape356-168" v:mID="356" v:groupContext="shape"
						transform="translate(-20.4854,-11.8387) rotate(-10.3048) scale(-1,1)">
					<title>Sheet.356</title>
					<path d="M0 158.79 L8.05 158.79" class="st1"/>
				</g>
				<g id="shape357-171" v:mID="357" v:groupContext="shape" transform="translate(41.7807,-7.36481) rotate(15.2551)">
					<title>Sheet.357</title>
					<path d="M0 158.79 L8.21 158.79" class="st1"/>
				</g>
				<g id="shape358-174" v:mID="358" v:groupContext="shape" transform="translate(49.7007,-5.20481) rotate(15.2551)">
					<title>Sheet.358</title>
					<path d="M0 158.79 L8.21 158.79" class="st1"/>
				</g>
				<g id="shape359-177" v:mID="359" v:groupContext="shape"
						transform="translate(-12.5654,-6.07868) rotate(-10.3048) scale(-1,1)">
					<title>Sheet.359</title>
					<path d="M0 158.79 L8.05 158.79" class="st1"/>
				</g>
				<g id="shape360-180" v:mID="360" v:groupContext="shape"
						transform="translate(-20.4854,-4.63868) rotate(-10.3048) scale(-1,1)">
					<title>Sheet.360</title>
					<path d="M0 158.79 L8.05 158.79" class="st1"/>
				</g>
				<g id="shape361-183" v:mID="361" v:groupContext="shape" transform="translate(41.7807,-0.164807) rotate(15.2551)">
					<title>Sheet.361</title>
					<path d="M0 158.79 L8.21 158.79" class="st1"/>
				</g>
				<g id="shape362-186" v:mID="362" v:groupContext="shape" transform="translate(49.7007,1.99519) rotate(15.2551)">
					<title>Sheet.362</title>
					<path d="M0 158.79 L8.21 158.79" class="st1"/>
				</g>
				<g id="shape363-189" v:mID="363" v:groupContext="shape"
						transform="translate(-12.5654,1.12132) rotate(-10.3048) scale(-1,1)">
					<title>Sheet.363</title>
					<path d="M0 158.79 L8.05 158.79" class="st1"/>
				</g>
			</g>
			<g id="group364-192" transform="translate(223.591,93.2712) rotate(90)" v:mID="364" v:groupContext="group">
				<title>Sheet.364</title>
				<g id="shape365-193" v:mID="365" v:groupContext="shape" transform="translate(49.7007,-12.4048) rotate(15.2551)">
					<title>Sheet.365</title>
					<path d="M0 158.79 L8.21 158.79" class="st1"/>
				</g>
				<g id="shape366-196" v:mID="366" v:groupContext="shape"
						transform="translate(-12.5654,-13.2787) rotate(-10.3048) scale(-1,1)">
					<title>Sheet.366</title>
					<path d="M0 158.79 L8.05 158.79" class="st1"/>
				</g>
				<g id="shape367-199" v:mID="367" v:groupContext="shape"
						transform="translate(-20.4854,-11.8387) rotate(-10.3048) scale(-1,1)">
					<title>Sheet.367</title>
					<path d="M0 158.79 L8.05 158.79" class="st1"/>
				</g>
				<g id="shape368-202" v:mID="368" v:groupContext="shape" transform="translate(41.7807,-7.36481) rotate(15.2551)">
					<title>Sheet.368</title>
					<path d="M0 158.79 L8.21 158.79" class="st1"/>
				</g>
				<g id="shape369-205" v:mID="369" v:groupContext="shape" transform="translate(49.7007,-5.20481) rotate(15.2551)">
					<title>Sheet.369</title>
					<path d="M0 158.79 L8.21 158.79" class="st1"/>
				</g>
				<g id="shape370-208" v:mID="370" v:groupContext="shape"
						transform="translate(-12.5654,-6.07868) rotate(-10.3048) scale(-1,1)">
					<title>Sheet.370</title>
					<path d="M0 158.79 L8.05 158.79" class="st1"/>
				</g>
				<g id="shape371-211" v:mID="371" v:groupContext="shape"
						transform="translate(-20.4854,-4.63868) rotate(-10.3048) scale(-1,1)">
					<title>Sheet.371</title>
					<path d="M0 158.79 L8.05 158.79" class="st1"/>
				</g>
				<g id="shape372-214" v:mID="372" v:groupContext="shape" transform="translate(41.7807,-0.164807) rotate(15.2551)">
					<title>Sheet.372</title>
					<path d="M0 158.79 L8.21 158.79" class="st1"/>
				</g>
				<g id="shape373-217" v:mID="373" v:groupContext="shape" transform="translate(49.7007,1.99519) rotate(15.2551)">
					<title>Sheet.373</title>
					<path d="M0 158.79 L8.21 158.79" class="st1"/>
				</g>
				<g id="shape374-220" v:mID="374" v:groupContext="shape"
						transform="translate(-12.5654,1.12132) rotate(-10.3048) scale(-1,1)">
					<title>Sheet.374</title>
					<path d="M0 158.79 L8.05 158.79" class="st1"/>
				</g>
			</g>
			<g id="shape375-223" v:mID="375" v:groupContext="shape" transform="translate(82.8,-57.6)">
				<title>Sheet.375</title>
				<path d="M0 158.79 L46.8 158.79" class="st1"/>
			</g>
			<g id="shape376-226" v:mID="376" v:groupContext="shape" transform="translate(-65.1912,101.191) rotate(-90)">
				<title>Sheet.376</title>
				<path d="M1.89 158.79 L2.25 158.79 L10.43 158.79" class="st4"/>
			</g>
			<g id="group377-231" transform="translate(85.68,-68.4)" v:mID="377" v:groupContext="group">
				<title>Sheet.377</title>
				<g id="shape378-232" v:mID="378" v:groupContext="shape" transform="translate(49.7007,-12.4048) rotate(15.2551)">
					<title>Sheet.378</title>
					<path d="M0 158.79 L8.21 158.79" class="st1"/>
				</g>
				<g id="shape379-235" v:mID="379" v:groupContext="shape"
						transform="translate(-12.5654,-13.2787) rotate(-10.3048) scale(-1,1)">
					<title>Sheet.379</title>
					<path d="M0 158.79 L8.05 158.79" class="st1"/>
				</g>
				<g id="shape380-238" v:mID="380" v:groupContext="shape"
						transform="translate(-20.4854,-11.8387) rotate(-10.3048) scale(-1,1)">
					<title>Sheet.380</title>
					<path d="M0 158.79 L8.05 158.79" class="st1"/>
				</g>
				<g id="shape381-241" v:mID="381" v:groupContext="shape" transform="translate(41.7807,-7.36481) rotate(15.2551)">
					<title>Sheet.381</title>
					<path d="M0 158.79 L8.21 158.79" class="st1"/>
				</g>
				<g id="shape382-244" v:mID="382" v:groupContext="shape" transform="translate(49.7007,-5.20481) rotate(15.2551)">
					<title>Sheet.382</title>
					<path d="M0 158.79 L8.21 158.79" class="st1"/>
				</g>
				<g id="shape383-247" v:mID="383" v:groupContext="shape"
						transform="translate(-12.5654,-6.07868) rotate(-10.3048) scale(-1,1)">
					<title>Sheet.383</title>
					<path d="M0 158.79 L8.05 158.79" class="st1"/>
				</g>
				<g id="shape384-250" v:mID="384" v:groupContext="shape"
						transform="translate(-20.4854,-4.63868) rotate(-10.3048) scale(-1,1)">
					<title>Sheet.384</title>
					<path d="M0 158.79 L8.05 158.79" class="st1"/>
				</g>
				<g id="shape385-253" v:mID="385" v:groupContext="shape" transform="translate(41.7807,-0.164807) rotate(15.2551)">
					<title>Sheet.385</title>
					<path d="M0 158.79 L8.21 158.79" class="st1"/>
				</g>
				<g id="shape386-256" v:mID="386" v:groupContext="shape" transform="translate(49.7007,1.99519) rotate(15.2551)">
					<title>Sheet.386</title>
					<path d="M0 158.79 L8.21 158.79" class="st1"/>
				</g>
				<g id="shape387-259" v:mID="387" v:groupContext="shape"
						transform="translate(-12.5654,1.12132) rotate(-10.3048) scale(-1,1)">
					<title>Sheet.387</title>
					<path d="M0 158.79 L8.05 158.79" class="st1"/>
				</g>
			</g>
			<g id="shape388-262" v:mID="388" v:groupContext="shape" transform="translate(-65.1912,72.0312) rotate(-90)">
				<title>Sheet.388</title>
				<path d="M0 158.79 L13.1 158.79" class="st5"/>
			</g>
			<g id="group389-268" transform="translate(263.535,125.311) rotate(90)" v:mID="389" v:groupContext="group">
				<title>Sheet.389</title>
				<g id="shape390-269" v:mID="390" v:groupContext="shape" transform="translate(46.4607,-5.04117) rotate(15.2551)">
					<title>Sheet.390</title>
					<path d="M0 158.79 L4.85 158.79" class="st1"/>
				</g>
				<g id="shape391-272" v:mID="391" v:groupContext="shape"
						transform="translate(-19.0454,-6.79868) rotate(-10.3048) scale(-1,1)">
					<title>Sheet.391</title>
					<path d="M0 158.79 L4.76 158.79" class="st1"/>
				</g>
				<g id="shape392-275" v:mID="392" v:groupContext="shape"
						transform="translate(-23.7254,-5.94778) rotate(-10.3048) scale(-1,1)">
					<title>Sheet.392</title>
					<path d="M0 158.79 L4.76 158.79" class="st1"/>
				</g>
				<g id="shape393-278" v:mID="393" v:groupContext="shape" transform="translate(41.7807,-2.06299) rotate(15.2551)">
					<title>Sheet.393</title>
					<path d="M0 158.79 L4.85 158.79" class="st1"/>
				</g>
				<g id="shape394-281" v:mID="394" v:groupContext="shape" transform="translate(46.4607,-0.786625) rotate(15.2551)">
					<title>Sheet.394</title>
					<path d="M0 158.79 L4.85 158.79" class="st1"/>
				</g>
				<g id="shape395-284" v:mID="395" v:groupContext="shape"
						transform="translate(-19.0454,-2.54414) rotate(-10.3048) scale(-1,1)">
					<title>Sheet.395</title>
					<path d="M0 158.79 L4.76 158.79" class="st1"/>
				</g>
				<g id="shape396-287" v:mID="396" v:groupContext="shape"
						transform="translate(-23.7254,-1.69323) rotate(-10.3048) scale(-1,1)">
					<title>Sheet.396</title>
					<path d="M0 158.79 L4.76 158.79" class="st1"/>
				</g>
				<g id="shape397-290" v:mID="397" v:groupContext="shape" transform="translate(41.7807,2.19156) rotate(15.2551)">
					<title>Sheet.397</title>
					<path d="M0 158.79 L4.85 158.79" class="st1"/>
				</g>
				<g id="shape398-293" v:mID="398" v:groupContext="shape" transform="translate(46.4607,3.46792) rotate(15.2551)">
					<title>Sheet.398</title>
					<path d="M0 158.79 L4.85 158.79" class="st1"/>
				</g>
				<g id="shape399-296" v:mID="399" v:groupContext="shape"
						transform="translate(-19.0454,1.71041) rotate(-10.3048) scale(-1,1)">
					<title>Sheet.399</title>
					<path d="M0 158.79 L4.76 158.79" class="st1"/>
				</g>
			</g>
			<g id="shape400-299" v:mID="400" v:groupContext="shape" transform="translate(3.6,-32.4)">
				<title>Sheet.400</title>
				<desc>RShunt</desc>
				<v:textBlock v:margins="rect(1,1,1,1)" v:verticalAlign="0"/>
				<v:textRect cx="12.6" cy="153.391" width="25.21" height="10.8"/>
				<rect x="0" y="147.991" width="25.2" height="10.8" class="st6"/>
				<text x="1.13" y="157.99" class="st7" v:langID="1033"><v:paragraph v:horizAlign="1"/><v:tabList/>R<tspan
							dy="-0.279em" class="st8" v:baseFontSize="10">Shunt</tspan></text>			</g>
			<g id="shape401-303" v:mID="401" v:groupContext="shape" transform="translate(97.2,-72)">
				<title>Sheet.401</title>
				<desc>R1</desc>
				<v:textBlock v:margins="rect(1,1,1,1)" v:verticalAlign="0"/>
				<v:textRect cx="12.6" cy="153.391" width="25.21" height="10.8"/>
				<rect x="0" y="147.991" width="25.2" height="10.8" class="st6"/>
				<text x="8.14" y="157.09" class="st9" v:langID="1033"><v:paragraph v:horizAlign="1"/><v:tabList/>R<tspan
							dy="-0.279em" class="st10" v:baseFontSize="9">1</tspan></text>			</g>
			<g id="shape402-307" v:mID="402" v:groupContext="shape" transform="translate(63.36,-37.8)">
				<title>Sheet.402</title>
				<desc>R2</desc>
				<v:textBlock v:margins="rect(1,1,1,1)" v:verticalAlign="0"/>
				<v:textRect cx="12.6" cy="153.391" width="25.21" height="10.8"/>
				<rect x="0" y="147.991" width="25.2" height="10.8" class="st6"/>
				<text x="8.14" y="157.09" class="st9" v:langID="1033"><v:paragraph v:horizAlign="1"/><v:tabList/>R<tspan
							dy="-0.279em" class="st10" v:baseFontSize="9">2</tspan></text>			</g>
			<g id="shape403-311" v:mID="403" v:groupContext="shape" transform="translate(33.84,-14.4)">
				<title>Sheet.403</title>
				<path d="M0 158.79 L12.24 158.79" class="st1"/>
			</g>
			<g id="shape404-314" v:mID="404" v:groupContext="shape" transform="translate(36,-12.24)">
				<title>Sheet.404</title>
				<path d="M0 158.79 L7.2 158.79" class="st1"/>
			</g>
			<g id="shape405-317" v:mID="405" v:groupContext="shape" transform="translate(38.52,-10.08)">
				<title>Sheet.405</title>
				<path d="M0 158.79 L2.07 158.79" class="st1"/>
			</g>
			<g id="group406-320" transform="translate(303.413,125.311) rotate(90)" v:mID="406" v:groupContext="group">
				<title>Sheet.406</title>
				<g id="shape407-321" v:mID="407" v:groupContext="shape" transform="translate(46.4607,-5.04117) rotate(15.2551)">
					<title>Sheet.407</title>
					<path d="M0 158.79 L4.85 158.79" class="st1"/>
				</g>
				<g id="shape408-324" v:mID="408" v:groupContext="shape"
						transform="translate(-19.0454,-6.79868) rotate(-10.3048) scale(-1,1)">
					<title>Sheet.408</title>
					<path d="M0 158.79 L4.76 158.79" class="st1"/>
				</g>
				<g id="shape409-327" v:mID="409" v:groupContext="shape"
						transform="translate(-23.7254,-5.94778) rotate(-10.3048) scale(-1,1)">
					<title>Sheet.409</title>
					<path d="M0 158.79 L4.76 158.79" class="st1"/>
				</g>
				<g id="shape410-330" v:mID="410" v:groupContext="shape" transform="translate(41.7807,-2.06299) rotate(15.2551)">
					<title>Sheet.410</title>
					<path d="M0 158.79 L4.85 158.79" class="st1"/>
				</g>
				<g id="shape411-333" v:mID="411" v:groupContext="shape" transform="translate(46.4607,-0.786625) rotate(15.2551)">
					<title>Sheet.411</title>
					<path d="M0 158.79 L4.85 158.79" class="st1"/>
				</g>
				<g id="shape412-336" v:mID="412" v:groupContext="shape"
						transform="translate(-19.0454,-2.54414) rotate(-10.3048) scale(-1,1)">
					<title>Sheet.412</title>
					<path d="M0 158.79 L4.76 158.79" class="st1"/>
				</g>
				<g id="shape413-339" v:mID="413" v:groupContext="shape"
						transform="translate(-23.7254,-1.69323) rotate(-10.3048) scale(-1,1)">
					<title>Sheet.413</title>
					<path d="M0 158.79 L4.76 158.79" class="st1"/>
				</g>
				<g id="shape414-342" v:mID="414" v:groupContext="shape" transform="translate(41.7807,2.19156) rotate(15.2551)">
					<title>Sheet.414</title>
					<path d="M0 158.79 L4.85 158.79" class="st1"/>
				</g>
				<g id="shape415-345" v:mID="415" v:groupContext="shape" transform="translate(46.4607,3.46792) rotate(15.2551)">
					<title>Sheet.415</title>
					<path d="M0 158.79 L4.85 158.79" class="st1"/>
				</g>
				<g id="shape416-348" v:mID="416" v:groupContext="shape"
						transform="translate(-19.0454,1.71041) rotate(-10.3048) scale(-1,1)">
					<title>Sheet.416</title>
					<path d="M0 158.79 L4.76 158.79" class="st1"/>
				</g>
			</g>
			<g id="group417-351" transform="translate(129.78,-36)" v:mID="417" v:groupContext="group">
				<title>Sheet.417</title>
				<g id="shape418-352" v:mID="418" v:groupContext="shape" transform="translate(-158.791,158.791) rotate(-90)">
					<title>Sheet.418</title>
					<path d="M0 158.79 L28.8 158.79" class="st1"/>
				</g>
				<g id="shape419-355" v:mID="419" v:groupContext="shape" transform="translate(-42.2136,286.418) rotate(-153.435)">
					<title>Sheet.419</title>
					<path d="M0 158.79 L32.2 158.79" class="st1"/>
				</g>
				<g id="shape420-358" v:mID="420" v:groupContext="shape"
						transform="translate(71.0136,300.818) rotate(-26.5651) scale(1,-1)">
					<title>Sheet.420</title>
					<path d="M0 158.79 L32.2 158.79" class="st1"/>
				</g>
				<g id="shape421-361" v:mID="421" v:groupContext="shape" transform="translate(6.48,310.382) rotate(180)">
					<title>Sheet.421</title>
					<path d="M0 158.79 L4.32 158.79" class="st11"/>
				</g>
				<g id="group422-364" transform="translate(2.16,-19.44)" v:mID="422" v:groupContext="group">
					<title>Sheet.422</title>
					<g id="shape423-365" v:mID="423" v:groupContext="shape" transform="translate(-156.631,158.791) rotate(-90)">
						<title>Sheet.423</title>
						<path d="M0 158.79 L4.32 158.79" class="st11"/>
					</g>
					<g id="shape424-368" v:mID="424" v:groupContext="shape" transform="translate(4.32,315.422) rotate(180)">
						<title>Sheet.424</title>
						<path d="M0 158.79 L4.32 158.79" class="st11"/>
					</g>
				</g>
			</g>
			<g id="shape425-371" v:mID="425" v:groupContext="shape" transform="translate(158.4,-50.4)">
				<title>Sheet.425</title>
				<path d="M0 158.79 L25.38 158.79" class="st1"/>
			</g>
			<g id="shape426-374" v:mID="426" v:groupContext="shape" transform="translate(320.791,108.751) rotate(90)">
				<title>Sheet.426</title>
				<path d="M1.89 158.79 L2.25 158.79 L21.24 158.79" class="st4"/>
			</g>
			<g id="shape427-379" v:mID="427" v:groupContext="shape" transform="translate(-65.1912,140.419) rotate(-90)">
				<title>Sheet.427</title>
				<path d="M0 158.79 L10.43 158.79" class="st1"/>
			</g>
			<g id="shape428-382" v:mID="428" v:groupContext="shape" transform="translate(87.84,-18.3724)">
				<title>Sheet.428</title>
				<path d="M0 158.79 L12.24 158.79" class="st1"/>
			</g>
			<g id="shape429-385" v:mID="429" v:groupContext="shape" transform="translate(90,-16.2124)">
				<title>Sheet.429</title>
				<path d="M0 158.79 L7.2 158.79" class="st1"/>
			</g>
			<g id="shape430-388" v:mID="430" v:groupContext="shape" transform="translate(92.52,-14.0524)">
				<title>Sheet.430</title>
				<path d="M0 158.79 L2.07 158.79" class="st1"/>
			</g>
			<g id="shape431-391" v:mID="431" v:groupContext="shape" transform="translate(115.38,-28.8)">
				<title>Sheet.431</title>
				<path d="M0 158.79 L29.16 158.79" class="st1"/>
			</g>
			<g id="shape432-394" v:mID="432" v:groupContext="shape" transform="translate(155.34,-28.8)">
				<title>Sheet.432</title>
				<path d="M0 158.79 L6.66 158.79" class="st1"/>
			</g>
			<g id="shape433-397" v:mID="433" v:groupContext="shape" transform="translate(180,-36)">
				<title>Sheet.433</title>
				<desc>ADC</desc>
				<v:textBlock v:margins="rect(1,1,1,1)"/>
				<v:textRect cx="15.84" cy="144.391" width="31.68" height="28.8"/>
				<rect x="0" y="129.991" width="31.68" height="28.8" class="st12"/>
				<text x="6.09" y="147.09" class="st13" v:langID="1033"><v:paragraph v:horizAlign="1"/><v:tabList/>ADC</text>			</g>
			<g id="shape434-400" v:mID="434" v:groupContext="shape" transform="translate(122.58,-43.2)">
				<title>Sheet.434</title>
				<path d="M0 158.79 L6.83 158.79" class="st1"/>
			</g>
			<g id="shape435-403" v:mID="435" v:groupContext="shape" transform="translate(-36.2112,129.991) rotate(-90)">
				<title>Sheet.435</title>
				<path d="M1.89 158.79 L2.25 158.79 L14.4 158.79" class="st4"/>
			</g>
			<g id="shape436-408" v:mID="436" v:groupContext="shape" transform="translate(93.6,-99)">
				<title>Sheet.436</title>
				<desc>+VDD</desc>
				<v:textBlock v:margins="rect(1,1,1,1)" v:verticalAlign="0"/>
				<v:textRect cx="12.6" cy="153.391" width="25.21" height="10.8"/>
				<rect x="0" y="147.991" width="25.2" height="10.8" class="st6"/>
				<text x="2.81" y="157.09" class="st9" v:langID="1033"><v:paragraph v:horizAlign="1"/><v:tabList/>+V<tspan
							dy="-0.279em" class="st10" v:baseFontSize="9">DD</tspan></text>			</g>
			<g id="shape437-412" v:mID="437" v:groupContext="shape" transform="translate(135,-57.6)">
				<title>Sheet.437</title>
				<desc>OP AMP</desc>
				<v:textBlock v:margins="rect(1,1,1,1)" v:verticalAlign="0"/>
				<v:textRect cx="20.7" cy="153.391" width="41.41" height="10.8"/>
				<rect x="0" y="147.991" width="41.4" height="10.8" class="st6"/>
				<text x="4.92" y="156.19" class="st14" v:langID="1033"><v:paragraph v:horizAlign="1"/><v:tabList/>OP AMP</text>			</g>
			<g id="shape438-415" v:mID="438" v:groupContext="shape" transform="translate(99,-12.6)">
				<title>Sheet.438</title>
				<desc>R4</desc>
				<v:textBlock v:margins="rect(1,1,1,1)" v:verticalAlign="0"/>
				<v:textRect cx="12.6" cy="153.391" width="25.21" height="10.8"/>
				<rect x="0" y="147.991" width="25.2" height="10.8" class="st6"/>
				<text x="8.14" y="157.09" class="st9" v:langID="1033"><v:paragraph v:horizAlign="1"/><v:tabList/>R<tspan
							dy="-0.279em" class="st10" v:baseFontSize="9">4</tspan></text>			</g>
			<g id="shape439-419" v:mID="439" v:groupContext="shape" transform="translate(136.8,-12.6)">
				<title>Sheet.439</title>
				<desc>R5</desc>
				<v:textBlock v:margins="rect(1,1,1,1)" v:verticalAlign="0"/>
				<v:textRect cx="12.6" cy="153.391" width="25.21" height="10.8"/>
				<rect x="0" y="147.991" width="25.2" height="10.8" class="st6"/>
				<text x="8.14" y="157.09" class="st9" v:langID="1033"><v:paragraph v:horizAlign="1"/><v:tabList/>R<tspan
							dy="-0.279em" class="st10" v:baseFontSize="9">5</tspan></text>			</g>
			<g id="shape440-423" v:mID="440" v:groupContext="shape" transform="translate(-144.391,32.0712) rotate(-90)">
				<title>Sheet.440</title>
				<path d="M8.64 158.79 L9 158.79 L19.8 158.79" class="st15"/>
			</g>
			<g id="shape441-429" v:mID="441" v:groupContext="shape" transform="translate(12.24,-128.88)">
				<title>Sheet.441</title>
				<desc>iA</desc>
				<v:textBlock v:margins="rect(1,1,1,1)" v:verticalAlign="0"/>
				<v:textRect cx="12.6" cy="153.391" width="25.21" height="10.8"/>
				<rect x="0" y="147.991" width="25.2" height="10.8" class="st6"/>
				<text x="9.04" y="157.99" class="st7" v:langID="1033"><v:paragraph v:horizAlign="1"/><v:tabList/>i<tspan
							dy="-0.279em" class="st8" v:baseFontSize="10">A</tspan></text>			</g>
			<g id="shape442-433" v:mID="442" v:groupContext="shape" transform="translate(54,-10.8)">
				<title>Sheet.442</title>
				<path d="M0 158.79 L118.8 158.79 L118.8 79.59 L0 79.59 L0 158.79 Z" class="st16"/>
			</g>
			<g id="shape443-435" v:mID="443" v:groupContext="shape" transform="translate(95.4,-2.84217E-14)">
				<title>Sheet.443</title>
				<desc>GAOP</desc>
				<v:textBlock v:margins="rect(1,1,1,1)" v:verticalAlign="0"/>
				<v:textRect cx="12.6" cy="153.391" width="25.21" height="10.8"/>
				<rect x="0" y="147.991" width="25.2" height="10.8" class="st6"/>
				<text x="2.49" y="157.99" class="st7" v:langID="1033"><v:paragraph v:horizAlign="1"/><v:tabList/>G<tspan
							dy="-0.279em" class="st8" v:baseFontSize="10">AOP</tspan></text>			</g>
		</g>
	</g>
</svg>
