<?xml version="1.0" encoding="UTF-8" standalone="no"?>
<!DOCTYPE svg PUBLIC "-//W3C//DTD SVG 1.1//EN" "http://www.w3.org/Graphics/SVG/1.1/DTD/svg11.dtd">
<!-- Generated by Microsoft Visio, SVG Export current_sensing_opamp_comp_extfilter.svg Page-1 -->
<svg xmlns="http://www.w3.org/2000/svg" xmlns:xlink="http://www.w3.org/1999/xlink" xmlns:ev="http://www.w3.org/2001/xml-events"
		xmlns:v="http://schemas.microsoft.com/visio/2003/SVGExtensions/" width="4.46333in" height="3.17509in"
		viewBox="0 0 321.36 228.607" xml:space="preserve" color-interpolation-filters="sRGB" class="st28">
	<v:documentProperties v:langID="1033" v:metric="true" v:viewMarkup="false"/>

	<style type="text/css">
	<![CDATA[
		.st1 {fill:#eef2f7;stroke:#0070c0;stroke-dasharray:0.72,1.44;stroke-linecap:round;stroke-linejoin:round;stroke-width:0.72}
		.st2 {stroke:#595959;stroke-linecap:round;stroke-linejoin:round;stroke-width:1.2}
		.st3 {marker-end:url(#mrkr10-67);stroke:#595959;stroke-linecap:round;stroke-linejoin:round;stroke-width:1.2}
		.st4 {fill:#595959;fill-opacity:1;stroke:#595959;stroke-opacity:1;stroke-width:0.4}
		.st5 {marker-start:url(#mrkr10-73);stroke:#595959;stroke-linecap:round;stroke-linejoin:round;stroke-width:1.2}
		.st6 {marker-end:url(#mrkr5-269);stroke:#595959;stroke-linecap:round;stroke-linejoin:round;stroke-width:1.2}
		.st7 {fill:none;stroke:none;stroke-linecap:round;stroke-linejoin:round;stroke-width:0.72}
		.st8 {fill:#595959;font-family:Times New Roman;font-size:0.833336em;font-style:italic;font-weight:bold}
		.st9 {baseline-shift:-32.4947%;font-size:0.649894em}
		.st10 {fill:#595959;font-family:Times New Roman;font-size:0.75em;font-style:italic;font-weight:bold}
		.st11 {baseline-shift:-32.4951%;font-size:0.649902em}
		.st12 {stroke:#595959;stroke-linecap:round;stroke-linejoin:round;stroke-width:0.72}
		.st13 {fill:none;stroke:#595959;stroke-linecap:round;stroke-linejoin:round;stroke-width:1.2}
		.st14 {fill:#595959;font-family:Arial;font-size:0.75em;font-weight:bold}
		.st15 {fill:#595959;font-family:Arial;font-size:0.666664em;font-weight:bold}
		.st16 {marker-start:url(#mrkr13-422);stroke:#595959;stroke-linecap:round;stroke-linejoin:round;stroke-width:1.2}
		.st17 {fill:none;stroke:#808080;stroke-dasharray:0.72,1.44;stroke-linecap:round;stroke-linejoin:round;stroke-width:0.72}
		.st18 {fill:none;stroke:none;stroke-linecap:round;stroke-linejoin:round;stroke-width:1.2}
		.st19 {fill:#595959;font-family:Arial;font-size:0.666664em}
		.st20 {font-size:1em}
		.st21 {marker-end:url(#mrkr13-511);stroke:#00b0f0;stroke-linecap:round;stroke-linejoin:round;stroke-width:1.2}
		.st22 {fill:#00b0f0;fill-opacity:1;stroke:#00b0f0;stroke-opacity:1;stroke-width:0.4}
		.st23 {fill:#00b0f0;font-family:Times New Roman;font-size:0.833336em;font-style:italic;font-weight:bold}
		.st24 {marker-end:url(#mrkr5-523);stroke:#595959;stroke-linecap:round;stroke-linejoin:round;stroke-width:0.24}
		.st25 {fill:#595959;fill-opacity:1;stroke:#595959;stroke-opacity:1;stroke-width:0.11764705882353}
		.st26 {fill:#595959;font-family:Times New Roman;font-size:0.666664em;font-style:italic;font-weight:bold}
		.st27 {stroke:#595959;stroke-linecap:round;stroke-linejoin:round;stroke-width:2.16}
		.st28 {fill:none;fill-rule:evenodd;font-size:12px;overflow:visible;stroke-linecap:square;stroke-miterlimit:3}
	]]>
	</style>

	<defs id="Markers">
		<g id="lend10">
			<path
					d="M 0 0.75 C -0.414214 0.75 -0.75 0.414214 -0.75 0 -0.75 -0.414214 -0.414214 -0.75 0 -0.75 0.414214 -0.75 0.75 -0.414214 0.75 0 0.75 0.414214 0.414214 0.75 0 0.75 Z "
					style="stroke:none"/>
		</g>
		<marker id="mrkr10-67" class="st4" v:arrowType="10" v:arrowSize="1" v:setback="1.875" refX="-1.875" orient="auto"
				markerUnits="strokeWidth" overflow="visible">
			<use xlink:href="#lend10" transform="scale(-2.5,-2.5) "/>
		</marker>
		<marker id="mrkr10-73" class="st4" v:arrowType="10" v:arrowSize="1" v:setback="1.575" refX="1.575" orient="auto"
				markerUnits="strokeWidth" overflow="visible">
			<use xlink:href="#lend10" transform="scale(2.5) "/>
		</marker>
		<g id="lend5">
			<path d="M 2 1 L 0 0 L 1.98117 -0.993387 C 1.67173 -0.364515 1.67301 0.372641 1.98465 1.00043 " style="stroke:none"/>
		</g>
		<marker id="mrkr5-269" class="st4" v:arrowType="5" v:arrowSize="1" v:setback="4.375" refX="-4.375" orient="auto"
				markerUnits="strokeWidth" overflow="visible">
			<use xlink:href="#lend5" transform="scale(-2.5,-2.5) "/>
		</marker>
		<g id="lend13">
			<path d="M 3 1 L 0 0 L 3 -1 L 3 1 " style="stroke:none"/>
		</g>
		<marker id="mrkr13-422" class="st4" v:arrowType="13" v:arrowSize="1" v:setback="7.2" refX="7.2" orient="auto"
				markerUnits="strokeWidth" overflow="visible">
			<use xlink:href="#lend13" transform="scale(2.5) "/>
		</marker>
		<marker id="mrkr13-511" class="st22" v:arrowType="13" v:arrowSize="1" v:setback="7.5" refX="-7.5" orient="auto"
				markerUnits="strokeWidth" overflow="visible">
			<use xlink:href="#lend13" transform="scale(-2.5,-2.5) "/>
		</marker>
		<marker id="mrkr5-523" class="st25" v:arrowType="5" v:arrowSize="1" v:setback="14.875" refX="-14.875" orient="auto"
				markerUnits="strokeWidth" overflow="visible">
			<use xlink:href="#lend5" transform="scale(-8.5000000000001,-8.5000000000001) "/>
		</marker>
	</defs>
	<g v:mID="0" v:index="1" v:groupContext="foregroundPage">
		<title>Page-1</title>
		<v:pageProperties v:drawingScale="0.0393701" v:pageScale="0.0393701" v:drawingUnits="24" v:shadowOffsetX="9"
				v:shadowOffsetY="-9"/>
		<g id="group1-1" transform="translate(0.6,-0.6)" v:mID="1" v:groupContext="group">
			<title>Sheet.1</title>
			<g id="shape2-2" v:mID="2" v:groupContext="shape" transform="translate(108,-3.6)">
				<title>Sheet.2</title>
				<path d="M0 228.61 L165.6 228.61 L165.6 91.81 L0 91.81 L0 228.61 Z" class="st1"/>
			</g>
			<g id="shape3-4" v:mID="3" v:groupContext="shape" transform="translate(-195.203,55.0043) rotate(-90)">
				<title>Sheet.3</title>
				<path d="M0 228.61 L8.81 228.61" class="st2"/>
			</g>
			<g id="shape4-7" v:mID="4" v:groupContext="shape" transform="translate(-192.561,59.4068) rotate(-90)">
				<title>Sheet.4</title>
				<path d="M0 228.61 L17.61 228.61" class="st2"/>
			</g>
			<g id="shape5-10" v:mID="5" v:groupContext="shape" transform="translate(28.1213,-178.005)">
				<title>Sheet.5</title>
				<path d="M0 228.61 L5.28 228.61" class="st2"/>
			</g>
			<g id="shape6-13" v:mID="6" v:groupContext="shape" transform="translate(-125.604,214.012) rotate(45) scale(1,-1)">
				<title>Sheet.6</title>
				<path d="M0 228.61 L4.98 228.61" class="st2"/>
			</g>
			<g id="shape7-16" v:mID="7" v:groupContext="shape" transform="translate(-189.039,54.564) rotate(-90) scale(-1,1)">
				<title>Sheet.7</title>
				<path d="M0 228.61 L1.32 228.61" class="st2"/>
			</g>
			<g id="shape8-19" v:mID="8" v:groupContext="shape" transform="translate(38.2471,284.492) scale(1,-1)">
				<title>Sheet.8</title>
				<path d="M0 228.61 L1.13 228.61" class="st2"/>
			</g>
			<g id="shape9-22" v:mID="9" v:groupContext="shape" transform="translate(-125.604,-113.249) rotate(-45)">
				<title>Sheet.9</title>
				<path d="M0 228.61 L4.98 228.61" class="st2"/>
			</g>
			<g id="shape10-25" v:mID="10" v:groupContext="shape" transform="translate(-189.039,76.1136) rotate(-90)">
				<title>Sheet.10</title>
				<path d="M0 228.61 L21.75 228.61" class="st2"/>
			</g>
			<g id="shape11-28" v:mID="11" v:groupContext="shape" transform="translate(-195.203,86.2394) rotate(-90)">
				<title>Sheet.11</title>
				<path d="M0 228.61 L8.81 228.61" class="st2"/>
			</g>
			<g id="shape12-31" v:mID="12" v:groupContext="shape" transform="translate(-192.561,90.642) rotate(-90)">
				<title>Sheet.12</title>
				<path d="M0 228.61 L17.61 228.61" class="st2"/>
			</g>
			<g id="shape13-34" v:mID="13" v:groupContext="shape" transform="translate(28.1213,-146.77)">
				<title>Sheet.13</title>
				<path d="M0 228.61 L5.28 228.61" class="st2"/>
			</g>
			<g id="shape14-37" v:mID="14" v:groupContext="shape" transform="translate(-125.604,245.247) rotate(45) scale(1,-1)">
				<title>Sheet.14</title>
				<path d="M0 228.61 L4.98 228.61" class="st2"/>
			</g>
			<g id="shape15-40" v:mID="15" v:groupContext="shape" transform="translate(-189.039,85.7992) rotate(-90) scale(-1,1)">
				<title>Sheet.15</title>
				<path d="M0 228.61 L1.32 228.61" class="st2"/>
			</g>
			<g id="shape16-43" v:mID="16" v:groupContext="shape" transform="translate(38.2471,315.727) scale(1,-1)">
				<title>Sheet.16</title>
				<path d="M0 228.61 L1.13 228.61" class="st2"/>
			</g>
			<g id="shape17-46" v:mID="17" v:groupContext="shape" transform="translate(-125.604,-82.0138) rotate(-45)">
				<title>Sheet.17</title>
				<path d="M0 228.61 L4.98 228.61" class="st2"/>
			</g>
			<g id="group18-49" transform="translate(41.6224,-176.244)" v:mID="18" v:groupContext="group">
				<title>Sheet.18</title>
				<g id="shape19-50" v:mID="19" v:groupContext="shape" transform="translate(-190.212,101.799) rotate(-56.3099)">
					<title>Sheet.19</title>
					<path d="M0 228.61 L4.23 228.61" class="st2"/>
				</g>
				<g id="shape20-53" v:mID="20" v:groupContext="shape"
						transform="translate(194.908,101.799) rotate(56.3099) scale(-1,1)">
					<title>Sheet.20</title>
					<path d="M0 228.61 L4.23 228.61" class="st2"/>
				</g>
				<g id="shape21-56" v:mID="21" v:groupContext="shape" transform="translate(0.146752,2.84217E-14)">
					<title>Sheet.21</title>
					<path d="M0 228.61 L4.4 228.61" class="st2"/>
				</g>
				<g id="shape22-59" v:mID="22" v:groupContext="shape" transform="translate(0.146752,-3.52204)">
					<title>Sheet.22</title>
					<path d="M0 228.61 L4.4 228.61" class="st2"/>
				</g>
			</g>
			<g id="shape23-62" v:mID="23" v:groupContext="shape" transform="translate(-189.039,44.8784) rotate(-90)">
				<title>Sheet.23</title>
				<path d="M0 228.61 L9.64 228.61" class="st3"/>
			</g>
			<g id="shape24-68" v:mID="24" v:groupContext="shape" transform="translate(-189.039,99.0068) rotate(-90)">
				<title>Sheet.24</title>
				<path d="M1.89 228.61 L2.25 228.61 L11.89 228.61" class="st5"/>
			</g>
			<g id="shape25-74" v:mID="25" v:groupContext="shape" transform="translate(39.5679,-186.81)">
				<title>Sheet.25</title>
				<path d="M0 228.61 L4.4 228.61" class="st2"/>
			</g>
			<g id="shape26-77" v:mID="26" v:groupContext="shape" transform="translate(272.577,41.7966) rotate(90)">
				<title>Sheet.26</title>
				<path d="M0 228.61 L7.04 228.61" class="st2"/>
			</g>
			<g id="shape27-80" v:mID="27" v:groupContext="shape" transform="translate(39.5679,-169.2)">
				<title>Sheet.27</title>
				<path d="M0 228.61 L4.4 228.61" class="st2"/>
			</g>
			<g id="shape28-83" v:mID="28" v:groupContext="shape" transform="translate(272.577,52.3628) rotate(90)">
				<title>Sheet.28</title>
				<path d="M0 228.61 L7.04 228.61" class="st2"/>
			</g>
			<g id="group29-86" transform="translate(41.6224,-145.009)" v:mID="29" v:groupContext="group">
				<title>Sheet.29</title>
				<g id="shape30-87" v:mID="30" v:groupContext="shape" transform="translate(-190.212,101.799) rotate(-56.3099)">
					<title>Sheet.30</title>
					<path d="M0 228.61 L4.23 228.61" class="st2"/>
				</g>
				<g id="shape31-90" v:mID="31" v:groupContext="shape"
						transform="translate(194.908,101.799) rotate(56.3099) scale(-1,1)">
					<title>Sheet.31</title>
					<path d="M0 228.61 L4.23 228.61" class="st2"/>
				</g>
				<g id="shape32-93" v:mID="32" v:groupContext="shape" transform="translate(0.146752,2.84217E-14)">
					<title>Sheet.32</title>
					<path d="M0 228.61 L4.4 228.61" class="st2"/>
				</g>
				<g id="shape33-96" v:mID="33" v:groupContext="shape" transform="translate(0.146752,-3.52204)">
					<title>Sheet.33</title>
					<path d="M0 228.61 L4.4 228.61" class="st2"/>
				</g>
			</g>
			<g id="shape34-99" v:mID="34" v:groupContext="shape" transform="translate(39.5679,-155.575)">
				<title>Sheet.34</title>
				<path d="M0 228.61 L4.4 228.61" class="st2"/>
			</g>
			<g id="shape35-102" v:mID="35" v:groupContext="shape" transform="translate(272.577,73.0318) rotate(90)">
				<title>Sheet.35</title>
				<path d="M0 228.61 L7.04 228.61" class="st2"/>
			</g>
			<g id="shape36-105" v:mID="36" v:groupContext="shape" transform="translate(39.5679,-137.965)">
				<title>Sheet.36</title>
				<path d="M0 228.61 L4.4 228.61" class="st2"/>
			</g>
			<g id="shape37-108" v:mID="37" v:groupContext="shape" transform="translate(272.577,83.5979) rotate(90)">
				<title>Sheet.37</title>
				<path d="M0 228.61 L7.04 228.61" class="st2"/>
			</g>
			<g id="shape38-111" v:mID="38" v:groupContext="shape" transform="translate(39.6,-162.18) scale(-1,1)">
				<title>Sheet.38</title>
				<path d="M1.89 228.61 L2.25 228.61 L25.2 228.61" class="st5"/>
			</g>
			<g id="shape39-116" v:mID="39" v:groupContext="shape" transform="translate(38.9213,-129.6)">
				<title>Sheet.39</title>
				<path d="M0 228.61 L25.88 228.61" class="st2"/>
			</g>
			<g id="group40-119" transform="translate(3.59712E-14,-167.76)" v:mID="40" v:groupContext="group">
				<title>Sheet.40</title>
				<g id="group41-120" transform="translate(0,-21.6)" v:mID="41" v:groupContext="group">
					<title>Sheet.41</title>
					<g id="shape42-121" v:mID="42" v:groupContext="shape" transform="translate(55.0944,4.62908) rotate(14.0362)">
						<title>Sheet.42</title>
						<path d="M-0 227.16 A14.4 3.6 -14.04 0 0 14.84 227.16" class="st2"/>
					</g>
					<g id="shape43-124" v:mID="43" v:groupContext="shape"
							transform="translate(55.0944,445.385) rotate(-14.0362) scale(1,-1)">
						<title>Sheet.43</title>
						<path d="M-0 227.16 A14.4 3.6 -14.04 0 0 14.84 227.16" class="st2"/>
					</g>
				</g>
				<g id="group44-127" transform="translate(0,-14.4)" v:mID="44" v:groupContext="group">
					<title>Sheet.44</title>
					<g id="shape45-128" v:mID="45" v:groupContext="shape" transform="translate(55.0944,4.62908) rotate(14.0362)">
						<title>Sheet.45</title>
						<path d="M-0 227.16 A14.4 3.6 -14.04 0 0 14.84 227.16" class="st2"/>
					</g>
					<g id="shape46-131" v:mID="46" v:groupContext="shape"
							transform="translate(55.0944,445.385) rotate(-14.0362) scale(1,-1)">
						<title>Sheet.46</title>
						<path d="M-0 227.16 A14.4 3.6 -14.04 0 0 14.84 227.16" class="st2"/>
					</g>
				</g>
				<g id="group47-134" transform="translate(0,-7.2)" v:mID="47" v:groupContext="group">
					<title>Sheet.47</title>
					<g id="shape48-135" v:mID="48" v:groupContext="shape" transform="translate(55.0944,4.62908) rotate(14.0362)">
						<title>Sheet.48</title>
						<path d="M-0 227.16 A14.4 3.6 -14.04 0 0 14.84 227.16" class="st2"/>
					</g>
					<g id="shape49-138" v:mID="49" v:groupContext="shape"
							transform="translate(55.0944,445.385) rotate(-14.0362) scale(1,-1)">
						<title>Sheet.49</title>
						<path d="M-0 227.16 A14.4 3.6 -14.04 0 0 14.84 227.16" class="st2"/>
					</g>
				</g>
				<g id="group50-141" v:mID="50" v:groupContext="group">
					<title>Sheet.50</title>
					<g id="shape51-142" v:mID="51" v:groupContext="shape" transform="translate(55.0944,4.62908) rotate(14.0362)">
						<title>Sheet.51</title>
						<path d="M-0 227.16 A14.4 3.6 -14.04 0 0 14.84 227.16" class="st2"/>
					</g>
					<g id="shape52-145" v:mID="52" v:groupContext="shape"
							transform="translate(55.0944,445.385) rotate(-14.0362) scale(1,-1)">
						<title>Sheet.52</title>
						<path d="M-0 227.16 A14.4 3.6 -14.04 0 0 14.84 227.16" class="st2"/>
					</g>
				</g>
			</g>
			<g id="shape53-148" v:mID="53" v:groupContext="shape" transform="translate(-214.207,66.4268) rotate(-90)">
				<title>Sheet.53</title>
				<path d="M0 228.61 L5.72 228.61" class="st2"/>
			</g>
			<g id="shape54-151" v:mID="54" v:groupContext="shape" transform="translate(-214.207,32.0468) rotate(-90)">
				<title>Sheet.54</title>
				<path d="M0 228.61 L7.2 228.61" class="st2"/>
			</g>
			<g id="shape55-154" v:mID="55" v:groupContext="shape" transform="translate(126.72,-43.56)">
				<title>Sheet.55</title>
				<path d="M0 228.61 L10.98 228.61" class="st2"/>
			</g>
			<g id="shape56-157" v:mID="56" v:groupContext="shape" transform="translate(-188.966,113.407) rotate(-90)">
				<title>Sheet.56</title>
				<path d="M0 228.61 L14.03 228.61" class="st2"/>
			</g>
			<g id="shape57-160" v:mID="57" v:groupContext="shape" transform="translate(-189.007,142.207) rotate(-90)">
				<title>Sheet.57</title>
				<path d="M0 228.61 L10.43 228.61" class="st2"/>
			</g>
			<g id="group58-163" transform="translate(31.68,-97.2)" v:mID="58" v:groupContext="group">
				<title>Sheet.58</title>
				<g id="shape59-164" v:mID="59" v:groupContext="shape" transform="translate(68.0704,-9.94477) rotate(15.2551)">
					<title>Sheet.59</title>
					<path d="M0 228.61 L8.21 228.61" class="st2"/>
				</g>
				<g id="shape60-167" v:mID="60" v:groupContext="shape"
						transform="translate(-25.0544,-12.1526) rotate(-10.3048) scale(-1,1)">
					<title>Sheet.60</title>
					<path d="M0 228.61 L8.05 228.61" class="st2"/>
				</g>
				<g id="shape61-170" v:mID="61" v:groupContext="shape"
						transform="translate(-32.9744,-10.7126) rotate(-10.3048) scale(-1,1)">
					<title>Sheet.61</title>
					<path d="M0 228.61 L8.05 228.61" class="st2"/>
				</g>
				<g id="shape62-173" v:mID="62" v:groupContext="shape" transform="translate(60.1504,-4.90477) rotate(15.2551)">
					<title>Sheet.62</title>
					<path d="M0 228.61 L8.21 228.61" class="st2"/>
				</g>
				<g id="shape63-176" v:mID="63" v:groupContext="shape" transform="translate(68.0704,-2.74477) rotate(15.2551)">
					<title>Sheet.63</title>
					<path d="M0 228.61 L8.21 228.61" class="st2"/>
				</g>
				<g id="shape64-179" v:mID="64" v:groupContext="shape"
						transform="translate(-25.0544,-4.95255) rotate(-10.3048) scale(-1,1)">
					<title>Sheet.64</title>
					<path d="M0 228.61 L8.05 228.61" class="st2"/>
				</g>
				<g id="shape65-182" v:mID="65" v:groupContext="shape"
						transform="translate(-32.9744,-3.51255) rotate(-10.3048) scale(-1,1)">
					<title>Sheet.65</title>
					<path d="M0 228.61 L8.05 228.61" class="st2"/>
				</g>
				<g id="shape66-185" v:mID="66" v:groupContext="shape" transform="translate(60.1504,2.29523) rotate(15.2551)">
					<title>Sheet.66</title>
					<path d="M0 228.61 L8.21 228.61" class="st2"/>
				</g>
				<g id="shape67-188" v:mID="67" v:groupContext="shape" transform="translate(68.0704,4.45523) rotate(15.2551)">
					<title>Sheet.67</title>
					<path d="M0 228.61 L8.21 228.61" class="st2"/>
				</g>
				<g id="shape68-191" v:mID="68" v:groupContext="shape"
						transform="translate(-25.0544,2.24745) rotate(-10.3048) scale(-1,1)">
					<title>Sheet.68</title>
					<path d="M0 228.61 L8.05 228.61" class="st2"/>
				</g>
			</g>
			<g id="group69-194" transform="translate(293.407,91.0868) rotate(90)" v:mID="69" v:groupContext="group">
				<title>Sheet.69</title>
				<g id="shape70-195" v:mID="70" v:groupContext="shape" transform="translate(68.0704,-9.94477) rotate(15.2551)">
					<title>Sheet.70</title>
					<path d="M0 228.61 L8.21 228.61" class="st2"/>
				</g>
				<g id="shape71-198" v:mID="71" v:groupContext="shape"
						transform="translate(-25.0544,-12.1526) rotate(-10.3048) scale(-1,1)">
					<title>Sheet.71</title>
					<path d="M0 228.61 L8.05 228.61" class="st2"/>
				</g>
				<g id="shape72-201" v:mID="72" v:groupContext="shape"
						transform="translate(-32.9744,-10.7126) rotate(-10.3048) scale(-1,1)">
					<title>Sheet.72</title>
					<path d="M0 228.61 L8.05 228.61" class="st2"/>
				</g>
				<g id="shape73-204" v:mID="73" v:groupContext="shape" transform="translate(60.1504,-4.90477) rotate(15.2551)">
					<title>Sheet.73</title>
					<path d="M0 228.61 L8.21 228.61" class="st2"/>
				</g>
				<g id="shape74-207" v:mID="74" v:groupContext="shape" transform="translate(68.0704,-2.74477) rotate(15.2551)">
					<title>Sheet.74</title>
					<path d="M0 228.61 L8.21 228.61" class="st2"/>
				</g>
				<g id="shape75-210" v:mID="75" v:groupContext="shape"
						transform="translate(-25.0544,-4.95255) rotate(-10.3048) scale(-1,1)">
					<title>Sheet.75</title>
					<path d="M0 228.61 L8.05 228.61" class="st2"/>
				</g>
				<g id="shape76-213" v:mID="76" v:groupContext="shape"
						transform="translate(-32.9744,-3.51255) rotate(-10.3048) scale(-1,1)">
					<title>Sheet.76</title>
					<path d="M0 228.61 L8.05 228.61" class="st2"/>
				</g>
				<g id="shape77-216" v:mID="77" v:groupContext="shape" transform="translate(60.1504,2.29523) rotate(15.2551)">
					<title>Sheet.77</title>
					<path d="M0 228.61 L8.21 228.61" class="st2"/>
				</g>
				<g id="shape78-219" v:mID="78" v:groupContext="shape" transform="translate(68.0704,4.45523) rotate(15.2551)">
					<title>Sheet.78</title>
					<path d="M0 228.61 L8.21 228.61" class="st2"/>
				</g>
				<g id="shape79-222" v:mID="79" v:groupContext="shape"
						transform="translate(-25.0544,2.24745) rotate(-10.3048) scale(-1,1)">
					<title>Sheet.79</title>
					<path d="M0 228.61 L8.05 228.61" class="st2"/>
				</g>
			</g>
			<g id="shape80-225" v:mID="80" v:groupContext="shape" transform="translate(82.8,-129.6)">
				<title>Sheet.80</title>
				<path d="M0 228.61 L79.2 228.61" class="st2"/>
			</g>
			<g id="shape81-228" v:mID="81" v:groupContext="shape" transform="translate(-135.007,99.0068) rotate(-90)">
				<title>Sheet.81</title>
				<path d="M1.89 228.61 L2.25 228.61 L10.43 228.61" class="st5"/>
			</g>
			<g id="group82-233" transform="translate(85.68,-140.4)" v:mID="82" v:groupContext="group">
				<title>Sheet.82</title>
				<g id="shape83-234" v:mID="83" v:groupContext="shape" transform="translate(68.0704,-9.94477) rotate(15.2551)">
					<title>Sheet.83</title>
					<path d="M0 228.61 L8.21 228.61" class="st2"/>
				</g>
				<g id="shape84-237" v:mID="84" v:groupContext="shape"
						transform="translate(-25.0544,-12.1526) rotate(-10.3048) scale(-1,1)">
					<title>Sheet.84</title>
					<path d="M0 228.61 L8.05 228.61" class="st2"/>
				</g>
				<g id="shape85-240" v:mID="85" v:groupContext="shape"
						transform="translate(-32.9744,-10.7126) rotate(-10.3048) scale(-1,1)">
					<title>Sheet.85</title>
					<path d="M0 228.61 L8.05 228.61" class="st2"/>
				</g>
				<g id="shape86-243" v:mID="86" v:groupContext="shape" transform="translate(60.1504,-4.90477) rotate(15.2551)">
					<title>Sheet.86</title>
					<path d="M0 228.61 L8.21 228.61" class="st2"/>
				</g>
				<g id="shape87-246" v:mID="87" v:groupContext="shape" transform="translate(68.0704,-2.74477) rotate(15.2551)">
					<title>Sheet.87</title>
					<path d="M0 228.61 L8.21 228.61" class="st2"/>
				</g>
				<g id="shape88-249" v:mID="88" v:groupContext="shape"
						transform="translate(-25.0544,-4.95255) rotate(-10.3048) scale(-1,1)">
					<title>Sheet.88</title>
					<path d="M0 228.61 L8.05 228.61" class="st2"/>
				</g>
				<g id="shape89-252" v:mID="89" v:groupContext="shape"
						transform="translate(-32.9744,-3.51255) rotate(-10.3048) scale(-1,1)">
					<title>Sheet.89</title>
					<path d="M0 228.61 L8.05 228.61" class="st2"/>
				</g>
				<g id="shape90-255" v:mID="90" v:groupContext="shape" transform="translate(60.1504,2.29523) rotate(15.2551)">
					<title>Sheet.90</title>
					<path d="M0 228.61 L8.21 228.61" class="st2"/>
				</g>
				<g id="shape91-258" v:mID="91" v:groupContext="shape" transform="translate(68.0704,4.45523) rotate(15.2551)">
					<title>Sheet.91</title>
					<path d="M0 228.61 L8.21 228.61" class="st2"/>
				</g>
				<g id="shape92-261" v:mID="92" v:groupContext="shape"
						transform="translate(-25.0544,2.24745) rotate(-10.3048) scale(-1,1)">
					<title>Sheet.92</title>
					<path d="M0 228.61 L8.05 228.61" class="st2"/>
				</g>
			</g>
			<g id="shape93-264" v:mID="93" v:groupContext="shape" transform="translate(-135.007,69.8468) rotate(-90)">
				<title>Sheet.93</title>
				<path d="M0 228.61 L13.1 228.61" class="st6"/>
			</g>
			<g id="group94-270" transform="translate(366.47,180.367) rotate(90)" v:mID="94" v:groupContext="group">
				<title>Sheet.94</title>
				<g id="shape95-271" v:mID="95" v:groupContext="shape" transform="translate(64.8304,-2.58113) rotate(15.2551)">
					<title>Sheet.95</title>
					<path d="M0 228.61 L4.85 228.61" class="st2"/>
				</g>
				<g id="shape96-274" v:mID="96" v:groupContext="shape"
						transform="translate(-31.5344,-5.67255) rotate(-10.3048) scale(-1,1)">
					<title>Sheet.96</title>
					<path d="M0 228.61 L4.76 228.61" class="st2"/>
				</g>
				<g id="shape97-277" v:mID="97" v:groupContext="shape"
						transform="translate(-36.2144,-4.82164) rotate(-10.3048) scale(-1,1)">
					<title>Sheet.97</title>
					<path d="M0 228.61 L4.76 228.61" class="st2"/>
				</g>
				<g id="shape98-280" v:mID="98" v:groupContext="shape" transform="translate(60.1504,0.397049) rotate(15.2551)">
					<title>Sheet.98</title>
					<path d="M0 228.61 L4.85 228.61" class="st2"/>
				</g>
				<g id="shape99-283" v:mID="99" v:groupContext="shape" transform="translate(64.8304,1.67341) rotate(15.2551)">
					<title>Sheet.99</title>
					<path d="M0 228.61 L4.85 228.61" class="st2"/>
				</g>
				<g id="shape100-286" v:mID="100" v:groupContext="shape"
						transform="translate(-31.5344,-1.41801) rotate(-10.3048) scale(-1,1)">
					<title>Sheet.100</title>
					<path d="M0 228.61 L4.76 228.61" class="st2"/>
				</g>
				<g id="shape101-289" v:mID="101" v:groupContext="shape"
						transform="translate(-36.2144,-0.567097) rotate(-10.3048) scale(-1,1)">
					<title>Sheet.101</title>
					<path d="M0 228.61 L4.76 228.61" class="st2"/>
				</g>
				<g id="shape102-292" v:mID="102" v:groupContext="shape" transform="translate(60.1504,4.65159) rotate(15.2551)">
					<title>Sheet.102</title>
					<path d="M0 228.61 L4.85 228.61" class="st2"/>
				</g>
				<g id="shape103-295" v:mID="103" v:groupContext="shape" transform="translate(64.8304,5.92796) rotate(15.2551)">
					<title>Sheet.103</title>
					<path d="M0 228.61 L4.85 228.61" class="st2"/>
				</g>
				<g id="shape104-298" v:mID="104" v:groupContext="shape"
						transform="translate(-31.5344,2.83654) rotate(-10.3048) scale(-1,1)">
					<title>Sheet.104</title>
					<path d="M0 228.61 L4.76 228.61" class="st2"/>
				</g>
			</g>
			<g id="shape105-301" v:mID="105" v:groupContext="shape" transform="translate(3.6,-104.4)">
				<title>Sheet.105</title>
				<desc>RShunt</desc>
				<v:textBlock v:margins="rect(1,1,1,1)" v:verticalAlign="0"/>
				<v:textRect cx="12.6" cy="223.207" width="25.21" height="10.8"/>
				<rect x="0" y="217.807" width="25.2" height="10.8" class="st7"/>
				<text x="1.13" y="227.81" class="st8" v:langID="1033"><v:paragraph v:horizAlign="1"/><v:tabList/>R<tspan
							dy="-0.279em" class="st9" v:baseFontSize="10">Shunt</tspan></text>			</g>
			<g id="shape106-305" v:mID="106" v:groupContext="shape" transform="translate(97.2,-144)">
				<title>Sheet.106</title>
				<desc>R1</desc>
				<v:textBlock v:margins="rect(1,1,1,1)" v:verticalAlign="0"/>
				<v:textRect cx="12.6" cy="223.207" width="25.21" height="10.8"/>
				<rect x="0" y="217.807" width="25.2" height="10.8" class="st7"/>
				<text x="8.14" y="226.91" class="st10" v:langID="1033"><v:paragraph v:horizAlign="1"/><v:tabList/>R<tspan
							dy="-0.279em" class="st11" v:baseFontSize="9">1</tspan></text>			</g>
			<g id="shape107-309" v:mID="107" v:groupContext="shape" transform="translate(63.36,-109.8)">
				<title>Sheet.107</title>
				<desc>R2</desc>
				<v:textBlock v:margins="rect(1,1,1,1)" v:verticalAlign="0"/>
				<v:textRect cx="12.6" cy="223.207" width="25.21" height="10.8"/>
				<rect x="0" y="217.807" width="25.2" height="10.8" class="st7"/>
				<text x="8.14" y="226.91" class="st10" v:langID="1033"><v:paragraph v:horizAlign="1"/><v:tabList/>R<tspan
							dy="-0.279em" class="st11" v:baseFontSize="9">2</tspan></text>			</g>
			<g id="shape108-313" v:mID="108" v:groupContext="shape" transform="translate(33.84,-86.4)">
				<title>Sheet.108</title>
				<path d="M0 228.61 L12.24 228.61" class="st2"/>
			</g>
			<g id="shape109-316" v:mID="109" v:groupContext="shape" transform="translate(36,-84.24)">
				<title>Sheet.109</title>
				<path d="M0 228.61 L7.2 228.61" class="st2"/>
			</g>
			<g id="shape110-319" v:mID="110" v:groupContext="shape" transform="translate(38.52,-82.08)">
				<title>Sheet.110</title>
				<path d="M0 228.61 L2.07 228.61" class="st2"/>
			</g>
			<g id="group111-322" transform="translate(406.349,180.367) rotate(90)" v:mID="111" v:groupContext="group">
				<title>Sheet.111</title>
				<g id="shape112-323" v:mID="112" v:groupContext="shape" transform="translate(64.8304,-2.58113) rotate(15.2551)">
					<title>Sheet.112</title>
					<path d="M0 228.61 L4.85 228.61" class="st2"/>
				</g>
				<g id="shape113-326" v:mID="113" v:groupContext="shape"
						transform="translate(-31.5344,-5.67255) rotate(-10.3048) scale(-1,1)">
					<title>Sheet.113</title>
					<path d="M0 228.61 L4.76 228.61" class="st2"/>
				</g>
				<g id="shape114-329" v:mID="114" v:groupContext="shape"
						transform="translate(-36.2144,-4.82164) rotate(-10.3048) scale(-1,1)">
					<title>Sheet.114</title>
					<path d="M0 228.61 L4.76 228.61" class="st2"/>
				</g>
				<g id="shape115-332" v:mID="115" v:groupContext="shape" transform="translate(60.1504,0.397049) rotate(15.2551)">
					<title>Sheet.115</title>
					<path d="M0 228.61 L4.85 228.61" class="st2"/>
				</g>
				<g id="shape116-335" v:mID="116" v:groupContext="shape" transform="translate(64.8304,1.67341) rotate(15.2551)">
					<title>Sheet.116</title>
					<path d="M0 228.61 L4.85 228.61" class="st2"/>
				</g>
				<g id="shape117-338" v:mID="117" v:groupContext="shape"
						transform="translate(-31.5344,-1.41801) rotate(-10.3048) scale(-1,1)">
					<title>Sheet.117</title>
					<path d="M0 228.61 L4.76 228.61" class="st2"/>
				</g>
				<g id="shape118-341" v:mID="118" v:groupContext="shape"
						transform="translate(-36.2144,-0.567097) rotate(-10.3048) scale(-1,1)">
					<title>Sheet.118</title>
					<path d="M0 228.61 L4.76 228.61" class="st2"/>
				</g>
				<g id="shape119-344" v:mID="119" v:groupContext="shape" transform="translate(60.1504,4.65159) rotate(15.2551)">
					<title>Sheet.119</title>
					<path d="M0 228.61 L4.85 228.61" class="st2"/>
				</g>
				<g id="shape120-347" v:mID="120" v:groupContext="shape" transform="translate(64.8304,5.92796) rotate(15.2551)">
					<title>Sheet.120</title>
					<path d="M0 228.61 L4.85 228.61" class="st2"/>
				</g>
				<g id="shape121-350" v:mID="121" v:groupContext="shape"
						transform="translate(-31.5344,2.83654) rotate(-10.3048) scale(-1,1)">
					<title>Sheet.121</title>
					<path d="M0 228.61 L4.76 228.61" class="st2"/>
				</g>
			</g>
			<g id="group122-353" transform="translate(162.9,-50.76)" v:mID="122" v:groupContext="group">
				<title>Sheet.122</title>
				<g id="shape123-354" v:mID="123" v:groupContext="shape" transform="translate(-228.607,228.607) rotate(-90)">
					<title>Sheet.123</title>
					<path d="M0 228.61 L28.8 228.61" class="st2"/>
				</g>
				<g id="shape124-357" v:mID="124" v:groupContext="shape" transform="translate(-73.4361,418.679) rotate(-153.435)">
					<title>Sheet.124</title>
					<path d="M0 228.61 L32.2 228.61" class="st2"/>
				</g>
				<g id="shape125-360" v:mID="125" v:groupContext="shape"
						transform="translate(102.236,433.079) rotate(-26.5651) scale(1,-1)">
					<title>Sheet.125</title>
					<path d="M0 228.61 L32.2 228.61" class="st2"/>
				</g>
				<g id="shape126-363" v:mID="126" v:groupContext="shape" transform="translate(6.48,450.014) rotate(180)">
					<title>Sheet.126</title>
					<path d="M0 228.61 L4.32 228.61" class="st12"/>
				</g>
				<g id="group127-366" transform="translate(2.16,-19.44)" v:mID="127" v:groupContext="group">
					<title>Sheet.127</title>
					<g id="shape128-367" v:mID="128" v:groupContext="shape" transform="translate(-226.447,228.607) rotate(-90)">
						<title>Sheet.128</title>
						<path d="M0 228.61 L4.32 228.61" class="st12"/>
					</g>
					<g id="shape129-370" v:mID="129" v:groupContext="shape" transform="translate(4.32,455.054) rotate(180)">
						<title>Sheet.129</title>
						<path d="M0 228.61 L4.32 228.61" class="st12"/>
					</g>
				</g>
			</g>
			<g id="shape130-373" v:mID="130" v:groupContext="shape" transform="translate(191.52,-65.16)">
				<title>Sheet.130</title>
				<path d="M0 228.61 L20.88 228.61" class="st2"/>
			</g>
			<g id="shape131-376" v:mID="131" v:groupContext="shape" transform="translate(423.727,163.807) rotate(90)">
				<title>Sheet.131</title>
				<path d="M1.89 228.61 L2.25 228.61 L21.24 228.61" class="st5"/>
			</g>
			<g id="shape132-381" v:mID="132" v:groupContext="shape" transform="translate(-101.887,195.474) rotate(-90)">
				<title>Sheet.132</title>
				<path d="M0 228.61 L10.43 228.61" class="st2"/>
			</g>
			<g id="shape133-384" v:mID="133" v:groupContext="shape" transform="translate(120.96,-33.1324)">
				<title>Sheet.133</title>
				<path d="M0 228.61 L12.24 228.61" class="st2"/>
			</g>
			<g id="shape134-387" v:mID="134" v:groupContext="shape" transform="translate(123.12,-30.9724)">
				<title>Sheet.134</title>
				<path d="M0 228.61 L7.2 228.61" class="st2"/>
			</g>
			<g id="shape135-390" v:mID="135" v:groupContext="shape" transform="translate(125.64,-28.8124)">
				<title>Sheet.135</title>
				<path d="M0 228.61 L2.07 228.61" class="st2"/>
			</g>
			<g id="shape136-393" v:mID="136" v:groupContext="shape" transform="translate(148.5,-43.56)">
				<title>Sheet.136</title>
				<path d="M0 228.61 L29.16 228.61" class="st2"/>
			</g>
			<g id="shape137-396" v:mID="137" v:groupContext="shape" transform="translate(188.46,-43.56)">
				<title>Sheet.137</title>
				<path d="M0 228.61 L6.66 228.61" class="st2"/>
			</g>
			<g id="shape138-399" v:mID="138" v:groupContext="shape" transform="translate(213.12,-50.76)">
				<title>Sheet.138</title>
				<desc>ADC</desc>
				<v:textBlock v:margins="rect(1,1,1,1)"/>
				<v:textRect cx="15.84" cy="214.207" width="31.68" height="28.8"/>
				<rect x="0" y="199.807" width="31.68" height="28.8" class="st13"/>
				<text x="6.09" y="216.91" class="st14" v:langID="1033"><v:paragraph v:horizAlign="1"/><v:tabList/>ADC</text>			</g>
			<g id="shape139-402" v:mID="139" v:groupContext="shape" transform="translate(155.7,-57.96)">
				<title>Sheet.139</title>
				<path d="M0 228.61 L6.83 228.61" class="st2"/>
			</g>
			<g id="shape140-405" v:mID="140" v:groupContext="shape" transform="translate(-72.9068,185.047) rotate(-90)">
				<title>Sheet.140</title>
				<path d="M1.89 228.61 L2.25 228.61 L14.4 228.61" class="st5"/>
			</g>
			<g id="shape141-410" v:mID="141" v:groupContext="shape" transform="translate(93.6,-171)">
				<title>Sheet.141</title>
				<desc>+VDD</desc>
				<v:textBlock v:margins="rect(1,1,1,1)" v:verticalAlign="0"/>
				<v:textRect cx="12.6" cy="223.207" width="25.21" height="10.8"/>
				<rect x="0" y="217.807" width="25.2" height="10.8" class="st7"/>
				<text x="2.81" y="226.91" class="st10" v:langID="1033"><v:paragraph v:horizAlign="1"/><v:tabList/>+V<tspan
							dy="-0.279em" class="st11" v:baseFontSize="9">DD</tspan></text>			</g>
			<g id="shape142-414" v:mID="142" v:groupContext="shape" transform="translate(168.12,-72.36)">
				<title>Sheet.142</title>
				<desc>OP AMP</desc>
				<v:textBlock v:margins="rect(1,1,1,1)" v:verticalAlign="0"/>
				<v:textRect cx="20.7" cy="223.207" width="41.41" height="10.8"/>
				<rect x="0" y="217.807" width="41.4" height="10.8" class="st7"/>
				<text x="4.92" y="226.01" class="st15" v:langID="1033"><v:paragraph v:horizAlign="1"/><v:tabList/>OP AMP</text>			</g>
			<g id="shape143-417" v:mID="143" v:groupContext="shape" transform="translate(-214.207,29.8868) rotate(-90)">
				<title>Sheet.143</title>
				<path d="M8.64 228.61 L9 228.61 L19.8 228.61" class="st16"/>
			</g>
			<g id="shape144-423" v:mID="144" v:groupContext="shape" transform="translate(12.24,-200.88)">
				<title>Sheet.144</title>
				<desc>iA</desc>
				<v:textBlock v:margins="rect(1,1,1,1)" v:verticalAlign="0"/>
				<v:textRect cx="12.6" cy="223.207" width="25.21" height="10.8"/>
				<rect x="0" y="217.807" width="25.2" height="10.8" class="st7"/>
				<text x="9.04" y="227.81" class="st8" v:langID="1033"><v:paragraph v:horizAlign="1"/><v:tabList/>i<tspan
							dy="-0.279em" class="st9" v:baseFontSize="10">A</tspan></text>			</g>
			<g id="shape145-427" v:mID="145" v:groupContext="shape" transform="translate(115.2,-21.6)">
				<title>Sheet.145</title>
				<path d="M0 228.61 L136.8 228.61 L136.8 167.41 L0 167.41 L0 228.61 Z" class="st17"/>
			</g>
			<g id="shape146-429" v:mID="146" v:groupContext="shape" transform="translate(280.8,-102.6)">
				<title>Sheet.146</title>
				<desc>6 PWM</desc>
				<v:textBlock v:margins="rect(1,1,1,1)" v:verticalAlign="0"/>
				<v:textRect cx="19.8" cy="223.207" width="39.6" height="10.8"/>
				<rect x="0" y="217.807" width="39.6" height="10.8" class="st7"/>
				<text x="4.1" y="227.81" class="st8" v:langID="1033"><v:paragraph v:horizAlign="1"/><v:tabList/>6 PWM</text>			</g>
			<g id="group147-432" transform="translate(162.9,-108)" v:mID="147" v:groupContext="group">
				<title>Sheet.147</title>
				<g id="shape148-433" v:mID="148" v:groupContext="shape" transform="translate(-228.607,228.607) rotate(-90)">
					<title>Sheet.148</title>
					<path d="M0 228.61 L28.8 228.61" class="st2"/>
				</g>
				<g id="shape149-436" v:mID="149" v:groupContext="shape" transform="translate(-73.4361,418.679) rotate(-153.435)">
					<title>Sheet.149</title>
					<path d="M0 228.61 L32.2 228.61" class="st2"/>
				</g>
				<g id="shape150-439" v:mID="150" v:groupContext="shape"
						transform="translate(102.236,433.079) rotate(-26.5651) scale(1,-1)">
					<title>Sheet.150</title>
					<path d="M0 228.61 L32.2 228.61" class="st2"/>
				</g>
				<g id="shape151-442" v:mID="151" v:groupContext="shape" transform="translate(6.48,450.014) rotate(180)">
					<title>Sheet.151</title>
					<path d="M0 228.61 L4.32 228.61" class="st12"/>
				</g>
				<g id="group152-445" transform="translate(2.16,-19.44)" v:mID="152" v:groupContext="group">
					<title>Sheet.152</title>
					<g id="shape153-446" v:mID="153" v:groupContext="shape" transform="translate(-226.447,228.607) rotate(-90)">
						<title>Sheet.153</title>
						<path d="M0 228.61 L4.32 228.61" class="st12"/>
					</g>
					<g id="shape154-449" v:mID="154" v:groupContext="shape" transform="translate(4.32,455.054) rotate(180)">
						<title>Sheet.154</title>
						<path d="M0 228.61 L4.32 228.61" class="st12"/>
					</g>
				</g>
			</g>
			<g id="shape155-452" v:mID="155" v:groupContext="shape" transform="translate(155.7,-115.2)">
				<title>Sheet.155</title>
				<path d="M0 228.61 L6.83 228.61" class="st2"/>
			</g>
			<g id="shape156-455" v:mID="156" v:groupContext="shape" transform="translate(-72.9068,127.807) rotate(-90)">
				<title>Sheet.156</title>
				<path d="M1.89 228.61 L2.25 228.61 L14.4 228.61" class="st5"/>
			</g>
			<g id="shape157-460" v:mID="157" v:groupContext="shape" transform="translate(168.12,-128.16)">
				<title>Sheet.157</title>
				<desc>COMP</desc>
				<v:textBlock v:margins="rect(1,1,1,1)" v:verticalAlign="0"/>
				<v:textRect cx="20.7" cy="223.207" width="41.41" height="10.8"/>
				<rect x="0" y="217.807" width="41.4" height="10.8" class="st7"/>
				<text x="8.7" y="226.01" class="st15" v:langID="1033"><v:paragraph v:horizAlign="1"/><v:tabList/>COMP</text>			</g>
			<g id="shape158-463" v:mID="158" v:groupContext="shape" transform="translate(373.327,99.0068) rotate(90)">
				<title>Sheet.158</title>
				<path d="M1.89 228.61 L2.25 228.61 L57.6 228.61" class="st5"/>
			</g>
			<g id="shape159-468" v:mID="159" v:groupContext="shape" transform="translate(149.76,-88.2)">
				<title>Sheet.159</title>
				<desc>V-</desc>
				<v:textBlock v:margins="rect(1,1,1,1)" v:verticalAlign="0"/>
				<v:textRect cx="7.2" cy="223.207" width="14.4" height="10.8"/>
				<rect x="0" y="217.807" width="14.4" height="10.8" class="st7"/>
				<text x="2.2" y="227.81" class="st8" v:langID="1033"><v:paragraph v:horizAlign="1"/><v:tabList/>V-</text>			</g>
			<g id="shape160-471" v:mID="160" v:groupContext="shape" transform="translate(144.72,-72)">
				<title>Sheet.160</title>
				<path d="M0 228.61 L18 228.61" class="st2"/>
			</g>
			<g id="shape161-474" v:mID="161" v:groupContext="shape" transform="translate(191.52,-122.4)">
				<title>Sheet.161</title>
				<path d="M0 228.61 L14.4 228.61" class="st2"/>
			</g>
			<g id="shape162-477" v:mID="162" v:groupContext="shape" transform="translate(206.64,-86.4)">
				<title>Sheet.162</title>
				<desc>TIM 1,8</desc>
				<v:textBlock v:margins="rect(1,1,1,1)"/>
				<v:textRect cx="29.88" cy="207.007" width="59.76" height="43.2"/>
				<rect x="0" y="185.407" width="59.76" height="43.2" class="st13"/>
				<text x="14.63" y="209.71" class="st14" v:langID="1033"><v:paragraph v:horizAlign="1"/><v:tabList/>TIM 1,8</text>			</g>
			<g id="shape163-480" v:mID="163" v:groupContext="shape" transform="translate(206.46,-111.6)">
				<title>Sheet.163</title>
				<desc>BRK2</desc>
				<v:textBlock v:margins="rect(1,1,1,1)"/>
				<v:textRect cx="13.14" cy="219.108" width="26.29" height="18.9976"/>
				<rect x="0" y="209.609" width="26.28" height="18.9976" class="st18"/>
				<text x="4.38" y="221.51" class="st19" v:langID="1033"><v:paragraph v:horizAlign="2"/><v:tabList/>BRK2</text>			</g>
			<g id="shape164-483" v:mID="164" v:groupContext="shape" transform="translate(266.4,-126)">
				<title>Sheet.164</title>
				<path d="M0 228.61 L14.4 228.61" class="st2"/>
			</g>
			<g id="shape165-486" v:mID="165" v:groupContext="shape" transform="translate(266.4,-118.8)">
				<title>Sheet.165</title>
				<path d="M0 228.61 L14.4 228.61" class="st2"/>
			</g>
			<g id="shape166-489" v:mID="166" v:groupContext="shape" transform="translate(266.4,-111.6)">
				<title>Sheet.166</title>
				<path d="M0 228.61 L14.4 228.61" class="st2"/>
			</g>
			<g id="shape167-492" v:mID="167" v:groupContext="shape" transform="translate(266.4,-104.4)">
				<title>Sheet.167</title>
				<path d="M0 228.61 L14.4 228.61" class="st2"/>
			</g>
			<g id="shape168-495" v:mID="168" v:groupContext="shape" transform="translate(266.4,-97.2)">
				<title>Sheet.168</title>
				<path d="M0 228.61 L14.4 228.61" class="st2"/>
			</g>
			<g id="shape169-498" v:mID="169" v:groupContext="shape" transform="translate(266.4,-90)">
				<title>Sheet.169</title>
				<path d="M0 228.61 L14.4 228.61" class="st2"/>
			</g>
			<g id="shape170-501" v:mID="170" v:groupContext="shape" transform="translate(169.92,2.84217E-14)">
				<title>Sheet.170</title>
				<desc>STM32F3xx / STM32G4xx</desc>
				<v:textBlock v:margins="rect(1,1,1,1)"/>
				<v:textRect cx="50.76" cy="219.108" width="101.52" height="18.9976"/>
				<rect x="0" y="209.609" width="101.52" height="18.9976" class="st18"/>
				<text x="4.48" y="221.51" class="st15" v:langID="1033"><v:paragraph v:horizAlign="2"/><v:tabList/>STM32F3xx<tspan
							class="st20" v:langID="1036"> </tspan><tspan class="st20" v:langID="1036">/ STM32G4xx</tspan></text>			</g>
			<g id="shape171-506" v:mID="171" v:groupContext="shape" transform="translate(282.607,70.2068) rotate(90)">
				<title>Sheet.171</title>
				<path d="M0 228.61 L59.4 228.61" class="st21"/>
			</g>
			<g id="shape172-512" v:mID="172" v:groupContext="shape" transform="translate(52.38,-88.2)">
				<title>Sheet.172</title>
				<desc>I</desc>
				<v:textBlock v:margins="rect(1,1,1,1)" v:verticalAlign="0"/>
				<v:textRect cx="8.82" cy="223.207" width="17.64" height="10.8"/>
				<rect x="0" y="217.807" width="17.64" height="10.8" class="st7"/>
				<text x="6.87" y="227.81" class="st23" v:langID="1033"><v:paragraph v:horizAlign="1"/><v:tabList/>I</text>			</g>
			<g id="shape173-515" v:mID="173" v:groupContext="shape" transform="translate(84.96,-100.8)">
				<title>Sheet.173</title>
				<desc>V+</desc>
				<v:textBlock v:margins="rect(1,1,1,1)" v:verticalAlign="0"/>
				<v:textRect cx="9.9" cy="223.207" width="19.8" height="10.8"/>
				<rect x="0" y="217.807" width="19.8" height="10.8" class="st7"/>
				<text x="4.33" y="226.91" class="st10" v:langID="1033"><v:paragraph v:horizAlign="1"/><v:tabList/>V+</text>			</g>
			<g id="shape174-518" v:mID="174" v:groupContext="shape" transform="translate(-134.647,117.007) rotate(-90)">
				<title>Sheet.174</title>
				<path d="M0 228.61 L7.23 228.61" class="st24"/>
			</g>
			<g id="shape175-524" v:mID="175" v:groupContext="shape" transform="translate(174.78,-21.6)">
				<title>Sheet.175</title>
				<desc>Current measurement</desc>
				<v:textBlock v:margins="rect(1,1,1,1)" v:verticalAlign="0"/>
				<v:textRect cx="38.7" cy="223.207" width="77.4" height="10.8"/>
				<rect x="0" y="217.807" width="77.4" height="10.8" class="st7"/>
				<text x="2.36" y="226.01" class="st26" v:langID="1033"><v:paragraph v:horizAlign="1"/><v:tabList/>Current measurement</text>			</g>
			<g id="shape176-527" v:mID="176" v:groupContext="shape" transform="translate(155.52,399.614) rotate(180)">
				<title>Sheet.176</title>
				<path d="M1.89 228.61 L2.25 228.61 L97.92 228.61" class="st5"/>
			</g>
			<g id="shape177-532" v:mID="177" v:groupContext="shape" transform="translate(-171.007,194.767) rotate(-90)">
				<title>Sheet.177</title>
				<path d="M0 228.61 L10.43 228.61" class="st2"/>
			</g>
			<g id="shape178-535" v:mID="178" v:groupContext="shape" transform="translate(51.84,-33.84)">
				<title>Sheet.178</title>
				<path d="M0 228.61 L12.24 228.61" class="st2"/>
			</g>
			<g id="shape179-538" v:mID="179" v:groupContext="shape" transform="translate(54,-31.68)">
				<title>Sheet.179</title>
				<path d="M0 228.61 L7.2 228.61" class="st2"/>
			</g>
			<g id="shape180-541" v:mID="180" v:groupContext="shape" transform="translate(56.52,-29.52)">
				<title>Sheet.180</title>
				<path d="M0 228.61 L2.07 228.61" class="st2"/>
			</g>
			<g id="shape181-544" v:mID="181" v:groupContext="shape" transform="translate(50.4,-50.4)">
				<title>Sheet.181</title>
				<path d="M0 228.61 L14.4 228.61" class="st27"/>
			</g>
			<g id="shape182-547" v:mID="182" v:groupContext="shape" transform="translate(50.4,-45.36)">
				<title>Sheet.182</title>
				<path d="M0 228.61 L14.4 228.61" class="st27"/>
			</g>
			<g id="shape183-550" v:mID="183" v:groupContext="shape" transform="translate(-171.007,177.487) rotate(-90)">
				<title>Sheet.183</title>
				<path d="M0 228.61 L6.11 228.61" class="st2"/>
			</g>
			<g id="shape184-553" v:mID="184" v:groupContext="shape" transform="translate(23.4,-48.6)">
				<title>Sheet.184</title>
				<desc>CFilter</desc>
				<v:textBlock v:margins="rect(1,1,1,1)" v:verticalAlign="0"/>
				<v:textRect cx="12.6" cy="223.207" width="25.21" height="10.8"/>
				<rect x="0" y="217.807" width="25.2" height="10.8" class="st7"/>
				<text x="1.68" y="227.81" class="st8" v:langID="1033"><v:paragraph v:horizAlign="1"/><v:tabList/>C<tspan
							dy="-0.279em" class="st9" v:baseFontSize="10">Filter</tspan></text>			</g>
		</g>
	</g>
</svg>
