<?xml version="1.0" encoding="UTF-8" standalone="no"?>
<!DOCTYPE svg PUBLIC "-//W3C//DTD SVG 1.1//EN" "http://www.w3.org/Graphics/SVG/1.1/DTD/svg11.dtd">
<!-- Generated by Microsoft Visio, SVG Export current_sensing_opamp_comp_intgain.svg Page-1 -->
<svg xmlns="http://www.w3.org/2000/svg" xmlns:xlink="http://www.w3.org/1999/xlink" xmlns:ev="http://www.w3.org/2001/xml-events"
		xmlns:v="http://schemas.microsoft.com/visio/2003/SVGExtensions/" width="4.46333in" height="3.17509in"
		viewBox="0 0 321.36 228.607" xml:space="preserve" color-interpolation-filters="sRGB" class="st27">
	<v:documentProperties v:langID="1033" v:metric="true" v:viewMarkup="false"/>

	<style type="text/css">
	<![CDATA[
		.st1 {fill:#eef2f7;stroke:#0070c0;stroke-dasharray:0.72,1.44;stroke-linecap:round;stroke-linejoin:round;stroke-width:0.72}
		.st2 {stroke:#595959;stroke-linecap:round;stroke-linejoin:round;stroke-width:1.2}
		.st3 {marker-end:url(#mrkr10-67);stroke:#595959;stroke-linecap:round;stroke-linejoin:round;stroke-width:1.2}
		.st4 {fill:#595959;fill-opacity:1;stroke:#595959;stroke-opacity:1;stroke-width:0.4}
		.st5 {marker-start:url(#mrkr10-73);stroke:#595959;stroke-linecap:round;stroke-linejoin:round;stroke-width:1.2}
		.st6 {marker-end:url(#mrkr5-269);stroke:#595959;stroke-linecap:round;stroke-linejoin:round;stroke-width:1.2}
		.st7 {fill:none;stroke:none;stroke-linecap:round;stroke-linejoin:round;stroke-width:0.72}
		.st8 {fill:#595959;font-family:Times New Roman;font-size:0.833336em;font-style:italic;font-weight:bold}
		.st9 {baseline-shift:-32.4947%;font-size:0.649894em}
		.st10 {fill:#595959;font-family:Times New Roman;font-size:0.75em;font-style:italic;font-weight:bold}
		.st11 {baseline-shift:-32.4951%;font-size:0.649902em}
		.st12 {stroke:#595959;stroke-linecap:round;stroke-linejoin:round;stroke-width:0.72}
		.st13 {fill:none;stroke:#595959;stroke-linecap:round;stroke-linejoin:round;stroke-width:1.2}
		.st14 {fill:#595959;font-family:Arial;font-size:0.75em;font-weight:bold}
		.st15 {fill:#595959;font-family:Arial;font-size:0.666664em;font-weight:bold}
		.st16 {marker-start:url(#mrkr13-422);stroke:#595959;stroke-linecap:round;stroke-linejoin:round;stroke-width:1.2}
		.st17 {fill:none;stroke:#808080;stroke-dasharray:0.72,1.44;stroke-linecap:round;stroke-linejoin:round;stroke-width:0.72}
		.st18 {fill:none;stroke:none;stroke-linecap:round;stroke-linejoin:round;stroke-width:1.2}
		.st19 {fill:#595959;font-family:Arial;font-size:0.666664em}
		.st20 {font-size:1em}
		.st21 {marker-end:url(#mrkr13-511);stroke:#00b0f0;stroke-linecap:round;stroke-linejoin:round;stroke-width:1.2}
		.st22 {fill:#00b0f0;fill-opacity:1;stroke:#00b0f0;stroke-opacity:1;stroke-width:0.4}
		.st23 {fill:#00b0f0;font-family:Times New Roman;font-size:0.833336em;font-style:italic;font-weight:bold}
		.st24 {marker-end:url(#mrkr5-523);stroke:#595959;stroke-linecap:round;stroke-linejoin:round;stroke-width:0.24}
		.st25 {fill:#595959;fill-opacity:1;stroke:#595959;stroke-opacity:1;stroke-width:0.11764705882353}
		.st26 {fill:#595959;font-family:Times New Roman;font-size:0.666664em;font-style:italic;font-weight:bold}
		.st27 {fill:none;fill-rule:evenodd;font-size:12px;overflow:visible;stroke-linecap:square;stroke-miterlimit:3}
	]]>
	</style>

	<defs id="Markers">
		<g id="lend10">
			<path
					d="M 0 0.75 C -0.414214 0.75 -0.75 0.414214 -0.75 0 -0.75 -0.414214 -0.414214 -0.75 0 -0.75 0.414214 -0.75 0.75 -0.414214 0.75 0 0.75 0.414214 0.414214 0.75 0 0.75 Z "
					style="stroke:none"/>
		</g>
		<marker id="mrkr10-67" class="st4" v:arrowType="10" v:arrowSize="1" v:setback="1.875" refX="-1.875" orient="auto"
				markerUnits="strokeWidth" overflow="visible">
			<use xlink:href="#lend10" transform="scale(-2.5,-2.5) "/>
		</marker>
		<marker id="mrkr10-73" class="st4" v:arrowType="10" v:arrowSize="1" v:setback="1.575" refX="1.575" orient="auto"
				markerUnits="strokeWidth" overflow="visible">
			<use xlink:href="#lend10" transform="scale(2.5) "/>
		</marker>
		<g id="lend5">
			<path d="M 2 1 L 0 0 L 1.98117 -0.993387 C 1.67173 -0.364515 1.67301 0.372641 1.98465 1.00043 " style="stroke:none"/>
		</g>
		<marker id="mrkr5-269" class="st4" v:arrowType="5" v:arrowSize="1" v:setback="4.375" refX="-4.375" orient="auto"
				markerUnits="strokeWidth" overflow="visible">
			<use xlink:href="#lend5" transform="scale(-2.5,-2.5) "/>
		</marker>
		<g id="lend13">
			<path d="M 3 1 L 0 0 L 3 -1 L 3 1 " style="stroke:none"/>
		</g>
		<marker id="mrkr13-422" class="st4" v:arrowType="13" v:arrowSize="1" v:setback="7.2" refX="7.2" orient="auto"
				markerUnits="strokeWidth" overflow="visible">
			<use xlink:href="#lend13" transform="scale(2.5) "/>
		</marker>
		<marker id="mrkr13-511" class="st22" v:arrowType="13" v:arrowSize="1" v:setback="7.5" refX="-7.5" orient="auto"
				markerUnits="strokeWidth" overflow="visible">
			<use xlink:href="#lend13" transform="scale(-2.5,-2.5) "/>
		</marker>
		<marker id="mrkr5-523" class="st25" v:arrowType="5" v:arrowSize="1" v:setback="14.875" refX="-14.875" orient="auto"
				markerUnits="strokeWidth" overflow="visible">
			<use xlink:href="#lend5" transform="scale(-8.5000000000001,-8.5000000000001) "/>
		</marker>
	</defs>
	<g v:mID="0" v:index="1" v:groupContext="foregroundPage">
		<title>Page-1</title>
		<v:pageProperties v:drawingScale="0.0393701" v:pageScale="0.0393701" v:drawingUnits="24" v:shadowOffsetX="9"
				v:shadowOffsetY="-9"/>
		<g id="group359-1" transform="translate(0.6,-0.6)" v:mID="359" v:groupContext="group">
			<title>Sheet.359</title>
			<g id="shape185-2" v:mID="185" v:groupContext="shape" transform="translate(108,-3.6)">
				<title>Sheet.185</title>
				<path d="M0 228.61 L165.6 228.61 L165.6 91.81 L0 91.81 L0 228.61 Z" class="st1"/>
			</g>
			<g id="shape186-4" v:mID="186" v:groupContext="shape" transform="translate(-195.203,55.0043) rotate(-90)">
				<title>Sheet.186</title>
				<path d="M0 228.61 L8.81 228.61" class="st2"/>
			</g>
			<g id="shape187-7" v:mID="187" v:groupContext="shape" transform="translate(-192.561,59.4068) rotate(-90)">
				<title>Sheet.187</title>
				<path d="M0 228.61 L17.61 228.61" class="st2"/>
			</g>
			<g id="shape188-10" v:mID="188" v:groupContext="shape" transform="translate(28.1213,-178.005)">
				<title>Sheet.188</title>
				<path d="M0 228.61 L5.28 228.61" class="st2"/>
			</g>
			<g id="shape189-13" v:mID="189" v:groupContext="shape" transform="translate(-125.604,214.012) rotate(45) scale(1,-1)">
				<title>Sheet.189</title>
				<path d="M0 228.61 L4.98 228.61" class="st2"/>
			</g>
			<g id="shape190-16" v:mID="190" v:groupContext="shape" transform="translate(-189.039,54.564) rotate(-90) scale(-1,1)">
				<title>Sheet.190</title>
				<path d="M0 228.61 L1.32 228.61" class="st2"/>
			</g>
			<g id="shape191-19" v:mID="191" v:groupContext="shape" transform="translate(38.2471,284.492) scale(1,-1)">
				<title>Sheet.191</title>
				<path d="M0 228.61 L1.13 228.61" class="st2"/>
			</g>
			<g id="shape192-22" v:mID="192" v:groupContext="shape" transform="translate(-125.604,-113.249) rotate(-45)">
				<title>Sheet.192</title>
				<path d="M0 228.61 L4.98 228.61" class="st2"/>
			</g>
			<g id="shape193-25" v:mID="193" v:groupContext="shape" transform="translate(-189.039,76.1136) rotate(-90)">
				<title>Sheet.193</title>
				<path d="M0 228.61 L21.75 228.61" class="st2"/>
			</g>
			<g id="shape194-28" v:mID="194" v:groupContext="shape" transform="translate(-195.203,86.2394) rotate(-90)">
				<title>Sheet.194</title>
				<path d="M0 228.61 L8.81 228.61" class="st2"/>
			</g>
			<g id="shape195-31" v:mID="195" v:groupContext="shape" transform="translate(-192.561,90.642) rotate(-90)">
				<title>Sheet.195</title>
				<path d="M0 228.61 L17.61 228.61" class="st2"/>
			</g>
			<g id="shape196-34" v:mID="196" v:groupContext="shape" transform="translate(28.1213,-146.77)">
				<title>Sheet.196</title>
				<path d="M0 228.61 L5.28 228.61" class="st2"/>
			</g>
			<g id="shape197-37" v:mID="197" v:groupContext="shape" transform="translate(-125.604,245.247) rotate(45) scale(1,-1)">
				<title>Sheet.197</title>
				<path d="M0 228.61 L4.98 228.61" class="st2"/>
			</g>
			<g id="shape198-40" v:mID="198" v:groupContext="shape" transform="translate(-189.039,85.7992) rotate(-90) scale(-1,1)">
				<title>Sheet.198</title>
				<path d="M0 228.61 L1.32 228.61" class="st2"/>
			</g>
			<g id="shape199-43" v:mID="199" v:groupContext="shape" transform="translate(38.2471,315.727) scale(1,-1)">
				<title>Sheet.199</title>
				<path d="M0 228.61 L1.13 228.61" class="st2"/>
			</g>
			<g id="shape200-46" v:mID="200" v:groupContext="shape" transform="translate(-125.604,-82.0138) rotate(-45)">
				<title>Sheet.200</title>
				<path d="M0 228.61 L4.98 228.61" class="st2"/>
			</g>
			<g id="group201-49" transform="translate(41.6224,-176.244)" v:mID="201" v:groupContext="group">
				<title>Sheet.201</title>
				<g id="shape202-50" v:mID="202" v:groupContext="shape" transform="translate(-190.212,101.799) rotate(-56.3099)">
					<title>Sheet.202</title>
					<path d="M0 228.61 L4.23 228.61" class="st2"/>
				</g>
				<g id="shape203-53" v:mID="203" v:groupContext="shape"
						transform="translate(194.908,101.799) rotate(56.3099) scale(-1,1)">
					<title>Sheet.203</title>
					<path d="M0 228.61 L4.23 228.61" class="st2"/>
				</g>
				<g id="shape204-56" v:mID="204" v:groupContext="shape" transform="translate(0.146752,2.84217E-14)">
					<title>Sheet.204</title>
					<path d="M0 228.61 L4.4 228.61" class="st2"/>
				</g>
				<g id="shape205-59" v:mID="205" v:groupContext="shape" transform="translate(0.146752,-3.52204)">
					<title>Sheet.205</title>
					<path d="M0 228.61 L4.4 228.61" class="st2"/>
				</g>
			</g>
			<g id="shape206-62" v:mID="206" v:groupContext="shape" transform="translate(-189.039,44.8784) rotate(-90)">
				<title>Sheet.206</title>
				<path d="M0 228.61 L9.64 228.61" class="st3"/>
			</g>
			<g id="shape207-68" v:mID="207" v:groupContext="shape" transform="translate(-189.039,99.0068) rotate(-90)">
				<title>Sheet.207</title>
				<path d="M1.89 228.61 L2.25 228.61 L11.89 228.61" class="st5"/>
			</g>
			<g id="shape208-74" v:mID="208" v:groupContext="shape" transform="translate(39.5679,-186.81)">
				<title>Sheet.208</title>
				<path d="M0 228.61 L4.4 228.61" class="st2"/>
			</g>
			<g id="shape209-77" v:mID="209" v:groupContext="shape" transform="translate(272.577,41.7966) rotate(90)">
				<title>Sheet.209</title>
				<path d="M0 228.61 L7.04 228.61" class="st2"/>
			</g>
			<g id="shape210-80" v:mID="210" v:groupContext="shape" transform="translate(39.5679,-169.2)">
				<title>Sheet.210</title>
				<path d="M0 228.61 L4.4 228.61" class="st2"/>
			</g>
			<g id="shape211-83" v:mID="211" v:groupContext="shape" transform="translate(272.577,52.3628) rotate(90)">
				<title>Sheet.211</title>
				<path d="M0 228.61 L7.04 228.61" class="st2"/>
			</g>
			<g id="group212-86" transform="translate(41.6224,-145.009)" v:mID="212" v:groupContext="group">
				<title>Sheet.212</title>
				<g id="shape213-87" v:mID="213" v:groupContext="shape" transform="translate(-190.212,101.799) rotate(-56.3099)">
					<title>Sheet.213</title>
					<path d="M0 228.61 L4.23 228.61" class="st2"/>
				</g>
				<g id="shape214-90" v:mID="214" v:groupContext="shape"
						transform="translate(194.908,101.799) rotate(56.3099) scale(-1,1)">
					<title>Sheet.214</title>
					<path d="M0 228.61 L4.23 228.61" class="st2"/>
				</g>
				<g id="shape215-93" v:mID="215" v:groupContext="shape" transform="translate(0.146752,2.84217E-14)">
					<title>Sheet.215</title>
					<path d="M0 228.61 L4.4 228.61" class="st2"/>
				</g>
				<g id="shape216-96" v:mID="216" v:groupContext="shape" transform="translate(0.146752,-3.52204)">
					<title>Sheet.216</title>
					<path d="M0 228.61 L4.4 228.61" class="st2"/>
				</g>
			</g>
			<g id="shape217-99" v:mID="217" v:groupContext="shape" transform="translate(39.5679,-155.575)">
				<title>Sheet.217</title>
				<path d="M0 228.61 L4.4 228.61" class="st2"/>
			</g>
			<g id="shape218-102" v:mID="218" v:groupContext="shape" transform="translate(272.577,73.0318) rotate(90)">
				<title>Sheet.218</title>
				<path d="M0 228.61 L7.04 228.61" class="st2"/>
			</g>
			<g id="shape219-105" v:mID="219" v:groupContext="shape" transform="translate(39.5679,-137.965)">
				<title>Sheet.219</title>
				<path d="M0 228.61 L4.4 228.61" class="st2"/>
			</g>
			<g id="shape220-108" v:mID="220" v:groupContext="shape" transform="translate(272.577,83.5979) rotate(90)">
				<title>Sheet.220</title>
				<path d="M0 228.61 L7.04 228.61" class="st2"/>
			</g>
			<g id="shape221-111" v:mID="221" v:groupContext="shape" transform="translate(39.6,-162.18) scale(-1,1)">
				<title>Sheet.221</title>
				<path d="M1.89 228.61 L2.25 228.61 L25.2 228.61" class="st5"/>
			</g>
			<g id="shape222-116" v:mID="222" v:groupContext="shape" transform="translate(38.9213,-129.6)">
				<title>Sheet.222</title>
				<path d="M0 228.61 L25.88 228.61" class="st2"/>
			</g>
			<g id="group223-119" transform="translate(-2.59792E-14,-167.76)" v:mID="223" v:groupContext="group">
				<title>Sheet.223</title>
				<g id="group224-120" transform="translate(0,-21.6)" v:mID="224" v:groupContext="group">
					<title>Sheet.224</title>
					<g id="shape225-121" v:mID="225" v:groupContext="shape" transform="translate(55.0944,4.62908) rotate(14.0362)">
						<title>Sheet.225</title>
						<path d="M-0 227.16 A14.4 3.6 -14.04 0 0 14.84 227.16" class="st2"/>
					</g>
					<g id="shape226-124" v:mID="226" v:groupContext="shape"
							transform="translate(55.0944,445.385) rotate(-14.0362) scale(1,-1)">
						<title>Sheet.226</title>
						<path d="M-0 227.16 A14.4 3.6 -14.04 0 0 14.84 227.16" class="st2"/>
					</g>
				</g>
				<g id="group227-127" transform="translate(0,-14.4)" v:mID="227" v:groupContext="group">
					<title>Sheet.227</title>
					<g id="shape228-128" v:mID="228" v:groupContext="shape" transform="translate(55.0944,4.62908) rotate(14.0362)">
						<title>Sheet.228</title>
						<path d="M-0 227.16 A14.4 3.6 -14.04 0 0 14.84 227.16" class="st2"/>
					</g>
					<g id="shape229-131" v:mID="229" v:groupContext="shape"
							transform="translate(55.0944,445.385) rotate(-14.0362) scale(1,-1)">
						<title>Sheet.229</title>
						<path d="M-0 227.16 A14.4 3.6 -14.04 0 0 14.84 227.16" class="st2"/>
					</g>
				</g>
				<g id="group230-134" transform="translate(0,-7.2)" v:mID="230" v:groupContext="group">
					<title>Sheet.230</title>
					<g id="shape231-135" v:mID="231" v:groupContext="shape" transform="translate(55.0944,4.62908) rotate(14.0362)">
						<title>Sheet.231</title>
						<path d="M-0 227.16 A14.4 3.6 -14.04 0 0 14.84 227.16" class="st2"/>
					</g>
					<g id="shape232-138" v:mID="232" v:groupContext="shape"
							transform="translate(55.0944,445.385) rotate(-14.0362) scale(1,-1)">
						<title>Sheet.232</title>
						<path d="M-0 227.16 A14.4 3.6 -14.04 0 0 14.84 227.16" class="st2"/>
					</g>
				</g>
				<g id="group233-141" v:mID="233" v:groupContext="group">
					<title>Sheet.233</title>
					<g id="shape234-142" v:mID="234" v:groupContext="shape" transform="translate(55.0944,4.62908) rotate(14.0362)">
						<title>Sheet.234</title>
						<path d="M-0 227.16 A14.4 3.6 -14.04 0 0 14.84 227.16" class="st2"/>
					</g>
					<g id="shape235-145" v:mID="235" v:groupContext="shape"
							transform="translate(55.0944,445.385) rotate(-14.0362) scale(1,-1)">
						<title>Sheet.235</title>
						<path d="M-0 227.16 A14.4 3.6 -14.04 0 0 14.84 227.16" class="st2"/>
					</g>
				</g>
			</g>
			<g id="shape236-148" v:mID="236" v:groupContext="shape" transform="translate(-214.207,66.4268) rotate(-90)">
				<title>Sheet.236</title>
				<path d="M0 228.61 L5.72 228.61" class="st2"/>
			</g>
			<g id="shape237-151" v:mID="237" v:groupContext="shape" transform="translate(-214.207,32.0468) rotate(-90)">
				<title>Sheet.237</title>
				<path d="M0 228.61 L7.2 228.61" class="st2"/>
			</g>
			<g id="shape238-154" v:mID="238" v:groupContext="shape" transform="translate(126.72,-43.56)">
				<title>Sheet.238</title>
				<path d="M0 228.61 L10.98 228.61" class="st2"/>
			</g>
			<g id="shape239-157" v:mID="239" v:groupContext="shape" transform="translate(-188.966,113.407) rotate(-90)">
				<title>Sheet.239</title>
				<path d="M0 228.61 L14.03 228.61" class="st2"/>
			</g>
			<g id="shape240-160" v:mID="240" v:groupContext="shape" transform="translate(-189.007,142.207) rotate(-90)">
				<title>Sheet.240</title>
				<path d="M0 228.61 L10.43 228.61" class="st2"/>
			</g>
			<g id="group241-163" transform="translate(31.68,-97.2)" v:mID="241" v:groupContext="group">
				<title>Sheet.241</title>
				<g id="shape242-164" v:mID="242" v:groupContext="shape" transform="translate(68.0704,-9.94477) rotate(15.2551)">
					<title>Sheet.242</title>
					<path d="M0 228.61 L8.21 228.61" class="st2"/>
				</g>
				<g id="shape243-167" v:mID="243" v:groupContext="shape"
						transform="translate(-25.0544,-12.1526) rotate(-10.3048) scale(-1,1)">
					<title>Sheet.243</title>
					<path d="M0 228.61 L8.05 228.61" class="st2"/>
				</g>
				<g id="shape244-170" v:mID="244" v:groupContext="shape"
						transform="translate(-32.9744,-10.7126) rotate(-10.3048) scale(-1,1)">
					<title>Sheet.244</title>
					<path d="M0 228.61 L8.05 228.61" class="st2"/>
				</g>
				<g id="shape245-173" v:mID="245" v:groupContext="shape" transform="translate(60.1504,-4.90477) rotate(15.2551)">
					<title>Sheet.245</title>
					<path d="M0 228.61 L8.21 228.61" class="st2"/>
				</g>
				<g id="shape246-176" v:mID="246" v:groupContext="shape" transform="translate(68.0704,-2.74477) rotate(15.2551)">
					<title>Sheet.246</title>
					<path d="M0 228.61 L8.21 228.61" class="st2"/>
				</g>
				<g id="shape247-179" v:mID="247" v:groupContext="shape"
						transform="translate(-25.0544,-4.95255) rotate(-10.3048) scale(-1,1)">
					<title>Sheet.247</title>
					<path d="M0 228.61 L8.05 228.61" class="st2"/>
				</g>
				<g id="shape248-182" v:mID="248" v:groupContext="shape"
						transform="translate(-32.9744,-3.51255) rotate(-10.3048) scale(-1,1)">
					<title>Sheet.248</title>
					<path d="M0 228.61 L8.05 228.61" class="st2"/>
				</g>
				<g id="shape249-185" v:mID="249" v:groupContext="shape" transform="translate(60.1504,2.29523) rotate(15.2551)">
					<title>Sheet.249</title>
					<path d="M0 228.61 L8.21 228.61" class="st2"/>
				</g>
				<g id="shape250-188" v:mID="250" v:groupContext="shape" transform="translate(68.0704,4.45523) rotate(15.2551)">
					<title>Sheet.250</title>
					<path d="M0 228.61 L8.21 228.61" class="st2"/>
				</g>
				<g id="shape251-191" v:mID="251" v:groupContext="shape"
						transform="translate(-25.0544,2.24745) rotate(-10.3048) scale(-1,1)">
					<title>Sheet.251</title>
					<path d="M0 228.61 L8.05 228.61" class="st2"/>
				</g>
			</g>
			<g id="group252-194" transform="translate(293.407,91.0868) rotate(90)" v:mID="252" v:groupContext="group">
				<title>Sheet.252</title>
				<g id="shape253-195" v:mID="253" v:groupContext="shape" transform="translate(68.0704,-9.94477) rotate(15.2551)">
					<title>Sheet.253</title>
					<path d="M0 228.61 L8.21 228.61" class="st2"/>
				</g>
				<g id="shape254-198" v:mID="254" v:groupContext="shape"
						transform="translate(-25.0544,-12.1526) rotate(-10.3048) scale(-1,1)">
					<title>Sheet.254</title>
					<path d="M0 228.61 L8.05 228.61" class="st2"/>
				</g>
				<g id="shape255-201" v:mID="255" v:groupContext="shape"
						transform="translate(-32.9744,-10.7126) rotate(-10.3048) scale(-1,1)">
					<title>Sheet.255</title>
					<path d="M0 228.61 L8.05 228.61" class="st2"/>
				</g>
				<g id="shape256-204" v:mID="256" v:groupContext="shape" transform="translate(60.1504,-4.90477) rotate(15.2551)">
					<title>Sheet.256</title>
					<path d="M0 228.61 L8.21 228.61" class="st2"/>
				</g>
				<g id="shape257-207" v:mID="257" v:groupContext="shape" transform="translate(68.0704,-2.74477) rotate(15.2551)">
					<title>Sheet.257</title>
					<path d="M0 228.61 L8.21 228.61" class="st2"/>
				</g>
				<g id="shape258-210" v:mID="258" v:groupContext="shape"
						transform="translate(-25.0544,-4.95255) rotate(-10.3048) scale(-1,1)">
					<title>Sheet.258</title>
					<path d="M0 228.61 L8.05 228.61" class="st2"/>
				</g>
				<g id="shape259-213" v:mID="259" v:groupContext="shape"
						transform="translate(-32.9744,-3.51255) rotate(-10.3048) scale(-1,1)">
					<title>Sheet.259</title>
					<path d="M0 228.61 L8.05 228.61" class="st2"/>
				</g>
				<g id="shape260-216" v:mID="260" v:groupContext="shape" transform="translate(60.1504,2.29523) rotate(15.2551)">
					<title>Sheet.260</title>
					<path d="M0 228.61 L8.21 228.61" class="st2"/>
				</g>
				<g id="shape261-219" v:mID="261" v:groupContext="shape" transform="translate(68.0704,4.45523) rotate(15.2551)">
					<title>Sheet.261</title>
					<path d="M0 228.61 L8.21 228.61" class="st2"/>
				</g>
				<g id="shape262-222" v:mID="262" v:groupContext="shape"
						transform="translate(-25.0544,2.24745) rotate(-10.3048) scale(-1,1)">
					<title>Sheet.262</title>
					<path d="M0 228.61 L8.05 228.61" class="st2"/>
				</g>
			</g>
			<g id="shape263-225" v:mID="263" v:groupContext="shape" transform="translate(82.8,-129.6)">
				<title>Sheet.263</title>
				<path d="M0 228.61 L79.2 228.61" class="st2"/>
			</g>
			<g id="shape264-228" v:mID="264" v:groupContext="shape" transform="translate(-135.007,99.0068) rotate(-90)">
				<title>Sheet.264</title>
				<path d="M1.89 228.61 L2.25 228.61 L10.43 228.61" class="st5"/>
			</g>
			<g id="group265-233" transform="translate(85.68,-140.4)" v:mID="265" v:groupContext="group">
				<title>Sheet.265</title>
				<g id="shape266-234" v:mID="266" v:groupContext="shape" transform="translate(68.0704,-9.94477) rotate(15.2551)">
					<title>Sheet.266</title>
					<path d="M0 228.61 L8.21 228.61" class="st2"/>
				</g>
				<g id="shape267-237" v:mID="267" v:groupContext="shape"
						transform="translate(-25.0544,-12.1526) rotate(-10.3048) scale(-1,1)">
					<title>Sheet.267</title>
					<path d="M0 228.61 L8.05 228.61" class="st2"/>
				</g>
				<g id="shape268-240" v:mID="268" v:groupContext="shape"
						transform="translate(-32.9744,-10.7126) rotate(-10.3048) scale(-1,1)">
					<title>Sheet.268</title>
					<path d="M0 228.61 L8.05 228.61" class="st2"/>
				</g>
				<g id="shape269-243" v:mID="269" v:groupContext="shape" transform="translate(60.1504,-4.90477) rotate(15.2551)">
					<title>Sheet.269</title>
					<path d="M0 228.61 L8.21 228.61" class="st2"/>
				</g>
				<g id="shape270-246" v:mID="270" v:groupContext="shape" transform="translate(68.0704,-2.74477) rotate(15.2551)">
					<title>Sheet.270</title>
					<path d="M0 228.61 L8.21 228.61" class="st2"/>
				</g>
				<g id="shape271-249" v:mID="271" v:groupContext="shape"
						transform="translate(-25.0544,-4.95255) rotate(-10.3048) scale(-1,1)">
					<title>Sheet.271</title>
					<path d="M0 228.61 L8.05 228.61" class="st2"/>
				</g>
				<g id="shape272-252" v:mID="272" v:groupContext="shape"
						transform="translate(-32.9744,-3.51255) rotate(-10.3048) scale(-1,1)">
					<title>Sheet.272</title>
					<path d="M0 228.61 L8.05 228.61" class="st2"/>
				</g>
				<g id="shape273-255" v:mID="273" v:groupContext="shape" transform="translate(60.1504,2.29523) rotate(15.2551)">
					<title>Sheet.273</title>
					<path d="M0 228.61 L8.21 228.61" class="st2"/>
				</g>
				<g id="shape274-258" v:mID="274" v:groupContext="shape" transform="translate(68.0704,4.45523) rotate(15.2551)">
					<title>Sheet.274</title>
					<path d="M0 228.61 L8.21 228.61" class="st2"/>
				</g>
				<g id="shape275-261" v:mID="275" v:groupContext="shape"
						transform="translate(-25.0544,2.24745) rotate(-10.3048) scale(-1,1)">
					<title>Sheet.275</title>
					<path d="M0 228.61 L8.05 228.61" class="st2"/>
				</g>
			</g>
			<g id="shape276-264" v:mID="276" v:groupContext="shape" transform="translate(-135.007,69.8468) rotate(-90)">
				<title>Sheet.276</title>
				<path d="M0 228.61 L13.1 228.61" class="st6"/>
			</g>
			<g id="group277-270" transform="translate(366.47,180.367) rotate(90)" v:mID="277" v:groupContext="group">
				<title>Sheet.277</title>
				<g id="shape278-271" v:mID="278" v:groupContext="shape" transform="translate(64.8304,-2.58113) rotate(15.2551)">
					<title>Sheet.278</title>
					<path d="M0 228.61 L4.85 228.61" class="st2"/>
				</g>
				<g id="shape279-274" v:mID="279" v:groupContext="shape"
						transform="translate(-31.5344,-5.67255) rotate(-10.3048) scale(-1,1)">
					<title>Sheet.279</title>
					<path d="M0 228.61 L4.76 228.61" class="st2"/>
				</g>
				<g id="shape280-277" v:mID="280" v:groupContext="shape"
						transform="translate(-36.2144,-4.82164) rotate(-10.3048) scale(-1,1)">
					<title>Sheet.280</title>
					<path d="M0 228.61 L4.76 228.61" class="st2"/>
				</g>
				<g id="shape281-280" v:mID="281" v:groupContext="shape" transform="translate(60.1504,0.397049) rotate(15.2551)">
					<title>Sheet.281</title>
					<path d="M0 228.61 L4.85 228.61" class="st2"/>
				</g>
				<g id="shape282-283" v:mID="282" v:groupContext="shape" transform="translate(64.8304,1.67341) rotate(15.2551)">
					<title>Sheet.282</title>
					<path d="M0 228.61 L4.85 228.61" class="st2"/>
				</g>
				<g id="shape283-286" v:mID="283" v:groupContext="shape"
						transform="translate(-31.5344,-1.41801) rotate(-10.3048) scale(-1,1)">
					<title>Sheet.283</title>
					<path d="M0 228.61 L4.76 228.61" class="st2"/>
				</g>
				<g id="shape284-289" v:mID="284" v:groupContext="shape"
						transform="translate(-36.2144,-0.567097) rotate(-10.3048) scale(-1,1)">
					<title>Sheet.284</title>
					<path d="M0 228.61 L4.76 228.61" class="st2"/>
				</g>
				<g id="shape285-292" v:mID="285" v:groupContext="shape" transform="translate(60.1504,4.65159) rotate(15.2551)">
					<title>Sheet.285</title>
					<path d="M0 228.61 L4.85 228.61" class="st2"/>
				</g>
				<g id="shape286-295" v:mID="286" v:groupContext="shape" transform="translate(64.8304,5.92796) rotate(15.2551)">
					<title>Sheet.286</title>
					<path d="M0 228.61 L4.85 228.61" class="st2"/>
				</g>
				<g id="shape287-298" v:mID="287" v:groupContext="shape"
						transform="translate(-31.5344,2.83654) rotate(-10.3048) scale(-1,1)">
					<title>Sheet.287</title>
					<path d="M0 228.61 L4.76 228.61" class="st2"/>
				</g>
			</g>
			<g id="shape288-301" v:mID="288" v:groupContext="shape" transform="translate(3.6,-104.4)">
				<title>Sheet.288</title>
				<desc>RShunt</desc>
				<v:textBlock v:margins="rect(1,1,1,1)" v:verticalAlign="0"/>
				<v:textRect cx="12.6" cy="223.207" width="25.21" height="10.8"/>
				<rect x="0" y="217.807" width="25.2" height="10.8" class="st7"/>
				<text x="1.13" y="227.81" class="st8" v:langID="1033"><v:paragraph v:horizAlign="1"/><v:tabList/>R<tspan
							dy="-0.279em" class="st9" v:baseFontSize="10">Shunt</tspan></text>			</g>
			<g id="shape289-305" v:mID="289" v:groupContext="shape" transform="translate(97.2,-144)">
				<title>Sheet.289</title>
				<desc>R1</desc>
				<v:textBlock v:margins="rect(1,1,1,1)" v:verticalAlign="0"/>
				<v:textRect cx="12.6" cy="223.207" width="25.21" height="10.8"/>
				<rect x="0" y="217.807" width="25.2" height="10.8" class="st7"/>
				<text x="8.14" y="226.91" class="st10" v:langID="1033"><v:paragraph v:horizAlign="1"/><v:tabList/>R<tspan
							dy="-0.279em" class="st11" v:baseFontSize="9">1</tspan></text>			</g>
			<g id="shape290-309" v:mID="290" v:groupContext="shape" transform="translate(63.36,-109.8)">
				<title>Sheet.290</title>
				<desc>R2</desc>
				<v:textBlock v:margins="rect(1,1,1,1)" v:verticalAlign="0"/>
				<v:textRect cx="12.6" cy="223.207" width="25.21" height="10.8"/>
				<rect x="0" y="217.807" width="25.2" height="10.8" class="st7"/>
				<text x="8.14" y="226.91" class="st10" v:langID="1033"><v:paragraph v:horizAlign="1"/><v:tabList/>R<tspan
							dy="-0.279em" class="st11" v:baseFontSize="9">2</tspan></text>			</g>
			<g id="shape291-313" v:mID="291" v:groupContext="shape" transform="translate(33.84,-86.4)">
				<title>Sheet.291</title>
				<path d="M0 228.61 L12.24 228.61" class="st2"/>
			</g>
			<g id="shape292-316" v:mID="292" v:groupContext="shape" transform="translate(36,-84.24)">
				<title>Sheet.292</title>
				<path d="M0 228.61 L7.2 228.61" class="st2"/>
			</g>
			<g id="shape293-319" v:mID="293" v:groupContext="shape" transform="translate(38.52,-82.08)">
				<title>Sheet.293</title>
				<path d="M0 228.61 L2.07 228.61" class="st2"/>
			</g>
			<g id="group294-322" transform="translate(406.349,180.367) rotate(90)" v:mID="294" v:groupContext="group">
				<title>Sheet.294</title>
				<g id="shape295-323" v:mID="295" v:groupContext="shape" transform="translate(64.8304,-2.58113) rotate(15.2551)">
					<title>Sheet.295</title>
					<path d="M0 228.61 L4.85 228.61" class="st2"/>
				</g>
				<g id="shape296-326" v:mID="296" v:groupContext="shape"
						transform="translate(-31.5344,-5.67255) rotate(-10.3048) scale(-1,1)">
					<title>Sheet.296</title>
					<path d="M0 228.61 L4.76 228.61" class="st2"/>
				</g>
				<g id="shape297-329" v:mID="297" v:groupContext="shape"
						transform="translate(-36.2144,-4.82164) rotate(-10.3048) scale(-1,1)">
					<title>Sheet.297</title>
					<path d="M0 228.61 L4.76 228.61" class="st2"/>
				</g>
				<g id="shape298-332" v:mID="298" v:groupContext="shape" transform="translate(60.1504,0.397049) rotate(15.2551)">
					<title>Sheet.298</title>
					<path d="M0 228.61 L4.85 228.61" class="st2"/>
				</g>
				<g id="shape299-335" v:mID="299" v:groupContext="shape" transform="translate(64.8304,1.67341) rotate(15.2551)">
					<title>Sheet.299</title>
					<path d="M0 228.61 L4.85 228.61" class="st2"/>
				</g>
				<g id="shape300-338" v:mID="300" v:groupContext="shape"
						transform="translate(-31.5344,-1.41801) rotate(-10.3048) scale(-1,1)">
					<title>Sheet.300</title>
					<path d="M0 228.61 L4.76 228.61" class="st2"/>
				</g>
				<g id="shape301-341" v:mID="301" v:groupContext="shape"
						transform="translate(-36.2144,-0.567097) rotate(-10.3048) scale(-1,1)">
					<title>Sheet.301</title>
					<path d="M0 228.61 L4.76 228.61" class="st2"/>
				</g>
				<g id="shape302-344" v:mID="302" v:groupContext="shape" transform="translate(60.1504,4.65159) rotate(15.2551)">
					<title>Sheet.302</title>
					<path d="M0 228.61 L4.85 228.61" class="st2"/>
				</g>
				<g id="shape303-347" v:mID="303" v:groupContext="shape" transform="translate(64.8304,5.92796) rotate(15.2551)">
					<title>Sheet.303</title>
					<path d="M0 228.61 L4.85 228.61" class="st2"/>
				</g>
				<g id="shape304-350" v:mID="304" v:groupContext="shape"
						transform="translate(-31.5344,2.83654) rotate(-10.3048) scale(-1,1)">
					<title>Sheet.304</title>
					<path d="M0 228.61 L4.76 228.61" class="st2"/>
				</g>
			</g>
			<g id="group305-353" transform="translate(162.9,-50.76)" v:mID="305" v:groupContext="group">
				<title>Sheet.305</title>
				<g id="shape306-354" v:mID="306" v:groupContext="shape" transform="translate(-228.607,228.607) rotate(-90)">
					<title>Sheet.306</title>
					<path d="M0 228.61 L28.8 228.61" class="st2"/>
				</g>
				<g id="shape307-357" v:mID="307" v:groupContext="shape" transform="translate(-73.4361,418.679) rotate(-153.435)">
					<title>Sheet.307</title>
					<path d="M0 228.61 L32.2 228.61" class="st2"/>
				</g>
				<g id="shape308-360" v:mID="308" v:groupContext="shape"
						transform="translate(102.236,433.079) rotate(-26.5651) scale(1,-1)">
					<title>Sheet.308</title>
					<path d="M0 228.61 L32.2 228.61" class="st2"/>
				</g>
				<g id="shape309-363" v:mID="309" v:groupContext="shape" transform="translate(6.48,450.014) rotate(180)">
					<title>Sheet.309</title>
					<path d="M0 228.61 L4.32 228.61" class="st12"/>
				</g>
				<g id="group310-366" transform="translate(2.16,-19.44)" v:mID="310" v:groupContext="group">
					<title>Sheet.310</title>
					<g id="shape311-367" v:mID="311" v:groupContext="shape" transform="translate(-226.447,228.607) rotate(-90)">
						<title>Sheet.311</title>
						<path d="M0 228.61 L4.32 228.61" class="st12"/>
					</g>
					<g id="shape312-370" v:mID="312" v:groupContext="shape" transform="translate(4.32,455.054) rotate(180)">
						<title>Sheet.312</title>
						<path d="M0 228.61 L4.32 228.61" class="st12"/>
					</g>
				</g>
			</g>
			<g id="shape313-373" v:mID="313" v:groupContext="shape" transform="translate(191.52,-65.16)">
				<title>Sheet.313</title>
				<path d="M0 228.61 L20.88 228.61" class="st2"/>
			</g>
			<g id="shape314-376" v:mID="314" v:groupContext="shape" transform="translate(423.727,163.807) rotate(90)">
				<title>Sheet.314</title>
				<path d="M1.89 228.61 L2.25 228.61 L21.24 228.61" class="st5"/>
			</g>
			<g id="shape315-381" v:mID="315" v:groupContext="shape" transform="translate(-101.887,195.474) rotate(-90)">
				<title>Sheet.315</title>
				<path d="M0 228.61 L10.43 228.61" class="st2"/>
			</g>
			<g id="shape316-384" v:mID="316" v:groupContext="shape" transform="translate(120.96,-33.1324)">
				<title>Sheet.316</title>
				<path d="M0 228.61 L12.24 228.61" class="st2"/>
			</g>
			<g id="shape317-387" v:mID="317" v:groupContext="shape" transform="translate(123.12,-30.9724)">
				<title>Sheet.317</title>
				<path d="M0 228.61 L7.2 228.61" class="st2"/>
			</g>
			<g id="shape318-390" v:mID="318" v:groupContext="shape" transform="translate(125.64,-28.8124)">
				<title>Sheet.318</title>
				<path d="M0 228.61 L2.07 228.61" class="st2"/>
			</g>
			<g id="shape319-393" v:mID="319" v:groupContext="shape" transform="translate(148.5,-43.56)">
				<title>Sheet.319</title>
				<path d="M0 228.61 L29.16 228.61" class="st2"/>
			</g>
			<g id="shape320-396" v:mID="320" v:groupContext="shape" transform="translate(188.46,-43.56)">
				<title>Sheet.320</title>
				<path d="M0 228.61 L6.66 228.61" class="st2"/>
			</g>
			<g id="shape321-399" v:mID="321" v:groupContext="shape" transform="translate(213.12,-50.76)">
				<title>Sheet.321</title>
				<desc>ADC</desc>
				<v:textBlock v:margins="rect(1,1,1,1)"/>
				<v:textRect cx="15.84" cy="214.207" width="31.68" height="28.8"/>
				<rect x="0" y="199.807" width="31.68" height="28.8" class="st13"/>
				<text x="6.09" y="216.91" class="st14" v:langID="1033"><v:paragraph v:horizAlign="1"/><v:tabList/>ADC</text>			</g>
			<g id="shape322-402" v:mID="322" v:groupContext="shape" transform="translate(155.7,-57.96)">
				<title>Sheet.322</title>
				<path d="M0 228.61 L6.83 228.61" class="st2"/>
			</g>
			<g id="shape323-405" v:mID="323" v:groupContext="shape" transform="translate(-72.9068,185.047) rotate(-90)">
				<title>Sheet.323</title>
				<path d="M1.89 228.61 L2.25 228.61 L14.4 228.61" class="st5"/>
			</g>
			<g id="shape324-410" v:mID="324" v:groupContext="shape" transform="translate(93.6,-171)">
				<title>Sheet.324</title>
				<desc>+VDD</desc>
				<v:textBlock v:margins="rect(1,1,1,1)" v:verticalAlign="0"/>
				<v:textRect cx="12.6" cy="223.207" width="25.21" height="10.8"/>
				<rect x="0" y="217.807" width="25.2" height="10.8" class="st7"/>
				<text x="2.81" y="226.91" class="st10" v:langID="1033"><v:paragraph v:horizAlign="1"/><v:tabList/>+V<tspan
							dy="-0.279em" class="st11" v:baseFontSize="9">DD</tspan></text>			</g>
			<g id="shape325-414" v:mID="325" v:groupContext="shape" transform="translate(168.12,-72.36)">
				<title>Sheet.325</title>
				<desc>OP AMP</desc>
				<v:textBlock v:margins="rect(1,1,1,1)" v:verticalAlign="0"/>
				<v:textRect cx="20.7" cy="223.207" width="41.41" height="10.8"/>
				<rect x="0" y="217.807" width="41.4" height="10.8" class="st7"/>
				<text x="4.92" y="226.01" class="st15" v:langID="1033"><v:paragraph v:horizAlign="1"/><v:tabList/>OP AMP</text>			</g>
			<g id="shape326-417" v:mID="326" v:groupContext="shape" transform="translate(-214.207,29.8868) rotate(-90)">
				<title>Sheet.326</title>
				<path d="M8.64 228.61 L9 228.61 L19.8 228.61" class="st16"/>
			</g>
			<g id="shape327-423" v:mID="327" v:groupContext="shape" transform="translate(12.24,-200.88)">
				<title>Sheet.327</title>
				<desc>iA</desc>
				<v:textBlock v:margins="rect(1,1,1,1)" v:verticalAlign="0"/>
				<v:textRect cx="12.6" cy="223.207" width="25.21" height="10.8"/>
				<rect x="0" y="217.807" width="25.2" height="10.8" class="st7"/>
				<text x="9.04" y="227.81" class="st8" v:langID="1033"><v:paragraph v:horizAlign="1"/><v:tabList/>i<tspan
							dy="-0.279em" class="st9" v:baseFontSize="10">A</tspan></text>			</g>
			<g id="shape328-427" v:mID="328" v:groupContext="shape" transform="translate(115.2,-21.6)">
				<title>Sheet.328</title>
				<path d="M0 228.61 L136.8 228.61 L136.8 167.41 L0 167.41 L0 228.61 Z" class="st17"/>
			</g>
			<g id="shape329-429" v:mID="329" v:groupContext="shape" transform="translate(280.8,-102.6)">
				<title>Sheet.329</title>
				<desc>6 PWM</desc>
				<v:textBlock v:margins="rect(1,1,1,1)" v:verticalAlign="0"/>
				<v:textRect cx="19.8" cy="223.207" width="39.6" height="10.8"/>
				<rect x="0" y="217.807" width="39.6" height="10.8" class="st7"/>
				<text x="4.1" y="227.81" class="st8" v:langID="1033"><v:paragraph v:horizAlign="1"/><v:tabList/>6 PWM</text>			</g>
			<g id="group330-432" transform="translate(162.9,-108)" v:mID="330" v:groupContext="group">
				<title>Sheet.330</title>
				<g id="shape331-433" v:mID="331" v:groupContext="shape" transform="translate(-228.607,228.607) rotate(-90)">
					<title>Sheet.331</title>
					<path d="M0 228.61 L28.8 228.61" class="st2"/>
				</g>
				<g id="shape332-436" v:mID="332" v:groupContext="shape" transform="translate(-73.4361,418.679) rotate(-153.435)">
					<title>Sheet.332</title>
					<path d="M0 228.61 L32.2 228.61" class="st2"/>
				</g>
				<g id="shape333-439" v:mID="333" v:groupContext="shape"
						transform="translate(102.236,433.079) rotate(-26.5651) scale(1,-1)">
					<title>Sheet.333</title>
					<path d="M0 228.61 L32.2 228.61" class="st2"/>
				</g>
				<g id="shape334-442" v:mID="334" v:groupContext="shape" transform="translate(6.48,450.014) rotate(180)">
					<title>Sheet.334</title>
					<path d="M0 228.61 L4.32 228.61" class="st12"/>
				</g>
				<g id="group335-445" transform="translate(2.16,-19.44)" v:mID="335" v:groupContext="group">
					<title>Sheet.335</title>
					<g id="shape336-446" v:mID="336" v:groupContext="shape" transform="translate(-226.447,228.607) rotate(-90)">
						<title>Sheet.336</title>
						<path d="M0 228.61 L4.32 228.61" class="st12"/>
					</g>
					<g id="shape337-449" v:mID="337" v:groupContext="shape" transform="translate(4.32,455.054) rotate(180)">
						<title>Sheet.337</title>
						<path d="M0 228.61 L4.32 228.61" class="st12"/>
					</g>
				</g>
			</g>
			<g id="shape338-452" v:mID="338" v:groupContext="shape" transform="translate(155.7,-115.2)">
				<title>Sheet.338</title>
				<path d="M0 228.61 L6.83 228.61" class="st2"/>
			</g>
			<g id="shape339-455" v:mID="339" v:groupContext="shape" transform="translate(-72.9068,127.807) rotate(-90)">
				<title>Sheet.339</title>
				<path d="M1.89 228.61 L2.25 228.61 L14.4 228.61" class="st5"/>
			</g>
			<g id="shape340-460" v:mID="340" v:groupContext="shape" transform="translate(168.12,-128.16)">
				<title>Sheet.340</title>
				<desc>COMP</desc>
				<v:textBlock v:margins="rect(1,1,1,1)" v:verticalAlign="0"/>
				<v:textRect cx="20.7" cy="223.207" width="41.41" height="10.8"/>
				<rect x="0" y="217.807" width="41.4" height="10.8" class="st7"/>
				<text x="8.7" y="226.01" class="st15" v:langID="1033"><v:paragraph v:horizAlign="1"/><v:tabList/>COMP</text>			</g>
			<g id="shape341-463" v:mID="341" v:groupContext="shape" transform="translate(373.327,99.0068) rotate(90)">
				<title>Sheet.341</title>
				<path d="M1.89 228.61 L2.25 228.61 L57.6 228.61" class="st5"/>
			</g>
			<g id="shape342-468" v:mID="342" v:groupContext="shape" transform="translate(149.76,-88.2)">
				<title>Sheet.342</title>
				<desc>V-</desc>
				<v:textBlock v:margins="rect(1,1,1,1)" v:verticalAlign="0"/>
				<v:textRect cx="7.2" cy="223.207" width="14.4" height="10.8"/>
				<rect x="0" y="217.807" width="14.4" height="10.8" class="st7"/>
				<text x="2.2" y="227.81" class="st8" v:langID="1033"><v:paragraph v:horizAlign="1"/><v:tabList/>V-</text>			</g>
			<g id="shape343-471" v:mID="343" v:groupContext="shape" transform="translate(144.72,-72)">
				<title>Sheet.343</title>
				<path d="M0 228.61 L18 228.61" class="st2"/>
			</g>
			<g id="shape344-474" v:mID="344" v:groupContext="shape" transform="translate(191.52,-122.4)">
				<title>Sheet.344</title>
				<path d="M0 228.61 L14.4 228.61" class="st2"/>
			</g>
			<g id="shape345-477" v:mID="345" v:groupContext="shape" transform="translate(206.64,-86.4)">
				<title>Sheet.345</title>
				<desc>TIM 1,8</desc>
				<v:textBlock v:margins="rect(1,1,1,1)"/>
				<v:textRect cx="29.88" cy="207.007" width="59.76" height="43.2"/>
				<rect x="0" y="185.407" width="59.76" height="43.2" class="st13"/>
				<text x="14.63" y="209.71" class="st14" v:langID="1033"><v:paragraph v:horizAlign="1"/><v:tabList/>TIM 1,8</text>			</g>
			<g id="shape346-480" v:mID="346" v:groupContext="shape" transform="translate(206.46,-111.6)">
				<title>Sheet.346</title>
				<desc>BRK2</desc>
				<v:textBlock v:margins="rect(1,1,1,1)"/>
				<v:textRect cx="13.14" cy="219.108" width="26.29" height="18.9976"/>
				<rect x="0" y="209.609" width="26.28" height="18.9976" class="st18"/>
				<text x="4.38" y="221.51" class="st19" v:langID="1033"><v:paragraph v:horizAlign="2"/><v:tabList/>BRK2</text>			</g>
			<g id="shape347-483" v:mID="347" v:groupContext="shape" transform="translate(266.4,-126)">
				<title>Sheet.347</title>
				<path d="M0 228.61 L14.4 228.61" class="st2"/>
			</g>
			<g id="shape348-486" v:mID="348" v:groupContext="shape" transform="translate(266.4,-118.8)">
				<title>Sheet.348</title>
				<path d="M0 228.61 L14.4 228.61" class="st2"/>
			</g>
			<g id="shape349-489" v:mID="349" v:groupContext="shape" transform="translate(266.4,-111.6)">
				<title>Sheet.349</title>
				<path d="M0 228.61 L14.4 228.61" class="st2"/>
			</g>
			<g id="shape350-492" v:mID="350" v:groupContext="shape" transform="translate(266.4,-104.4)">
				<title>Sheet.350</title>
				<path d="M0 228.61 L14.4 228.61" class="st2"/>
			</g>
			<g id="shape351-495" v:mID="351" v:groupContext="shape" transform="translate(266.4,-97.2)">
				<title>Sheet.351</title>
				<path d="M0 228.61 L14.4 228.61" class="st2"/>
			</g>
			<g id="shape352-498" v:mID="352" v:groupContext="shape" transform="translate(266.4,-90)">
				<title>Sheet.352</title>
				<path d="M0 228.61 L14.4 228.61" class="st2"/>
			</g>
			<g id="shape353-501" v:mID="353" v:groupContext="shape" transform="translate(165.784,0)">
				<title>Sheet.353</title>
				<desc>STM32F3xx / STM32G4xx</desc>
				<v:textBlock v:margins="rect(1,1,1,1)"/>
				<v:textRect cx="52.8279" cy="219.108" width="105.66" height="18.9976"/>
				<rect x="0" y="209.609" width="105.656" height="18.9976" class="st18"/>
				<text x="8.61" y="221.51" class="st15" v:langID="1033"><v:paragraph v:horizAlign="2"/><v:tabList/>STM32F3xx<tspan
							class="st20" v:langID="1036"> </tspan><tspan class="st20" v:langID="1036">/ STM32G4xx</tspan></text>			</g>
			<g id="shape354-506" v:mID="354" v:groupContext="shape" transform="translate(282.607,70.2068) rotate(90)">
				<title>Sheet.354</title>
				<path d="M0 228.61 L59.4 228.61" class="st21"/>
			</g>
			<g id="shape355-512" v:mID="355" v:groupContext="shape" transform="translate(52.38,-88.2)">
				<title>Sheet.355</title>
				<desc>I</desc>
				<v:textBlock v:margins="rect(1,1,1,1)" v:verticalAlign="0"/>
				<v:textRect cx="8.82" cy="223.207" width="17.64" height="10.8"/>
				<rect x="0" y="217.807" width="17.64" height="10.8" class="st7"/>
				<text x="6.87" y="227.81" class="st23" v:langID="1033"><v:paragraph v:horizAlign="1"/><v:tabList/>I</text>			</g>
			<g id="shape356-515" v:mID="356" v:groupContext="shape" transform="translate(84.96,-100.8)">
				<title>Sheet.356</title>
				<desc>V+</desc>
				<v:textBlock v:margins="rect(1,1,1,1)" v:verticalAlign="0"/>
				<v:textRect cx="9.9" cy="223.207" width="19.8" height="10.8"/>
				<rect x="0" y="217.807" width="19.8" height="10.8" class="st7"/>
				<text x="4.33" y="226.91" class="st10" v:langID="1033"><v:paragraph v:horizAlign="1"/><v:tabList/>V+</text>			</g>
			<g id="shape357-518" v:mID="357" v:groupContext="shape" transform="translate(-134.647,117.007) rotate(-90)">
				<title>Sheet.357</title>
				<path d="M0 228.61 L7.23 228.61" class="st24"/>
			</g>
			<g id="shape358-524" v:mID="358" v:groupContext="shape" transform="translate(174.78,-21.6)">
				<title>Sheet.358</title>
				<desc>Current measurement</desc>
				<v:textBlock v:margins="rect(1,1,1,1)" v:verticalAlign="0"/>
				<v:textRect cx="38.7" cy="223.207" width="77.4" height="10.8"/>
				<rect x="0" y="217.807" width="77.4" height="10.8" class="st7"/>
				<text x="2.36" y="226.01" class="st26" v:langID="1033"><v:paragraph v:horizAlign="1"/><v:tabList/>Current measurement</text>			</g>
		</g>
	</g>
</svg>
