<?xml version="1.0" encoding="UTF-8" standalone="no"?>
<!DOCTYPE svg PUBLIC "-//W3C//DTD SVG 1.1//EN" "http://www.w3.org/Graphics/SVG/1.1/DTD/svg11.dtd">
<!-- Generated by Microsoft Visio, SVG Export current_sensing_opamp_comp_extgain.svg Page-1 -->
<svg xmlns="http://www.w3.org/2000/svg" xmlns:xlink="http://www.w3.org/1999/xlink" xmlns:ev="http://www.w3.org/2001/xml-events"
		xmlns:v="http://schemas.microsoft.com/visio/2003/SVGExtensions/" width="4.46333in" height="3.17509in"
		viewBox="0 0 321.36 228.607" xml:space="preserve" color-interpolation-filters="sRGB" class="st27">
	<v:documentProperties v:langID="1033" v:metric="true" v:viewMarkup="false"/>

	<style type="text/css">
	<![CDATA[
		.st1 {fill:#eef2f7;stroke:#0070c0;stroke-dasharray:0.72,1.44;stroke-linecap:round;stroke-linejoin:round;stroke-width:0.72}
		.st2 {stroke:#595959;stroke-linecap:round;stroke-linejoin:round;stroke-width:1.2}
		.st3 {marker-end:url(#mrkr10-67);stroke:#595959;stroke-linecap:round;stroke-linejoin:round;stroke-width:1.2}
		.st4 {fill:#595959;fill-opacity:1;stroke:#595959;stroke-opacity:1;stroke-width:0.4}
		.st5 {marker-start:url(#mrkr10-73);stroke:#595959;stroke-linecap:round;stroke-linejoin:round;stroke-width:1.2}
		.st6 {marker-end:url(#mrkr5-269);stroke:#595959;stroke-linecap:round;stroke-linejoin:round;stroke-width:1.2}
		.st7 {fill:none;stroke:none;stroke-linecap:round;stroke-linejoin:round;stroke-width:0.72}
		.st8 {fill:#595959;font-family:Times New Roman;font-size:0.833336em;font-style:italic;font-weight:bold}
		.st9 {baseline-shift:-32.4947%;font-size:0.649894em}
		.st10 {stroke:#595959;stroke-linecap:round;stroke-linejoin:round;stroke-width:0.72}
		.st11 {fill:none;stroke:#595959;stroke-linecap:round;stroke-linejoin:round;stroke-width:1.2}
		.st12 {fill:#595959;font-family:Arial;font-size:0.75em;font-weight:bold}
		.st13 {fill:#595959;font-family:Times New Roman;font-size:0.75em;font-style:italic;font-weight:bold}
		.st14 {baseline-shift:-32.4951%;font-size:0.649902em}
		.st15 {fill:#595959;font-family:Arial;font-size:0.666664em;font-weight:bold}
		.st16 {marker-start:url(#mrkr13-414);stroke:#595959;stroke-linecap:round;stroke-linejoin:round;stroke-width:1.2}
		.st17 {fill:none;stroke:#808080;stroke-dasharray:0.72,1.44;stroke-linecap:round;stroke-linejoin:round;stroke-width:0.72}
		.st18 {fill:none;stroke:none;stroke-linecap:round;stroke-linejoin:round;stroke-width:1.2}
		.st19 {fill:#595959;font-family:Arial;font-size:0.666664em}
		.st20 {font-size:1em}
		.st21 {marker-end:url(#mrkr13-503);stroke:#00b0f0;stroke-linecap:round;stroke-linejoin:round;stroke-width:1.2}
		.st22 {fill:#00b0f0;fill-opacity:1;stroke:#00b0f0;stroke-opacity:1;stroke-width:0.4}
		.st23 {fill:#00b0f0;font-family:Times New Roman;font-size:0.833336em;font-style:italic;font-weight:bold}
		.st24 {fill:#595959;font-family:Times New Roman;font-size:0.666664em;font-style:italic;font-weight:bold}
		.st25 {marker-end:url(#mrkr5-526);stroke:#595959;stroke-linecap:round;stroke-linejoin:round;stroke-width:0.24}
		.st26 {fill:#595959;fill-opacity:1;stroke:#595959;stroke-opacity:1;stroke-width:0.11764705882353}
		.st27 {fill:none;fill-rule:evenodd;font-size:12px;overflow:visible;stroke-linecap:square;stroke-miterlimit:3}
	]]>
	</style>

	<defs id="Markers">
		<g id="lend10">
			<path
					d="M 0 0.75 C -0.414214 0.75 -0.75 0.414214 -0.75 0 -0.75 -0.414214 -0.414214 -0.75 0 -0.75 0.414214 -0.75 0.75 -0.414214 0.75 0 0.75 0.414214 0.414214 0.75 0 0.75 Z "
					style="stroke:none"/>
		</g>
		<marker id="mrkr10-67" class="st4" v:arrowType="10" v:arrowSize="1" v:setback="1.875" refX="-1.875" orient="auto"
				markerUnits="strokeWidth" overflow="visible">
			<use xlink:href="#lend10" transform="scale(-2.5,-2.5) "/>
		</marker>
		<marker id="mrkr10-73" class="st4" v:arrowType="10" v:arrowSize="1" v:setback="1.575" refX="1.575" orient="auto"
				markerUnits="strokeWidth" overflow="visible">
			<use xlink:href="#lend10" transform="scale(2.5) "/>
		</marker>
		<g id="lend5">
			<path d="M 2 1 L 0 0 L 1.98117 -0.993387 C 1.67173 -0.364515 1.67301 0.372641 1.98465 1.00043 " style="stroke:none"/>
		</g>
		<marker id="mrkr5-269" class="st4" v:arrowType="5" v:arrowSize="1" v:setback="4.375" refX="-4.375" orient="auto"
				markerUnits="strokeWidth" overflow="visible">
			<use xlink:href="#lend5" transform="scale(-2.5,-2.5) "/>
		</marker>
		<g id="lend13">
			<path d="M 3 1 L 0 0 L 3 -1 L 3 1 " style="stroke:none"/>
		</g>
		<marker id="mrkr13-414" class="st4" v:arrowType="13" v:arrowSize="1" v:setback="7.2" refX="7.2" orient="auto"
				markerUnits="strokeWidth" overflow="visible">
			<use xlink:href="#lend13" transform="scale(2.5) "/>
		</marker>
		<marker id="mrkr13-503" class="st22" v:arrowType="13" v:arrowSize="1" v:setback="7.5" refX="-7.5" orient="auto"
				markerUnits="strokeWidth" overflow="visible">
			<use xlink:href="#lend13" transform="scale(-2.5,-2.5) "/>
		</marker>
		<marker id="mrkr5-526" class="st26" v:arrowType="5" v:arrowSize="1" v:setback="14.875" refX="-14.875" orient="auto"
				markerUnits="strokeWidth" overflow="visible">
			<use xlink:href="#lend5" transform="scale(-8.5000000000001,-8.5000000000001) "/>
		</marker>
	</defs>
	<g v:mID="0" v:index="1" v:groupContext="foregroundPage">
		<title>Page-1</title>
		<v:pageProperties v:drawingScale="0.0393701" v:pageScale="0.0393701" v:drawingUnits="24" v:shadowOffsetX="9"
				v:shadowOffsetY="-9"/>
		<g id="group534-1" transform="translate(0.6,-0.6)" v:mID="534" v:groupContext="group">
			<title>Sheet.534</title>
			<g id="shape360-2" v:mID="360" v:groupContext="shape" transform="translate(108,-3.6)">
				<title>Sheet.360</title>
				<path d="M0 228.61 L165.6 228.61 L165.6 91.81 L0 91.81 L0 228.61 Z" class="st1"/>
			</g>
			<g id="shape361-4" v:mID="361" v:groupContext="shape" transform="translate(-195.203,55.0043) rotate(-90)">
				<title>Sheet.361</title>
				<path d="M0 228.61 L8.81 228.61" class="st2"/>
			</g>
			<g id="shape362-7" v:mID="362" v:groupContext="shape" transform="translate(-192.561,59.4068) rotate(-90)">
				<title>Sheet.362</title>
				<path d="M0 228.61 L17.61 228.61" class="st2"/>
			</g>
			<g id="shape363-10" v:mID="363" v:groupContext="shape" transform="translate(28.1213,-178.005)">
				<title>Sheet.363</title>
				<path d="M0 228.61 L5.28 228.61" class="st2"/>
			</g>
			<g id="shape364-13" v:mID="364" v:groupContext="shape" transform="translate(-125.604,214.012) rotate(45) scale(1,-1)">
				<title>Sheet.364</title>
				<path d="M0 228.61 L4.98 228.61" class="st2"/>
			</g>
			<g id="shape365-16" v:mID="365" v:groupContext="shape" transform="translate(-189.039,54.564) rotate(-90) scale(-1,1)">
				<title>Sheet.365</title>
				<path d="M0 228.61 L1.32 228.61" class="st2"/>
			</g>
			<g id="shape366-19" v:mID="366" v:groupContext="shape" transform="translate(38.2471,284.492) scale(1,-1)">
				<title>Sheet.366</title>
				<path d="M0 228.61 L1.13 228.61" class="st2"/>
			</g>
			<g id="shape367-22" v:mID="367" v:groupContext="shape" transform="translate(-125.604,-113.249) rotate(-45)">
				<title>Sheet.367</title>
				<path d="M0 228.61 L4.98 228.61" class="st2"/>
			</g>
			<g id="shape368-25" v:mID="368" v:groupContext="shape" transform="translate(-189.039,76.1136) rotate(-90)">
				<title>Sheet.368</title>
				<path d="M0 228.61 L21.75 228.61" class="st2"/>
			</g>
			<g id="shape369-28" v:mID="369" v:groupContext="shape" transform="translate(-195.203,86.2394) rotate(-90)">
				<title>Sheet.369</title>
				<path d="M0 228.61 L8.81 228.61" class="st2"/>
			</g>
			<g id="shape370-31" v:mID="370" v:groupContext="shape" transform="translate(-192.561,90.642) rotate(-90)">
				<title>Sheet.370</title>
				<path d="M0 228.61 L17.61 228.61" class="st2"/>
			</g>
			<g id="shape371-34" v:mID="371" v:groupContext="shape" transform="translate(28.1213,-146.77)">
				<title>Sheet.371</title>
				<path d="M0 228.61 L5.28 228.61" class="st2"/>
			</g>
			<g id="shape372-37" v:mID="372" v:groupContext="shape" transform="translate(-125.604,245.247) rotate(45) scale(1,-1)">
				<title>Sheet.372</title>
				<path d="M0 228.61 L4.98 228.61" class="st2"/>
			</g>
			<g id="shape373-40" v:mID="373" v:groupContext="shape" transform="translate(-189.039,85.7992) rotate(-90) scale(-1,1)">
				<title>Sheet.373</title>
				<path d="M0 228.61 L1.32 228.61" class="st2"/>
			</g>
			<g id="shape374-43" v:mID="374" v:groupContext="shape" transform="translate(38.2471,315.727) scale(1,-1)">
				<title>Sheet.374</title>
				<path d="M0 228.61 L1.13 228.61" class="st2"/>
			</g>
			<g id="shape375-46" v:mID="375" v:groupContext="shape" transform="translate(-125.604,-82.0138) rotate(-45)">
				<title>Sheet.375</title>
				<path d="M0 228.61 L4.98 228.61" class="st2"/>
			</g>
			<g id="group376-49" transform="translate(41.6224,-176.244)" v:mID="376" v:groupContext="group">
				<title>Sheet.376</title>
				<g id="shape377-50" v:mID="377" v:groupContext="shape" transform="translate(-190.212,101.799) rotate(-56.3099)">
					<title>Sheet.377</title>
					<path d="M0 228.61 L4.23 228.61" class="st2"/>
				</g>
				<g id="shape378-53" v:mID="378" v:groupContext="shape"
						transform="translate(194.908,101.799) rotate(56.3099) scale(-1,1)">
					<title>Sheet.378</title>
					<path d="M0 228.61 L4.23 228.61" class="st2"/>
				</g>
				<g id="shape379-56" v:mID="379" v:groupContext="shape" transform="translate(0.146752,2.84217E-14)">
					<title>Sheet.379</title>
					<path d="M0 228.61 L4.4 228.61" class="st2"/>
				</g>
				<g id="shape380-59" v:mID="380" v:groupContext="shape" transform="translate(0.146752,-3.52204)">
					<title>Sheet.380</title>
					<path d="M0 228.61 L4.4 228.61" class="st2"/>
				</g>
			</g>
			<g id="shape381-62" v:mID="381" v:groupContext="shape" transform="translate(-189.039,44.8784) rotate(-90)">
				<title>Sheet.381</title>
				<path d="M0 228.61 L9.64 228.61" class="st3"/>
			</g>
			<g id="shape382-68" v:mID="382" v:groupContext="shape" transform="translate(-189.039,99.0068) rotate(-90)">
				<title>Sheet.382</title>
				<path d="M1.89 228.61 L2.25 228.61 L11.89 228.61" class="st5"/>
			</g>
			<g id="shape383-74" v:mID="383" v:groupContext="shape" transform="translate(39.5679,-186.81)">
				<title>Sheet.383</title>
				<path d="M0 228.61 L4.4 228.61" class="st2"/>
			</g>
			<g id="shape384-77" v:mID="384" v:groupContext="shape" transform="translate(272.577,41.7966) rotate(90)">
				<title>Sheet.384</title>
				<path d="M0 228.61 L7.04 228.61" class="st2"/>
			</g>
			<g id="shape385-80" v:mID="385" v:groupContext="shape" transform="translate(39.5679,-169.2)">
				<title>Sheet.385</title>
				<path d="M0 228.61 L4.4 228.61" class="st2"/>
			</g>
			<g id="shape386-83" v:mID="386" v:groupContext="shape" transform="translate(272.577,52.3628) rotate(90)">
				<title>Sheet.386</title>
				<path d="M0 228.61 L7.04 228.61" class="st2"/>
			</g>
			<g id="group387-86" transform="translate(41.6224,-145.009)" v:mID="387" v:groupContext="group">
				<title>Sheet.387</title>
				<g id="shape388-87" v:mID="388" v:groupContext="shape" transform="translate(-190.212,101.799) rotate(-56.3099)">
					<title>Sheet.388</title>
					<path d="M0 228.61 L4.23 228.61" class="st2"/>
				</g>
				<g id="shape389-90" v:mID="389" v:groupContext="shape"
						transform="translate(194.908,101.799) rotate(56.3099) scale(-1,1)">
					<title>Sheet.389</title>
					<path d="M0 228.61 L4.23 228.61" class="st2"/>
				</g>
				<g id="shape390-93" v:mID="390" v:groupContext="shape" transform="translate(0.146752,2.84217E-14)">
					<title>Sheet.390</title>
					<path d="M0 228.61 L4.4 228.61" class="st2"/>
				</g>
				<g id="shape391-96" v:mID="391" v:groupContext="shape" transform="translate(0.146752,-3.52204)">
					<title>Sheet.391</title>
					<path d="M0 228.61 L4.4 228.61" class="st2"/>
				</g>
			</g>
			<g id="shape392-99" v:mID="392" v:groupContext="shape" transform="translate(39.5679,-155.575)">
				<title>Sheet.392</title>
				<path d="M0 228.61 L4.4 228.61" class="st2"/>
			</g>
			<g id="shape393-102" v:mID="393" v:groupContext="shape" transform="translate(272.577,73.0318) rotate(90)">
				<title>Sheet.393</title>
				<path d="M0 228.61 L7.04 228.61" class="st2"/>
			</g>
			<g id="shape394-105" v:mID="394" v:groupContext="shape" transform="translate(39.5679,-137.965)">
				<title>Sheet.394</title>
				<path d="M0 228.61 L4.4 228.61" class="st2"/>
			</g>
			<g id="shape395-108" v:mID="395" v:groupContext="shape" transform="translate(272.577,83.5979) rotate(90)">
				<title>Sheet.395</title>
				<path d="M0 228.61 L7.04 228.61" class="st2"/>
			</g>
			<g id="shape396-111" v:mID="396" v:groupContext="shape" transform="translate(39.6,-162.18) scale(-1,1)">
				<title>Sheet.396</title>
				<path d="M1.89 228.61 L2.25 228.61 L25.2 228.61" class="st5"/>
			</g>
			<g id="shape397-116" v:mID="397" v:groupContext="shape" transform="translate(38.9213,-129.6)">
				<title>Sheet.397</title>
				<path d="M0 228.61 L25.88 228.61" class="st2"/>
			</g>
			<g id="group398-119" transform="translate(-2.59792E-14,-167.76)" v:mID="398" v:groupContext="group">
				<title>Sheet.398</title>
				<g id="group399-120" transform="translate(0,-21.6)" v:mID="399" v:groupContext="group">
					<title>Sheet.399</title>
					<g id="shape400-121" v:mID="400" v:groupContext="shape" transform="translate(55.0944,4.62908) rotate(14.0362)">
						<title>Sheet.400</title>
						<path d="M-0 227.16 A14.4 3.6 -14.04 0 0 14.84 227.16" class="st2"/>
					</g>
					<g id="shape401-124" v:mID="401" v:groupContext="shape"
							transform="translate(55.0944,445.385) rotate(-14.0362) scale(1,-1)">
						<title>Sheet.401</title>
						<path d="M-0 227.16 A14.4 3.6 -14.04 0 0 14.84 227.16" class="st2"/>
					</g>
				</g>
				<g id="group402-127" transform="translate(0,-14.4)" v:mID="402" v:groupContext="group">
					<title>Sheet.402</title>
					<g id="shape403-128" v:mID="403" v:groupContext="shape" transform="translate(55.0944,4.62908) rotate(14.0362)">
						<title>Sheet.403</title>
						<path d="M-0 227.16 A14.4 3.6 -14.04 0 0 14.84 227.16" class="st2"/>
					</g>
					<g id="shape404-131" v:mID="404" v:groupContext="shape"
							transform="translate(55.0944,445.385) rotate(-14.0362) scale(1,-1)">
						<title>Sheet.404</title>
						<path d="M-0 227.16 A14.4 3.6 -14.04 0 0 14.84 227.16" class="st2"/>
					</g>
				</g>
				<g id="group405-134" transform="translate(0,-7.2)" v:mID="405" v:groupContext="group">
					<title>Sheet.405</title>
					<g id="shape406-135" v:mID="406" v:groupContext="shape" transform="translate(55.0944,4.62908) rotate(14.0362)">
						<title>Sheet.406</title>
						<path d="M-0 227.16 A14.4 3.6 -14.04 0 0 14.84 227.16" class="st2"/>
					</g>
					<g id="shape407-138" v:mID="407" v:groupContext="shape"
							transform="translate(55.0944,445.385) rotate(-14.0362) scale(1,-1)">
						<title>Sheet.407</title>
						<path d="M-0 227.16 A14.4 3.6 -14.04 0 0 14.84 227.16" class="st2"/>
					</g>
				</g>
				<g id="group408-141" v:mID="408" v:groupContext="group">
					<title>Sheet.408</title>
					<g id="shape409-142" v:mID="409" v:groupContext="shape" transform="translate(55.0944,4.62908) rotate(14.0362)">
						<title>Sheet.409</title>
						<path d="M-0 227.16 A14.4 3.6 -14.04 0 0 14.84 227.16" class="st2"/>
					</g>
					<g id="shape410-145" v:mID="410" v:groupContext="shape"
							transform="translate(55.0944,445.385) rotate(-14.0362) scale(1,-1)">
						<title>Sheet.410</title>
						<path d="M-0 227.16 A14.4 3.6 -14.04 0 0 14.84 227.16" class="st2"/>
					</g>
				</g>
			</g>
			<g id="shape411-148" v:mID="411" v:groupContext="shape" transform="translate(-214.207,66.4268) rotate(-90)">
				<title>Sheet.411</title>
				<path d="M0 228.61 L5.72 228.61" class="st2"/>
			</g>
			<g id="shape412-151" v:mID="412" v:groupContext="shape" transform="translate(-214.207,32.0468) rotate(-90)">
				<title>Sheet.412</title>
				<path d="M0 228.61 L7.2 228.61" class="st2"/>
			</g>
			<g id="shape413-154" v:mID="413" v:groupContext="shape" transform="translate(28.8,-43.56)">
				<title>Sheet.413</title>
				<path d="M0 228.61 L10.98 228.61" class="st2"/>
			</g>
			<g id="shape414-157" v:mID="414" v:groupContext="shape" transform="translate(-188.966,113.407) rotate(-90)">
				<title>Sheet.414</title>
				<path d="M0 228.61 L14.03 228.61" class="st2"/>
			</g>
			<g id="shape415-160" v:mID="415" v:groupContext="shape" transform="translate(-189.007,142.207) rotate(-90)">
				<title>Sheet.415</title>
				<path d="M0 228.61 L10.43 228.61" class="st2"/>
			</g>
			<g id="group416-163" transform="translate(31.68,-97.2)" v:mID="416" v:groupContext="group">
				<title>Sheet.416</title>
				<g id="shape417-164" v:mID="417" v:groupContext="shape" transform="translate(68.0704,-9.94477) rotate(15.2551)">
					<title>Sheet.417</title>
					<path d="M0 228.61 L8.21 228.61" class="st2"/>
				</g>
				<g id="shape418-167" v:mID="418" v:groupContext="shape"
						transform="translate(-25.0544,-12.1526) rotate(-10.3048) scale(-1,1)">
					<title>Sheet.418</title>
					<path d="M0 228.61 L8.05 228.61" class="st2"/>
				</g>
				<g id="shape419-170" v:mID="419" v:groupContext="shape"
						transform="translate(-32.9744,-10.7126) rotate(-10.3048) scale(-1,1)">
					<title>Sheet.419</title>
					<path d="M0 228.61 L8.05 228.61" class="st2"/>
				</g>
				<g id="shape420-173" v:mID="420" v:groupContext="shape" transform="translate(60.1504,-4.90477) rotate(15.2551)">
					<title>Sheet.420</title>
					<path d="M0 228.61 L8.21 228.61" class="st2"/>
				</g>
				<g id="shape421-176" v:mID="421" v:groupContext="shape" transform="translate(68.0704,-2.74477) rotate(15.2551)">
					<title>Sheet.421</title>
					<path d="M0 228.61 L8.21 228.61" class="st2"/>
				</g>
				<g id="shape422-179" v:mID="422" v:groupContext="shape"
						transform="translate(-25.0544,-4.95255) rotate(-10.3048) scale(-1,1)">
					<title>Sheet.422</title>
					<path d="M0 228.61 L8.05 228.61" class="st2"/>
				</g>
				<g id="shape423-182" v:mID="423" v:groupContext="shape"
						transform="translate(-32.9744,-3.51255) rotate(-10.3048) scale(-1,1)">
					<title>Sheet.423</title>
					<path d="M0 228.61 L8.05 228.61" class="st2"/>
				</g>
				<g id="shape424-185" v:mID="424" v:groupContext="shape" transform="translate(60.1504,2.29523) rotate(15.2551)">
					<title>Sheet.424</title>
					<path d="M0 228.61 L8.21 228.61" class="st2"/>
				</g>
				<g id="shape425-188" v:mID="425" v:groupContext="shape" transform="translate(68.0704,4.45523) rotate(15.2551)">
					<title>Sheet.425</title>
					<path d="M0 228.61 L8.21 228.61" class="st2"/>
				</g>
				<g id="shape426-191" v:mID="426" v:groupContext="shape"
						transform="translate(-25.0544,2.24745) rotate(-10.3048) scale(-1,1)">
					<title>Sheet.426</title>
					<path d="M0 228.61 L8.05 228.61" class="st2"/>
				</g>
			</g>
			<g id="group427-194" transform="translate(293.407,91.0868) rotate(90)" v:mID="427" v:groupContext="group">
				<title>Sheet.427</title>
				<g id="shape428-195" v:mID="428" v:groupContext="shape" transform="translate(68.0704,-9.94477) rotate(15.2551)">
					<title>Sheet.428</title>
					<path d="M0 228.61 L8.21 228.61" class="st2"/>
				</g>
				<g id="shape429-198" v:mID="429" v:groupContext="shape"
						transform="translate(-25.0544,-12.1526) rotate(-10.3048) scale(-1,1)">
					<title>Sheet.429</title>
					<path d="M0 228.61 L8.05 228.61" class="st2"/>
				</g>
				<g id="shape430-201" v:mID="430" v:groupContext="shape"
						transform="translate(-32.9744,-10.7126) rotate(-10.3048) scale(-1,1)">
					<title>Sheet.430</title>
					<path d="M0 228.61 L8.05 228.61" class="st2"/>
				</g>
				<g id="shape431-204" v:mID="431" v:groupContext="shape" transform="translate(60.1504,-4.90477) rotate(15.2551)">
					<title>Sheet.431</title>
					<path d="M0 228.61 L8.21 228.61" class="st2"/>
				</g>
				<g id="shape432-207" v:mID="432" v:groupContext="shape" transform="translate(68.0704,-2.74477) rotate(15.2551)">
					<title>Sheet.432</title>
					<path d="M0 228.61 L8.21 228.61" class="st2"/>
				</g>
				<g id="shape433-210" v:mID="433" v:groupContext="shape"
						transform="translate(-25.0544,-4.95255) rotate(-10.3048) scale(-1,1)">
					<title>Sheet.433</title>
					<path d="M0 228.61 L8.05 228.61" class="st2"/>
				</g>
				<g id="shape434-213" v:mID="434" v:groupContext="shape"
						transform="translate(-32.9744,-3.51255) rotate(-10.3048) scale(-1,1)">
					<title>Sheet.434</title>
					<path d="M0 228.61 L8.05 228.61" class="st2"/>
				</g>
				<g id="shape435-216" v:mID="435" v:groupContext="shape" transform="translate(60.1504,2.29523) rotate(15.2551)">
					<title>Sheet.435</title>
					<path d="M0 228.61 L8.21 228.61" class="st2"/>
				</g>
				<g id="shape436-219" v:mID="436" v:groupContext="shape" transform="translate(68.0704,4.45523) rotate(15.2551)">
					<title>Sheet.436</title>
					<path d="M0 228.61 L8.21 228.61" class="st2"/>
				</g>
				<g id="shape437-222" v:mID="437" v:groupContext="shape"
						transform="translate(-25.0544,2.24745) rotate(-10.3048) scale(-1,1)">
					<title>Sheet.437</title>
					<path d="M0 228.61 L8.05 228.61" class="st2"/>
				</g>
			</g>
			<g id="shape438-225" v:mID="438" v:groupContext="shape" transform="translate(82.8,-129.6)">
				<title>Sheet.438</title>
				<path d="M0 228.61 L79.2 228.61" class="st2"/>
			</g>
			<g id="shape439-228" v:mID="439" v:groupContext="shape" transform="translate(-135.007,99.0068) rotate(-90)">
				<title>Sheet.439</title>
				<path d="M1.89 228.61 L2.25 228.61 L10.43 228.61" class="st5"/>
			</g>
			<g id="group440-233" transform="translate(85.68,-140.4)" v:mID="440" v:groupContext="group">
				<title>Sheet.440</title>
				<g id="shape441-234" v:mID="441" v:groupContext="shape" transform="translate(68.0704,-9.94477) rotate(15.2551)">
					<title>Sheet.441</title>
					<path d="M0 228.61 L8.21 228.61" class="st2"/>
				</g>
				<g id="shape442-237" v:mID="442" v:groupContext="shape"
						transform="translate(-25.0544,-12.1526) rotate(-10.3048) scale(-1,1)">
					<title>Sheet.442</title>
					<path d="M0 228.61 L8.05 228.61" class="st2"/>
				</g>
				<g id="shape443-240" v:mID="443" v:groupContext="shape"
						transform="translate(-32.9744,-10.7126) rotate(-10.3048) scale(-1,1)">
					<title>Sheet.443</title>
					<path d="M0 228.61 L8.05 228.61" class="st2"/>
				</g>
				<g id="shape444-243" v:mID="444" v:groupContext="shape" transform="translate(60.1504,-4.90477) rotate(15.2551)">
					<title>Sheet.444</title>
					<path d="M0 228.61 L8.21 228.61" class="st2"/>
				</g>
				<g id="shape445-246" v:mID="445" v:groupContext="shape" transform="translate(68.0704,-2.74477) rotate(15.2551)">
					<title>Sheet.445</title>
					<path d="M0 228.61 L8.21 228.61" class="st2"/>
				</g>
				<g id="shape446-249" v:mID="446" v:groupContext="shape"
						transform="translate(-25.0544,-4.95255) rotate(-10.3048) scale(-1,1)">
					<title>Sheet.446</title>
					<path d="M0 228.61 L8.05 228.61" class="st2"/>
				</g>
				<g id="shape447-252" v:mID="447" v:groupContext="shape"
						transform="translate(-32.9744,-3.51255) rotate(-10.3048) scale(-1,1)">
					<title>Sheet.447</title>
					<path d="M0 228.61 L8.05 228.61" class="st2"/>
				</g>
				<g id="shape448-255" v:mID="448" v:groupContext="shape" transform="translate(60.1504,2.29523) rotate(15.2551)">
					<title>Sheet.448</title>
					<path d="M0 228.61 L8.21 228.61" class="st2"/>
				</g>
				<g id="shape449-258" v:mID="449" v:groupContext="shape" transform="translate(68.0704,4.45523) rotate(15.2551)">
					<title>Sheet.449</title>
					<path d="M0 228.61 L8.21 228.61" class="st2"/>
				</g>
				<g id="shape450-261" v:mID="450" v:groupContext="shape"
						transform="translate(-25.0544,2.24745) rotate(-10.3048) scale(-1,1)">
					<title>Sheet.450</title>
					<path d="M0 228.61 L8.05 228.61" class="st2"/>
				</g>
			</g>
			<g id="shape451-264" v:mID="451" v:groupContext="shape" transform="translate(-135.007,69.8468) rotate(-90)">
				<title>Sheet.451</title>
				<path d="M0 228.61 L13.1 228.61" class="st6"/>
			</g>
			<g id="group452-270" transform="translate(268.55,180.367) rotate(90)" v:mID="452" v:groupContext="group">
				<title>Sheet.452</title>
				<g id="shape453-271" v:mID="453" v:groupContext="shape" transform="translate(64.8304,-2.58113) rotate(15.2551)">
					<title>Sheet.453</title>
					<path d="M0 228.61 L4.85 228.61" class="st2"/>
				</g>
				<g id="shape454-274" v:mID="454" v:groupContext="shape"
						transform="translate(-31.5344,-5.67255) rotate(-10.3048) scale(-1,1)">
					<title>Sheet.454</title>
					<path d="M0 228.61 L4.76 228.61" class="st2"/>
				</g>
				<g id="shape455-277" v:mID="455" v:groupContext="shape"
						transform="translate(-36.2144,-4.82164) rotate(-10.3048) scale(-1,1)">
					<title>Sheet.455</title>
					<path d="M0 228.61 L4.76 228.61" class="st2"/>
				</g>
				<g id="shape456-280" v:mID="456" v:groupContext="shape" transform="translate(60.1504,0.397049) rotate(15.2551)">
					<title>Sheet.456</title>
					<path d="M0 228.61 L4.85 228.61" class="st2"/>
				</g>
				<g id="shape457-283" v:mID="457" v:groupContext="shape" transform="translate(64.8304,1.67341) rotate(15.2551)">
					<title>Sheet.457</title>
					<path d="M0 228.61 L4.85 228.61" class="st2"/>
				</g>
				<g id="shape458-286" v:mID="458" v:groupContext="shape"
						transform="translate(-31.5344,-1.41801) rotate(-10.3048) scale(-1,1)">
					<title>Sheet.458</title>
					<path d="M0 228.61 L4.76 228.61" class="st2"/>
				</g>
				<g id="shape459-289" v:mID="459" v:groupContext="shape"
						transform="translate(-36.2144,-0.567097) rotate(-10.3048) scale(-1,1)">
					<title>Sheet.459</title>
					<path d="M0 228.61 L4.76 228.61" class="st2"/>
				</g>
				<g id="shape460-292" v:mID="460" v:groupContext="shape" transform="translate(60.1504,4.65159) rotate(15.2551)">
					<title>Sheet.460</title>
					<path d="M0 228.61 L4.85 228.61" class="st2"/>
				</g>
				<g id="shape461-295" v:mID="461" v:groupContext="shape" transform="translate(64.8304,5.92796) rotate(15.2551)">
					<title>Sheet.461</title>
					<path d="M0 228.61 L4.85 228.61" class="st2"/>
				</g>
				<g id="shape462-298" v:mID="462" v:groupContext="shape"
						transform="translate(-31.5344,2.83654) rotate(-10.3048) scale(-1,1)">
					<title>Sheet.462</title>
					<path d="M0 228.61 L4.76 228.61" class="st2"/>
				</g>
			</g>
			<g id="shape463-301" v:mID="463" v:groupContext="shape" transform="translate(3.6,-104.4)">
				<title>Sheet.463</title>
				<desc>RShunt</desc>
				<v:textBlock v:margins="rect(1,1,1,1)" v:verticalAlign="0"/>
				<v:textRect cx="12.6" cy="223.207" width="25.21" height="10.8"/>
				<rect x="0" y="217.807" width="25.2" height="10.8" class="st7"/>
				<text x="1.13" y="227.81" class="st8" v:langID="1033"><v:paragraph v:horizAlign="1"/><v:tabList/>R<tspan
							dy="-0.279em" class="st9" v:baseFontSize="10">Shunt</tspan></text>			</g>
			<g id="shape464-305" v:mID="464" v:groupContext="shape" transform="translate(33.84,-86.4)">
				<title>Sheet.464</title>
				<path d="M0 228.61 L12.24 228.61" class="st2"/>
			</g>
			<g id="shape465-308" v:mID="465" v:groupContext="shape" transform="translate(36,-84.24)">
				<title>Sheet.465</title>
				<path d="M0 228.61 L7.2 228.61" class="st2"/>
			</g>
			<g id="shape466-311" v:mID="466" v:groupContext="shape" transform="translate(38.52,-82.08)">
				<title>Sheet.466</title>
				<path d="M0 228.61 L2.07 228.61" class="st2"/>
			</g>
			<g id="group467-314" transform="translate(308.429,180.367) rotate(90)" v:mID="467" v:groupContext="group">
				<title>Sheet.467</title>
				<g id="shape468-315" v:mID="468" v:groupContext="shape" transform="translate(64.8304,-2.58113) rotate(15.2551)">
					<title>Sheet.468</title>
					<path d="M0 228.61 L4.85 228.61" class="st2"/>
				</g>
				<g id="shape469-318" v:mID="469" v:groupContext="shape"
						transform="translate(-31.5344,-5.67255) rotate(-10.3048) scale(-1,1)">
					<title>Sheet.469</title>
					<path d="M0 228.61 L4.76 228.61" class="st2"/>
				</g>
				<g id="shape470-321" v:mID="470" v:groupContext="shape"
						transform="translate(-36.2144,-4.82164) rotate(-10.3048) scale(-1,1)">
					<title>Sheet.470</title>
					<path d="M0 228.61 L4.76 228.61" class="st2"/>
				</g>
				<g id="shape471-324" v:mID="471" v:groupContext="shape" transform="translate(60.1504,0.397049) rotate(15.2551)">
					<title>Sheet.471</title>
					<path d="M0 228.61 L4.85 228.61" class="st2"/>
				</g>
				<g id="shape472-327" v:mID="472" v:groupContext="shape" transform="translate(64.8304,1.67341) rotate(15.2551)">
					<title>Sheet.472</title>
					<path d="M0 228.61 L4.85 228.61" class="st2"/>
				</g>
				<g id="shape473-330" v:mID="473" v:groupContext="shape"
						transform="translate(-31.5344,-1.41801) rotate(-10.3048) scale(-1,1)">
					<title>Sheet.473</title>
					<path d="M0 228.61 L4.76 228.61" class="st2"/>
				</g>
				<g id="shape474-333" v:mID="474" v:groupContext="shape"
						transform="translate(-36.2144,-0.567097) rotate(-10.3048) scale(-1,1)">
					<title>Sheet.474</title>
					<path d="M0 228.61 L4.76 228.61" class="st2"/>
				</g>
				<g id="shape475-336" v:mID="475" v:groupContext="shape" transform="translate(60.1504,4.65159) rotate(15.2551)">
					<title>Sheet.475</title>
					<path d="M0 228.61 L4.85 228.61" class="st2"/>
				</g>
				<g id="shape476-339" v:mID="476" v:groupContext="shape" transform="translate(64.8304,5.92796) rotate(15.2551)">
					<title>Sheet.476</title>
					<path d="M0 228.61 L4.85 228.61" class="st2"/>
				</g>
				<g id="shape477-342" v:mID="477" v:groupContext="shape"
						transform="translate(-31.5344,2.83654) rotate(-10.3048) scale(-1,1)">
					<title>Sheet.477</title>
					<path d="M0 228.61 L4.76 228.61" class="st2"/>
				</g>
			</g>
			<g id="group478-345" transform="translate(162.9,-50.76)" v:mID="478" v:groupContext="group">
				<title>Sheet.478</title>
				<g id="shape479-346" v:mID="479" v:groupContext="shape" transform="translate(-228.607,228.607) rotate(-90)">
					<title>Sheet.479</title>
					<path d="M0 228.61 L28.8 228.61" class="st2"/>
				</g>
				<g id="shape480-349" v:mID="480" v:groupContext="shape" transform="translate(-73.4361,418.679) rotate(-153.435)">
					<title>Sheet.480</title>
					<path d="M0 228.61 L32.2 228.61" class="st2"/>
				</g>
				<g id="shape481-352" v:mID="481" v:groupContext="shape"
						transform="translate(102.236,433.079) rotate(-26.5651) scale(1,-1)">
					<title>Sheet.481</title>
					<path d="M0 228.61 L32.2 228.61" class="st2"/>
				</g>
				<g id="shape482-355" v:mID="482" v:groupContext="shape" transform="translate(6.48,450.014) rotate(180)">
					<title>Sheet.482</title>
					<path d="M0 228.61 L4.32 228.61" class="st10"/>
				</g>
				<g id="group483-358" transform="translate(2.16,-19.44)" v:mID="483" v:groupContext="group">
					<title>Sheet.483</title>
					<g id="shape484-359" v:mID="484" v:groupContext="shape" transform="translate(-226.447,228.607) rotate(-90)">
						<title>Sheet.484</title>
						<path d="M0 228.61 L4.32 228.61" class="st10"/>
					</g>
					<g id="shape485-362" v:mID="485" v:groupContext="shape" transform="translate(4.32,455.054) rotate(180)">
						<title>Sheet.485</title>
						<path d="M0 228.61 L4.32 228.61" class="st10"/>
					</g>
				</g>
			</g>
			<g id="shape486-365" v:mID="486" v:groupContext="shape" transform="translate(191.52,-65.16)">
				<title>Sheet.486</title>
				<path d="M0 228.61 L20.88 228.61" class="st2"/>
			</g>
			<g id="shape487-368" v:mID="487" v:groupContext="shape" transform="translate(423.727,163.807) rotate(90)">
				<title>Sheet.487</title>
				<path d="M1.89 228.61 L2.25 228.61 L21.24 228.61" class="st5"/>
			</g>
			<g id="shape488-373" v:mID="488" v:groupContext="shape" transform="translate(-199.807,195.474) rotate(-90)">
				<title>Sheet.488</title>
				<path d="M0 228.61 L10.43 228.61" class="st2"/>
			</g>
			<g id="shape489-376" v:mID="489" v:groupContext="shape" transform="translate(23.04,-33.1324)">
				<title>Sheet.489</title>
				<path d="M0 228.61 L12.24 228.61" class="st2"/>
			</g>
			<g id="shape490-379" v:mID="490" v:groupContext="shape" transform="translate(25.2,-30.9724)">
				<title>Sheet.490</title>
				<path d="M0 228.61 L7.2 228.61" class="st2"/>
			</g>
			<g id="shape491-382" v:mID="491" v:groupContext="shape" transform="translate(27.72,-28.8124)">
				<title>Sheet.491</title>
				<path d="M0 228.61 L2.07 228.61" class="st2"/>
			</g>
			<g id="shape492-385" v:mID="492" v:groupContext="shape" transform="translate(50.58,-43.56)">
				<title>Sheet.492</title>
				<path d="M0 228.61 L29.16 228.61" class="st2"/>
			</g>
			<g id="shape493-388" v:mID="493" v:groupContext="shape" transform="translate(90.72,-43.56)">
				<title>Sheet.493</title>
				<path d="M0 228.61 L103.68 228.61" class="st2"/>
			</g>
			<g id="shape494-391" v:mID="494" v:groupContext="shape" transform="translate(213.12,-50.76)">
				<title>Sheet.494</title>
				<desc>ADC</desc>
				<v:textBlock v:margins="rect(1,1,1,1)"/>
				<v:textRect cx="15.84" cy="214.207" width="31.68" height="28.8"/>
				<rect x="0" y="199.807" width="31.68" height="28.8" class="st11"/>
				<text x="6.09" y="216.91" class="st12" v:langID="1033"><v:paragraph v:horizAlign="1"/><v:tabList/>ADC</text>			</g>
			<g id="shape495-394" v:mID="495" v:groupContext="shape" transform="translate(64.8,-57.96)">
				<title>Sheet.495</title>
				<path d="M0 228.61 L97.73 228.61" class="st2"/>
			</g>
			<g id="shape496-397" v:mID="496" v:groupContext="shape" transform="translate(-163.807,185.047) rotate(-90)">
				<title>Sheet.496</title>
				<path d="M1.89 228.61 L2.25 228.61 L14.4 228.61" class="st5"/>
			</g>
			<g id="shape497-402" v:mID="497" v:groupContext="shape" transform="translate(93.6,-171)">
				<title>Sheet.497</title>
				<desc>+VDD</desc>
				<v:textBlock v:margins="rect(1,1,1,1)" v:verticalAlign="0"/>
				<v:textRect cx="12.6" cy="223.207" width="25.21" height="10.8"/>
				<rect x="0" y="217.807" width="25.2" height="10.8" class="st7"/>
				<text x="2.81" y="226.91" class="st13" v:langID="1033"><v:paragraph v:horizAlign="1"/><v:tabList/>+V<tspan
							dy="-0.279em" class="st14" v:baseFontSize="9">DD</tspan></text>			</g>
			<g id="shape498-406" v:mID="498" v:groupContext="shape" transform="translate(168.12,-72.36)">
				<title>Sheet.498</title>
				<desc>OP AMP</desc>
				<v:textBlock v:margins="rect(1,1,1,1)" v:verticalAlign="0"/>
				<v:textRect cx="20.7" cy="223.207" width="41.41" height="10.8"/>
				<rect x="0" y="217.807" width="41.4" height="10.8" class="st7"/>
				<text x="4.92" y="226.01" class="st15" v:langID="1033"><v:paragraph v:horizAlign="1"/><v:tabList/>OP AMP</text>			</g>
			<g id="shape499-409" v:mID="499" v:groupContext="shape" transform="translate(-214.207,29.8868) rotate(-90)">
				<title>Sheet.499</title>
				<path d="M8.64 228.61 L9 228.61 L19.8 228.61" class="st16"/>
			</g>
			<g id="shape500-415" v:mID="500" v:groupContext="shape" transform="translate(12.24,-200.88)">
				<title>Sheet.500</title>
				<desc>iA</desc>
				<v:textBlock v:margins="rect(1,1,1,1)" v:verticalAlign="0"/>
				<v:textRect cx="12.6" cy="223.207" width="25.21" height="10.8"/>
				<rect x="0" y="217.807" width="25.2" height="10.8" class="st7"/>
				<text x="9.04" y="227.81" class="st8" v:langID="1033"><v:paragraph v:horizAlign="1"/><v:tabList/>i<tspan
							dy="-0.279em" class="st9" v:baseFontSize="10">A</tspan></text>			</g>
			<g id="shape501-419" v:mID="501" v:groupContext="shape" transform="translate(115.2,-21.6)">
				<title>Sheet.501</title>
				<path d="M0 228.61 L136.8 228.61 L136.8 167.41 L0 167.41 L0 228.61 Z" class="st17"/>
			</g>
			<g id="shape502-421" v:mID="502" v:groupContext="shape" transform="translate(280.8,-102.6)">
				<title>Sheet.502</title>
				<desc>6 PWM</desc>
				<v:textBlock v:margins="rect(1,1,1,1)" v:verticalAlign="0"/>
				<v:textRect cx="19.8" cy="223.207" width="39.6" height="10.8"/>
				<rect x="0" y="217.807" width="39.6" height="10.8" class="st7"/>
				<text x="4.1" y="227.81" class="st8" v:langID="1033"><v:paragraph v:horizAlign="1"/><v:tabList/>6 PWM</text>			</g>
			<g id="group503-424" transform="translate(162.9,-108)" v:mID="503" v:groupContext="group">
				<title>Sheet.503</title>
				<g id="shape504-425" v:mID="504" v:groupContext="shape" transform="translate(-228.607,228.607) rotate(-90)">
					<title>Sheet.504</title>
					<path d="M0 228.61 L28.8 228.61" class="st2"/>
				</g>
				<g id="shape505-428" v:mID="505" v:groupContext="shape" transform="translate(-73.4361,418.679) rotate(-153.435)">
					<title>Sheet.505</title>
					<path d="M0 228.61 L32.2 228.61" class="st2"/>
				</g>
				<g id="shape506-431" v:mID="506" v:groupContext="shape"
						transform="translate(102.236,433.079) rotate(-26.5651) scale(1,-1)">
					<title>Sheet.506</title>
					<path d="M0 228.61 L32.2 228.61" class="st2"/>
				</g>
				<g id="shape507-434" v:mID="507" v:groupContext="shape" transform="translate(6.48,450.014) rotate(180)">
					<title>Sheet.507</title>
					<path d="M0 228.61 L4.32 228.61" class="st10"/>
				</g>
				<g id="group508-437" transform="translate(2.16,-19.44)" v:mID="508" v:groupContext="group">
					<title>Sheet.508</title>
					<g id="shape509-438" v:mID="509" v:groupContext="shape" transform="translate(-226.447,228.607) rotate(-90)">
						<title>Sheet.509</title>
						<path d="M0 228.61 L4.32 228.61" class="st10"/>
					</g>
					<g id="shape510-441" v:mID="510" v:groupContext="shape" transform="translate(4.32,455.054) rotate(180)">
						<title>Sheet.510</title>
						<path d="M0 228.61 L4.32 228.61" class="st10"/>
					</g>
				</g>
			</g>
			<g id="shape511-444" v:mID="511" v:groupContext="shape" transform="translate(155.7,-115.2)">
				<title>Sheet.511</title>
				<path d="M0 228.61 L6.83 228.61" class="st2"/>
			</g>
			<g id="shape512-447" v:mID="512" v:groupContext="shape" transform="translate(-72.9068,127.807) rotate(-90)">
				<title>Sheet.512</title>
				<path d="M1.89 228.61 L2.25 228.61 L14.4 228.61" class="st5"/>
			</g>
			<g id="shape513-452" v:mID="513" v:groupContext="shape" transform="translate(168.12,-128.16)">
				<title>Sheet.513</title>
				<desc>COMP</desc>
				<v:textBlock v:margins="rect(1,1,1,1)" v:verticalAlign="0"/>
				<v:textRect cx="20.7" cy="223.207" width="41.41" height="10.8"/>
				<rect x="0" y="217.807" width="41.4" height="10.8" class="st7"/>
				<text x="8.7" y="226.01" class="st15" v:langID="1033"><v:paragraph v:horizAlign="1"/><v:tabList/>COMP</text>			</g>
			<g id="shape514-455" v:mID="514" v:groupContext="shape" transform="translate(373.327,99.0068) rotate(90)">
				<title>Sheet.514</title>
				<path d="M1.89 228.61 L2.25 228.61 L57.6 228.61" class="st5"/>
			</g>
			<g id="shape515-460" v:mID="515" v:groupContext="shape" transform="translate(149.76,-88.2)">
				<title>Sheet.515</title>
				<desc>V-</desc>
				<v:textBlock v:margins="rect(1,1,1,1)" v:verticalAlign="0"/>
				<v:textRect cx="7.2" cy="223.207" width="14.4" height="10.8"/>
				<rect x="0" y="217.807" width="14.4" height="10.8" class="st7"/>
				<text x="2.2" y="227.81" class="st8" v:langID="1033"><v:paragraph v:horizAlign="1"/><v:tabList/>V-</text>			</g>
			<g id="shape516-463" v:mID="516" v:groupContext="shape" transform="translate(144.72,-72)">
				<title>Sheet.516</title>
				<path d="M0 228.61 L18 228.61" class="st2"/>
			</g>
			<g id="shape517-466" v:mID="517" v:groupContext="shape" transform="translate(191.52,-122.4)">
				<title>Sheet.517</title>
				<path d="M0 228.61 L14.4 228.61" class="st2"/>
			</g>
			<g id="shape518-469" v:mID="518" v:groupContext="shape" transform="translate(206.64,-86.4)">
				<title>Sheet.518</title>
				<desc>TIM 1,8</desc>
				<v:textBlock v:margins="rect(1,1,1,1)"/>
				<v:textRect cx="29.88" cy="207.007" width="59.76" height="43.2"/>
				<rect x="0" y="185.407" width="59.76" height="43.2" class="st11"/>
				<text x="14.63" y="209.71" class="st12" v:langID="1033"><v:paragraph v:horizAlign="1"/><v:tabList/>TIM 1,8</text>			</g>
			<g id="shape519-472" v:mID="519" v:groupContext="shape" transform="translate(206.46,-111.6)">
				<title>Sheet.519</title>
				<desc>BRK2</desc>
				<v:textBlock v:margins="rect(1,1,1,1)"/>
				<v:textRect cx="13.14" cy="219.108" width="26.29" height="18.9976"/>
				<rect x="0" y="209.609" width="26.28" height="18.9976" class="st18"/>
				<text x="4.38" y="221.51" class="st19" v:langID="1033"><v:paragraph v:horizAlign="2"/><v:tabList/>BRK2</text>			</g>
			<g id="shape520-475" v:mID="520" v:groupContext="shape" transform="translate(266.4,-126)">
				<title>Sheet.520</title>
				<path d="M0 228.61 L14.4 228.61" class="st2"/>
			</g>
			<g id="shape521-478" v:mID="521" v:groupContext="shape" transform="translate(266.4,-118.8)">
				<title>Sheet.521</title>
				<path d="M0 228.61 L14.4 228.61" class="st2"/>
			</g>
			<g id="shape522-481" v:mID="522" v:groupContext="shape" transform="translate(266.4,-111.6)">
				<title>Sheet.522</title>
				<path d="M0 228.61 L14.4 228.61" class="st2"/>
			</g>
			<g id="shape523-484" v:mID="523" v:groupContext="shape" transform="translate(266.4,-104.4)">
				<title>Sheet.523</title>
				<path d="M0 228.61 L14.4 228.61" class="st2"/>
			</g>
			<g id="shape524-487" v:mID="524" v:groupContext="shape" transform="translate(266.4,-97.2)">
				<title>Sheet.524</title>
				<path d="M0 228.61 L14.4 228.61" class="st2"/>
			</g>
			<g id="shape525-490" v:mID="525" v:groupContext="shape" transform="translate(266.4,-90)">
				<title>Sheet.525</title>
				<path d="M0 228.61 L14.4 228.61" class="st2"/>
			</g>
			<g id="shape526-493" v:mID="526" v:groupContext="shape" transform="translate(164.494,0)">
				<title>Sheet.526</title>
				<desc>STM32F3xx / STM32G4xx</desc>
				<v:textBlock v:margins="rect(1,1,1,1)"/>
				<v:textRect cx="53.4728" cy="219.108" width="106.95" height="18.9976"/>
				<rect x="0" y="209.609" width="106.946" height="18.9976" class="st18"/>
				<text x="9.9" y="221.51" class="st15" v:langID="1033"><v:paragraph v:horizAlign="2"/><v:tabList/>STM32F3xx<tspan
							class="st20" v:langID="1036"> </tspan><tspan class="st20" v:langID="1036">/ STM32G4xx</tspan></text>			</g>
			<g id="shape527-498" v:mID="527" v:groupContext="shape" transform="translate(282.607,70.2068) rotate(90)">
				<title>Sheet.527</title>
				<path d="M0 228.61 L59.4 228.61" class="st21"/>
			</g>
			<g id="shape528-504" v:mID="528" v:groupContext="shape" transform="translate(52.38,-88.2)">
				<title>Sheet.528</title>
				<desc>I</desc>
				<v:textBlock v:margins="rect(1,1,1,1)" v:verticalAlign="0"/>
				<v:textRect cx="8.82" cy="223.207" width="17.64" height="10.8"/>
				<rect x="0" y="217.807" width="17.64" height="10.8" class="st7"/>
				<text x="6.87" y="227.81" class="st23" v:langID="1033"><v:paragraph v:horizAlign="1"/><v:tabList/>I</text>			</g>
			<g id="shape529-507" v:mID="529" v:groupContext="shape" transform="translate(174.6,-21.6)">
				<title>Sheet.529</title>
				<desc>Current measurement</desc>
				<v:textBlock v:margins="rect(1,1,1,1)" v:verticalAlign="0"/>
				<v:textRect cx="38.7" cy="223.207" width="77.4" height="10.8"/>
				<rect x="0" y="217.807" width="77.4" height="10.8" class="st7"/>
				<text x="2.36" y="226.01" class="st24" v:langID="1033"><v:paragraph v:horizAlign="1"/><v:tabList/>Current measurement</text>			</g>
			<g id="shape530-510" v:mID="530" v:groupContext="shape" transform="translate(97.2,-144.9)">
				<title>Sheet.530</title>
				<desc>R1</desc>
				<v:textBlock v:margins="rect(1,1,1,1)" v:verticalAlign="0"/>
				<v:textRect cx="12.6" cy="223.207" width="25.21" height="10.8"/>
				<rect x="0" y="217.807" width="25.2" height="10.8" class="st7"/>
				<text x="8.14" y="226.91" class="st13" v:langID="1033"><v:paragraph v:horizAlign="1"/><v:tabList/>R<tspan
							dy="-0.279em" class="st14" v:baseFontSize="9">1</tspan></text>			</g>
			<g id="shape531-514" v:mID="531" v:groupContext="shape" transform="translate(63.36,-110.7)">
				<title>Sheet.531</title>
				<desc>R2</desc>
				<v:textBlock v:margins="rect(1,1,1,1)" v:verticalAlign="0"/>
				<v:textRect cx="12.6" cy="223.207" width="25.21" height="10.8"/>
				<rect x="0" y="217.807" width="25.2" height="10.8" class="st7"/>
				<text x="8.14" y="226.91" class="st13" v:langID="1033"><v:paragraph v:horizAlign="1"/><v:tabList/>R<tspan
							dy="-0.279em" class="st14" v:baseFontSize="9">2</tspan></text>			</g>
			<g id="shape532-518" v:mID="532" v:groupContext="shape" transform="translate(84.6,-100.8)">
				<title>Sheet.532</title>
				<desc>V+</desc>
				<v:textBlock v:margins="rect(1,1,1,1)" v:verticalAlign="0"/>
				<v:textRect cx="9.9" cy="223.207" width="19.8" height="10.8"/>
				<rect x="0" y="217.807" width="19.8" height="10.8" class="st7"/>
				<text x="4.33" y="226.91" class="st13" v:langID="1033"><v:paragraph v:horizAlign="1"/><v:tabList/>V+</text>			</g>
			<g id="shape533-521" v:mID="533" v:groupContext="shape" transform="translate(-135.007,117.007) rotate(-90)">
				<title>Sheet.533</title>
				<path d="M0 228.61 L7.23 228.61" class="st25"/>
			</g>
		</g>
	</g>
</svg>
