<?xml version="1.0" encoding="UTF-8" standalone="no"?>
<svg
   xmlns:dc="http://purl.org/dc/elements/1.1/"
   xmlns:cc="http://creativecommons.org/ns#"
   xmlns:rdf="http://www.w3.org/1999/02/22-rdf-syntax-ns#"
   xmlns:svg="http://www.w3.org/2000/svg"
   xmlns="http://www.w3.org/2000/svg"
   xml:space="preserve"
   enable-background="new 0 0 402.52 218.268"
   viewBox="0 0 402.52 218.268"
   height="218.268px"
   width="402.52px"
   y="0px"
   x="0px"
   id="Layer_1"
   version="1.1"><metadata
     id="metadata69"><rdf:RDF><cc:Work
         rdf:about=""><dc:format>image/svg+xml</dc:format><dc:type
           rdf:resource="http://purl.org/dc/dcmitype/StillImage" /><dc:title></dc:title></cc:Work></rdf:RDF></metadata><defs
     id="defs67" /><path
     id="path3"
     d="M191.663,96.247c-2.274-3.544-3.593-7.759-3.593-12.283  c0-12.578,10.197-22.774,22.774-22.774"
     stroke-width="1.75"
     stroke="#747474"
     fill="none" /><rect
     id="rect5"
     height="14.166"
     width="22.211"
     fill="#4789C8"
     y="77.468"
     x="210.471" /><polygon
     id="polygon7"
     points="209.69,91.254 187.48,91.633 187.48,77.718 209.69,77.718 "
     fill="#6FC6D6" /><circle
     id="circle9"
     r="51.839"
     cy="85.266"
     cx="211.279"
     stroke-width="1.75"
     stroke="#010101"
     fill="none" /><line
     id="line11"
     y2="212.591"
     x2="211.495"
     y1="26.052"
     x1="211.495"
     stroke-dasharray="6,6"
     stroke-width="1.75"
     stroke="#747474"
     fill="none" /><polyline
     id="polyline13"
     points="158.572,113.679 211.278,85.265   262.25,112.812 "
     stroke-dasharray="6,6"
     stroke-width="1.75"
     stroke="#747474"
     fill="none" /><rect
     id="rect23"
     height="12.146"
     width="11.713"
     stroke-width="1.75"
     stroke="#89C7ED"
     fill="none"
     y="27.354"
     x="205.422" /><rect
     id="rect25"
     height="12.144"
     width="11.713"
     stroke-width="1.75"
     stroke="#89C7ED"
     fill="none"
     y="103.703"
     x="252.706" /><rect
     id="rect27"
     height="12.145"
     width="11.713"
     stroke-width="1.75"
     stroke="#89C7ED"
     fill="none"
     y="102.835"
     x="159.006" /><line
     id="line35"
     y2="214.32"
     x2="141.413"
     y1="147.515"
     x1="141.413"
     stroke-width="1.75"
     stroke="#010101"
     fill="none" /><line
     id="line37"
     y2="215.189"
     x2="290.012"
     y1="146.648"
     x1="290.012"
     stroke-width="1.75"
     stroke="#010101"
     fill="none" /><polyline
     id="polyline39"
     points="134.279,169.204 140.786,169.204 140.786,152.722   211.304,152.722 211.304,167.904 288.711,167.904 288.711,152.722 "
     stroke-width="1.75"
     stroke="#89C7ED"
     fill="none" /><polyline
     id="polyline41"
     points="140.352,189.159 191.107,189.159 191.107,173.978   264.419,173.978 264.419,188.292 289.579,188.292 "
     stroke-width="1.75"
     stroke="#89C7ED"
     fill="none" /><polyline
     id="polyline43"
     points="140.352,196.968 165.946,196.968 165.946,212.585   240.126,212.585 240.126,196.534 288.711,196.534 "
     stroke-width="1.75"
     stroke="#89C7ED"
     fill="none" /><path
     id="path49"
     d="M221.096,65.338c5.203,1.057,9.302,5.155,10.357,10.358"
     stroke="#010101"
     fill="none" /><g
     id="g4197"><text
       transform="matrix(1 0 0 1 174.6228 68.5642)"
       fill="#010101"
       font-family="'Helvetica'"
       font-size="8.3289"
       id="text15"
       style="-inkscape-font-specification:Arial;font-family:Arial;font-weight:normal;font-style:normal;font-stretch:normal;font-variant:normal;">120°</text>
<text
       transform="matrix(1 0 0 1 192.7644 31.4285)"
       fill="#010101"
       font-family="'Helvetica'"
       font-size="8.3289"
       id="text17"
       style="-inkscape-font-specification:Arial;font-family:Arial;font-weight:normal;font-style:normal;font-stretch:normal;font-variant:normal;">H1</text>
<text
       transform="matrix(1 0 0 1 144.9548 109.3406)"
       fill="#010101"
       font-family="'Helvetica'"
       font-size="8.3289"
       id="text19"
       style="-inkscape-font-specification:Arial;font-family:Arial;font-weight:normal;font-style:normal;font-stretch:normal;font-variant:normal;">H2</text>
<text
       transform="matrix(1 0 0 1 267.1345 111.1116)"
       fill="#010101"
       font-family="'Helvetica'"
       font-size="8.3289"
       id="text21"
       style="-inkscape-font-specification:Arial;font-family:Arial;font-weight:normal;font-style:normal;font-stretch:normal;font-variant:normal;">H3</text>
<text
       transform="matrix(1 0 0 1 119.0964 166.1692)"
       fill="#010101"
       font-family="'Helvetica'"
       font-size="8.3289"
       id="text29"
       style="-inkscape-font-specification:Arial;font-family:Arial;font-weight:normal;font-style:normal;font-stretch:normal;font-variant:normal;">H1</text>
<text
       transform="matrix(1 0 0 1 119.53 188.7278)"
       fill="#010101"
       font-family="'Helvetica'"
       font-size="8.3289"
       id="text31"
       style="-inkscape-font-specification:Arial;font-family:Arial;font-weight:normal;font-style:normal;font-stretch:normal;font-variant:normal;">H2</text>
<text
       transform="matrix(1 0 0 1 119.0964 212.1516)"
       fill="#010101"
       font-family="'Helvetica'"
       font-size="8.3289"
       id="text33"
       style="-inkscape-font-specification:Arial;font-family:Arial;font-weight:normal;font-style:normal;font-stretch:normal;font-variant:normal;">H3</text>
<text
       transform="matrix(1 0 0 1 173.3215 10.0017)"
       fill="#010101"
       font-family="'Helvetica'"
       font-size="8.3289"
       id="text45"
       style="-inkscape-font-specification:Arial;font-family:Arial;font-weight:normal;font-style:normal;font-stretch:normal;font-variant:normal;">3 sensors 120°</text>
<text
       transform="matrix(1 0 0 1 198.0769 88.0916)"
       fill="#010101"
       font-family="'Helvetica'"
       font-size="8.3289"
       id="text51"
       style="-inkscape-font-specification:Arial;font-family:Arial;font-weight:normal;font-style:normal;font-stretch:normal;font-variant:normal;">N</text>
<text
       transform="matrix(1 0 0 1 217.5554 88.0916)"
       fill="#010101"
       font-family="'Helvetica'"
       font-size="8.3289"
       id="text53"
       style="-inkscape-font-specification:Arial;font-family:Arial;font-weight:normal;font-style:normal;font-stretch:normal;font-variant:normal;">S</text>
</g><rect
     id="rect55"
     height="14.166"
     width="46.039"
     stroke-width="0.75"
     stroke="#010101"
     fill="none"
     y="77.468"
     x="187.452" /><line
     id="line57"
     y2="91.633"
     x2="211.304"
     y1="77.468"
     x1="211.304"
     stroke-width="0.75"
     stroke="#010101"
     fill="none" /><polygon
     id="polygon59"
     points="222.285,68.614 218.006,63.491 224.637,64.249 "
     fill="#010101" /><path
     id="path61"
     d="M198.527,102.181c-5.203-1.057-9.301-5.155-10.359-10.359"
     stroke="#010101"
     fill="none" /><polygon
     id="polygon63"
     points="197.338,98.906 201.618,104.029 194.987,103.271 "
     fill="#010101" /></svg>