<?xml version="1.0" encoding="UTF-8" standalone="no"?>
<svg
   xmlns:v="http://schemas.microsoft.com/visio/2003/SVGExtensions/"
   xmlns:dc="http://purl.org/dc/elements/1.1/"
   xmlns:cc="http://creativecommons.org/ns#"
   xmlns:rdf="http://www.w3.org/1999/02/22-rdf-syntax-ns#"
   xmlns:svg="http://www.w3.org/2000/svg"
   xmlns="http://www.w3.org/2000/svg"
   version="1.1"
   id="svg2"
   class="st5"
   color-interpolation-filters="sRGB"
   xml:space="preserve"
   viewBox="0 0 398.068 274.441"
   height="3.81168in"
   width="5.52872in"><metadata
     id="metadata463"><rdf:RDF><cc:Work
         rdf:about=""><dc:format>image/svg+xml</dc:format><dc:type
           rdf:resource="http://purl.org/dc/dcmitype/StillImage" /><dc:title></dc:title></cc:Work></rdf:RDF></metadata><defs
     id="defs461" /><v:documentProperties
     v:langID="1033" /><style
     id="style4"
     type="text/css"><![CDATA[
		.st1 {fill:none;stroke:none;stroke-linecap:round;stroke-linejoin:round;stroke-width:0.72}
		.st2 {fill:#000000;font-family:Arial;font-size:0.499992em}
		.st3 {fill:#000000;stroke:#000000;stroke-linecap:round;stroke-linejoin:round;stroke-width:0.0308732}
		.st4 {fill:none;stroke:none;stroke-linecap:round;stroke-linejoin:round;stroke-width:0.75}
		.st5 {fill:none;fill-rule:evenodd;font-size:12px;overflow:visible;stroke-linecap:square;stroke-miterlimit:3}
	]]></style><g
     transform="translate(8.000004,8.000003)"
     id="g4944"><path
       d="m 132.204,2.889 c 0,0 0.03,-0.03 0.03,-0.03 l 0.22,-1 c 0,-0.03 0,-0.06 0.03,-0.09 l 0.56,-0.86 c 0,-0.03 0.04,-0.06 0.07,-0.06 l 0.87,-0.55 c 0.03,-0.03 0.07,-0.03 0.1,-0.03 l 1.03,-0.21 c 0,0 0.03,-0.03 0.03,-0.03 l 114.81,0 c 0.03,0 0.06,0.03 0.06,0.03 l 1.03,0.21 c 0.03,0 0.07,0 0.1,0.03 l 0.84,0.55 c 0.03,0 0.06,0.03 0.06,0.06 l 0.57,0.86 c 0.03,0.03 0.03,0.06 0.03,0.09 l 0.22,1 c 0,0 0,0.03 0,0.03 l 0,10.39 c 0,0.03 0,0.06 0,0.06 l -0.22,1 c 0,0.04 0,0.07 -0.03,0.1 l -0.57,0.82 c 0,0.03 -0.03,0.06 -0.06,0.06 l -0.84,0.55 c -0.03,0.03 -0.07,0.03 -0.1,0.03 l -1.03,0.21 c 0,0 -0.03,0 -0.06,0 l -114.81,0 c 0,0 -0.03,0 -0.03,0 l -1.03,-0.21 c -0.03,0 -0.07,0 -0.1,-0.03 l -0.87,-0.55 c -0.03,0 -0.07,-0.03 -0.07,-0.06 l -0.56,-0.82 c -0.03,-0.03 -0.03,-0.06 -0.03,-0.1 l -0.22,-1 c 0,0 -0.03,-0.03 -0.03,-0.06 l 0,-10.39 z m 0.5,10.39 0,-0.03 0.22,1 -0.03,-0.09 0.56,0.82 -0.06,-0.06 0.88,0.55 -0.1,-0.03 1.03,0.21 -0.06,-0.03 114.81,0 -0.03,0.03 1.03,-0.21 -0.09,0.03 0.84,-0.55 -0.06,0.06 0.56,-0.82 -0.03,0.09 0.22,-1 -0.03,0.03 0,-10.39 0.03,0.06 -0.22,-1 0.03,0.09 -0.56,-0.85 0.06,0.06 -0.84,-0.55 0.09,0.03 -1.03,-0.21 0.03,0 -114.81,0 0.06,0 -1.03,0.21 0.1,-0.03 -0.88,0.55 0.06,-0.06 -0.56,0.85 0.03,-0.09 -0.22,1 0,-0.06 0,10.39 z"
       class="st3"
       id="path22"
       style="fill:#000000;stroke:#000000;stroke-width:0.0308732;stroke-linecap:round;stroke-linejoin:round" /><text
       x="171.043"
       y="10.940011"
       class="st2"
       v:langID="1033"
       id="text31"
       style="font-style:normal;font-variant:normal;font-weight:normal;font-stretch:normal;font-size:5.99990416px;font-family:Arial;-inkscape-font-specification:Arial;fill:#000000"><v:paragraph
   v:horizAlign="1" /><v:tabList />HALL_IRQHandler</text>
<path
       d="m 0.030901,37.799 c 0,-0.13 0.13,-0.25 0.25,-0.25 l 104.139999,0 c 0.15,0 0.25,0.12 0.25,0.25 l 0,12.18 c 0,0.15 -0.1,0.24 -0.25,0.24 l -104.139999,0 c -0.12,0 -0.25,-0.09 -0.25,-0.24 l 0,-12.18 z m 0.5,12.18 -0.25,-0.25 104.139999,0 -0.25,0.25 0,-12.18 0.25,0.24 -104.139999,0 0.25,-0.24 0,12.18 z"
       class="st3"
       id="path36"
       style="fill:#000000;stroke:#000000;stroke-width:0.0308732;stroke-linecap:round;stroke-linejoin:round" /><text
       x="30.9828"
       y="46.675011"
       class="st2"
       v:langID="1033"
       id="text45"
       style="font-style:normal;font-variant:normal;font-weight:normal;font-stretch:normal;font-size:5.99990416px;font-family:Arial;-inkscape-font-specification:Arial;fill:#000000"><v:paragraph
   v:horizAlign="1" /><v:tabList />Read present state</text>
<path
       d="m 0.030901,62.644 c 0,-0.12 0.13,-0.24 0.25,-0.24 l 104.139999,0 c 0.15,0 0.25,0.12 0.25,0.24 l 0,11.7 c 0,0.15 -0.1,0.24 -0.25,0.24 l -104.139999,0 c -0.12,0 -0.25,-0.09 -0.25,-0.24 l 0,-11.7 z m 0.5,11.7 -0.25,-0.25 104.139999,0 -0.25,0.25 0,-11.7 0.25,0.25 -104.139999,0 0.25,-0.25 0,11.7 z"
       class="st3"
       id="path50"
       style="fill:#000000;stroke:#000000;stroke-width:0.0308732;stroke-linecap:round;stroke-linejoin:round" /><text
       x="22.951"
       y="71.405014"
       class="st2"
       v:langID="1033"
       id="text59"
       style="font-style:normal;font-variant:normal;font-weight:normal;font-stretch:normal;font-size:5.99990416px;font-family:Arial;-inkscape-font-specification:Arial;fill:#000000"><v:paragraph
   v:horizAlign="1" /><v:tabList />Extract spinning direction</text>
<path
       d="m 0.220901,132.576 c -0.1,-0.03 -0.19,-0.13 -0.19,-0.25 0,-0.09 0.09,-0.18 0.19,-0.21 l 52.07,-17.54 c 0.06,-0.03 0.09,-0.03 0.15,0 l 52.069999,17.54 c 0.09,0.03 0.16,0.12 0.16,0.21 0,0.12 -0.07,0.22 -0.16,0.25 l -52.069999,17.54 c -0.06,0.03 -0.09,0.03 -0.15,0 l -52.07,-17.54 z m 52.22,17.08 -0.15,0 52.059999,-17.54 0,0.46 -52.059999,-17.55 0.15,0 -52.07,17.55 0,-0.46 52.07,17.54 z"
       class="st3"
       id="path64"
       style="fill:#000000;stroke:#000000;stroke-width:0.0308732;stroke-linecap:round;stroke-linejoin:round" /><text
       x="40.729198"
       y="131.69002"
       class="st2"
       v:langID="1033"
       id="text73"
       style="font-style:normal;font-variant:normal;font-weight:normal;font-stretch:normal;font-size:5.99990416px;font-family:Arial;-inkscape-font-specification:Arial;fill:#000000"><v:paragraph
   v:horizAlign="1" /><v:tabList />There were    </text>
<text
       x="39.6992"
       y="138.51201"
       class="st2"
       v:langID="1033"
       id="text82"
       style="font-style:normal;font-variant:normal;font-weight:normal;font-stretch:normal;font-size:5.99990416px;font-family:Arial;-inkscape-font-specification:Arial;fill:#000000"><v:paragraph
   v:horizAlign="1" /><v:tabList />overflows?</text>
<path
       d="m 0.220901,179.8436 c -0.1,-0.04 -0.19,-0.13 -0.19,-0.25 0,-0.09 0.09,-0.18 0.19,-0.21 l 52.07,-15.59 c 0.06,-0.04 0.09,-0.04 0.15,0 l 52.069999,15.59 c 0.09,0.03 0.16,0.12 0.16,0.21 0,0.12 -0.07,0.21 -0.16,0.25 l -52.069999,15.59 c -0.06,0.03 -0.09,0.03 -0.15,0 l -52.07,-15.59 z m 52.22,15.13 -0.15,0 52.059999,-15.59 0,0.46 -52.059999,-15.6 0.15,0 -52.07,15.6 0,-0.46 52.07,15.59 z"
       class="st3"
       id="path87"
       style="fill:#000000;stroke:#000000;stroke-width:0.0308732;stroke-linecap:round;stroke-linejoin:round" /><text
       x="35.852001"
       y="179.03812"
       class="st2"
       v:langID="1033"
       id="text96"
       style="font-style:normal;font-variant:normal;font-weight:normal;font-stretch:normal;font-size:5.99990416px;font-family:Arial;-inkscape-font-specification:Arial;fill:#000000"><v:paragraph
   v:horizAlign="1" /><v:tabList />Captured value    </text>
<text
       x="40.680599"
       y="185.86011"
       class="st2"
       v:langID="1033"
       id="text105"
       style="font-style:normal;font-variant:normal;font-weight:normal;font-stretch:normal;font-size:5.99990416px;font-family:Arial;-inkscape-font-specification:Arial;fill:#000000"><v:paragraph
   v:horizAlign="1" /><v:tabList />is too low?</text>
<path
       d="m 286.405,37.79 c 0,-0.12 0.13,-0.24 0.25,-0.24 l 80.11,0 c 0.15,0 0.25,0.12 0.25,0.24 l 0,15.6 c 0,0.15 -0.1,0.24 -0.25,0.24 l -80.11,0 c -0.12,0 -0.25,-0.09 -0.25,-0.24 l 0,-15.6 z m 0.5,15.6 -0.25,-0.25 80.11,0 -0.26,0.25 0,-15.6 0.26,0.25 -80.11,0 0.25,-0.25 0,15.6 z"
       class="st3"
       id="path110"
       style="fill:#000000;stroke:#000000;stroke-width:0.0308732;stroke-linecap:round;stroke-linejoin:round" /><text
       x="308.103"
       y="48.543011"
       class="st2"
       v:langID="1033"
       id="text119"
       style="font-style:normal;font-variant:normal;font-weight:normal;font-stretch:normal;font-size:5.99990416px;font-family:Arial;-inkscape-font-specification:Arial;fill:#000000"><v:paragraph
   v:horizAlign="1" /><v:tabList />OVF_Counter++</text>
<path
       d="m 272.547,92.129 c -0.1,-0.03 -0.16,-0.12 -0.16,-0.25 0,-0.09 0.06,-0.18 0.16,-0.21 l 54.07,-21.44 c 0.06,-0.03 0.15,-0.03 0.18,0 l 54.08,21.44 c 0.12,0.03 0.15,0.12 0.15,0.21 0,0.13 -0.03,0.22 -0.15,0.25 l -54.08,21.44 c -0.03,0.03 -0.12,0.03 -0.18,0 l -54.07,-21.44 z m 54.25,20.98 -0.18,0 54.07,-21.44 0,0.46 -54.07,-21.44 0.18,0 -54.07,21.44 0,-0.46 54.07,21.44 z"
       class="st3"
       id="path124"
       style="fill:#000000;stroke:#000000;stroke-width:0.0308732;stroke-linecap:round;stroke-linejoin:round" /><text
       x="309.93399"
       y="87.737015"
       class="st2"
       v:langID="1033"
       id="text133"
       style="font-style:normal;font-variant:normal;font-weight:normal;font-stretch:normal;font-size:5.99990416px;font-family:Arial;-inkscape-font-specification:Arial;fill:#000000"><v:paragraph
   v:horizAlign="1" /><v:tabList />OVF_Counter &gt;    </text>
<text
       x="308.06299"
       y="94.559013"
       class="st2"
       v:langID="1033"
       id="text142"
       style="font-style:normal;font-variant:normal;font-weight:normal;font-stretch:normal;font-size:5.99990416px;font-family:Arial;-inkscape-font-specification:Arial;fill:#000000"><v:paragraph
   v:horizAlign="1" /><v:tabList />HALL_MAX_OV</text>
<text
       x="313.45001"
       y="101.38101"
       class="st2"
       v:langID="1033"
       id="text151"
       style="font-style:normal;font-variant:normal;font-weight:normal;font-stretch:normal;font-size:5.99990416px;font-family:Arial;-inkscape-font-specification:Arial;fill:#000000"><v:paragraph
   v:horizAlign="1" /><v:tabList />ERFLOWS?</text>
<path
       d="m 280.398,212.728 c 0,-0.12 0.13,-0.24 0.25,-0.24 l 92.12,0 c 0.16,0 0.25,0.12 0.25,0.24 l 0,11.7 c 0,0.15 -0.09,0.24 -0.25,0.24 l -92.12,0 c -0.12,0 -0.25,-0.09 -0.25,-0.24 l 0,-11.7 z m 0.5,11.7 -0.25,-0.25 92.12,0 -0.25,0.25 0,-11.7 0.25,0.25 -92.12,0 0.25,-0.25 0,11.7 z"
       class="st3"
       id="path156"
       style="fill:#000000;stroke:#000000;stroke-width:0.0308732;stroke-linecap:round;stroke-linejoin:round" /><text
       x="307.76199"
       y="221.40771"
       class="st2"
       v:langID="1033"
       id="text165"
       style="font-style:normal;font-variant:normal;font-weight:normal;font-stretch:normal;font-size:5.99990416px;font-family:Arial;-inkscape-font-specification:Arial;fill:#000000"><v:paragraph
   v:horizAlign="1" /><v:tabList />Time out = TRUE</text>
<path
       d="m 196.288,146.464 c 0,-0.13 0.13,-0.25 0.25,-0.25 l 70.09,0 c 0.16,0 0.25,0.12 0.25,0.25 l 0,12.18 c 0,0.15 -0.09,0.24 -0.25,0.24 l -70.09,0 c -0.12,0 -0.25,-0.09 -0.25,-0.24 l 0,-12.18 z m 0.5,12.18 -0.25,-0.25 70.09,0 -0.25,0.25 0,-12.18 0.25,0.24 -70.09,0 0.25,-0.24 0,12.18 z"
       class="st3"
       id="path170"
       style="fill:#000000;stroke:#000000;stroke-width:0.0308732;stroke-linecap:round;stroke-linejoin:round" /><text
       x="205.27299"
       y="155.38"
       class="st2"
       v:langID="1033"
       id="text179"
       style="font-style:normal;font-variant:normal;font-weight:normal;font-stretch:normal;font-size:5.99990416px;font-family:Arial;-inkscape-font-specification:Arial;fill:#000000"><v:paragraph
   v:horizAlign="1" /><v:tabList />Re</text>
<text
       x="212.442"
       y="155.38"
       class="st2"
       v:langID="1033"
       id="text188"
       style="font-style:normal;font-variant:normal;font-weight:normal;font-stretch:normal;font-size:5.99990416px;font-family:Arial;-inkscape-font-specification:Arial;fill:#000000"><v:paragraph
   v:horizAlign="1" /><v:tabList />-</text>
<text
       x="217.015"
       y="155.38"
       class="st2"
       v:langID="1033"
       id="text197"
       style="font-style:normal;font-variant:normal;font-weight:normal;font-stretch:normal;font-size:5.99990416px;font-family:Arial;-inkscape-font-specification:Arial;fill:#000000"><v:paragraph
   v:horizAlign="1" /><v:tabList />compute capture</text>
<path
       d="m 196.288,170.3333 c 0,-0.12 0.13,-0.24 0.25,-0.24 l 70.09,0 c 0.16,0 0.25,0.12 0.25,0.24 l 0,19.01 c 0,0.15 -0.09,0.24 -0.25,0.24 l -70.09,0 c -0.12,0 -0.25,-0.09 -0.25,-0.24 l 0,-19.01 z m 0.5,19.01 -0.25,-0.25 70.09,0 -0.25,0.25 0,-19.01 0.25,0.25 -70.09,0 0.25,-0.25 0,19.01 z"
       class="st3"
       id="path202"
       style="fill:#000000;stroke:#000000;stroke-width:0.0308732;stroke-linecap:round;stroke-linejoin:round" /><text
       x="217.435"
       y="179.03812"
       class="st2"
       v:langID="1033"
       id="text211"
       style="font-style:normal;font-variant:normal;font-weight:normal;font-stretch:normal;font-size:5.99990416px;font-family:Arial;-inkscape-font-specification:Arial;fill:#000000"><v:paragraph
   v:horizAlign="1" /><v:tabList />Store capture    </text>
<text
       x="210.276"
       y="185.86011"
       class="st2"
       v:langID="1033"
       id="text220"
       style="font-style:normal;font-variant:normal;font-weight:normal;font-stretch:normal;font-size:5.99990416px;font-family:Arial;-inkscape-font-specification:Arial;fill:#000000"><v:paragraph
   v:horizAlign="1" /><v:tabList />prescaler direction</text>
<path
       d="m 196.288,212.728 c 0,-0.12 0.13,-0.24 0.25,-0.24 l 70.09,0 c 0.16,0 0.25,0.12 0.25,0.24 l 0,11.7 c 0,0.15 -0.09,0.24 -0.25,0.24 l -70.09,0 c -0.12,0 -0.25,-0.09 -0.25,-0.24 l 0,-11.7 z m 0.5,11.7 -0.25,-0.25 70.09,0 -0.25,0.25 0,-11.7 0.25,0.25 -70.09,0 0.25,-0.25 0,11.7 z"
       class="st3"
       id="path225"
       style="fill:#000000;stroke:#000000;stroke-width:0.0308732;stroke-linecap:round;stroke-linejoin:round" /><text
       x="217.37601"
       y="221.40771"
       class="st2"
       v:langID="1033"
       id="text234"
       style="font-style:normal;font-variant:normal;font-weight:normal;font-stretch:normal;font-size:5.99990416px;font-family:Arial;-inkscape-font-specification:Arial;fill:#000000"><v:paragraph
   v:horizAlign="1" /><v:tabList />Prescaler ++</text>
<path
       d="m 114.18,212.728 c 0,-0.12 0.13,-0.24 0.25,-0.24 l 70.09,0 c 0.16,0 0.25,0.12 0.25,0.24 l 0,11.7 c 0,0.15 -0.09,0.24 -0.25,0.24 l -70.09,0 c -0.12,0 -0.25,-0.09 -0.25,-0.24 l 0,-11.7 z m 0.5,11.7 -0.25,-0.25 70.09,0 -0.25,0.25 0,-11.7 0.25,0.25 -70.09,0 0.25,-0.25 0,11.7 z"
       class="st3"
       id="path239"
       style="fill:#000000;stroke:#000000;stroke-width:0.0308732;stroke-linecap:round;stroke-linejoin:round" /><text
       x="137.181"
       y="221.40771"
       class="st2"
       v:langID="1033"
       id="text248"
       style="font-style:normal;font-variant:normal;font-weight:normal;font-stretch:normal;font-size:5.99990416px;font-family:Arial;-inkscape-font-specification:Arial;fill:#000000"><v:paragraph
   v:horizAlign="1" /><v:tabList />Prescaler    </text>
<text
       x="161.996"
       y="221.40771"
       class="st2"
       v:langID="1033"
       id="text257"
       style="font-style:normal;font-variant:normal;font-weight:normal;font-stretch:normal;font-size:5.99990416px;font-family:Arial;-inkscape-font-specification:Arial;fill:#000000"><v:paragraph
   v:horizAlign="1" /><v:tabList />--</text>
<path
       d="m 114.18,170.3333 c 0,-0.12 0.13,-0.24 0.25,-0.24 l 70.09,0 c 0.16,0 0.25,0.12 0.25,0.24 l 0,19.01 c 0,0.15 -0.09,0.24 -0.25,0.24 l -70.09,0 c -0.12,0 -0.25,-0.09 -0.25,-0.24 l 0,-19.01 z m 0.5,19.01 -0.25,-0.25 70.09,0 -0.25,0.25 0,-19.01 0.25,0.25 -70.09,0 0.25,-0.25 0,19.01 z"
       class="st3"
       id="path262"
       style="fill:#000000;stroke:#000000;stroke-width:0.0308732;stroke-linecap:round;stroke-linejoin:round" /><text
       x="135.336"
       y="179.03812"
       class="st2"
       v:langID="1033"
       id="text271"
       style="font-style:normal;font-variant:normal;font-weight:normal;font-stretch:normal;font-size:5.99990416px;font-family:Arial;-inkscape-font-specification:Arial;fill:#000000"><v:paragraph
   v:horizAlign="1" /><v:tabList />Store capture    </text>
<text
       x="128.177"
       y="185.86011"
       class="st2"
       v:langID="1033"
       id="text280"
       style="font-style:normal;font-variant:normal;font-weight:normal;font-stretch:normal;font-size:5.99990416px;font-family:Arial;-inkscape-font-specification:Arial;fill:#000000"><v:paragraph
   v:horizAlign="1" /><v:tabList />prescaler direction</text>
<path
       d="m 0.030901,205.418 c 0,-0.12 0.13,-0.24 0.25,-0.24 l 104.139999,0 c 0.15,0 0.25,0.12 0.25,0.24 l 0,19.01 c 0,0.15 -0.1,0.24 -0.25,0.24 l -104.139999,0 c -0.12,0 -0.25,-0.09 -0.25,-0.24 l 0,-19.01 z m 0.5,19.01 -0.25,-0.25 104.139999,0 -0.25,0.25 0,-19.01 0.25,0.25 -104.139999,0 0.25,-0.25 0,19.01 z"
       class="st3"
       id="path285"
       style="fill:#000000;stroke:#000000;stroke-width:0.0308732;stroke-linecap:round;stroke-linejoin:round" /><text
       x="14.62857"
       y="217.87491"
       class="st2"
       v:langID="1033"
       id="text294"
       style="font-style:normal;font-variant:normal;font-weight:normal;font-stretch:normal;font-size:5.99990416px;font-family:Arial;-inkscape-font-specification:Arial;fill:#000000"><v:paragraph
   v:horizAlign="1" /><v:tabList />Store capture prescaler direction</text>
<path
       d="m 160.24,244.5835 c 0,0 0.03,-0.03 0.03,-0.03 l 0.22,-1 c 0,-0.03 0,-0.06 0.03,-0.09 l 0.56,-0.86 c 0,-0.03 0.04,-0.06 0.07,-0.06 l 0.87,-0.55 c 0.03,-0.03 0.07,-0.03 0.1,-0.03 l 1.03,-0.21 c 0,0 0.03,-0.03 0.03,-0.03 l 50.72,0 c 0.04,0 0.07,0.03 0.07,0.03 l 1.03,0.21 c 0.03,0 0.06,0 0.09,0.03 l 0.85,0.55 c 0.03,0 0.06,0.03 0.06,0.06 l 0.56,0.86 c 0.03,0.03 0.03,0.06 0.03,0.09 l 0.22,1 c 0,0 0,0.03 0,0.03 l 0,10.39 c 0,0.03 0,0.06 0,0.06 l -0.22,1 c 0,0.04 0,0.07 -0.03,0.1 l -0.56,0.82 c 0,0.03 -0.03,0.06 -0.06,0.06 l -0.85,0.55 c -0.03,0.03 -0.06,0.03 -0.09,0.03 l -1.03,0.21 c 0,0 -0.03,0 -0.07,0 l -50.72,0 c 0,0 -0.03,0 -0.03,0 l -1.03,-0.21 c -0.03,0 -0.07,0 -0.1,-0.03 l -0.87,-0.55 c -0.03,0 -0.07,-0.03 -0.07,-0.06 l -0.56,-0.82 c -0.03,-0.03 -0.03,-0.06 -0.03,-0.1 l -0.22,-1 c 0,0 -0.03,-0.03 -0.03,-0.06 l 0,-10.39 z m 0.5,10.39 0,-0.03 0.22,1 -0.03,-0.09 0.56,0.82 -0.06,-0.06 0.88,0.55 -0.1,-0.03 1.03,0.21 -0.06,-0.03 50.72,0 -0.03,0.03 1.04,-0.21 -0.1,0.03 0.85,-0.55 -0.07,0.06 0.57,-0.82 -0.03,0.09 0.21,-1 -0.03,0.03 0,-10.39 0.03,0.06 -0.21,-1 0.03,0.09 -0.57,-0.85 0.07,0.06 -0.85,-0.55 0.1,0.03 -1.04,-0.21 0.03,0 -50.72,0 0.06,0 -1.03,0.21 0.1,-0.03 -0.88,0.55 0.06,-0.06 -0.56,0.85 0.03,-0.09 -0.22,1 0,-0.06 0,10.39 z"
       class="st3"
       id="path299"
       style="fill:#000000;stroke:#000000;stroke-width:0.0308732;stroke-linecap:round;stroke-linejoin:round" /><text
       x="184.68401"
       y="252.63461"
       class="st2"
       v:langID="1033"
       id="text308"
       style="font-style:normal;font-variant:normal;font-weight:normal;font-stretch:normal;font-size:5.99990416px;font-family:Arial;-inkscape-font-specification:Arial;fill:#000000"><v:paragraph
   v:horizAlign="1" /><v:tabList />End</text>
<path
       d="m 192.8735,15.865 0,11.03 c 0,0.12 -0.09,0.24 -0.25,0.24 l -140.27,0 0.25,-0.24 0,10.5 -0.5,0 0,-10.5 c 0,-0.16 0.12,-0.25 0.25,-0.25 l 140.27,0 -0.25,0.25 0,-11.03 0.5,0 z m -137.96,17.76 -2.56,4.26 -2.54,-4.26 c -0.06,-0.12 -0.03,-0.28 0.1,-0.34 0.12,-0.06 0.25,-0.03 0.34,0.09 l 2.31,3.9 -0.4,0 2.31,-3.9 c 0.1,-0.12 0.22,-0.15 0.35,-0.09 0.12,0.06 0.15,0.22 0.09,0.34 z"
       class="st3"
       id="path313"
       style="fill:#000000;stroke:#000000;stroke-width:0.0308732;stroke-linecap:round;stroke-linejoin:round" /><path
       d="m 192.782,15.865 0,11.03 -0.25,-0.25 134.18,0 c 0.15,0 0.25,0.09 0.25,0.25 l 0,10.5 -0.5,0 0,-10.5 0.25,0.24 -134.18,0 c -0.12,0 -0.25,-0.12 -0.25,-0.24 l 0,-11.03 0.5,0 z m 136.49,17.76 -2.56,4.26 -2.54,-4.26 c -0.06,-0.12 -0.03,-0.28 0.1,-0.34 0.12,-0.06 0.25,-0.03 0.34,0.09 l 2.31,3.9 -0.4,0 2.31,-3.9 c 0.1,-0.12 0.22,-0.15 0.35,-0.09 0.12,0.06 0.15,0.22 0.09,0.34 z"
       class="st3"
       id="path318"
       style="fill:#000000;stroke:#000000;stroke-width:0.0308732;stroke-linecap:round;stroke-linejoin:round" /><path
       d="m 104.417,132.081 127.17,0 c 0.15,0 0.25,0.13 0.25,0.25 l 0,13.82 -0.5,0 0,-13.82 0.25,0.24 -127.17,0 0,-0.49 z m 129.73,10.3 -2.56,4.26 -2.54,-4.26 c -0.06,-0.12 -0.03,-0.28 0.1,-0.34 0.12,-0.06 0.25,-0.03 0.34,0.09 l 2.32,3.9 -0.41,0 2.31,-3.9 c 0.1,-0.12 0.22,-0.15 0.35,-0.09 0.12,0.06 0.15,0.22 0.09,0.34 z"
       class="st3"
       id="path323"
       style="fill:#000000;stroke:#000000;stroke-width:0.0308732;stroke-linecap:round;stroke-linejoin:round" /><path
       d="m 231.832,224.4271 0,8.77 c 0,0.15 -0.09,0.24 -0.25,0.24 l -43.05,0 0.25,-0.24 0,8.31 -0.5,0 0,-8.31 c 0,-0.12 0.12,-0.24 0.25,-0.24 l 43.05,0 -0.25,0.24 0,-8.77 0.5,0 z m -40.74,13.31 -2.56,4.26 -2.54,-4.26 c -0.06,-0.12 -0.03,-0.28 0.1,-0.34 0.12,-0.09 0.25,-0.03 0.34,0.06 l 2.31,3.93 -0.4,0 2.31,-3.93 c 0.1,-0.09 0.22,-0.15 0.35,-0.06 0.12,0.06 0.15,0.22 0.09,0.34 z"
       class="st3"
       id="path328"
       style="fill:#000000;stroke:#000000;stroke-width:0.0308732;stroke-linecap:round;stroke-linejoin:round" /><path
       d="m 326.962,224.4271 0,8.77 c 0,0.15 -0.1,0.24 -0.25,0.24 l -138.18,0 0.25,-0.24 0,8.31 -0.5,0 0,-8.31 c 0,-0.12 0.12,-0.24 0.25,-0.24 l 138.18,0 -0.25,0.24 0,-8.77 0.5,0 z m -135.87,13.31 -2.56,4.26 -2.54,-4.26 c -0.06,-0.12 -0.03,-0.28 0.1,-0.34 0.12,-0.09 0.25,-0.03 0.34,0.06 l 2.31,3.93 -0.4,0 2.31,-3.93 c 0.1,-0.09 0.22,-0.15 0.35,-0.06 0.12,0.06 0.15,0.22 0.09,0.34 z"
       class="st3"
       id="path333"
       style="fill:#000000;stroke:#000000;stroke-width:0.0308732;stroke-linecap:round;stroke-linejoin:round" /><path
       d="m 149.726,224.4271 0,8.77 -0.25,-0.24 39.05,0 c 0.16,0 0.25,0.12 0.25,0.24 l 0,8.31 -0.5,0 0,-8.31 0.25,0.24 -39.05,0 c -0.12,0 -0.25,-0.09 -0.25,-0.24 l 0,-8.77 0.5,0 z m 41.37,13.31 -2.57,4.26 -2.53,-4.26 c -0.07,-0.12 -0.03,-0.28 0.09,-0.34 0.13,-0.09 0.25,-0.03 0.34,0.06 l 2.32,3.93 -0.41,0 2.32,-3.93 c 0.09,-0.09 0.22,-0.15 0.34,-0.06 0.13,0.06 0.16,0.22 0.1,0.34 z"
       class="st3"
       id="path338"
       style="fill:#000000;stroke:#000000;stroke-width:0.0308732;stroke-linecap:round;stroke-linejoin:round" /><path
       d="m 52.599,224.4271 0,8.77 -0.25,-0.24 136.27,0 c 0.16,0 0.25,0.12 0.25,0.24 l 0,8.31 -0.5,0 0,-8.31 0.25,0.24 -136.27,0 c -0.12,0 -0.25,-0.09 -0.25,-0.24 l 0,-8.77 0.5,0 z m 138.59,13.31 -2.57,4.26 -2.56,-4.26 c -0.07,-0.12 0,-0.28 0.09,-0.34 0.13,-0.09 0.28,-0.03 0.34,0.06 l 2.35,3.93 -0.44,0 2.35,-3.93 c 0.06,-0.09 0.22,-0.15 0.34,-0.06 0.13,0.06 0.16,0.22 0.1,0.34 z"
       class="st3"
       id="path343"
       style="fill:#000000;stroke:#000000;stroke-width:0.0308732;stroke-linecap:round;stroke-linejoin:round" /><path
       d="m 0.030901,88.957 c 0,-0.12 0.13,-0.24 0.25,-0.24 l 104.139999,0 c 0.15,0 0.25,0.12 0.25,0.24 l 0,11.7 c 0,0.15 -0.1,0.24 -0.25,0.24 l -104.139999,0 c -0.12,0 -0.25,-0.09 -0.25,-0.24 l 0,-11.7 z m 0.5,11.7 -0.25,-0.25 104.139999,0 -0.25,0.25 0,-11.7 0.25,0.25 -104.139999,0 0.25,-0.25 0,11.7 z"
       class="st3"
       id="path348"
       style="fill:#000000;stroke:#000000;stroke-width:0.0308732;stroke-linecap:round;stroke-linejoin:round" /><text
       x="26.055599"
       y="97.474014"
       class="st2"
       v:langID="1033"
       id="text357"
       style="font-style:normal;font-variant:normal;font-weight:normal;font-stretch:normal;font-size:5.99990416px;font-family:Arial;-inkscape-font-specification:Arial;fill:#000000"><v:paragraph
   v:horizAlign="1" /><v:tabList />Extract electrical angle</text>
<path
       d="m 52.6908,50.01 -0.06,12.48 -0.5,0 0.06,-12.51 0.5,0.03 z m 2.26,8.74 -2.6,4.23 -2.5,-4.26 c -0.1,-0.12 -0.04,-0.28 0.09,-0.34 0.09,-0.06 0.25,-0.03 0.34,0.09 l 2.32,3.9 -0.44,0 2.35,-3.87 c 0.06,-0.12 0.22,-0.18 0.34,-0.09 0.13,0.06 0.16,0.22 0.1,0.34 z"
       class="st3"
       id="path362"
       style="fill:#000000;stroke:#000000;stroke-width:0.0308732;stroke-linecap:round;stroke-linejoin:round" /><path
       d="m 52.6908,74.373 -0.06,13.7 -0.5,0 0.06,-13.73 0.5,0.03 z m 2.26,9.96 -2.6,4.23 -2.5,-4.26 c -0.1,-0.12 -0.04,-0.28 0.09,-0.34 0.09,-0.06 0.25,-0.03 0.31,0.09 l 2.32,3.9 -0.41,0 2.35,-3.87 c 0.06,-0.12 0.22,-0.18 0.34,-0.09 0.13,0.06 0.16,0.22 0.1,0.34 z"
       class="st3"
       id="path367"
       style="fill:#000000;stroke:#000000;stroke-width:0.0308732;stroke-linecap:round;stroke-linejoin:round" /><path
       d="m 52.6908,100.686 -0.06,13.7 -0.5,0 0.06,-13.73 0.5,0.03 z m 2.26,9.96 -2.6,4.23 -2.5,-4.26 c -0.1,-0.12 -0.04,-0.28 0.09,-0.34 0.09,-0.06 0.25,-0.03 0.31,0.09 l 2.32,3.9 -0.41,0 2.35,-3.87 c 0.06,-0.12 0.22,-0.18 0.34,-0.09 0.13,0.06 0.16,0.22 0.1,0.34 z"
       class="st3"
       id="path372"
       style="fill:#000000;stroke:#000000;stroke-width:0.0308732;stroke-linecap:round;stroke-linejoin:round" /><path
       d="m 52.6908,149.902 -0.06,13.7 -0.5,0 0.06,-13.73 0.5,0.03 z m 2.26,9.96 -2.6,4.23 -2.5,-4.26 c -0.1,-0.12 -0.04,-0.28 0.09,-0.34 0.09,-0.06 0.25,-0.03 0.31,0.09 l 2.32,3.9 -0.41,0 2.35,-3.87 c 0.06,-0.12 0.22,-0.18 0.34,-0.09 0.13,0.06 0.16,0.22 0.1,0.34 z"
       class="st3"
       id="path377"
       style="fill:#000000;stroke:#000000;stroke-width:0.0308732;stroke-linecap:round;stroke-linejoin:round" /><path
       d="m 52.6947,195.2215 -0.06,9.8 -0.5,0 0.06,-9.83 0.5,0.03 z m 2.25,6.06 -2.6,4.23 -2.5,-4.26 c -0.06,-0.12 -0.03,-0.28 0.1,-0.34 0.12,-0.09 0.28,-0.03 0.34,0.09 l 2.31,3.9 -0.43,0 2.34,-3.87 c 0.1,-0.12 0.25,-0.15 0.35,-0.09 0.12,0.06 0.15,0.22 0.09,0.34 z"
       class="st3"
       id="path382"
       style="fill:#000000;stroke:#000000;stroke-width:0.0308732;stroke-linecap:round;stroke-linejoin:round" /><path
       d="m 149.731,189.3422 0,23.08 -0.5,0 0,-23.08 0.5,0 z m 2.31,19.31 -2.56,4.26 -2.54,-4.26 c -0.06,-0.12 -0.03,-0.28 0.1,-0.34 0.12,-0.06 0.25,-0.03 0.34,0.09 l 2.31,3.9 -0.4,0 2.31,-3.9 c 0.1,-0.12 0.22,-0.15 0.35,-0.09 0.12,0.06 0.15,0.22 0.09,0.34 z"
       class="st3"
       id="path387"
       style="fill:#000000;stroke:#000000;stroke-width:0.0308732;stroke-linecap:round;stroke-linejoin:round" /><path
       d="m 231.929,158.677 -0.06,11.26 -0.5,0 0.06,-11.3 0.5,0.04 z m 2.25,7.52 -2.6,4.23 -2.5,-4.26 c -0.06,-0.12 -0.03,-0.28 0.1,-0.34 0.12,-0.09 0.25,-0.03 0.34,0.09 l 2.31,3.9 -0.43,0 2.34,-3.87 c 0.1,-0.12 0.22,-0.15 0.35,-0.09 0.12,0.06 0.15,0.22 0.09,0.34 z"
       class="st3"
       id="path392"
       style="fill:#000000;stroke:#000000;stroke-width:0.0308732;stroke-linecap:round;stroke-linejoin:round" /><path
       d="m 231.928,189.3422 -0.06,23.08 -0.5,0 0.06,-23.08 0.5,0 z m 2.25,19.31 -2.59,4.26 -2.54,-4.26 c -0.06,-0.12 -0.03,-0.28 0.1,-0.34 0.12,-0.09 0.28,-0.03 0.34,0.09 l 2.31,3.9 -0.4,0 2.34,-3.9 c 0.07,-0.12 0.22,-0.15 0.35,-0.09 0.12,0.06 0.16,0.22 0.09,0.34 z"
       class="st3"
       id="path397"
       style="fill:#000000;stroke:#000000;stroke-width:0.0308732;stroke-linecap:round;stroke-linejoin:round" /><path
       d="m 327.144,53.421 -0.15,16.47 -0.5,0 0.15,-16.5 0.5,0.03 z m 2.16,12.73 -2.6,4.23 -2.5,-4.29 c -0.06,-0.12 -0.03,-0.28 0.1,-0.34 0.12,-0.06 0.28,-0.03 0.34,0.09 l 2.31,3.93 -0.43,0 2.37,-3.9 c 0.07,-0.09 0.22,-0.15 0.35,-0.06 0.09,0.06 0.16,0.22 0.06,0.34 z"
       class="st3"
       id="path402"
       style="fill:#000000;stroke:#000000;stroke-width:0.0308732;stroke-linecap:round;stroke-linejoin:round" /><path
       d="m 327.142,113.3285 -0.18,98.85 -0.5,0 0.18,-98.85 0.5,0 z m 2.13,95.08 -2.56,4.26 -2.54,-4.26 c -0.06,-0.12 -0.03,-0.28 0.1,-0.34 0.12,-0.06 0.28,-0.03 0.34,0.09 l 2.31,3.9 -0.4,0 2.34,-3.9 c 0.07,-0.12 0.22,-0.15 0.32,-0.09 0.12,0.06 0.19,0.22 0.09,0.34 z"
       class="st3"
       id="path407"
       style="fill:#000000;stroke:#000000;stroke-width:0.0308732;stroke-linecap:round;stroke-linejoin:round" /><text
       x="32.362301"
       y="22.635012"
       class="st2"
       v:langID="1033"
       id="text416"
       style="font-style:normal;font-variant:normal;font-weight:normal;font-stretch:normal;font-size:5.99990416px;font-family:Arial;-inkscape-font-specification:Arial;fill:#000000"><v:paragraph
   v:horizAlign="1" /><v:tabList />Capture event</text>
<text
       x="302.18399"
       y="20.727011"
       class="st2"
       v:langID="1033"
       id="text425"
       style="font-style:normal;font-variant:normal;font-weight:normal;font-stretch:normal;font-size:5.99990416px;font-family:Arial;-inkscape-font-specification:Arial;fill:#000000"><v:paragraph
   v:horizAlign="1" /><v:tabList />Update (OVF) event</text>
<path
       d="m 104.447,179.3559 9.51,0.09 0,0.48 -9.54,-0.09 0.03,-0.48 z m 5.63,-2.2 4.38,2.53 -4.41,2.47 c -0.12,0.06 -0.28,0 -0.34,-0.09 -0.06,-0.13 -0.03,-0.28 0.09,-0.34 l 4.04,-2.25 0,0.42 -4.01,-2.31 c -0.12,-0.06 -0.15,-0.21 -0.09,-0.34 0.06,-0.12 0.22,-0.15 0.34,-0.09 z"
       class="st3"
       id="path430"
       style="fill:#000000;stroke:#000000;stroke-width:0.0308732;stroke-linecap:round;stroke-linejoin:round" /><text
       x="126.805"
       y="125.85901"
       class="st2"
       v:langID="1033"
       id="text439"
       style="font-style:normal;font-variant:normal;font-weight:normal;font-stretch:normal;font-size:5.99990416px;font-family:Arial;-inkscape-font-specification:Arial;fill:#000000"><v:paragraph
   v:horizAlign="1" /><v:tabList />Yes</text>
<text
       x="102.606"
       y="172.63802"
       class="st2"
       v:langID="1033"
       id="text448"
       style="font-style:normal;font-variant:normal;font-weight:normal;font-stretch:normal;font-size:5.99990416px;font-family:Arial;-inkscape-font-specification:Arial;fill:#000000"><v:paragraph
   v:horizAlign="1" /><v:tabList />Yes</text>
<text
       x="314.884"
       y="122.04201"
       class="st2"
       v:langID="1033"
       id="text457"
       style="font-style:normal;font-variant:normal;font-weight:normal;font-stretch:normal;font-size:5.99990416px;font-family:Arial;-inkscape-font-specification:Arial;fill:#000000"><v:paragraph
   v:horizAlign="1" /><v:tabList />Yes</text>
</g></svg>