<?xml version="1.0" encoding="UTF-8" standalone="no"?>
<!DOCTYPE svg PUBLIC "-//W3C//DTD SVG 1.1//EN" "http://www.w3.org/Graphics/SVG/1.1/DTD/svg11.dtd">
<!-- Generated by Microsoft Visio, SVG Export ICL_FSM.svg Page-1 -->
<svg xmlns="http://www.w3.org/2000/svg" xmlns:xlink="http://www.w3.org/1999/xlink" xmlns:ev="http://www.w3.org/2001/xml-events"
		xmlns:v="http://schemas.microsoft.com/visio/2003/SVGExtensions/" width="9.61417in" height="5.00901in"
		viewBox="0 0 692.221 360.649" xml:space="preserve" color-interpolation-filters="sRGB" class="st15">
	<v:documentProperties v:langID="1033" v:metric="true" v:viewMarkup="false"/>

	<style type="text/css">
	<![CDATA[
		.st1 {visibility:visible}
		.st2 {fill:#5b9bd5;fill-opacity:0.22;filter:url(#filter_2);stroke:#5b9bd5;stroke-opacity:0.22}
		.st3 {fill:#70ad47;fill-opacity:0.067;stroke:#c7c8c8;stroke-width:0.25}
		.st4 {fill:#000000;font-family:Calibri;font-size:1.99999em}
		.st5 {fill:#5b9bd5;stroke:#c7c8c8;stroke-width:0.25}
		.st6 {fill:#feffff;font-family:Calibri;font-size:0.833336em}
		.st7 {fill:#5b9bd5;fill-opacity:0.25;filter:url(#filter_2);stroke:#5b9bd5;stroke-opacity:0.25}
		.st8 {fill:#4f87bb;stroke:#40709c;stroke-width:0.75}
		.st9 {fill:none;stroke:none;stroke-width:0.25}
		.st10 {fill:#5b9bd5;font-family:Calibri;font-size:1.00001em}
		.st11 {fill:#70ad47;font-family:Calibri;font-size:1.00001em}
		.st12 {font-size:1em}
		.st13 {fill:#ed7d31;font-family:Calibri;font-size:1.00001em}
		.st14 {fill:#4672c4;font-family:Calibri;font-size:1.00001em}
		.st15 {fill:none;fill-rule:evenodd;font-size:12px;overflow:visible;stroke-linecap:square;stroke-miterlimit:3}
	]]>
	</style>

	<defs id="Filters">
		<filter id="filter_2">
			<feGaussianBlur stdDeviation="2"/>
		</filter>
	</defs>
	<g v:mID="0" v:index="1" v:groupContext="foregroundPage">
		<title>Page-1</title>
		<v:pageProperties v:drawingScale="1" v:pageScale="1" v:drawingUnits="0" v:shadowOffsetX="9" v:shadowOffsetY="-9"/>
		<g id="group138-1" transform="translate(0.25,-5.0978)" v:mID="138" v:groupContext="group">
			<title>Sheet.138</title>
			<g id="shape113-2" v:mID="113" v:groupContext="shape" transform="translate(7.83,5.68434E-14)">
				<title>Rectangle.113</title>
				<desc>ICL FSM</desc>
				<v:userDefs>
					<v:ud v:nameU="visVersion" v:val="VT0(15):26"/>
				</v:userDefs>
				<v:textBlock v:margins="rect(4,4,4,4)"/>
				<v:textRect cx="340.335" cy="185.149" width="680.67" height="351"/>
				<g id="shadow113-3" v:groupContext="shadow" v:shadowOffsetX="0.345598" v:shadowOffsetY="-1.97279" v:shadowType="1"
						transform="matrix(1,0,0,1,0.345598,1.97279)" class="st1">
					<rect x="0" y="9.64859" width="680.67" height="351" class="st2"/>
				</g>
				<rect x="0" y="9.64859" width="680.67" height="351" class="st3"/>
				<text x="301.87" y="33.95" class="st4" v:langID="1036"><v:paragraph v:horizAlign="1"/><v:tabList/>ICL FSM<v:newlineChar/><v:newlineChar/><v:newlineChar/><v:newlineChar/><v:newlineChar/><v:newlineChar/><v:newlineChar/><v:newlineChar/><v:newlineChar/><v:newlineChar/><v:newlineChar/></text>			</g>
			<g id="shape1-8" v:mID="1" v:groupContext="shape" transform="translate(111.854,-180)">
				<title>Circle</title>
				<desc>ICL_ACTIVE</desc>
				<v:userDefs>
					<v:ud v:nameU="visVersion" v:val="VT0(15):26"/>
				</v:userDefs>
				<v:textBlock v:margins="rect(4,4,4,4)"/>
				<v:textRect cx="54" cy="306.649" width="94.5" height="81"/>
				<g id="shadow1-9" v:groupContext="shadow" v:shadowOffsetX="0.345598" v:shadowOffsetY="-1.97279" v:shadowType="1"
						transform="matrix(1,0,0,1,0.345598,1.97279)" class="st1">
					<path d="M0 306.65 A54 54 0 0 1 108 306.65 A54 54 0 1 1 0 306.65 Z" class="st2"/>
				</g>
				<path d="M0 306.65 A54 54 0 0 1 108 306.65 A54 54 0 1 1 0 306.65 Z" class="st5"/>
				<text x="30.95" y="309.65" class="st6" v:langID="1036"><v:paragraph v:horizAlign="1"/><v:tabList/>ICL_ACTIVE</text>			</g>
			<g id="shape2-14" v:mID="2" v:groupContext="shape" transform="translate(111.854,487.297) rotate(180)">
				<title>Simple Arrow</title>
				<v:userDefs>
					<v:ud v:nameU="visVersion" v:val="VT0(15):26"/>
					<v:ud v:nameU="ArrowType" v:prompt="" v:val="VT0(2):26"/>
				</v:userDefs>
				<g id="shadow2-15" v:groupContext="shadow" v:shadowOffsetX="0.345598" v:shadowOffsetY="-1.97279" v:shadowType="1"
						transform="matrix(1,0,0,1,-0.345598,-1.97279)" class="st1">
					<path d="M0 360.65 L8.67 356.15 L8.67 358.4 L86.29 358.4 L86.29 360.65 L86.29 362.9 L8.67 362.9 L8.67 365.15
								 L0 360.65 Z" class="st7"/>
				</g>
				<path d="M0 360.65 L8.67 356.15 L8.67 358.4 L86.29 358.4 L86.29 360.65 L86.29 362.9 L8.67 362.9 L8.67 365.15 L0 360.65
							 Z" class="st8"/>
			</g>
			<g id="shape3-19" v:mID="3" v:groupContext="shape" transform="translate(-3.19744E-14,-242)">
				<title>Sheet.3</title>
				<desc>Reset</desc>
				<v:textBlock v:margins="rect(4,4,4,4)"/>
				<v:textRect cx="65.0937" cy="350.649" width="130.19" height="20"/>
				<rect x="0" y="340.649" width="130.188" height="20" class="st9"/>
				<text x="51.51" y="354.25" class="st10" v:langID="1036"><v:paragraph v:horizAlign="1"/><v:tabList/>Reset</text>			</g>
			<g id="shape4-22" v:mID="4" v:groupContext="shape" transform="translate(310.188,487.297) rotate(180)">
				<title>Simple Arrow.4</title>
				<v:userDefs>
					<v:ud v:nameU="visVersion" v:val="VT0(15):26"/>
					<v:ud v:nameU="ArrowType" v:prompt="" v:val="VT0(2):26"/>
				</v:userDefs>
				<g id="shadow4-23" v:groupContext="shadow" v:shadowOffsetX="0.345598" v:shadowOffsetY="-1.97279" v:shadowType="1"
						transform="matrix(1,0,0,1,-0.345598,-1.97279)" class="st1">
					<path d="M0 360.65 L6.75 356.15 L6.75 358.4 L90.33 358.4 L90.33 360.65 L90.33 362.9 L6.75 362.9 L6.75 365.15
								 L0 360.65 Z" class="st7"/>
				</g>
				<path d="M0 360.65 L6.75 356.15 L6.75 358.4 L90.33 358.4 L90.33 360.65 L90.33 362.9 L6.75 362.9 L6.75 365.15 L0 360.65
							 Z" class="st8"/>
			</g>
			<g id="shape5-27" v:mID="5" v:groupContext="shape" transform="translate(224.521,-247.5)">
				<title>Sheet.5</title>
				<desc>Vbus &#62; Vthres &#38;&#38; Time &#62; Y ms</desc>
				<v:textBlock v:margins="rect(4,4,4,4)"/>
				<v:textRect cx="40.5" cy="331.399" width="81" height="58.5"/>
				<rect x="0" y="302.149" width="81" height="58.5" class="st9"/>
				<text x="6.75" y="320.6" class="st11" v:langID="1036"><v:paragraph v:horizAlign="1"/><v:tabList/>Vbus &#62; Vthres <tspan
							x="32.31" dy="1.2em" class="st12">&#38;&#38;<v:newlineChar/></tspan><tspan x="11.3" dy="1.2em"
							class="st12">Time &#62; Y ms</tspan></text>			</g>
			<g id="shape6-32" v:mID="6" v:groupContext="shape" transform="translate(310.188,-180)">
				<title>Circle.6</title>
				<desc>ICL_DEACTIVATION</desc>
				<v:userDefs>
					<v:ud v:nameU="visVersion" v:val="VT0(15):26"/>
				</v:userDefs>
				<v:textBlock v:margins="rect(4,4,4,4)"/>
				<v:textRect cx="54" cy="306.649" width="94.5" height="81"/>
				<g id="shadow6-33" v:groupContext="shadow" v:shadowOffsetX="0.345598" v:shadowOffsetY="-1.97279" v:shadowType="1"
						transform="matrix(1,0,0,1,0.345598,1.97279)" class="st1">
					<path d="M0 306.65 A54 54 0 0 1 108 306.65 A54 54 0 1 1 0 306.65 Z" class="st2"/>
				</g>
				<path d="M0 306.65 A54 54 0 0 1 108 306.65 A54 54 0 1 1 0 306.65 Z" class="st5"/>
				<text x="14.74" y="309.65" class="st6" v:langID="1036"><v:paragraph v:horizAlign="1"/><v:tabList/>ICL_DEACTIVATION</text>			</g>
			<g id="shape7-38" v:mID="7" v:groupContext="shape" transform="translate(4.1875,-206)">
				<title>Sheet.7</title>
				<desc>Relay OFF</desc>
				<v:textBlock v:margins="rect(4,4,4,4)"/>
				<v:textRect cx="65.0938" cy="350.649" width="130.19" height="20"/>
				<rect x="0" y="340.649" width="130.188" height="20" class="st9"/>
				<text x="41.04" y="354.25" class="st13" v:langID="1036"><v:paragraph v:horizAlign="1"/><v:tabList/>Relay OFF</text>			</g>
			<g id="shape8-41" v:mID="8" v:groupContext="shape" transform="translate(189,-207)">
				<title>Sheet.8</title>
				<desc>Relay ON</desc>
				<v:textBlock v:margins="rect(4,4,4,4)"/>
				<v:textRect cx="65.0938" cy="350.649" width="130.19" height="20"/>
				<rect x="0" y="340.649" width="130.188" height="20" class="st9"/>
				<text x="42.68" y="354.25" class="st13" v:langID="1036"><v:paragraph v:horizAlign="1"/><v:tabList/>Relay ON</text>			</g>
			<g id="shape13-44" v:mID="13" v:groupContext="shape" transform="translate(512.688,487.297) rotate(180)">
				<title>Simple Arrow.13</title>
				<v:userDefs>
					<v:ud v:nameU="visVersion" v:val="VT0(15):26"/>
					<v:ud v:nameU="ArrowType" v:prompt="" v:val="VT0(2):26"/>
				</v:userDefs>
				<g id="shadow13-45" v:groupContext="shadow" v:shadowOffsetX="0.345598" v:shadowOffsetY="-1.97279" v:shadowType="1"
						transform="matrix(1,0,0,1,-0.345598,-1.97279)" class="st1">
					<path d="M0 360.65 L6.67 356.02 L6.67 358.34 L94.5 358.34 L94.5 360.65 L94.5 362.96 L6.67 362.96 L6.67 365.27
								 L0 360.65 Z" class="st7"/>
				</g>
				<path d="M0 360.65 L6.67 356.02 L6.67 358.34 L94.5 358.34 L94.5 360.65 L94.5 362.96 L6.67 362.96 L6.67 365.27 L0
							 360.65 Z" class="st8"/>
			</g>
			<g id="shape14-49" v:mID="14" v:groupContext="shape" transform="translate(423,-241)">
				<title>Sheet.14</title>
				<desc>Time elapsed &#62; X ms</desc>
				<v:textBlock v:margins="rect(4,4,4,4)"/>
				<v:textRect cx="40.5" cy="350.649" width="81" height="20"/>
				<rect x="0" y="340.649" width="81" height="20" class="st9"/>
				<text x="8.19" y="347.05" class="st14" v:langID="1036"><v:paragraph v:horizAlign="1"/><v:tabList/>Time elapsed <tspan
							x="24.54" dy="1.2em" class="st12">&#62; X ms</tspan></text>			</g>
			<g id="shape15-53" v:mID="15" v:groupContext="shape" transform="translate(403.641,-207)">
				<title>Sheet.15</title>
				<desc>Relay ON</desc>
				<v:textBlock v:margins="rect(4,4,4,4)"/>
				<v:textRect cx="59.5469" cy="350.649" width="119.1" height="20"/>
				<rect x="0" y="340.649" width="119.094" height="20" class="st9"/>
				<text x="37.13" y="354.25" class="st13" v:langID="1036"><v:paragraph v:horizAlign="1"/><v:tabList/>Relay ON</text>			</g>
			<g id="shape16-56" v:mID="16" v:groupContext="shape" transform="translate(513,-180)">
				<title>Circle.16</title>
				<desc>ICL_INACTIVE</desc>
				<v:userDefs>
					<v:ud v:nameU="visVersion" v:val="VT0(15):26"/>
				</v:userDefs>
				<v:textBlock v:margins="rect(4,4,4,4)"/>
				<v:textRect cx="54" cy="306.649" width="94.5" height="81"/>
				<g id="shadow16-57" v:groupContext="shadow" v:shadowOffsetX="0.345598" v:shadowOffsetY="-1.97279" v:shadowType="1"
						transform="matrix(1,0,0,1,0.345598,1.97279)" class="st1">
					<path d="M0 306.65 A54 54 0 0 1 108 306.65 A54 54 0 1 1 0 306.65 Z" class="st2"/>
				</g>
				<path d="M0 306.65 A54 54 0 0 1 108 306.65 A54 54 0 1 1 0 306.65 Z" class="st5"/>
				<text x="26.46" y="309.65" class="st6" v:langID="1036"><v:paragraph v:horizAlign="1"/><v:tabList/>ICL_INACTIVE</text>			</g>
			<g id="shape24-62" v:mID="24" v:groupContext="shape" transform="translate(571.5,541.297) rotate(180)">
				<title>Bent Arrow</title>
				<v:userDefs>
					<v:ud v:nameU="visVersion" v:prompt="" v:val="VT0(15):26"/>
				</v:userDefs>
				<g id="shadow24-63" v:groupContext="shadow" v:shadowOffsetX="0.345598" v:shadowOffsetY="-1.97279" v:shadowType="1"
						transform="matrix(1,0,0,1,-0.345598,-1.97279)" class="st1">
					<path d="M0 360.65 L4.52 360.65 L4.52 335.89 A71.9563 71.9563 0 0 1 76.5 263.91 L144 263.91 L144 270.65 L153
								 261.65 L144 252.65 L144 259.39 L76.5 259.39 A76.4757 76.4757 -180 0 0 -0 335.89 L0 360.65 Z"
							class="st7"/>
				</g>
				<path d="M0 360.65 L4.52 360.65 L4.52 335.89 A71.9563 71.9563 0 0 1 76.5 263.91 L144 263.91 L144 270.65 L153 261.65
							 L144 252.65 L144 259.39 L76.5 259.39 A76.4757 76.4757 -180 0 0 -0 335.89 L0 360.65 Z" class="st8"/>
			</g>
			<g id="shape25-67" v:mID="25" v:groupContext="shape" transform="translate(310.188,-27)">
				<title>Circle.25</title>
				<desc>ICL_ACTIVATION</desc>
				<v:userDefs>
					<v:ud v:nameU="visVersion" v:val="VT0(15):26"/>
				</v:userDefs>
				<v:textBlock v:margins="rect(4,4,4,4)"/>
				<v:textRect cx="54" cy="306.649" width="94.5" height="81"/>
				<g id="shadow25-68" v:groupContext="shadow" v:shadowOffsetX="0.345598" v:shadowOffsetY="-1.97279" v:shadowType="1"
						transform="matrix(1,0,0,1,0.345598,1.97279)" class="st1">
					<path d="M0 306.65 A54 54 0 0 1 108 306.65 A54 54 0 1 1 0 306.65 Z" class="st2"/>
				</g>
				<path d="M0 306.65 A54 54 0 0 1 108 306.65 A54 54 0 1 1 0 306.65 Z" class="st5"/>
				<text x="20.26" y="309.65" class="st6" v:langID="1036"><v:paragraph v:horizAlign="1"/><v:tabList/>ICL_ACTIVATION</text>			</g>
			<g id="shape27-73" v:mID="27" v:groupContext="shape" transform="translate(441,-115)">
				<title>Sheet.27</title>
				<desc>Vbus &#60;= Vbus_undervoltage</desc>
				<v:textBlock v:margins="rect(4,4,4,4)"/>
				<v:textRect cx="54" cy="350.649" width="108" height="20"/>
				<rect x="0" y="340.649" width="108" height="20" class="st9"/>
				<text x="34.61" y="347.05" class="st10" v:langID="1036"><v:paragraph v:horizAlign="1"/><v:tabList/>Vbus &#60;= <tspan
							x="6.48" dy="1.2em" class="st12">Vbus_undervoltage</tspan></text>			</g>
			<g id="shape28-77" v:mID="28" v:groupContext="shape" transform="translate(459,-56.5)">
				<title>Sheet.28</title>
				<desc>Relay OFF</desc>
				<v:textBlock v:margins="rect(4,4,4,4)"/>
				<v:textRect cx="65.0938" cy="350.649" width="130.19" height="20"/>
				<rect x="0" y="340.649" width="130.188" height="20" class="st9"/>
				<text x="41.04" y="354.25" class="st13" v:langID="1036"><v:paragraph v:horizAlign="1"/><v:tabList/>Relay OFF</text>			</g>
			<g id="shape29-80" v:mID="29" v:groupContext="shape" transform="translate(-50.4611,288.649) rotate(-90)">
				<title>Bent Arrow.29</title>
				<v:userDefs>
					<v:ud v:nameU="visVersion" v:prompt="" v:val="VT0(15):26"/>
				</v:userDefs>
				<g id="shadow29-81" v:groupContext="shadow" v:shadowOffsetX="0.345598" v:shadowOffsetY="-1.97279" v:shadowType="1"
						transform="matrix(1,0,0,1,-1.97279,0.345598)" class="st1">
					<path d="M0 360.65 L4.52 360.65 L4.52 260.62 A49.4634 49.4634 0 0 1 54 211.14 L99 211.14 L99 217.88 L108 208.88
								 L99 199.88 L99 206.62 L54 206.62 A53.9828 53.9828 -180 0 0 -0 260.62 L0 360.65 Z" class="st7"/>
				</g>
				<path d="M0 360.65 L4.52 360.65 L4.52 260.62 A49.4634 49.4634 0 0 1 54 211.14 L99 211.14 L99 217.88 L108 208.88 L99
							 199.88 L99 206.62 L54 206.62 A53.9828 53.9828 -180 0 0 -0 260.62 L0 360.65 Z" class="st8"/>
			</g>
			<g id="shape30-85" v:mID="30" v:groupContext="shape" transform="translate(184.5,-88)">
				<title>Sheet.30</title>
				<desc>Time elapsed &#62; X ms</desc>
				<v:textBlock v:margins="rect(4,4,4,4)"/>
				<v:textRect cx="54" cy="350.649" width="108" height="20"/>
				<rect x="0" y="340.649" width="108" height="20" class="st9"/>
				<text x="4.38" y="354.25" class="st14" v:langID="1036"><v:paragraph v:horizAlign="1"/><v:tabList/>Time elapsed &#62; X ms</text>			</g>
			<g id="shape31-88" v:mID="31" v:groupContext="shape" transform="translate(164.707,-48.5)">
				<title>Sheet.31</title>
				<desc>Relay OFF</desc>
				<v:textBlock v:margins="rect(4,4,4,4)"/>
				<v:textRect cx="65.0938" cy="350.649" width="130.19" height="20"/>
				<rect x="0" y="340.649" width="130.188" height="20" class="st9"/>
				<text x="41.04" y="354.25" class="st13" v:langID="1036"><v:paragraph v:horizAlign="1"/><v:tabList/>Relay OFF</text>			</g>
		</g>
	</g>
</svg>
