<?xml version="1.0" encoding="UTF-8" standalone="no"?>
<!DOCTYPE svg PUBLIC "-//W3C//DTD SVG 1.1//EN" "http://www.w3.org/Graphics/SVG/1.1/DTD/svg11.dtd">
<!-- Generated by Microsoft Visio, SVG Export mc_firmware_environment.svg Page-1 -->
<svg xmlns="http://www.w3.org/2000/svg" xmlns:xlink="http://www.w3.org/1999/xlink" xmlns:ev="http://www.w3.org/2001/xml-events"
		xmlns:v="http://schemas.microsoft.com/visio/2003/SVGExtensions/" width="4.54292in" height="4.86667in"
		viewBox="0 0 327.09 350.4" xml:space="preserve" color-interpolation-filters="sRGB" class="st14">
	<v:documentProperties v:langID="1033" v:metric="true" v:viewMarkup="false">
		<v:userDefs>
			<v:ud v:nameU="msvConvertTheme"/>
		</v:userDefs>
	</v:documentProperties>

	<style type="text/css">
	<![CDATA[
		.st1 {marker-end:url(#mrkr4-7);stroke:#595959;stroke-linecap:round;stroke-linejoin:round;stroke-width:7.2}
		.st2 {fill:#595959;fill-opacity:1;stroke:#595959;stroke-opacity:1;stroke-width:0.8}
		.st3 {fill:#ffffff;stroke:#595959;stroke-linecap:round;stroke-linejoin:round;stroke-width:1.2}
		.st4 {fill:#595959;font-family:Calibri;font-size:1.16666em;font-weight:bold}
		.st5 {fill:#ffffff;stroke:#c05046;stroke-linecap:round;stroke-linejoin:round;stroke-width:2.16}
		.st6 {fill:#c05046;font-family:Calibri;font-size:1.5em;font-weight:bold}
		.st7 {font-size:1em}
		.st8 {marker-end:url(#mrkr13-41);marker-start:url(#mrkr13-39);stroke:#1f477d;stroke-linecap:round;stroke-linejoin:round;stroke-width:7.2}
		.st9 {fill:#1f477d;fill-opacity:1;stroke:#1f477d;stroke-opacity:1;stroke-width:0.74074074074074}
		.st10 {marker-end:url(#mrkr4-47);stroke:#1f477d;stroke-linecap:round;stroke-linejoin:round;stroke-width:7.2}
		.st11 {fill:#1f477d;fill-opacity:1;stroke:#1f477d;stroke-opacity:1;stroke-width:0.8}
		.st12 {fill:#ffffff;stroke:#1f477d;stroke-linecap:round;stroke-linejoin:round;stroke-width:1.2}
		.st13 {fill:#1f477d;font-family:Calibri;font-size:1.5em;font-weight:bold}
		.st14 {fill:none;fill-rule:evenodd;font-size:12px;overflow:visible;stroke-linecap:square;stroke-miterlimit:3}
	]]>
	</style>

	<defs id="Markers">
		<g id="lend4">
			<path d="M 2 1 L 0 0 L 2 -1 L 2 1 " style="stroke:none"/>
		</g>
		<marker id="mrkr4-7" class="st2" v:arrowType="4" v:arrowSize="1" v:setback="2.5" refX="-2.5" orient="auto"
				markerUnits="strokeWidth" overflow="visible">
			<use xlink:href="#lend4" transform="scale(-1.25,-1.25) "/>
		</marker>
		<g id="lend13">
			<path d="M 3 1 L 0 0 L 3 -1 L 3 1 " style="stroke:none"/>
		</g>
		<marker id="mrkr13-39" class="st9" v:arrowType="13" v:arrowSize="2" v:setback="4" refX="4" orient="auto"
				markerUnits="strokeWidth" overflow="visible">
			<use xlink:href="#lend13" transform="scale(1.35) "/>
		</marker>
		<marker id="mrkr13-41" class="st9" v:arrowType="13" v:arrowSize="2" v:setback="4" refX="-4" orient="auto"
				markerUnits="strokeWidth" overflow="visible">
			<use xlink:href="#lend13" transform="scale(-1.35,-1.35) "/>
		</marker>
		<marker id="mrkr4-47" class="st11" v:arrowType="4" v:arrowSize="1" v:setback="2.5" refX="-2.5" orient="auto"
				markerUnits="strokeWidth" overflow="visible">
			<use xlink:href="#lend4" transform="scale(-1.25,-1.25) "/>
		</marker>
	</defs>
	<g v:mID="0" v:index="1" v:groupContext="foregroundPage">
		<title>Page-1</title>
		<v:pageProperties v:drawingScale="1" v:pageScale="1" v:drawingUnits="0" v:shadowOffsetX="9" v:shadowOffsetY="-9"/>
		<v:layer v:name="Connector" v:index="0"/>
		<g id="group23-1" transform="translate(0.6,-0.6)" v:mID="23" v:groupContext="group">
			<title>Sheet.23</title>
			<g id="shape22-2" v:mID="22" v:groupContext="shape" v:layerMember="0"
					transform="translate(394.23,318) rotate(90) scale(-1,1)">
				<title>Directed line 1.22</title>
				<v:userDefs>
					<v:ud v:nameU="visVersion" v:val="VT0(12):26"/>
					<v:ud v:nameU="msvThemeEffects" v:prompt="" v:val="VT0(1):26"/>
				</v:userDefs>
				<path d="M0 350.4 L44.64 350.4" class="st1"/>
			</g>
			<g id="shape11-8" v:mID="11" v:groupContext="shape" v:layerMember="0" transform="translate(617.43,37.92) rotate(90)">
				<title>Directed line 1.11</title>
				<v:userDefs>
					<v:ud v:nameU="visVersion" v:val="VT0(12):26"/>
					<v:ud v:nameU="msvThemeEffects" v:prompt="" v:val="VT0(1):26"/>
				</v:userDefs>
				<path d="M0 350.4 L44.64 350.4" class="st1"/>
			</g>
			<g id="shape8-13" v:mID="8" v:groupContext="shape" v:layerMember="0" transform="translate(416.01,37.2) rotate(90)">
				<title>Directed line 1.8</title>
				<v:userDefs>
					<v:ud v:nameU="visVersion" v:val="VT0(12):26"/>
					<v:ud v:nameU="msvThemeEffects" v:prompt="" v:val="VT0(1):26"/>
				</v:userDefs>
				<path d="M0 350.4 L15.84 350.4" class="st1"/>
			</g>
			<g id="shape7-18" v:mID="7" v:groupContext="shape" v:layerMember="0"
					transform="translate(603.03,322.32) rotate(90) scale(-1,1)">
				<title>Directed line 1.7</title>
				<v:userDefs>
					<v:ud v:nameU="visVersion" v:val="VT0(12):26"/>
					<v:ud v:nameU="msvThemeEffects" v:prompt="" v:val="VT0(1):26"/>
				</v:userDefs>
				<path d="M0 350.4 L15.84 350.4" class="st1"/>
			</g>
			<g id="shape17-23" v:mID="17" v:groupContext="shape" transform="translate(22.05,-306)">
				<title>Sheet.17</title>
				<desc>STM32 Fxxx</desc>
				<v:textBlock v:margins="rect(1,1,1,1)"/>
				<v:textRect cx="48.6" cy="332.4" width="97.2" height="36"/>
				<rect x="0" y="314.4" width="97.2" height="36" class="st3"/>
				<text x="14.17" y="336.71" class="st4" v:langID="1033"><v:paragraph v:horizAlign="1"/><v:tabList/>STM32 Fxxx</text>			</g>
			<g id="shape16-26" v:mID="16" v:groupContext="shape" transform="translate(18.45,-309.6)">
				<title>Sheet.16</title>
				<desc>STM32 Fxxx</desc>
				<v:textBlock v:margins="rect(1,1,1,1)"/>
				<v:textRect cx="48.6" cy="332.4" width="97.2" height="36"/>
				<rect x="0" y="314.4" width="97.2" height="36" class="st3"/>
				<text x="14.17" y="336.71" class="st4" v:langID="1033"><v:paragraph v:horizAlign="1"/><v:tabList/>STM32 Fxxx</text>			</g>
			<g id="shape1-29" v:mID="1" v:groupContext="shape" transform="translate(87.03,-134.64)">
				<title>Sheet.1</title>
				<desc>Motor Control SDK Firmware</desc>
				<v:textBlock v:margins="rect(1,1,1,1)"/>
				<v:textRect cx="72" cy="314.4" width="144" height="72"/>
				<rect x="0" y="278.4" width="144" height="72" rx="9" ry="9" class="st5"/>
				<text x="18.3" y="309" class="st6" v:langID="1033"><v:paragraph v:horizAlign="1"/><v:tabList/>Motor Control <v:lf/><tspan
							x="19.38" dy="1.2em" class="st7">SDK Firmware</tspan></text>			</g>
			<g id="shape4-33" v:mID="4" v:groupContext="shape" v:layerMember="0" transform="translate(30.7798,405.93) rotate(-135)">
				<title>Curve connect 2</title>
				<v:userDefs>
					<v:ud v:nameU="visVersion" v:val="VT0(12):26"/>
				</v:userDefs>
				<path d="M66.99 370.55 L66.73 370.8 A49.8725 49.8725 0 0 1 20.84 370.8 L20.58 370.55" class="st8"/>
			</g>
			<g id="shape5-42" v:mID="5" v:groupContext="shape" v:layerMember="0"
					transform="translate(284.88,-152.432) rotate(44.1186)">
				<title>Directed line 1</title>
				<v:userDefs>
					<v:ud v:nameU="visVersion" v:val="VT0(12):26"/>
					<v:ud v:nameU="msvThemeEffects" v:prompt="" v:val="VT0(1):26"/>
				</v:userDefs>
				<path d="M0 350.4 L48.19 350.4" class="st10"/>
			</g>
			<g id="shape12-48" v:mID="12" v:groupContext="shape" v:layerMember="0"
					transform="translate(500.43,316.56) rotate(90) scale(-1,1)">
				<title>Directed line 1.12</title>
				<v:userDefs>
					<v:ud v:nameU="visVersion" v:val="VT0(12):26"/>
					<v:ud v:nameU="msvThemeEffects" v:prompt="" v:val="VT0(1):26"/>
				</v:userDefs>
				<path d="M0 350.4 L10.8 350.4" class="st1"/>
			</g>
			<g id="shape13-53" v:mID="13" v:groupContext="shape" transform="translate(15.03,-149.04)">
				<title>Sheet.13</title>
				<desc>Cube MX</desc>
				<v:textBlock v:margins="rect(10,1,1,1)" v:verticalAlign="0"/>
				<v:textRect cx="100.8" cy="285.6" width="201.6" height="129.6"/>
				<path d="M192.6 271.2 L59.4 271.2 A9 9 -180 0 0 50.4 280.2 L50.4 341.4 A9 9 0 0 1 41.4 350.4 L9 350.4 A9 9 0 0 1
							 0 341.4 L0 229.8 A9 9 0 0 1 9 220.8 L192.6 220.8 A9 9 0 0 1 201.6 229.8 L201.6 262.2 A9 9 0 0 1 192.6
							 271.2 Z" class="st12"/>
				<text x="66.99" y="247" class="st13" v:langID="1033"><v:paragraph v:horizAlign="1"/><v:tabList/>Cube MX</text>			</g>
			<g id="shape15-56" v:mID="15" v:groupContext="shape" v:layerMember="0"
					transform="translate(287.28,-46.4102) rotate(45)">
				<title>Curve connect 2.15</title>
				<v:userDefs>
					<v:ud v:nameU="visVersion" v:val="VT0(12):26"/>
				</v:userDefs>
				<path d="M66.99 370.55 L66.73 370.8 A49.8725 49.8725 0 0 1 20.84 370.8 L20.58 370.55" class="st8"/>
			</g>
			<g id="shape2-63" v:mID="2" v:groupContext="shape" v:layerMember="0"
					transform="translate(33.1805,510.512) rotate(-135.881)">
				<title>Directed line 1.2</title>
				<v:userDefs>
					<v:ud v:nameU="visVersion" v:val="VT0(12):26"/>
					<v:ud v:nameU="msvThemeEffects" v:prompt="" v:val="VT0(1):26"/>
				</v:userDefs>
				<path d="M0 350.4 L48.19 350.4" class="st10"/>
			</g>
			<g id="shape3-68" v:mID="3" v:groupContext="shape" transform="translate(14.85,-313.2)">
				<title>Sheet.3</title>
				<desc>STM32 Fxxx</desc>
				<v:textBlock v:margins="rect(1,1,1,1)"/>
				<v:textRect cx="48.6" cy="332.4" width="97.2" height="36"/>
				<rect x="0" y="314.4" width="97.2" height="36" class="st3"/>
				<text x="14.17" y="336.71" class="st4" v:langID="1033"><v:paragraph v:horizAlign="1"/><v:tabList/>STM32 Fxxx</text>			</g>
			<g id="shape6-71" v:mID="6" v:groupContext="shape" transform="translate(101.43,-1.44)">
				<title>Sheet.6</title>
				<desc>Motor</desc>
				<v:textBlock v:margins="rect(1,1,1,1)"/>
				<v:textRect cx="48.6" cy="332.4" width="97.2" height="36"/>
				<rect x="0" y="314.4" width="97.2" height="36" class="st3"/>
				<text x="30.04" y="336.71" class="st4" v:langID="1033"><v:paragraph v:horizAlign="1"/><v:tabList/>Motor</text>			</g>
			<g id="shape9-74" v:mID="9" v:groupContext="shape" transform="translate(202.23,-0.72)">
				<title>Sheet.9</title>
				<desc>Power stage</desc>
				<v:textBlock v:margins="rect(1,1,1,1)"/>
				<v:textRect cx="50.4" cy="332.4" width="100.8" height="36"/>
				<rect x="0" y="314.4" width="100.8" height="36" class="st3"/>
				<text x="14.58" y="336.71" class="st4" v:langID="1033"><v:paragraph v:horizAlign="1"/><v:tabList/>Power stage</text>			</g>
			<g id="shape10-77" v:mID="10" v:groupContext="shape" transform="translate(238.23,-306.72)">
				<title>Sheet.10</title>
				<desc>Control stage</desc>
				<v:textBlock v:margins="rect(1,1,1,1)"/>
				<v:textRect cx="43.83" cy="332.4" width="87.66" height="36"/>
				<rect x="0" y="314.4" width="87.66" height="36" class="st3"/>
				<text x="5.11" y="336.71" class="st4" v:langID="1033"><v:paragraph v:horizAlign="1"/><v:tabList/>Control stage</text>			</g>
			<g id="shape18-80" v:mID="18" v:groupContext="shape" v:layerMember="0" transform="translate(531.03,37.2) rotate(90)">
				<title>Directed line 1.18</title>
				<v:userDefs>
					<v:ud v:nameU="visVersion" v:val="VT0(12):26"/>
					<v:ud v:nameU="msvThemeEffects" v:prompt="" v:val="VT0(1):26"/>
				</v:userDefs>
				<path d="M0 350.4 L15.84 350.4" class="st1"/>
			</g>
			<g id="shape19-85" v:mID="19" v:groupContext="shape" transform="translate(136.17,-307.44)">
				<title>Sheet.19</title>
				<desc>Cube Firmware</desc>
				<v:textBlock v:margins="rect(1,1,1,1)"/>
				<v:textRect cx="43.83" cy="332.4" width="87.66" height="36"/>
				<rect x="0" y="314.4" width="87.66" height="36" class="st3"/>
				<text x="29.09" y="327.98" class="st4" v:langID="1033"><v:paragraph v:horizAlign="1"/><v:tabList/>Cube <tspan
							x="16.03" dy="1.223em" class="st7">Firmware</tspan></text>			</g>
			<g id="shape21-89" v:mID="21" v:groupContext="shape">
				<title>Sheet.21</title>
				<desc>IDE</desc>
				<v:textBlock v:margins="rect(1,1,1,1)"/>
				<v:textRect cx="43.83" cy="332.4" width="87.66" height="36"/>
				<rect x="0" y="314.4" width="87.66" height="36" class="st3"/>
				<text x="34.14" y="336.71" class="st4" v:langID="1033"><v:paragraph v:horizAlign="1"/><v:tabList/>IDE</text>			</g>
			<g id="shape14-92" v:mID="14" v:groupContext="shape" transform="translate(303.03,508.56) rotate(180)">
				<title>Sheet.14</title>
				<desc>MC Workbench</desc>
				<v:textBlock v:margins="rect(1,1,10,1)" v:verticalAlign="2"/>
				<v:textRect cx="100.8" cy="285.6" width="201.6" height="129.6" transform="rotate(180)"/>
				<path d="M192.6 271.2 L59.4 271.2 A9 9 -180 0 0 50.4 280.2 L50.4 341.4 A9 9 0 0 1 41.4 350.4 L9 350.4 A9 9 0 0 1
							 0 341.4 L0 229.8 A9 9 0 0 1 9 220.8 L192.6 220.8 A9 9 0 0 1 201.6 229.8 L201.6 262.2 A9 9 0 0 1 192.6
							 271.2 Z" class="st12"/>
				<text x="-158.76" y="-236.2" transform="rotate(180)" class="st13" v:langID="1033"><v:paragraph v:horizAlign="1"/><v:tabList/>MC Workbench</text>			</g>
		</g>
	</g>
</svg>
