<?xml version="1.0" encoding="UTF-8" standalone="no"?>
<!DOCTYPE svg PUBLIC "-//W3C//DTD SVG 1.1//EN" "http://www.w3.org/Graphics/SVG/1.1/DTD/svg11.dtd">
<!-- Generated by Microsoft Visio, SVG Export pmsm_structures.svg Page-1 -->
<svg xmlns="http://www.w3.org/2000/svg" xmlns:xlink="http://www.w3.org/1999/xlink" xmlns:ev="http://www.w3.org/2001/xml-events"
		xmlns:v="http://schemas.microsoft.com/visio/2003/SVGExtensions/" width="5.32697in" height="2.43115in"
		viewBox="0 0 383.542 175.043" xml:space="preserve" color-interpolation-filters="sRGB" class="st13">
	<v:documentProperties v:langID="1033" v:metric="true" v:viewMarkup="false"/>

	<style type="text/css">
	<![CDATA[
		.st1 {fill:#f2f2f2;stroke:#595959;stroke-linecap:round;stroke-linejoin:round;stroke-width:0.24}
		.st2 {fill:#96afcf;stroke:#000000;stroke-linecap:round;stroke-linejoin:round;stroke-width:0.24}
		.st3 {fill:#eef2f7;stroke:#000000;stroke-linecap:round;stroke-linejoin:round;stroke-width:0.24}
		.st4 {fill:#285ea6;stroke:#000000;stroke-linecap:round;stroke-linejoin:round;stroke-width:0.24}
		.st5 {fill:#eef2f7;stroke:#595959;stroke-linecap:round;stroke-linejoin:round;stroke-width:0.24}
		.st6 {marker-end:url(#mrkr5-42);stroke:#000000;stroke-linecap:round;stroke-linejoin:round;stroke-width:1.2}
		.st7 {fill:#000000;fill-opacity:1;stroke:#000000;stroke-opacity:1;stroke-width:0.4}
		.st8 {stroke:#000000;stroke-dasharray:1.2,2.4;stroke-linecap:round;stroke-linejoin:round;stroke-width:1.2}
		.st9 {fill:none;stroke:none;stroke-linecap:round;stroke-linejoin:round;stroke-width:0.72}
		.st10 {fill:#000000;font-family:Cambria Math;font-size:0.75em}
		.st11 {fill:#000000;font-family:Arial;font-size:0.75em}
		.st12 {fill:#000000;font-family:Arial;font-size:0.666664em;font-style:italic}
		.st13 {fill:none;fill-rule:evenodd;font-size:12px;overflow:visible;stroke-linecap:square;stroke-miterlimit:3}
	]]>
	</style>

	<defs id="Markers">
		<g id="lend5">
			<path d="M 2 1 L 0 0 L 1.98117 -0.993387 C 1.67173 -0.364515 1.67301 0.372641 1.98465 1.00043 " style="stroke:none"/>
		</g>
		<marker id="mrkr5-42" class="st7" v:arrowType="5" v:arrowSize="1" v:setback="4.375" refX="-4.375" orient="auto"
				markerUnits="strokeWidth" overflow="visible">
			<use xlink:href="#lend5" transform="scale(-2.5,-2.5) "/>
		</marker>
	</defs>
	<g v:mID="0" v:index="1" v:groupContext="foregroundPage">
		<title>Page-1</title>
		<v:pageProperties v:drawingScale="0.0393701" v:pageScale="0.0393701" v:drawingUnits="24" v:shadowOffsetX="9"
				v:shadowOffsetY="-9"/>
		<g id="group48-1" transform="translate(21.6219,-0.36)" v:mID="48" v:groupContext="group">
			<title>Sheet.48</title>
			<g id="group1-2" transform="translate(57.8969,8.01498) rotate(-44.8)" v:mID="1" v:groupContext="group">
				<title>Sheet.1</title>
				<g id="shape2-3" v:mID="2" v:groupContext="shape" transform="translate(-82.8695,67.9643) rotate(-45)">
					<title>Sheet.2</title>
					<path d="M67.2 134.31 A26.4741 26.4741 0 1 1 14.26 134.31 A26.4741 26.4741 0 1 1 67.2 134.31 ZM81.46 134.31 A40.7294
								 40.7294 -180 1 0 -0 134.31 A40.7294 40.7294 -180 1 0 81.46 134.31 Z" class="st1"/>
				</g>
				<g id="shape3-5" v:mID="3" v:groupContext="shape" transform="translate(73.3045,-28.9045)">
					<title>Sheet.3</title>
					<path d="M6.45 175.04 A36 36 -180 0 0 6.45 151.04 L0 151.04 A30 30 0 0 1 0 175.04 L6.45 175.04 Z" class="st2"/>
				</g>
				<g id="shape4-7" v:mID="4" v:groupContext="shape" transform="translate(28.9045,0)">
					<title>Sheet.4</title>
					<path d="M24 166.54 A30 30 0 0 1 0 166.54 L0 172.98 A36 36 -180 0 0 24 172.98 L24 166.54 Z" class="st2"/>
				</g>
				<g id="shape5-9" v:mID="5" v:groupContext="shape" transform="translate(-3.19744E-14,-28.9045)">
					<title>Sheet.5</title>
					<path d="M8.5 175.04 A30 30 0 0 1 8.5 151.04 L2.06 151.04 A36 36 -180 0 0 2.06 175.04 L8.5 175.04 Z"
							class="st2"/>
				</g>
				<g id="shape6-11" v:mID="6" v:groupContext="shape" transform="translate(28.9045,-73.3045)">
					<title>Sheet.6</title>
					<path d="M24 168.6 A36 36 -180 0 0 0 168.6 L0 175.04 A30 30 0 0 1 24 175.04 L24 168.6 Z" class="st2"/>
				</g>
			</g>
			<g id="group7-13" transform="translate(-71.574,24.2299) rotate(-45)" v:mID="7" v:groupContext="group">
				<title>Sheet.7</title>
				<g id="shape8-14" v:mID="8" v:groupContext="shape" transform="translate(16.2,-16.2)">
					<title>Sheet.8</title>
					<path d="M59.4 139.04 A23.4 23.4 0 1 1 12.6 139.04 A23.4 23.4 0 1 1 59.4 139.04 ZM72 139.04 A36 36 -180 1 0 0
								 139.04 A36 36 -180 1 0 72 139.04 Z" class="st1"/>
				</g>
				<g id="shape9-16" v:mID="9" v:groupContext="shape">
					<title>Sheet.9</title>
					<path d="M98.64 122.48 A46.8 46.8 0 1 1 5.04 122.48 A46.8 46.8 0 1 1 98.64 122.48 ZM104.4 122.84 A52.2 52.2 -180
								 1 0 0 122.84 A52.2 52.2 -180 1 0 104.4 122.84 Z" class="st1"/>
				</g>
				<g id="shape10-18" v:mID="10" v:groupContext="shape" transform="translate(9,-9)">
					<title>Sheet.10</title>
					<path d="M83.93 146.24 A43.2 43.2 -180 0 0 83.93 117.44 L76.19 117.44 A36 36 0 0 1 76.19 146.24 L83.93 146.24
								 ZM57.6 164.84 A36 36 0 0 1 28.8 164.84 L28.8 172.57 A43.2 43.2 -180 0 0 57.6 172.57 L57.6 164.84
								 ZM10.21 146.24 A36 36 0 0 1 10.21 117.44 L2.47 117.44 A43.2 43.2 -180 0 0 2.47 146.24 L10.21 146.24
								 ZM57.6 91.11 A43.2 43.2 -180 0 0 28.8 91.11 L28.8 98.85 A36 36 0 0 1 57.6 98.85 L57.6 91.11 Z"
							class="st2"/>
				</g>
			</g>
			<g id="shape11-20" v:mID="11" v:groupContext="shape" transform="translate(57.666,24.4208) rotate(-45)">
				<title>Sheet.11</title>
				<path d="M98.64 122.48 A46.8 46.8 0 1 1 5.04 122.48 A46.8 46.8 0 1 1 98.64 122.48 ZM104.4 122.84 A52.2 52.2 -180
							 1 0 0 122.84 A52.2 52.2 -180 1 0 104.4 122.84 Z" class="st1"/>
			</g>
			<g id="group12-22" transform="translate(257.4,-48.47)" v:mID="12" v:groupContext="group">
				<title>Sheet.12</title>
				<g id="shape13-23" v:mID="13" v:groupContext="shape" transform="translate(15.84,-15.84)">
					<title>Sheet.13</title>
					<ellipse cx="36.36" cy="138.683" rx="36.36" ry="36.36" class="st3"/>
				</g>
				<g id="shape14-25" v:mID="14" v:groupContext="shape" transform="translate(45,-45)">
					<title>Sheet.14</title>
					<ellipse cx="7.2" cy="167.843" rx="7.2" ry="7.2" class="st4"/>
				</g>
				<g id="shape15-27" v:mID="15" v:groupContext="shape">
					<title>Sheet.15</title>
					<path d="M98.64 122.48 A46.8 46.8 0 1 1 5.04 122.48 A46.8 46.8 0 1 1 98.64 122.48 ZM104.4 122.84 A52.2 52.2 -180
								 1 0 0 122.84 A52.2 52.2 -180 1 0 104.4 122.84 Z" class="st5"/>
				</g>
				<g id="shape16-29" v:mID="16" v:groupContext="shape" transform="translate(20.16,-48.24)">
					<title>Sheet.16</title>
					<rect x="0" y="167.843" width="21.6" height="7.2" class="st2"/>
				</g>
				<g id="shape17-31" v:mID="17" v:groupContext="shape" transform="translate(62.64,-48.24)">
					<title>Sheet.17</title>
					<rect x="0" y="167.843" width="21.6" height="7.2" class="st2"/>
				</g>
				<g id="shape18-33" v:mID="18" v:groupContext="shape" transform="translate(-119.243,154.523) rotate(-90)">
					<title>Sheet.18</title>
					<rect x="0" y="167.843" width="21.6" height="7.2" class="st2"/>
				</g>
				<g id="shape19-35" v:mID="19" v:groupContext="shape" transform="translate(-119.243,112.043) rotate(-90)">
					<title>Sheet.19</title>
					<rect x="0" y="167.843" width="21.6" height="7.2" class="st2"/>
				</g>
			</g>
			<g id="shape20-37" v:mID="20" v:groupContext="shape" transform="translate(142.881,-82.6846) rotate(45)">
				<title>Sheet.20</title>
				<path d="M0 175.04 L12.75 175.04" class="st6"/>
			</g>
			<g id="shape21-43" v:mID="21" v:groupContext="shape" transform="translate(-38.9905,230.539) rotate(-135)">
				<title>Sheet.21</title>
				<path d="M0 175.04 L12.75 175.04" class="st6"/>
			</g>
			<g id="shape22-48" v:mID="22" v:groupContext="shape" transform="translate(-91.9387,-29.2274) rotate(-45) scale(-1,1)">
				<title>Sheet.22</title>
				<path d="M0 175.04 L12.75 175.04" class="st6"/>
			</g>
			<g id="shape23-53" v:mID="23" v:groupContext="shape" transform="translate(195.83,178.1) rotate(-45) scale(1,-1)">
				<title>Sheet.23</title>
				<path d="M0 175.04 L12.75 175.04" class="st6"/>
			</g>
			<g id="shape24-58" v:mID="24" v:groupContext="shape" transform="translate(137.79,236.14) rotate(135)">
				<title>Sheet.24</title>
				<path d="M0 175.04 L18 175.04" class="st8"/>
			</g>
			<g id="shape25-61" v:mID="25" v:groupContext="shape" transform="translate(227.243,127.13) rotate(90)">
				<title>Sheet.25</title>
				<path d="M0 175.04 L17.31 175.04" class="st8"/>
			</g>
			<g id="shape26-64" v:mID="26" v:groupContext="shape" transform="translate(272.121,-82.4937) rotate(45)">
				<title>Sheet.26</title>
				<path d="M0 175.04 L12.75 175.04" class="st6"/>
			</g>
			<g id="shape27-69" v:mID="27" v:groupContext="shape" transform="translate(90.2495,230.73) rotate(-135)">
				<title>Sheet.27</title>
				<path d="M0 175.04 L12.75 175.04" class="st6"/>
			</g>
			<g id="shape28-74" v:mID="28" v:groupContext="shape" transform="translate(37.3013,-29.0365) rotate(-45) scale(-1,1)">
				<title>Sheet.28</title>
				<path d="M0 175.04 L12.75 175.04" class="st6"/>
			</g>
			<g id="shape29-79" v:mID="29" v:groupContext="shape" transform="translate(325.07,178.291) rotate(-45) scale(1,-1)">
				<title>Sheet.29</title>
				<path d="M0 175.04 L12.75 175.04" class="st6"/>
			</g>
			<g id="shape30-84" v:mID="30" v:groupContext="shape" transform="translate(267.03,236.331) rotate(135)">
				<title>Sheet.30</title>
				<path d="M0 175.04 L18 175.04" class="st8"/>
			</g>
			<g id="shape31-87" v:mID="31" v:groupContext="shape" transform="translate(356.483,127.321) rotate(90)">
				<title>Sheet.31</title>
				<path d="M0 175.04 L17.31 175.04" class="st8"/>
			</g>
			<g id="shape32-90" v:mID="32" v:groupContext="shape" transform="translate(301.32,-122.27)">
				<title>Sheet.32</title>
				<path d="M0 175.04 L12.75 175.04" class="st6"/>
			</g>
			<g id="shape33-95" v:mID="33" v:groupContext="shape" transform="translate(317.88,270.296) rotate(180)">
				<title>Sheet.33</title>
				<path d="M0 175.04 L12.75 175.04" class="st6"/>
			</g>
			<g id="shape34-100" v:mID="34" v:groupContext="shape" transform="translate(114.037,66.4529) rotate(-90) scale(-1,1)">
				<title>Sheet.34</title>
				<path d="M0 175.04 L12.75 175.04" class="st6"/>
			</g>
			<g id="shape35-105" v:mID="35" v:groupContext="shape" transform="translate(505.883,83.0129) rotate(90) scale(-1,1)">
				<title>Sheet.35</title>
				<path d="M0 175.04 L12.75 175.04" class="st6"/>
			</g>
			<g id="shape36-110" v:mID="36" v:groupContext="shape" transform="translate(392.61,237.55) rotate(136)">
				<title>Sheet.36</title>
				<path d="M0 175.04 L18 175.04" class="st8"/>
			</g>
			<g id="shape37-113" v:mID="37" v:groupContext="shape" transform="translate(483.951,130.118) rotate(91)">
				<title>Sheet.37</title>
				<path d="M0 175.04 L17.31 175.04" class="st8"/>
			</g>
			<g id="shape38-116" v:mID="38" v:groupContext="shape" transform="translate(50.2991,-28.98)">
				<title>Sheet.38</title>
				<desc>q</desc>
				<v:textBlock v:margins="rect(1,1,1,1)" v:verticalAlign="0"/>
				<v:textRect cx="9.14" cy="168.153" width="18.28" height="13.78"/>
				<rect x="0" y="161.263" width="18.28" height="13.78" class="st9"/>
				<text x="6.68" y="170.36" class="st10" v:langID="1033"><v:paragraph v:horizAlign="1"/><v:tabList/>q</text>			</g>
			<g id="shape39-119" v:mID="39" v:groupContext="shape" transform="translate(3.49908,-43.38)">
				<title>Sheet.39</title>
				<desc>d</desc>
				<v:textBlock v:margins="rect(1,1,1,1)" v:verticalAlign="0"/>
				<v:textRect cx="9.14" cy="168.153" width="18.28" height="13.78"/>
				<rect x="0" y="161.263" width="18.28" height="13.78" class="st9"/>
				<text x="6.64" y="170.36" class="st10" v:langID="1033"><v:paragraph v:horizAlign="1"/><v:tabList/>d</text>			</g>
			<g id="shape40-122" v:mID="40" v:groupContext="shape" transform="translate(178.42,-29.29)">
				<title>Sheet.40</title>
				<desc>q</desc>
				<v:textBlock v:margins="rect(1,1,1,1)" v:verticalAlign="0"/>
				<v:textRect cx="9.14" cy="168.153" width="18.28" height="13.78"/>
				<rect x="0" y="161.263" width="18.28" height="13.78" class="st9"/>
				<text x="6.68" y="170.36" class="st10" v:langID="1033"><v:paragraph v:horizAlign="1"/><v:tabList/>q</text>			</g>
			<g id="shape41-125" v:mID="41" v:groupContext="shape" transform="translate(131.62,-43.69)">
				<title>Sheet.41</title>
				<desc>d</desc>
				<v:textBlock v:margins="rect(1,1,1,1)" v:verticalAlign="0"/>
				<v:textRect cx="9.14" cy="168.153" width="18.28" height="13.78"/>
				<rect x="0" y="161.263" width="18.28" height="13.78" class="st9"/>
				<text x="6.64" y="170.36" class="st10" v:langID="1033"><v:paragraph v:horizAlign="1"/><v:tabList/>d</text>			</g>
			<g id="shape42-128" v:mID="42" v:groupContext="shape" transform="translate(304.92,-29.29)">
				<title>Sheet.42</title>
				<desc>q</desc>
				<v:textBlock v:margins="rect(1,1,1,1)" v:verticalAlign="0"/>
				<v:textRect cx="9.14" cy="168.153" width="18.28" height="13.78"/>
				<rect x="0" y="161.263" width="18.28" height="13.78" class="st9"/>
				<text x="6.68" y="170.36" class="st10" v:langID="1033"><v:paragraph v:horizAlign="1"/><v:tabList/>q</text>			</g>
			<g id="shape43-131" v:mID="43" v:groupContext="shape" transform="translate(258.12,-43.69)">
				<title>Sheet.43</title>
				<desc>d</desc>
				<v:textBlock v:margins="rect(1,1,1,1)" v:verticalAlign="0"/>
				<v:textRect cx="9.14" cy="168.153" width="18.28" height="13.78"/>
				<rect x="0" y="161.263" width="18.28" height="13.78" class="st9"/>
				<text x="6.64" y="170.36" class="st10" v:langID="1033"><v:paragraph v:horizAlign="1"/><v:tabList/>d</text>			</g>
			<g id="shape44-134" v:mID="44" v:groupContext="shape" transform="translate(15.1791,1.42109E-13)">
				<title>Sheet.44</title>
				<desc>SM-PMSM</desc>
				<v:textBlock v:margins="rect(1,1,1,1)" v:verticalAlign="0"/>
				<v:textRect cx="37" cy="168.693" width="74.01" height="12.7"/>
				<rect x="0" y="162.343" width="74" height="12.7" class="st9"/>
				<text x="15.25" y="171.44" class="st11" v:langID="1033"><v:paragraph v:horizAlign="1"/><v:tabList/>SM-PMSM</text>			</g>
			<g id="shape45-137" v:mID="45" v:groupContext="shape" transform="translate(205.64,-0.13)">
				<title>Sheet.45</title>
				<desc>I-PMSM</desc>
				<v:textBlock v:margins="rect(1,1,1,1)" v:verticalAlign="0"/>
				<v:textRect cx="37" cy="168.693" width="74.01" height="12.7"/>
				<rect x="0" y="162.343" width="74" height="12.7" class="st9"/>
				<text x="20.75" y="171.44" class="st11" v:langID="1033"><v:paragraph v:horizAlign="1"/><v:tabList/>I-PMSM</text>			</g>
			<g id="shape46-140" v:mID="46" v:groupContext="shape" transform="translate(144.44,-15.97)">
				<title>Sheet.46</title>
				<desc>Inset I-PMSM</desc>
				<v:textBlock v:margins="rect(1,1,1,1)" v:verticalAlign="0"/>
				<v:textRect cx="37" cy="168.693" width="74.01" height="12.7"/>
				<rect x="0" y="162.343" width="74" height="12.7" class="st9"/>
				<text x="12.77" y="170.54" class="st12" v:langID="1033"><v:paragraph v:horizAlign="1"/><v:tabList/>Inset I-PMSM</text>			</g>
			<g id="shape47-143" v:mID="47" v:groupContext="shape" transform="translate(264.24,-17.87)">
				<title>Sheet.47</title>
				<desc>Buried or radial I-PMSM</desc>
				<v:textBlock v:margins="rect(1,1,1,1)" v:verticalAlign="0"/>
				<v:textRect cx="44.56" cy="168.693" width="89.13" height="12.7"/>
				<rect x="0" y="162.343" width="89.12" height="12.7" class="st9"/>
				<text x="1.88" y="170.54" class="st12" v:langID="1033"><v:paragraph v:horizAlign="1"/><v:tabList/>Buried or radial I-PMSM</text>			</g>
		</g>
	</g>
</svg>
