<?xml version="1.0" encoding="UTF-8" standalone="no"?>
<svg
   xmlns:v="http://schemas.microsoft.com/visio/2003/SVGExtensions/"
   xmlns:dc="http://purl.org/dc/elements/1.1/"
   xmlns:cc="http://creativecommons.org/ns#"
   xmlns:rdf="http://www.w3.org/1999/02/22-rdf-syntax-ns#"
   xmlns:svg="http://www.w3.org/2000/svg"
   xmlns="http://www.w3.org/2000/svg"
   version="1.1"
   id="svg2"
   class="st7"
   color-interpolation-filters="sRGB"
   xml:space="preserve"
   viewBox="0 0 339.438 283.079"
   height="3.93165in"
   width="4.71442in"><metadata
     id="metadata204"><rdf:RDF><cc:Work
         rdf:about=""><dc:format>image/svg+xml</dc:format><dc:type
           rdf:resource="http://purl.org/dc/dcmitype/StillImage" /><dc:title></dc:title></cc:Work></rdf:RDF></metadata><defs
     id="defs202" /><v:documentProperties
     v:langID="1033" /><style
     id="style4"
     type="text/css"><![CDATA[
		.st1 {fill:#043a18;stroke:#043a18;stroke-linecap:butt;stroke-width:0.0899249}
		.st2 {fill:none;stroke:none;stroke-linecap:butt;stroke-width:0.749999}
		.st3 {fill:#043a18;font-family:Calibri;font-size:0.5625em}
		.st4 {fill:#00a04a;stroke:#0db14b;stroke-linecap:butt;stroke-width:0.0899249}
		.st5 {fill:#00a04a;stroke:#00a04a;stroke-linecap:butt;stroke-width:0.0899249}
		.st6 {fill:#000000;font-family:Arial;font-size:0.499992em}
		.st7 {fill:none;fill-rule:evenodd;font-size:12px;overflow:visible;stroke-linecap:square;stroke-miterlimit:3}
	]]></style><path
     style="fill:#043a18;stroke:#043a18;stroke-width:0.0899249;stroke-linecap:butt"
     id="path13"
     class="st1"
     d="m 143.138,137.627 132.14,0 c 0.16,0 0.27,0.12 0.27,0.27 0,0.17 -0.11,0.29 -0.27,0.29 l -132.14,0 c -0.15,0 -0.27,-0.12 -0.27,-0.29 0,-0.15 0.12,-0.27 0.27,-0.27 z m 131.57,-1.41 3.37,1.68 -3.37,1.69 0,-3.37 z" /><path
     style="fill:#043a18;stroke:#043a18;stroke-width:0.0899249;stroke-linecap:butt"
     id="path18"
     class="st1"
     d="M 142.9062,138.05 76.8862,29.16 c -0.08,-0.14 -0.04,-0.31 0.09,-0.39 0.14,-0.08 0.31,-0.03 0.39,0.09 l 66.02,108.9 c 0.08,0.13 0.03,0.3 -0.1,0.38 -0.13,0.09 -0.3,0.04 -0.38,-0.09 z m -66.93,-107.69 -0.31,-3.76 3.2,2.02 -2.89,1.74 z" /><path
     style="fill:#043a18;stroke:#043a18;stroke-width:0.0899249;stroke-linecap:butt"
     id="path23"
     class="st1"
     d="m 143.1072,138.653 -66.07,114.4 c -0.08,0.13 -0.25,0.17 -0.38,0.1 -0.14,-0.08 -0.18,-0.26 -0.11,-0.39 l 66.07,-114.39 c 0.07,-0.14 0.25,-0.19 0.39,-0.11 0.13,0.08 0.17,0.25 0.1,0.39 z m -64.57,114.61 -3.15,2.08 0.23,-3.77 2.92,1.69 z" /><rect
     style="fill:none;stroke:none;stroke-width:0.74999899;stroke-linecap:butt"
     id="rect30"
     class="st2"
     height="8.0999899"
     width="6.8020301"
     y="142.85201"
     x="211.293" /><text
     style="font-size:6.75px;font-family:Arial;fill:#043a18;-inkscape-font-specification:Arial;font-weight:normal;font-style:normal;font-stretch:normal;font-variant:normal;"
     id="text32"
     v:langID="1033"
     class="st3"
     y="148.92299"
     x="211.293"><v:paragraph /><v:tabList />f</text>
<rect
     style="fill:none;stroke:none;stroke-width:0.74999899;stroke-linecap:butt"
     id="rect39"
     class="st2"
     height="8.0999899"
     width="13.5541"
     y="145.078"
     x="214.465" /><text
     style="font-size:6.75px;font-family:Arial;fill:#043a18;-inkscape-font-specification:Arial;font-weight:normal;font-style:normal;font-stretch:normal;font-variant:normal;"
     id="text41"
     v:langID="1033"
     class="st3"
     y="151.14899"
     x="214.465"><v:paragraph /><v:tabList />ax</text>
<rect
     style="fill:none;stroke:none;stroke-width:0.74999899;stroke-linecap:butt"
     id="rect48"
     class="st2"
     height="8.0999899"
     width="6.8020301"
     y="113.30801"
     x="116.427" /><text
     style="font-size:6.75px;font-family:Arial;fill:#043a18;-inkscape-font-specification:Arial;font-weight:normal;font-style:normal;font-stretch:normal;font-variant:normal;"
     id="text50"
     v:langID="1033"
     class="st3"
     y="119.37899"
     x="116.427"><v:paragraph /><v:tabList />f</text>
<rect
     style="fill:none;stroke:none;stroke-width:0.74999899;stroke-linecap:butt"
     id="rect57"
     class="st2"
     height="8.0999899"
     width="13.5541"
     y="115.534"
     x="119.598" /><text
     style="font-size:6.75px;font-family:Arial;fill:#043a18;-inkscape-font-specification:Arial;font-weight:normal;font-style:normal;font-stretch:normal;font-variant:normal;"
     id="text59"
     v:langID="1033"
     class="st3"
     y="121.60499"
     x="119.598"><v:paragraph /><v:tabList />bx</text>
<rect
     style="fill:none;stroke:none;stroke-width:0.74999899;stroke-linecap:butt"
     id="rect66"
     class="st2"
     height="8.0999899"
     width="6.8020301"
     y="164.302"
     x="110.557" /><text
     style="font-size:6.75px;font-family:Arial;fill:#043a18;-inkscape-font-specification:Arial;font-weight:normal;font-style:normal;font-stretch:normal;font-variant:normal;"
     id="text68"
     v:langID="1033"
     class="st3"
     y="170.37299"
     x="110.557"><v:paragraph /><v:tabList />f</text>
<rect
     style="fill:none;stroke:none;stroke-width:0.74999899;stroke-linecap:butt"
     id="rect75"
     class="st2"
     height="8.0999899"
     width="13.5541"
     y="166.52701"
     x="113.728" /><text
     style="font-size:6.75px;font-family:Arial;fill:#043a18;-inkscape-font-specification:Arial;font-weight:normal;font-style:normal;font-stretch:normal;font-variant:normal;"
     id="text77"
     v:langID="1033"
     class="st3"
     y="172.59799"
     x="113.728"><v:paragraph /><v:tabList />cx</text>
<path
     style="fill:#00a04a;stroke:#0db14b;stroke-width:0.0899249;stroke-linecap:butt"
     id="path82"
     class="st4"
     d="m 142.974,137.702 72.07,-62.25 c 0.12,-0.1 0.31,-0.08 0.41,0.04 0.1,0.1 0.08,0.28 -0.04,0.39 l -72.09,62.24 c -0.12,0.1 -0.29,0.08 -0.39,-0.04 -0.1,-0.11 -0.08,-0.28 0.04,-0.38 z m 70.74,-62.94 3.64,-0.94 -1.45,3.49 -2.19,-2.55 z" /><path
     style="fill:#00a04a;stroke:#00a04a;stroke-width:0.0899249;stroke-linecap:butt"
     id="path87"
     class="st5"
     d="m 143.356,137.7181 62.26,72.07 c 0.1,0.12 0.08,0.29 -0.03,0.39 -0.12,0.11 -0.3,0.1 -0.4,-0.02 l -62.26,-72.07 c -0.1,-0.12 -0.08,-0.3 0.04,-0.4 0.11,-0.1 0.29,-0.08 0.39,0.03 z m 62.95,70.73 0.93,3.65 -3.48,-1.45 2.55,-2.2 z" /><rect
     style="fill:none;stroke:none;stroke-width:0.74999899;stroke-linecap:butt"
     id="rect94"
     class="st2"
     height="8.0999899"
     width="6.8020301"
     y="72.028008"
     x="201.172" /><text
     style="font-size:6.75px;font-family:Arial;fill:#043a18;-inkscape-font-specification:Arial;font-weight:normal;font-style:normal;font-stretch:normal;font-variant:normal;"
     id="text96"
     v:langID="1033"
     class="st3"
     y="78.098991"
     x="201.172"><v:paragraph /><v:tabList />q</text>
<rect
     style="fill:none;stroke:none;stroke-width:0.74999899;stroke-linecap:butt"
     id="rect103"
     class="st2"
     height="8.0999899"
     width="6.8020301"
     y="203.5587"
     x="187.67799" /><text
     style="font-size:6.75px;font-family:Arial;fill:#043a18;-inkscape-font-specification:Arial;font-weight:normal;font-style:normal;font-stretch:normal;font-variant:normal;"
     id="text105"
     v:langID="1033"
     class="st3"
     y="209.62968"
     x="187.67799"><v:paragraph /><v:tabList />d</text>
<path
     style="fill:#043a18;stroke:#043a18;stroke-width:0.0899249;stroke-linecap:butt"
     id="path110"
     class="st1"
     d="m 187.394,107.518 -0.39,-1.5 -0.43,-1.44 -0.25,-0.69 -0.28,-0.67 -0.31,-0.64 -0.37,-0.6 -0.41,-0.58 -0.49,-0.57 -0.54,-0.57 -0.57,-0.54 -0.58,-0.53 -0.58,-0.49 -0.53,-0.44 -0.87,-0.59 c -0.12,-0.08 -0.17,-0.26 -0.07,-0.38 0.08,-0.14 0.26,-0.17 0.38,-0.08 l 0.91,0.62 0.55,0.44 0.58,0.5 0.59,0.54 0.6,0.57 0.56,0.59 0.51,0.61 0.45,0.62 0.37,0.64 0.33,0.66 0.3,0.7 0.25,0.71 0.45,1.48 0.39,1.49 c 0.04,0.15 -0.05,0.3 -0.21,0.35 -0.14,0.03 -0.3,-0.06 -0.34,-0.21 z m -7.31,-7.35 -1.6,-4.09 4.32,-0.83 -2.72,4.92 z" /><rect
     style="fill:none;stroke:none;stroke-width:0.74999899;stroke-linecap:butt"
     id="rect117"
     class="st2"
     height="8.0999899"
     width="6.8020301"
     y="102.381"
     x="191.05099" /><text
     style="font-size:6.75px;font-family:Arial;fill:#043a18;-inkscape-font-specification:Arial;font-weight:normal;font-style:normal;font-stretch:normal;font-variant:normal;"
     id="text119"
     v:langID="1033"
     class="st3"
     y="108.45199"
     x="191.05099"><v:paragraph /><v:tabList />w</text>
<path
     style="fill:#043a18;stroke:#043a18;stroke-width:0.0899249;stroke-linecap:butt"
     id="path124"
     class="st1"
     d="m 163.779,137.872 -0.39,-1.5 -0.43,-1.44 -0.25,-0.69 -0.28,-0.67 -0.32,-0.64 -0.36,-0.6 -0.41,-0.58 -0.49,-0.57 -0.54,-0.57 -0.57,-0.55 -0.59,-0.52 -0.57,-0.49 -0.53,-0.44 -0.87,-0.59 c -0.13,-0.08 -0.17,-0.26 -0.08,-0.38 0.09,-0.14 0.27,-0.17 0.39,-0.08 l 0.91,0.62 0.55,0.44 0.57,0.5 0.6,0.54 0.59,0.57 0.57,0.59 0.51,0.61 0.45,0.62 0.37,0.64 0.33,0.66 0.29,0.7 0.26,0.71 0.45,1.48 0.38,1.49 c 0.05,0.15 -0.05,0.3 -0.2,0.34 -0.14,0.04 -0.3,-0.05 -0.34,-0.2 z m -7.31,-7.35 -1.6,-4.09 4.32,-0.83 -2.72,4.92 z" /><rect
     style="fill:none;stroke:none;stroke-width:0.74999899;stroke-linecap:butt"
     id="rect131"
     class="st2"
     height="8.0999899"
     width="13.5541"
     y="125.98901"
     x="164.063" /><text
     style="font-size:6.75px;font-family:Arial;fill:#043a18;-inkscape-font-specification:Arial;font-weight:normal;font-style:normal;font-stretch:normal;font-variant:normal;"
     id="text133"
     v:langID="1033"
     class="st3"
     y="132.05998"
     x="164.063"><v:paragraph /><v:tabList />q    </text>
<rect
     style="fill:none;stroke:none;stroke-width:0.74999899;stroke-linecap:butt"
     id="rect140"
     class="st2"
     height="8.0999899"
     width="6.8020301"
     y="128.715"
     x="168.66299" /><text
     style="font-size:6.75px;font-family:Arial;fill:#043a18;-inkscape-font-specification:Arial;font-weight:normal;font-style:normal;font-stretch:normal;font-variant:normal;"
     id="text142"
     v:langID="1033"
     class="st3"
     y="134.78598"
     x="168.66299"><v:paragraph /><v:tabList />0</text>
<rect
     style="fill:none;stroke:none;stroke-width:0.74999899;stroke-linecap:butt"
     id="rect149"
     class="st2"
     height="8.0999899"
     width="6.8020301"
     y="142.85201"
     x="265.271" /><text
     style="font-size:6.75px;font-family:Arial;fill:#043a18;-inkscape-font-specification:Arial;font-weight:normal;font-style:normal;font-stretch:normal;font-variant:normal;"
     id="text151"
     v:langID="1033"
     class="st3"
     y="148.92299"
     x="265.271"><v:paragraph /><v:tabList />a</text>
<rect
     style="fill:none;stroke:none;stroke-width:0.74999899;stroke-linecap:butt"
     id="rect158"
     class="st2"
     height="8.0999899"
     width="6.8020301"
     y="38.302006"
     x="69.601799" /><text
     style="font-size:6.75px;font-family:Arial;fill:#043a18;-inkscape-font-specification:Arial;font-weight:normal;font-style:normal;font-stretch:normal;font-variant:normal;"
     id="text160"
     v:langID="1033"
     class="st3"
     y="44.37299"
     x="69.601799"><v:paragraph /><v:tabList />b</text>
<rect
     style="fill:none;stroke:none;stroke-width:0.74999899;stroke-linecap:butt"
     id="rect167"
     class="st2"
     height="8.0999899"
     width="6.8020301"
     y="237.28441"
     x="69.601799" /><text
     style="font-size:6.75px;font-family:Arial;fill:#043a18;-inkscape-font-specification:Arial;font-weight:normal;font-style:normal;font-stretch:normal;font-variant:normal;"
     id="text169"
     v:langID="1033"
     class="st3"
     y="243.35539"
     x="69.601799"><v:paragraph /><v:tabList />c</text>
<path
     style="fill:#043a18;stroke:#043a18;stroke-width:0.0899249;stroke-linecap:butt"
     id="path174"
     class="st1"
     d="m 143.138,137.205 74.22,0 c 0.17,0 0.29,0.12 0.29,0.27 0,0.17 -0.12,0.29 -0.29,0.29 l -74.22,0 c -0.15,0 -0.27,-0.12 -0.27,-0.29 0,-0.15 0.12,-0.27 0.27,-0.27 z m 74.22,0.27 -2.24,-1.68 5.61,1.68 -5.61,1.69 2.24,-1.69 z" /><path
     style="fill:#043a18;stroke:#043a18;stroke-width:0.0899249;stroke-linecap:butt"
     id="path179"
     class="st1"
     d="m 142.903,138.05 -16.82,-27.89 c -0.08,-0.14 -0.03,-0.3 0.1,-0.38 0.14,-0.08 0.31,-0.04 0.39,0.09 l 16.81,27.89 c 0.08,0.13 0.03,0.31 -0.09,0.38 -0.14,0.09 -0.32,0.04 -0.39,-0.09 z m -16.57,-28.03 -0.29,2.8 -1.46,-5.7 4.35,3.95 -2.6,-1.05 z" /><path
     style="fill:#043a18;stroke:#043a18;stroke-width:0.0899249;stroke-linecap:butt"
     id="path184"
     class="st1"
     d="m 143.378,138.462 -22.95,38.97 c -0.08,0.14 -0.26,0.19 -0.38,0.1 -0.14,-0.07 -0.19,-0.25 -0.1,-0.38 l 22.95,-38.97 c 0.08,-0.13 0.26,-0.18 0.38,-0.1 0.14,0.08 0.19,0.26 0.1,0.38 z m -23.2,38.83 2.6,-1.08 -4.31,3.99 1.4,-5.7 0.31,2.79 z" /><rect
     style="fill:none;stroke:none;stroke-width:0.74999899;stroke-linecap:butt"
     id="rect189"
     class="st2"
     height="245.578"
     width="296.57501"
     y="18.75"
     x="18.7502" /></svg>