<?xml version="1.0" encoding="UTF-8" standalone="no"?>
<svg
   xmlns:v="http://schemas.microsoft.com/visio/2003/SVGExtensions/"
   xmlns:dc="http://purl.org/dc/elements/1.1/"
   xmlns:cc="http://creativecommons.org/ns#"
   xmlns:rdf="http://www.w3.org/1999/02/22-rdf-syntax-ns#"
   xmlns:svg="http://www.w3.org/2000/svg"
   xmlns="http://www.w3.org/2000/svg"
   style="font-size:12px;overflow:visible;color-interpolation-filters:sRGB;fill:none;fill-rule:evenodd;stroke-linecap:square;stroke-miterlimit:3"
   version="1.1"
   id="svg2"
   class="st21"
   xml:space="preserve"
   viewBox="0 0 431.99991 216.00007"
   height="3in"
   width="6in"><metadata
     id="metadata1021"><rdf:RDF><cc:Work
         rdf:about=""><dc:format>image/svg+xml</dc:format><dc:type
           rdf:resource="http://purl.org/dc/dcmitype/StillImage" /><dc:title></dc:title></cc:Work></rdf:RDF></metadata><defs
     id="defs1019" /><v:documentProperties
     v:viewMarkup="false"
     v:langID="1033"><v:userDefs><v:ud
         v:val="VT0(1):26"
         v:nameU="msvNoAutoConnect" /><v:ud
         v:nameU="msvConvertTheme" /></v:userDefs></v:documentProperties><style
     id="style4"
     type="text/css"><![CDATA[
		.st1 {fill:none;stroke:none;stroke-linecap:butt;stroke-width:0.75}
		.st2 {fill:#000000;font-family:Arial;font-size:0.499992em}
		.st3 {fill:none;stroke:#ffffff;stroke-linecap:round;stroke-linejoin:round;stroke-width:0.25}
		.st4 {fill:#000000;stroke:#000000;stroke-linecap:round;stroke-linejoin:round;stroke-width:0.00936162}
		.st5 {fill:#000000;stroke:#000000;stroke-linecap:round;stroke-linejoin:round;stroke-width:0.00468081}
		.st6 {stroke:#000000;stroke-linecap:round;stroke-linejoin:round;stroke-width:0.449358}
		.st7 {fill:#000000;stroke:#000000;stroke-linecap:round;stroke-linejoin:round;stroke-width:0.0187232}
		.st8 {stroke:none;stroke-linecap:round;stroke-linejoin:round;stroke-width:0.75}
		.st9 {fill:#000000;font-family:Arial;font-size:0.666664em}
		.st10 {fill:#000000;font-family:Arial;font-size:0.361633em}
		.st11 {fill:#000000;font-family:Arial;font-size:0.243164em}
		.st12 {fill:#ff0000;stroke:none;stroke-linecap:round;stroke-linejoin:round;stroke-width:0.75}
		.st13 {fill:#000000;font-family:Arial;font-size:0.467628em}
		.st14 {fill:#000000;font-family:Arial;font-size:0.31176em}
		.st15 {fill:#009900;stroke:none;stroke-linecap:round;stroke-linejoin:round;stroke-width:0.75}
		.st16 {fill:#000000;font-family:Arial;font-size:0.417755em}
		.st17 {fill:#000000;font-family:Arial;font-size:0.274338em}
		.st18 {fill:#ffc000;stroke:none;stroke-linecap:round;stroke-linejoin:round;stroke-width:0.75}
		.st19 {fill:#3399ff;stroke:none;stroke-linecap:round;stroke-linejoin:round;stroke-width:0.75}
		.st20 {stroke:#080808;stroke-linecap:round;stroke-linejoin:round;stroke-width:0.449358}
		.st21 {fill:none;fill-rule:evenodd;font-size:12px;overflow:visible;stroke-linecap:square;stroke-miterlimit:3}
	]]></style><g
     transform="translate(-16.000007,2.0280776)"
     id="g5986"><path
       d="m 278.013,48.0835 0.01,1.8 -0.45,0 -0.01,-1.8 0.45,0 0,0 z m 0.01,3.15 0,1.79 -0.45,0 0,-1.79 0.45,0 0,0 z m 0,3.14 0,1.79 -0.45,0 0,-1.79 0.45,0 0,0 z m 0,3.14 0,1.8 -0.45,0 0,-1.8 0.45,0 0,0 z m 0,3.14 0.01,1.8 -0.45,0 -0.01,-1.8 0.45,0 0,0 z m 0.01,3.15 0,1.79 -0.45,0 0,-1.79 0.45,0 0,0 z m 0,3.14 0,1.79 -0.45,0 0,-1.79 0.45,0 0,0 z m 0,3.14 0,1.8 -0.45,0 0,-1.8 0.45,0 0,0 z m 0,3.14 0,1.8 -0.45,0 0,-1.8 0.45,0 0,0 z m 0.01,3.15 0,1.79 -0.45,0 0,-1.79 0.45,0 0,0 z m 0,3.14 0,1.79 -0.45,0 0,-1.79 0.45,0 0,0 z m 0,3.14 0,1.8 -0.45,0 0,-1.8 0.45,0 0,0 z m 0,3.14 0,1.8 -0.45,0 0,-1.8 0.45,0 0,0 z m 0.01,3.15 0,1.79 -0.45,0 0,-1.79 0.45,0 0,0 z m 0,3.14 0,1.79 -0.45,0 0,-1.79 0.45,0 0,0 z m 0,3.14 0,1.8 -0.45,0 0,-1.8 0.45,0 0,0 z m 0,3.14 0,1.8 -0.45,0 0,-1.8 0.45,0 0,0 z m 0.01,3.15 0,1.79 -0.45,0 0,-1.79 0.45,0 0,0 z m 0,3.14 0,1.79 -0.45,0 0,-1.79 0.45,0 0,0 z m 0,3.14 0,1.8 -0.45,0 0,-1.8 0.45,0 0,0 z m 0,3.14 0,1.8 -0.45,0 0,-1.8 0.45,0 0,0 z m 0,3.15 0.01,1.79 -0.45,0 -0.01,-1.79 0.45,0 0,0 z m 0.01,3.14 0,1.79 -0.45,0 0,-1.79 0.45,0 0,0 z m 0,3.14 0,1.8 -0.45,0 0,-1.8 0.45,0 0,0 z m 0,3.14 0,1.8 -0.45,0 0,-1.8 0.45,0 0,0 z m 0,3.15 0.01,1.79 -0.45,0 -0.01,-1.79 0.45,0 0,0 z m 0.01,3.14 0,1.79 -0.45,0 0,-1.79 0.45,0 0,0 z m 0,3.14 0,1.8 -0.45,0 0,-1.8 0.45,0 0,0 z m 0,3.14 0,1.8 -0.45,0 0,-1.8 0.45,0 0,0 z m 0,3.15 0,1.79 -0.45,0 0,-1.79 0.45,0 0,0 z m 0,3.14 0,1.79 -0.45,0 0,-1.79 0.45,0 0,0 z m 0,3.14 0,1.8 -0.45,0 0,-1.8 0.45,0 0,0 z m 0,3.14 0,1.8 -0.45,0 0,-1.8 0.45,0 0,0 z m 0,3.15 0,1.79 -0.45,0 0,-1.79 0.45,0 0,0 z"
       class="st4"
       id="path32"
       style="fill:#000000;stroke:#000000;stroke-width:0.00936162;stroke-linecap:round;stroke-linejoin:round" /><path
       d="m 267.673,80.1121 0,1.79 0.45,0 0,-1.79 -0.45,0 0,0 z m 0,3.14 0,1.8 0.45,0 0,-1.8 -0.45,0 0,0 z m 0,3.14 0,1.8 0.45,0 0,-1.8 -0.45,0 0,0 z m -0.01,3.15 0,1.79 0.45,0 0,-1.79 -0.45,0 0,0 z m 0,3.14 0,1.79 0.45,0 0,-1.79 -0.45,0 0,0 z m 0,3.14 0,1.8 0.45,0 0,-1.8 -0.45,0 0,0 z m -0.01,3.14 0,1.8 0.45,0 0,-1.8 -0.45,0 0,0 z m 0,3.15 0,1.79 0.45,0 0,-1.79 -0.45,0 0,0 z m 0,3.14 0,1.79 0.45,0 0,-1.79 -0.45,0 0,0 z m -0.01,3.14 0,1.8 0.45,0 0,-1.8 -0.45,0 0,0 z m 0,3.14 0,1.8 0.45,0 0,-1.8 -0.45,0 0,0 z m 0,3.15 0,1.79 0.45,0 0,-1.79 -0.45,0 0,0 z m -0.01,3.14 0,1.79 0.45,0 0,-1.79 -0.45,0 0,0 z m 0,3.14 0,1.8 0.45,0 0,-1.8 -0.45,0 0,0 z m 0,3.14 0,1.8 0.45,0 0,-1.8 -0.45,0 0,0 z m -0.01,3.15 0,1.79 0.45,0 0,-1.79 -0.45,0 0,0 z m 0,3.14 0,1.79 0.45,0 0,-1.79 -0.45,0 0,0 z m 0,3.14 0,1.8 0.45,0 0,-1.8 -0.45,0 0,0 z m -0.01,3.14 0,1.8 0.45,0 0,-1.8 -0.45,0 0,0 z m 0,3.15 0,1.79 0.45,0 0,-1.79 -0.45,0 0,0 z m 0,3.14 0,1.79 0.45,0 0,-1.79 -0.45,0 0,0 z m -0.01,3.14 0,1.8 0.45,0 0,-1.8 -0.45,0 0,0 z m 0,3.14 0,1.8 0.45,0 0,-1.8 -0.45,0 0,0 z m 0,3.15 0,1.79 0.45,0 0,-1.79 -0.45,0 0,0 z"
       class="st4"
       id="path37"
       style="fill:#000000;stroke:#000000;stroke-width:0.00936162;stroke-linecap:round;stroke-linejoin:round" /><path
       d="m 112.643,96.494 0,-1.79 -0.45,0 0,1.79 0.45,0 0,0 z m 0,-3.14 0,-1.8 -0.45,0 0,1.8 0.45,0 0,0 z m 0,-3.14 0,-1.8 -0.45,0 0,1.8 0.45,0 0,0 z"
       class="st5"
       id="path42"
       style="fill:#000000;stroke:#000000;stroke-width:0.00468081;stroke-linecap:round;stroke-linejoin:round" /><path
       d="m 112.418,86.766 1.8,0 0,0.45 -1.8,0 0,-0.45 0,0 z m 3.15,0 1.8,0 0,0.45 -1.8,0 0,-0.45 0,0 z m 3.15,0 1.8,0 0,0.45 -1.8,0 0,-0.45 0,0 z m 3.15,0 1.79,0 0,0.45 -1.79,0 0,-0.45 0,0 z m 3.14,0 1.8,0 0,0.45 -1.8,0 0,-0.45 0,0 z m 3.15,0 0.75,0 0,0.45 -0.75,0 0,-0.45 0,0 z"
       class="st5"
       id="path47"
       style="fill:#000000;stroke:#000000;stroke-width:0.00468081;stroke-linecap:round;stroke-linejoin:round" /><path
       d="m 370.369,96.42 0,-9.35"
       class="st6"
       id="path52"
       style="stroke:#000000;stroke-width:0.44935799;stroke-linecap:round;stroke-linejoin:round" /><path
       d="m 370.144,96.494 31.33,0"
       class="st6"
       id="path57"
       style="stroke:#000000;stroke-width:0.44935799;stroke-linecap:round;stroke-linejoin:round" /><path
       d="m 128.91,96.27 0,-9.13"
       class="st6"
       id="path62"
       style="stroke:#000000;stroke-width:0.44935799;stroke-linecap:round;stroke-linejoin:round" /><path
       d="m 110.019,96.42 18.59,0"
       class="st6"
       id="path67"
       style="stroke:#000000;stroke-width:0.44935799;stroke-linecap:round;stroke-linejoin:round" /><path
       d="m 128.91,86.992 241.68,0"
       class="st6"
       id="path72"
       style="stroke:#000000;stroke-width:0.44935799;stroke-linecap:round;stroke-linejoin:round" /><path
       d="m 115.548,93.955 10.24,0 0,0.45 -10.24,0 0,-0.45 0,0 z m 0.62,2.09 -3.75,-1.87 3.75,-1.87 0,3.74 0,0 z m 8.99,-3.74 3.75,1.87 -3.75,1.87 0,-3.74 0,0 z"
       class="st5"
       id="path77"
       style="fill:#000000;stroke:#000000;stroke-width:0.00468081;stroke-linecap:round;stroke-linejoin:round" /><path
       d="m 370.144,96.797 0,1.79 0.45,0 0,-1.79 -0.45,0 0,0 z m 0,3.14 0,1.8 0.45,0 0,-1.8 -0.45,0 0,0 z m 0,3.14 0,1.8 0.45,0 0,-1.8 -0.45,0 0,0 z m 0,3.15 0,1.79 0.45,0 0,-1.79 -0.45,0 0,0 z"
       class="st7"
       id="path82"
       style="fill:#000000;stroke:#000000;stroke-width:0.0187232;stroke-linecap:round;stroke-linejoin:round" /><path
       d="m 386.561,100.09 0,8.75"
       class="st6"
       id="path87"
       style="stroke:#000000;stroke-width:0.44935799;stroke-linecap:round;stroke-linejoin:round" /><path
       d="m 112.418,100.01 0,8.68"
       class="st6"
       id="path92"
       style="stroke:#000000;stroke-width:0.44935799;stroke-linecap:round;stroke-linejoin:round" /><path
       d="m 112.047,100.011 -8.7,0"
       class="st6"
       id="path97"
       style="stroke:#000000;stroke-width:0.44935799;stroke-linecap:round;stroke-linejoin:round" /><path
       d="m 401.026,100.011 -14.69,0"
       class="st6"
       id="path102"
       style="stroke:#000000;stroke-width:0.44935799;stroke-linecap:round;stroke-linejoin:round" /><path
       d="m 386.338,108.99 -273.92,-0.07"
       class="st6"
       id="path107"
       style="stroke:#000000;stroke-width:0.44935799;stroke-linecap:round;stroke-linejoin:round" /><path
       d="m 373.499,106.002 10.18,0 0,0.45 -10.18,0 0,-0.45 0,0 z m 0.62,2.09 -3.75,-1.87 3.75,-1.87 0,3.74 0,0 z m 8.92,-3.74 3.75,1.87 -3.75,1.87 0,-3.74 0,0 z"
       class="st7"
       id="path112"
       style="fill:#000000;stroke:#000000;stroke-width:0.0187232;stroke-linecap:round;stroke-linejoin:round" /><path
       d="m 370.369,99.785 1.8,0 0,0.45 -1.8,0 0,-0.45 0,0 z m 3.15,0 1.8,0 0,0.45 -1.8,0 0,-0.45 0,0 z m 3.15,0 1.8,0 0,0.45 -1.8,0 0,-0.45 0,0 z m 3.15,0 1.79,0 0,0.45 -1.79,0 0,-0.45 0,0 z m 3.14,0 1.8,0 0,0.45 -1.8,0 0,-0.45 0,0 z m 3.15,0 0.45,0 0,0.45 -0.45,0 0,-0.45 0,0 z"
       class="st7"
       id="path117"
       style="fill:#000000;stroke:#000000;stroke-width:0.0187232;stroke-linecap:round;stroke-linejoin:round" /><path
       d="m 254.469,40.606 0,1.79 0.45,0 0,-1.79 -0.45,0 0,0 z m 0,3.14 0,1.8 0.45,0 0,-1.8 -0.45,0 0,0 z m 0,3.14 0,1.8 0.45,0 0,-1.8 -0.45,0 0,0 z m 0,3.15 0,1.79 0.45,0 0,-1.79 -0.45,0 0,0 z m 0,3.14 0,1.79 0.45,0 0,-1.79 -0.45,0 0,0 z m 0,3.14 0,1.8 0.45,0 0,-1.8 -0.45,0 0,0 z m 0,3.14 -0.01,1.8 0.45,0 0.01,-1.8 -0.45,0 0,0 z m -0.01,3.15 0,1.79 0.45,0 0,-1.79 -0.45,0 0,0 z m 0,3.14 0,1.79 0.45,0 0,-1.79 -0.45,0 0,0 z m 0,3.14 0,1.8 0.45,0 0,-1.8 -0.45,0 0,0 z m -0.01,3.14 0,1.8 0.45,0 0,-1.8 -0.45,0 0,0 z m 0,3.15 0,1.79 0.45,0 0,-1.79 -0.45,0 0,0 z m 0,3.14 0,1.79 0.45,0 0,-1.79 -0.45,0 0,0 z m 0,3.14 -0.01,1.8 0.45,0 0.01,-1.8 -0.45,0 0,0 z m -0.01,3.14 0,1.8 0.45,0 0,-1.8 -0.45,0 0,0 z m 0,3.15 0,1.79 0.45,0 0,-1.79 -0.45,0 0,0 z m 0,3.14 -0.01,1.79 0.45,0 0.01,-1.79 -0.45,0 0,0 z m -0.01,3.14 0,1.8 0.45,0 0,-1.8 -0.45,0 0,0 z m 0,3.14 0,1.8 0.45,0 0,-1.8 -0.45,0 0,0 z m 0,3.15 0,1.79 0.45,0 0,-1.79 -0.45,0 0,0 z m -0.01,3.14 0,1.79 0.45,0 0,-1.79 -0.45,0 0,0 z m 0,3.14 0,1.8 0.45,0 0,-1.8 -0.45,0 0,0 z m 0,3.14 0,1.8 0.45,0 0,-1.8 -0.45,0 0,0 z m -0.01,3.15 0,1.79 0.45,0 0,-1.79 -0.45,0 0,0 z m 0,3.14 0,1.79 0.45,0 0,-1.79 -0.45,0 0,0 z m 0,3.14 0,1.8 0.45,0 0,-1.8 -0.45,0 0,0 z m 0,3.14 -0.01,0.9 0.45,0 0.01,-0.9 -0.45,0 0,0 z"
       class="st4"
       id="path122"
       style="fill:#000000;stroke:#000000;stroke-width:0.00936162;stroke-linecap:round;stroke-linejoin:round" /><path
       d="m 244.349,24.213 0,1.8 0.45,0.01 0,-1.8 -0.45,-0.01 0,0 z m 0,3.15 0,1.79 0.45,0.01 0,-1.79 -0.45,-0.01 0,0 z m 0,3.14 -0.01,1.8 0.45,0 0.01,-1.79 -0.45,-0.01 0,0 z m -0.01,3.14 0,1.8 0.45,0.01 0,-1.8 -0.45,-0.01 0,0 z m -0.01,3.14 0,1.8 0.45,0.01 0,-1.8 -0.45,-0.01 0,0 z m 0,3.15 -0.01,1.79 0.45,0.01 0.01,-1.79 -0.45,-0.01 0,0 z m -0.01,3.14 -0.01,1.8 0.45,0 0.01,-1.79 -0.45,-0.01 0,0 z m -0.01,3.14 -0.01,1.8 0.45,0.01 0.01,-1.8 -0.45,-0.01 0,0 z m -0.01,3.14 0,1.8 0.45,0.01 0,-1.8 -0.45,-0.01 0,0 z m -0.01,3.15 0,1.79 0.45,0.01 0,-1.79 -0.45,-0.01 0,0 z m 0,3.14 -0.01,1.8 0.45,0 0.01,-1.79 -0.45,-0.01 0,0 z m -0.01,3.14 -0.01,1.8 0.45,0.01 0.01,-1.8 -0.45,-0.01 0,0 z m -0.01,3.14 0,1.8 0.45,0.01 0,-1.8 -0.45,-0.01 0,0 z m -0.01,3.15 0,1.79 0.45,0.01 0,-1.79 -0.45,-0.01 0,0 z m -0.01,3.14 0,1.8 0.45,0.01 0,-1.8 -0.45,-0.01 0,0 z m 0,3.14 -0.01,1.8 0.45,0.01 0.01,-1.8 -0.45,-0.01 0,0 z m -0.01,3.15 -0.01,1.79 0.45,0.01 0.01,-1.8 -0.45,0 0,0 z m -0.01,3.14 0,1.79 0.45,0.01 0,-1.79 -0.45,-0.01 0,0 z m -0.01,3.14 0,1.8 0.45,0.01 0,-1.8 -0.45,-0.01 0,0 z m -0.01,3.14 0,1.8 0.45,0.01 0,-1.8 -0.45,-0.01 0,0 z m 0,3.15 -0.01,1.79 0.45,0 0.01,-1.79 -0.45,0 0,0 z m -0.01,3.14 0,1.79 0.45,0 0,-1.79 -0.45,0 0,0 z m 0,3.14 0,1.8 0.45,0 0,-1.8 -0.45,0 0,0 z m -0.01,3.14 0,1.8 0.45,0 0,-1.8 -0.45,0 0,0 z m 0,3.15 -0.01,1.79 0.45,0 0.01,-1.79 -0.45,0 0,0 z m -0.01,3.14 -0.01,1.79 0.45,0 0.01,-1.79 -0.45,0 0,0 z m -0.01,3.14 0,1.8 0.45,0 0,-1.8 -0.45,0 0,0 z m -0.01,3.14 0,1.8 0.45,0 0,-1.8 -0.45,0 0,0 z m -0.01,3.15 0,1.79 0.45,0 0,-1.79 -0.45,0 0,0 z m 0,3.14 -0.01,1.79 0.45,0 0.01,-1.79 -0.45,0 0,0 z m -0.01,3.14 -0.01,1.27 0.45,0.01 0.01,-1.28 -0.45,0 0,0 z"
       class="st4"
       id="path127"
       style="fill:#000000;stroke:#000000;stroke-width:0.00936162;stroke-linecap:round;stroke-linejoin:round" /><path
       d="m 196.377,57.5089 0,1.8 0.45,0 0,-1.8 -0.45,0 0,0 z m 0,3.15 0,1.79 0.45,0 0,-1.79 -0.45,0 0,0 z m 0,3.14 0,1.8 0.45,0 0,-1.8 -0.45,0 0,0 z m 0,3.14 0,1.8 0.45,0 0,-1.8 -0.45,0 0,0 z m 0,3.14 0,1.8 0.45,0 0,-1.8 -0.45,0 0,0 z m 0,3.15 0,1.79 0.45,0 0,-1.79 -0.45,0 0,0 z m 0,3.14 0,1.8 0.45,0 0,-1.8 -0.45,0 0,0 z m 0,3.14 0,1.8 0.45,0 0,-1.8 -0.45,0 0,0 z m 0,3.15 0,1.79 0.45,0 0,-1.79 -0.45,0 0,0 z m 0,3.14 0,1.79 0.45,0 0,-1.79 -0.45,0 0,0 z m 0,3.14 0,1.8 0.45,0 0,-1.8 -0.45,0 0,0 z m 0,3.14 0,1.8 0.45,0 0,-1.8 -0.45,0 0,0 z m 0,3.15 0,1.79 0.45,0 0,-1.79 -0.45,0 0,0 z m 0,3.14 0,1.79 0.45,0 0,-1.79 -0.45,0 0,0 z m 0,3.14 0,1.8 0.45,0 0,-1.8 -0.45,0 0,0 z m 0,3.14 0,1.8 0.45,0 0,-1.8 -0.45,0 0,0 z m 0,3.15 0,1.79 0.45,0 0,-1.79 -0.45,0 0,0 z m 0,3.14 0,1.79 0.45,0 0,-1.79 -0.45,0 0,0 z m 0,3.14 0,1.8 0.45,0 0,-1.8 -0.45,0 0,0 z m 0,3.14 0,1.8 0.45,0 0,-1.8 -0.45,0 0,0 z m 0,3.15 0,1.79 0.45,0 0,-1.79 -0.45,0 0,0 z m 0,3.14 0,1.79 0.45,0 0,-1.79 -0.45,0 0,0 z m 0,3.14 0,1.8 0.45,0 0,-1.8 -0.45,0 0,0 z m 0,3.14 0,1.8 0.45,0 0,-1.8 -0.45,0 0,0 z m 0,3.15 0,1.79 0.45,0 0,-1.79 -0.45,0 0,0 z m 0,3.14 0,1.79 0.45,0 0,-1.79 -0.45,0 0,0 z m 0,3.14 0,1.8 0.45,0 0,-1.8 -0.45,0 0,0 z m 0,3.14 0,1.8 0.45,0 0,-1.8 -0.45,0 0,0 z m 0,3.15 0,1.79 0.45,0 0,-1.79 -0.45,0 0,0 z m 0,3.14 0,1.79 0.45,0 0,-1.79 -0.45,0 0,0 z m 0,3.14 0,1.8 0.45,0 0,-1.8 -0.45,0 0,0 z m 0,3.14 0,0.6 0.45,0 0,-0.6 -0.45,0 0,0 z"
       class="st4"
       id="path132"
       style="fill:#000000;stroke:#000000;stroke-width:0.00936162;stroke-linecap:round;stroke-linejoin:round" /><path
       d="m 282.881,31.997 0,1.8 0.45,0.01 0,-1.8 -0.45,-0.01 0,0 z m 0,3.15 -0.01,1.79 0.45,0.01 0.01,-1.8 -0.45,0 0,0 z m -0.01,3.14 -0.01,1.79 0.45,0.01 0.01,-1.79 -0.45,-0.01 0,0 z m -0.02,3.14 -0.01,1.8 0.45,0.01 0.01,-1.8 -0.45,-0.01 0,0 z m -0.01,3.14 -0.01,1.8 0.45,0.01 0.01,-1.8 -0.45,-0.01 0,0 z m -0.02,3.15 -0.01,1.19 0.45,0.01 0.01,-1.2 -0.45,0 0,0 z"
       class="st4"
       id="path137"
       style="fill:#000000;stroke:#000000;stroke-width:0.00936162;stroke-linecap:round;stroke-linejoin:round" /><path
       d="m 354.625,36.337 -60.72,0"
       class="st6"
       id="path151"
       style="stroke:#000000;stroke-width:0.44935799;stroke-linecap:round;stroke-linejoin:round" /><path
       d="m 294.13,36.412 0,8.53"
       class="st6"
       id="path156"
       style="stroke:#000000;stroke-width:0.44935799;stroke-linecap:round;stroke-linejoin:round" /><path
       d="m 196.677,36.412 0,8.53"
       class="st6"
       id="path161"
       style="stroke:#000000;stroke-width:0.44935799;stroke-linecap:round;stroke-linejoin:round" /><path
       d="m 196.676,36.337 -59.97,0"
       class="st6"
       id="path166"
       style="stroke:#000000;stroke-width:0.44935799;stroke-linecap:round;stroke-linejoin:round" /><path
       d="m 294.207,45.092 -97.53,0"
       class="st6"
       id="path171"
       style="stroke:#000000;stroke-width:0.44935799;stroke-linecap:round;stroke-linejoin:round" /><path
       d="m 293.981,36.562 -1.8,0 0,-0.45 1.8,0 0,0.45 0,0 z m -3.15,0 -1.8,0 0,-0.45 1.8,0 0,0.45 0,0 z m -3.15,0 -1.8,0 0,-0.45 1.8,0 0,0.45 0,0 z m -3.15,0 -1.42,0 0,-0.45 1.42,0 0,0.45 0,0 z"
       class="st4"
       id="path176"
       style="fill:#000000;stroke:#000000;stroke-width:0.00936162;stroke-linecap:round;stroke-linejoin:round" /><path
       d="m 286.016,42.403 4.99,0 0,0.45 -4.99,0 0,-0.45 0,0 z m 0.62,2.09 -3.75,-1.87 3.75,-1.87 0,3.74 0,0 z m 3.75,-3.74 3.74,1.87 -3.74,1.87 0,-3.74 0,0 z"
       class="st4"
       id="path181"
       style="fill:#000000;stroke:#000000;stroke-width:0.00936162;stroke-linecap:round;stroke-linejoin:round" /><path
       d="m 136.706,32.372 71.22,0"
       class="st6"
       id="path195"
       style="stroke:#000000;stroke-width:0.44935799;stroke-linecap:round;stroke-linejoin:round" /><path
       d="m 207.922,32.073 0,-8.6"
       class="st6"
       id="path200"
       style="stroke:#000000;stroke-width:0.44935799;stroke-linecap:round;stroke-linejoin:round" /><path
       d="m 283.111,31.923 0,-8.15"
       class="st6"
       id="path205"
       style="stroke:#000000;stroke-width:0.44935799;stroke-linecap:round;stroke-linejoin:round" /><path
       d="m 283.186,31.998 71.89,0"
       class="st6"
       id="path210"
       style="stroke:#000000;stroke-width:0.44935799;stroke-linecap:round;stroke-linejoin:round" /><path
       d="m 204.174,23.618 78.94,0"
       class="st6"
       id="path215"
       style="stroke:#000000;stroke-width:0.44935799;stroke-linecap:round;stroke-linejoin:round" /><path
       d="m 196.902,32.222 0,-1.79 -0.45,0 0,1.79 0.45,0 0,0 z m 0,-3.14 0,-1.8 -0.45,0 0,1.8 0.45,0 0,0 z m 0,-3.14 0,-1.8 -0.45,0 0,1.8 0.45,0 0,0 z m 0,-3.15 0,-1.79 -0.45,0 0,1.79 0.45,0 0,0 z m 0,-3.14 0,-1.79 -0.45,0 0,1.79 0.45,0 0,0 z"
       class="st4"
       id="path220"
       style="fill:#000000;stroke:#000000;stroke-width:0.00936162;stroke-linecap:round;stroke-linejoin:round" /><path
       d="m 196.677,23.392 1.8,0 0,0.45 -1.8,0 0,-0.45 0,0 z m 3.15,0 1.8,0 0,0.45 -1.8,0 0,-0.45 0,0 z m 3.15,0 1.2,0 0,0.45 -1.2,0 0,-0.45 0,0 z"
       class="st4"
       id="path225"
       style="fill:#000000;stroke:#000000;stroke-width:0.00936162;stroke-linecap:round;stroke-linejoin:round" /><path
       d="m 199.807,29.833 4.99,0 0,0.45 -4.99,0 0,-0.45 0,0 z m 0.62,2.09 -3.75,-1.87 3.75,-1.87 0,3.74 0,0 z m 3.75,-3.74 3.74,1.87 -3.74,1.87 0,-3.74 0,0 z"
       class="st4"
       id="path230"
       style="fill:#000000;stroke:#000000;stroke-width:0.00936162;stroke-linecap:round;stroke-linejoin:round" /><path
       d="m 159.42,65.144 0,-1.79 -0.45,0 0,1.79 0.45,0 0,0 z m 0,-3.14 0,-1.8 -0.45,0 0,1.8 0.45,0 0,0 z m 0,-3.14 0,-1.8 -0.45,0 0,1.8 0.45,0 0,0 z"
       class="st5"
       id="path262"
       style="fill:#000000;stroke:#000000;stroke-width:0.00468081;stroke-linecap:round;stroke-linejoin:round" /><path
       d="m 159.195,55.416 1.8,0 0,0.45 -1.8,0 0,-0.45 0,0 z m 3.15,0 1.8,0 0,0.45 -1.8,0 0,-0.45 0,0 z m 3.15,0 1.8,0 0,0.45 -1.8,0 0,-0.45 0,0 z m 3.15,0 1.79,0 0,0.45 -1.79,0 0,-0.45 0,0 z"
       class="st4"
       id="path267"
       style="fill:#000000;stroke:#000000;stroke-width:0.00936162;stroke-linecap:round;stroke-linejoin:round" /><path
       d="m 335.361,65.069 0,-9.35"
       class="st6"
       id="path272"
       style="stroke:#000000;stroke-width:0.44935799;stroke-linecap:round;stroke-linejoin:round" /><path
       d="m 335.211,65.144 21.44,0"
       class="st6"
       id="path277"
       style="stroke:#000000;stroke-width:0.44935799;stroke-linecap:round;stroke-linejoin:round" /><path
       d="m 170.44,64.919 0,-9.13"
       class="st6"
       id="path282"
       style="stroke:#000000;stroke-width:0.44935799;stroke-linecap:round;stroke-linejoin:round" /><path
       d="m 140.454,65.069 29.99,0"
       class="st6"
       id="path287"
       style="stroke:#000000;stroke-width:0.44935799;stroke-linecap:round;stroke-linejoin:round" /><path
       d="m 170.44,55.642 165.07,0"
       class="st6"
       id="path301"
       style="stroke:#000000;stroke-width:0.44935799;stroke-linecap:round;stroke-linejoin:round" /><path
       d="m 162.325,62.605 4.99,0 0,0.45 -4.99,0 0,-0.45 0,0 z m 0.62,2.09 -3.75,-1.87 3.75,-1.87 0,3.74 0,0 z m 3.75,-3.74 3.74,1.87 -3.74,1.87 0,-3.74 0,0 z"
       class="st4"
       id="path306"
       style="fill:#000000;stroke:#000000;stroke-width:0.00936162;stroke-linecap:round;stroke-linejoin:round" /><path
       d="m 159.42,74.2788 0,1.79 -0.45,0 0,-1.79 0.45,0 0,0 z m 0,3.14 0,1.79 -0.45,0 0,-1.79 0.45,0 0,0 z m 0,3.14 0,1.8 -0.45,0 0,-1.8 0.45,0 0,0 z m 0,3.14 0,1.8 -0.45,0 0,-1.8 0.45,0 0,0 z m 0,3.15 0,1.79 -0.45,0 0,-1.79 0.45,0 0,0 z m 0,3.14 0,1.79 -0.45,0 0,-1.79 0.45,0 0,0 z m 0,3.14 0,1.8 -0.45,0 0,-1.8 0.45,0 0,0 z m 0,3.14 0,1.8 -0.45,0 0,-1.8 0.45,0 0,0 z m 0,3.15 0,1.79 -0.45,0 0,-1.79 0.45,0 0,0 z m 0,3.14 0,1.79 -0.45,0 0,-1.79 0.45,0 0,0 z m 0,3.14 0,1.8 -0.45,0 0,-1.8 0.45,0 0,0 z m 0,3.14 0,1.8 -0.45,0 0,-1.8 0.45,0 0,0 z m 0,3.15 0,1.79 -0.45,0 0,-1.79 0.45,0 0,0 z m 0,3.14 0,1.79 -0.45,0 0,-1.79 0.45,0 0,0 z m 0,3.14 0,1.8 -0.45,0 0,-1.8 0.45,0 0,0 z m 0,3.14 0,1.8 -0.45,0 0,-1.8 0.45,0 0,0 z m 0,3.15 0,1.79 -0.45,0 0,-1.79 0.45,0 0,0 z m 0,3.14 0,1.79 -0.45,0 0,-1.79 0.45,0 0,0 z m 0,3.14 0,1.8 -0.45,0 0,-1.8 0.45,0 0,0 z m 0,3.14 0,1.8 -0.45,0 0,-1.8 0.45,0 0,0 z m 0,3.15 0,1.79 -0.45,0 0,-1.79 0.45,0 0,0 z m 0,3.14 0,1.79 -0.45,0 0,-1.79 0.45,0 0,0 z m 0,3.14 0,1.8 -0.45,0 0,-1.8 0.45,0 0,0 z m 0,3.14 0,1.8 -0.45,0 0,-1.8 0.45,0 0,0 z m 0,3.15 0,1.79 -0.45,0 0,-1.79 0.45,0 0,0 z m 0,3.14 0,1.79 -0.45,0 0,-1.79 0.45,0 0,0 z m 0,3.14 0,1.8 -0.45,0 0,-1.8 0.45,0 0,0 z m 0,3.14 0,1.8 -0.45,0 0,-1.8 0.45,0 0,0 z m 0,3.15 0,1.79 -0.45,0 0,-1.79 0.45,0 0,0 z m 0,3.14 0,1.79 -0.45,0 0,-1.79 0.45,0 0,0 z m 0,3.14 0,1.8 -0.45,0 0,-1.8 0.45,0 0,0 z m 0,3.14 0,1.8 -0.45,0 0,-1.8 0.45,0 0,0 z m 0,3.15 0,1.79 -0.45,0 0,-1.79 0.45,0 0,0 z m 0,3.14 0,1.79 -0.45,0 0,-1.79 0.45,0 0,0 z m 0,3.14 0,1.8 -0.45,0 0,-1.8 0.45,0 0,0 z m 0,3.14 0,1.8 -0.45,0 0,-1.8 0.45,0 0,0 z m 0,3.15 0,1.79 -0.45,0 0,-1.79 0.45,0 0,0 z"
       class="st4"
       id="path311"
       style="fill:#000000;stroke:#000000;stroke-width:0.00936162;stroke-linecap:round;stroke-linejoin:round" /><path
       d="m 208.147,34.843 0,1.8 -0.45,0 0,-1.8 0.45,0 0,0 z m 0,3.14 0,1.8 -0.45,0 0,-1.8 0.45,0 0,0 z m 0,3.14 0,1.8 -0.45,0 0,-1.8 0.45,0 0,0 z m 0,3.15 0,1.79 -0.45,0 0,-1.79 0.45,0 0,0 z m 0,3.14 0,1.8 -0.45,0 0,-1.8 0.45,0 0,0 z m 0,3.14 0,1.8 -0.45,0 0,-1.8 0.45,0 0,0 z m 0,3.14 0,1.8 -0.45,0 0,-1.8 0.45,0 0,0 z m 0,3.15 0,1.79 -0.45,0 0,-1.79 0.45,0 0,0 z m 0,3.14 0,1.8 -0.45,0 0,-1.8 0.45,0 0,0 z m 0,3.14 0,1.8 -0.45,0 0,-1.8 0.45,0 0,0 z m 0,3.14 0,1.8 -0.45,0 0,-1.8 0.45,0 0,0 z m 0,3.15 0,1.79 -0.45,0 0,-1.79 0.45,0 0,0 z m 0,3.14 0,1.8 -0.45,0 0,-1.8 0.45,0 0,0 z m 0,3.14 0,1.8 -0.45,0 0,-1.8 0.45,0 0,0 z m 0,3.15 0,1.79 -0.45,0 0,-1.79 0.45,0 0,0 z m 0,3.14 0,1.79 -0.45,0 0,-1.79 0.45,0 0,0 z m 0,3.14 0,1.8 -0.45,0 0,-1.8 0.45,0 0,0 z m 0,3.14 0,1.8 -0.45,0 0,-1.8 0.45,0 0,0 z m 0,3.15 0,1.79 -0.45,0 0,-1.79 0.45,0 0,0 z m 0,3.14 0,1.79 -0.45,0 0,-1.79 0.45,0 0,0 z m 0,3.14 0,1.8 -0.45,0 0,-1.8 0.45,0 0,0 z m 0,3.14 0,1.8 -0.45,0 0,-1.8 0.45,0 0,0 z m 0,3.15 0,1.79 -0.45,0 0,-1.79 0.45,0 0,0 z m 0,3.14 0,1.79 -0.45,0 0,-1.79 0.45,0 0,0 z m 0,3.14 0,1.8 -0.45,0 0,-1.8 0.45,0 0,0 z m 0,3.14 0,1.8 -0.45,0 0,-1.8 0.45,0 0,0 z m 0,3.15 0,1.79 -0.45,0 0,-1.79 0.45,0 0,0 z m 0,3.14 0,1.79 -0.45,0 0,-1.79 0.45,0 0,0 z m 0,3.14 0,1.8 -0.45,0 0,-1.8 0.45,0 0,0 z m 0,3.14 0,1.8 -0.45,0 0,-1.8 0.45,0 0,0 z m 0,3.15 0,1.79 -0.45,0 0,-1.79 0.45,0 0,0 z m 0,3.14 0,1.79 -0.45,0 0,-1.79 0.45,0 0,0 z m 0,3.14 0,1.8 -0.45,0 0,-1.8 0.45,0 0,0 z m 0,3.14 0,1.8 -0.45,0 0,-1.8 0.45,0 0,0 z m 0,3.15 0,1.79 -0.45,0 0,-1.79 0.45,0 0,0 z m 0,3.14 0,1.79 -0.45,0 0,-1.79 0.45,0 0,0 z m 0,3.14 0,1.8 -0.45,0 0,-1.8 0.45,0 0,0 z m 0,3.14 0,0.6 -0.45,0 0,-0.6 0.45,0 0,0 z"
       class="st4"
       id="path316"
       style="fill:#000000;stroke:#000000;stroke-width:0.00936162;stroke-linecap:round;stroke-linejoin:round" /><path
       d="m 223.065,148.9449 0.01,1.8 -0.45,0.01 -0.01,-1.8 0.45,-0.01 0,0 z m 0.02,3.14 0,1.8 -0.45,0.01 0,-1.8 0.45,-0.01 0,0 z m 0.01,3.15 0.01,1.79 -0.45,0.01 -0.01,-1.79 0.45,-0.01 0,0 z m 0.01,3.14 0.01,1.79 -0.45,0.01 -0.01,-1.79 0.45,-0.01 0,0 z m 0.01,3.14 0.01,1.8 -0.45,0.01 -0.01,-1.8 0.45,-0.01 0,0 z m 0.02,3.14 0,1.8 -0.45,0.01 0,-1.8 0.45,-0.01 0,0 z m 0,3.15 0,1.79 -0.45,0.01 0,-1.79 0.45,-0.01 0,0 z m 0.01,3.14 0.01,1.79 -0.45,0.01 -0.01,-1.79 0.45,-0.01 0,0 z m 0.01,3.14 0.01,1.8 -0.45,0.01 -0.01,-1.8 0.45,-0.01 0,0 z m 0.01,3.14 0.01,1.8 -0.45,0.01 -0.01,-1.8 0.45,-0.01 0,0 z m 0.02,3.15 0,1.79 -0.45,0.01 0,-1.79 0.45,-0.01 0,0 z m 0.01,3.14 0,1.79 -0.45,0.01 0,-1.79 0.45,-0.01 0,0 z m 0.01,3.14 0.01,1.8 -0.45,0.01 -0.01,-1.8 0.45,-0.01 0,0 z m 0.01,3.14 0,0.75 -0.45,0.01 0,-0.75 0.45,-0.01 0,0 z"
       class="st4"
       id="path321"
       style="fill:#000000;stroke:#000000;stroke-width:0.00936162;stroke-linecap:round;stroke-linejoin:round" /><path
       d="m 282.806,32.7443 0,1.8 0.45,0 0,-1.8 -0.45,0 0,0 z m 0,3.15 0,1.79 0.45,0 0,-1.79 -0.45,0 0,0 z m 0,3.14 0,1.79 0.45,0 0,-1.79 -0.45,0 0,0 z m 0,3.14 0,1.8 0.45,0 0,-1.8 -0.45,0 0,0 z m 0,3.14 0,1.8 0.45,0 0,-1.8 -0.45,0 0,0 z m 0,3.15 0,1.79 0.45,0 0,-1.79 -0.45,0 0,0 z m 0,3.14 0,1.79 0.45,0 0,-1.79 -0.45,0 0,0 z m 0,3.14 0,1.8 0.45,0 0,-1.8 -0.45,0 0,0 z m 0,3.14 0,1.8 0.45,0 0,-1.8 -0.45,0 0,0 z m 0,3.15 0,1.79 0.45,0 0,-1.79 -0.45,0 0,0 z m 0,3.14 -0.01,1.79 0.45,0 0.01,-1.79 -0.45,0 0,0 z m -0.01,3.14 0,1.8 0.45,0 0,-1.8 -0.45,0 0,0 z m 0,3.14 0,1.8 0.45,0 0,-1.8 -0.45,0 0,0 z m 0,3.15 0,1.79 0.45,0 0,-1.79 -0.45,0 0,0 z m 0,3.14 0,1.79 0.45,0 0,-1.79 -0.45,0 0,0 z m 0,3.14 0,1.8 0.45,0 0,-1.8 -0.45,0 0,0 z m -0.01,3.14 0,1.8 0.45,0 0,-1.8 -0.45,0 0,0 z m 0,3.15 0,1.79 0.45,0 0,-1.79 -0.45,0 0,0 z m 0,3.14 0,1.79 0.45,0 0,-1.79 -0.45,0 0,0 z m 0,3.14 0,1.8 0.45,0 0,-1.8 -0.45,0 0,0 z m 0,3.14 0,1.8 0.45,0 0,-1.8 -0.45,0 0,0 z m 0,3.15 -0.01,1.79 0.45,0 0.01,-1.79 -0.45,0 0,0 z m -0.01,3.14 0,1.79 0.45,0 0,-1.79 -0.45,0 0,0 z m 0,3.14 0,1.8 0.45,0 0,-1.8 -0.45,0 0,0 z m 0,3.14 0,1.8 0.45,0 0,-1.8 -0.45,0 0,0 z m 0,3.15 0,1.79 0.45,0 0,-1.79 -0.45,0 0,0 z m 0,3.14 -0.01,1.79 0.45,0 0.01,-1.79 -0.45,0 0,0 z m -0.01,3.14 0,1.8 0.45,0 0,-1.8 -0.45,0 0,0 z m 0,3.14 0,1.8 0.45,0 0,-1.8 -0.45,0 0,0 z m 0,3.15 0,1.79 0.45,0 0,-1.79 -0.45,0 0,0 z m 0,3.14 0,1.79 0.45,0 0,-1.79 -0.45,0 0,0 z m 0,3.14 0,1.8 0.45,0 0,-1.8 -0.45,0 0,0 z m -0.01,3.14 0,1.8 0.45,0 0,-1.8 -0.45,0 0,0 z m 0,3.15 0,1.79 0.45,0 0,-1.79 -0.45,0 0,0 z m 0,3.14 0,1.79 0.45,0 0,-1.79 -0.45,0 0,0 z m 0,3.14 0,1.8 0.45,0 0,-1.8 -0.45,0 0,0 z m 0,3.14 0,1.8 0.45,0 0,-1.8 -0.45,0 0,0 z m -0.01,3.15 0,1.79 0.45,0 0,-1.79 -0.45,0 0,0 z m 0,3.14 0,1.79 0.45,0 0,-1.79 -0.45,0 0,0 z m 0,3.14 0,1.8 0.45,0 0,-1.8 -0.45,0 0,0 z m 0,3.14 0,1.8 0.45,0 0,-1.8 -0.45,0 0,0 z m 0,3.15 0,1.79 0.45,0 0,-1.79 -0.45,0 0,0 z m 0,3.14 -0.01,1.12 0.45,0 0.01,-1.12 -0.45,0 0,0 z"
       class="st4"
       id="path326"
       style="fill:#000000;stroke:#000000;stroke-width:0.00936162;stroke-linecap:round;stroke-linejoin:round" /><path
       d="m 335.586,66.8618 0.02,1.8 -0.45,0 -0.02,-1.8 0.45,0 0,0 z m 0.02,3.15 0,1.79 -0.45,0 0,-1.79 0.45,0 0,0 z m 0,3.14 0,1.8 -0.45,0 0,-1.8 0.45,0 0,0 z m 0,3.14 0,1.8 -0.45,0 0,-1.8 0.45,0 0,0 z m 0.02,3.14 0,1.8 -0.45,0 0,-1.8 0.45,0 0,0 z m 0,3.15 0,1.79 -0.45,0 0,-1.79 0.45,0 0,0 z m 0,3.14 0,1.8 -0.45,0 0,-1.8 0.45,0 0,0 z m 0,3.14 0,1.8 -0.45,0 0,-1.8 0.45,0 0,0 z m 0.02,3.14 0,1.8 -0.45,0 0,-1.8 0.45,0 0,0 z m 0,3.15 0,1.79 -0.45,0 0,-1.79 0.45,0 0,0 z m 0,3.14 0,1.8 -0.45,0 0,-1.8 0.45,0 0,0 z m 0,3.14 0,1.8 -0.45,0 0,-1.8 0.45,0 0,0 z m 0.01,3.14 0,1.8 -0.45,0 0,-1.8 0.45,0 0,0 z m 0,3.15 0,1.79 -0.45,0 0,-1.79 0.45,0 0,0 z m 0,3.14 0,1.8 -0.45,0 0,-1.8 0.45,0 0,0 z m 0,3.14 0.02,1.8 -0.45,0 -0.02,-1.8 0.45,0 0,0 z m 0.02,3.15 0,1.79 -0.45,0 0,-1.79 0.45,0 0,0 z m 0,3.14 0,1.79 -0.45,0 0,-1.79 0.45,0 0,0 z m 0,3.14 0,1.8 -0.45,0 0,-1.8 0.45,0 0,0 z m 0,3.14 0.02,1.8 -0.45,0 -0.02,-1.8 0.45,0 0,0 z m 0.02,3.15 0,1.79 -0.45,0 0,-1.79 0.45,0 0,0 z m 0,3.14 0,1.79 -0.45,0 0,-1.79 0.45,0 0,0 z m 0,3.14 0,1.8 -0.45,0 0,-1.8 0.45,0 0,0 z m 0,3.14 0.02,1.8 -0.45,0 -0.02,-1.8 0.45,0 0,0 z m 0.02,3.15 0,1.79 -0.45,0 0,-1.79 0.45,0 0,0 z m 0,3.14 0,1.79 -0.45,0 0,-1.79 0.45,0 0,0 z m 0,3.14 0,1.8 -0.45,0 0,-1.8 0.45,0 0,0 z m 0.02,3.14 0,1.8 -0.45,0 0,-1.8 0.45,0 0,0 z m 0,3.15 0,1.79 -0.45,0 0,-1.79 0.45,0 0,0 z m 0,3.14 0,1.79 -0.45,0 0,-1.79 0.45,0 0,0 z m 0,3.14 0,1.57 -0.45,0 0,-1.57 0.45,0 0,0 z"
       class="st7"
       id="path331"
       style="fill:#000000;stroke:#000000;stroke-width:0.0187232;stroke-linecap:round;stroke-linejoin:round" /><path
       d="m 335.136,65.521 0,1.79 0.45,0 0,-1.79 -0.45,0 0,0 z m 0,3.14 0,1.8 0.45,0 0,-1.8 -0.45,0 0,0 z m 0,3.14 0,1.8 0.45,0 0,-1.8 -0.45,0 0,0 z m 0,3.15 0,1.79 0.45,0 0,-1.79 -0.45,0 0,0 z"
       class="st7"
       id="path336"
       style="fill:#000000;stroke:#000000;stroke-width:0.0187232;stroke-linecap:round;stroke-linejoin:round" /><path
       d="m 346.455,68.74 0,8.75"
       class="st6"
       id="path359"
       style="stroke:#000000;stroke-width:0.44935799;stroke-linecap:round;stroke-linejoin:round" /><path
       d="m 159.195,68.66 0,8.68"
       class="st6"
       id="path364"
       style="stroke:#000000;stroke-width:0.44935799;stroke-linecap:round;stroke-linejoin:round" /><path
       d="m 159.044,68.661 -18.59,0"
       class="st6"
       id="path369"
       style="stroke:#000000;stroke-width:0.44935799;stroke-linecap:round;stroke-linejoin:round" /><path
       d="m 356.275,68.661 -9.97,0"
       class="st6"
       id="path374"
       style="stroke:#000000;stroke-width:0.44935799;stroke-linecap:round;stroke-linejoin:round" /><path
       d="m 346.305,77.639 -187.11,-0.07"
       class="st6"
       id="path379"
       style="stroke:#000000;stroke-width:0.44935799;stroke-linecap:round;stroke-linejoin:round" /><path
       d="m 338.491,74.726 5,0 0,0.45 -5,0 0,-0.45 0,0 z m 0.62,2.09 -3.75,-1.87 3.75,-1.87 0,3.74 0,0 z m 3.75,-3.74 3.74,1.87 -3.74,1.87 0,-3.74 0,0 z"
       class="st7"
       id="path384"
       style="fill:#000000;stroke:#000000;stroke-width:0.0187232;stroke-linecap:round;stroke-linejoin:round" /><path
       d="m 335.361,68.435 1.8,0 0,0.45 -1.8,0 0,-0.45 0,0 z m 3.15,0 1.8,0 0,0.45 -1.8,0 0,-0.45 0,0 z m 3.15,0 1.8,0 0,0.45 -1.8,0 0,-0.45 0,0 z m 3.15,0 1.64,0 0,0.45 -1.64,0 0,-0.45 0,0 z"
       class="st7"
       id="path389"
       style="fill:#000000;stroke:#000000;stroke-width:0.0187232;stroke-linecap:round;stroke-linejoin:round" /><path
       d="m 210.602,151.718 8.74,0 0,0.45 -8.74,0 0,-0.45 0,0 z m 0.62,2.09 -3.75,-1.87 3.75,-1.87 0,3.74 0,0 z m 7.49,-3.74 3.75,1.87 -3.75,1.87 0,-3.74 0,0 z"
       class="st4"
       id="path412"
       style="fill:#000000;stroke:#000000;stroke-width:0.00936162;stroke-linecap:round;stroke-linejoin:round" /><path
       d="m 159.195,169.425 c 0.47,-0.36 1.65,-2.45 2.59,-2.22 1.01,0.22 2.65,3.17 3.59,3.53 1.02,0.36 1.63,-0.8 2.26,-1.33 0.63,-0.53 1.1,-1.53 1.57,-1.75 0.47,-0.23 0.85,0.35 1.08,0.44"
       class="st6"
       id="path426"
       style="stroke:#000000;stroke-width:0.44935799;stroke-linecap:round;stroke-linejoin:round" /><path
       d="m 132.958,169.3709 26.24,0"
       class="st6"
       id="path431"
       style="stroke:#000000;stroke-width:0.44935799;stroke-linecap:round;stroke-linejoin:round" /><path
       d="m 170.44,167.9493 c 0.55,-1.17 2.27,-4.54 3.44,-7.06 1.17,-2.52 2.42,-8 3.82,-8.12 1.49,-0.08 3.37,7.03 4.85,7.55 1.56,0.53 3.12,-4.1 4.45,-4.34 1.33,-0.21 2.73,2.76 3.75,3.05 0.93,0.28 1.71,-1.02 2.18,-1.3"
       class="st6"
       id="path436"
       style="stroke:#000000;stroke-width:0.44935799;stroke-linecap:round;stroke-linejoin:round" /><path
       d="m 335.51,157.5536 c 0.79,1.55 2.81,7.37 4.24,9.5 1.4,2.11 2.81,3.29 4.21,3.29 1.41,0 2.72,-3.03 4.13,-3.29 1.4,-0.28 3.52,1.36 4.21,1.65"
       class="st6"
       id="path441"
       style="stroke:#000000;stroke-width:0.44935799;stroke-linecap:round;stroke-linejoin:round" /><path
       d="m 222.165,157.5491 61.02,0"
       class="st6"
       id="path446"
       style="stroke:#000000;stroke-width:0.44935799;stroke-linecap:round;stroke-linejoin:round" /><path
       d="m 308.224,157.4743 26.69,0"
       class="st6"
       id="path451"
       style="stroke:#000000;stroke-width:0.44935799;stroke-linecap:round;stroke-linejoin:round" /><path
       d="m 192.929,157.6987 3.75,0"
       class="st6"
       id="path456"
       style="stroke:#000000;stroke-width:0.44935799;stroke-linecap:round;stroke-linejoin:round" /><path
       d="m 292.256,157.5153 c 0.53,-0.46 1.85,-2.88 2.98,-2.69 1.14,0.19 2.9,3.32 3.94,3.77 1.05,0.45 1.76,-0.77 2.54,-1.14 0.79,-0.33 1.15,-0.92 1.93,-0.85 0.79,0.05 1.84,1.1 2.63,1.24 0.79,0.16 1.67,-0.27 2.1,-0.33"
       class="st6"
       id="path461"
       style="stroke:#000000;stroke-width:0.44935799;stroke-linecap:round;stroke-linejoin:round" /><path
       d="m 282.586,157.5037 c 0.53,-0.3 1.85,-2.05 2.99,-1.86 1.14,0.19 2.99,2.66 4.13,2.95 1.14,0.3 2.12,-0.92 2.55,-1.11"
       class="st6"
       id="path466"
       style="stroke:#000000;stroke-width:0.44935799;stroke-linecap:round;stroke-linejoin:round" /><path
       d="m 206.498,157.5153 c 0.53,-0.46 1.85,-2.88 2.98,-2.69 1.14,0.19 2.9,3.32 3.94,3.77 1.05,0.45 1.76,-0.77 2.54,-1.14 0.79,-0.33 1.15,-0.92 1.93,-0.85 0.79,0.05 1.84,1.1 2.63,1.24 0.79,0.16 1.67,-0.27 2.1,-0.33"
       class="st6"
       id="path471"
       style="stroke:#000000;stroke-width:0.44935799;stroke-linecap:round;stroke-linejoin:round" /><path
       d="m 196.827,157.5037 c 0.53,-0.3 1.85,-2.05 2.99,-1.86 1.14,0.19 2.99,2.66 4.13,2.95 1.14,0.3 2.12,-0.92 2.55,-1.11"
       class="st6"
       id="path476"
       style="stroke:#000000;stroke-width:0.44935799;stroke-linecap:round;stroke-linejoin:round" /><path
       d="m 308.823,191.6679 26.39,0"
       class="st6"
       id="path490"
       style="stroke:#000000;stroke-width:0.44935799;stroke-linecap:round;stroke-linejoin:round" /><path
       d="m 226.213,191.6679 56.37,0"
       class="st6"
       id="path495"
       style="stroke:#000000;stroke-width:0.44935799;stroke-linecap:round;stroke-linejoin:round" /><path
       d="m 129.21,191.8924 29.99,0"
       class="st6"
       id="path500"
       style="stroke:#000000;stroke-width:0.44935799;stroke-linecap:round;stroke-linejoin:round" /><path
       d="m 185.283,191.6679 14.99,0"
       class="st6"
       id="path505"
       style="stroke:#000000;stroke-width:0.44935799;stroke-linecap:round;stroke-linejoin:round" /><path
       d="m 169.315,191.709 c 0.53,-0.46 1.85,-2.88 2.98,-2.69 1.14,0.19 2.9,3.32 3.94,3.77 1.05,0.45 1.76,-0.77 2.54,-1.14 0.79,-0.33 1.15,-0.92 1.93,-0.85 0.79,0.05 1.84,1.1 2.63,1.24 0.79,0.16 1.67,-0.27 2.1,-0.33"
       class="st6"
       id="path510"
       style="stroke:#000000;stroke-width:0.44935799;stroke-linecap:round;stroke-linejoin:round" /><path
       d="m 159.72,191.6974 c 0.52,-0.3 1.84,-2.05 2.97,-1.86 1.13,0.19 2.96,2.66 4.1,2.95 1.14,0.3 2.09,-0.92 2.53,-1.11"
       class="st6"
       id="path515"
       style="stroke:#000000;stroke-width:0.44935799;stroke-linecap:round;stroke-linejoin:round" /><path
       d="m 209.946,191.6341 c 0.53,-0.46 1.85,-2.88 2.98,-2.69 1.14,0.19 2.9,3.32 3.94,3.77 1.05,0.45 1.76,-0.77 2.54,-1.14 0.79,-0.33 1.15,-0.92 1.93,-0.85 0.79,0.05 1.84,1.1 2.63,1.24 0.79,0.16 1.67,-0.27 2.1,-0.33"
       class="st6"
       id="path520"
       style="stroke:#000000;stroke-width:0.44935799;stroke-linecap:round;stroke-linejoin:round" /><path
       d="m 200.275,191.6225 c 0.53,-0.3 1.85,-2.05 2.99,-1.86 1.14,0.19 2.99,2.66 4.13,2.95 1.14,0.3 2.12,-0.92 2.55,-1.11"
       class="st6"
       id="path525"
       style="stroke:#000000;stroke-width:0.44935799;stroke-linecap:round;stroke-linejoin:round" /><path
       d="m 292.556,191.6341 c 0.53,-0.46 1.85,-2.88 2.98,-2.69 1.14,0.19 2.9,3.32 3.94,3.77 1.05,0.45 1.76,-0.77 2.54,-1.14 0.79,-0.33 1.15,-0.92 1.93,-0.85 0.79,0.05 1.84,1.1 2.63,1.24 0.79,0.16 1.67,-0.27 2.1,-0.33"
       class="st6"
       id="path530"
       style="stroke:#000000;stroke-width:0.44935799;stroke-linecap:round;stroke-linejoin:round" /><path
       d="m 282.886,191.6225 c 0.53,-0.3 1.85,-2.05 2.99,-1.86 1.14,0.19 2.99,2.66 4.13,2.95 1.14,0.3 2.12,-0.92 2.55,-1.11"
       class="st6"
       id="path535"
       style="stroke:#000000;stroke-width:0.44935799;stroke-linecap:round;stroke-linejoin:round" /><path
       d="m 345.181,191.6332 c 0.54,-0.45 1.86,-2.88 2.98,-2.68 1.14,0.19 2.9,3.31 3.95,3.76 1.05,0.45 1.75,-0.78 2.53,-1.14 0.79,-0.32 1.15,-0.91 1.93,-0.84 0.79,0.04 1.84,1.09 2.63,1.24 0.79,0.16 1.67,-0.27 2.1,-0.34"
       class="st6"
       id="path540"
       style="stroke:#000000;stroke-width:0.44935799;stroke-linecap:round;stroke-linejoin:round" /><path
       d="m 335.51,191.6335 c 0.54,-0.3 1.86,-2.06 3,-1.87 1.14,0.19 2.98,2.65 4.12,2.95 1.14,0.3 2.12,-0.91 2.55,-1.1"
       class="st6"
       id="path545"
       style="stroke:#000000;stroke-width:0.44935799;stroke-linecap:round;stroke-linejoin:round" /><path
       d="m 372.093,53.173 c 0,-0.93 0.81,-1.72 1.76,-1.72 0.98,0 1.76,0.79 1.76,1.72 0,0.95 -0.78,1.72 -1.76,1.72 -0.95,0 -1.76,-0.77 -1.76,-1.72 z"
       class="st12"
       id="path550"
       style="fill:#ff0000;stroke:none;stroke-width:0.75;stroke-linecap:round;stroke-linejoin:round" /><path
       d="m 372.093,53.173 c 0,-0.93 0.81,-1.72 1.76,-1.72 0.98,0 1.76,0.79 1.76,1.72 0,0.95 -0.78,1.72 -1.76,1.72 -0.95,0 -1.76,-0.77 -1.76,-1.72"
       class="st6"
       id="path555"
       style="stroke:#000000;stroke-width:0.44935799;stroke-linecap:round;stroke-linejoin:round" /><path
       d="m 199.807,21.228 41.65,0 0,0.45 -41.65,0 0,-0.45 0,0 z m 0.62,2.09 -3.75,-1.87 3.75,-1.87 0,3.74 0,0 z m 40.4,-3.74 3.75,1.87 -3.75,1.87 0,-3.74 0,0 z"
       class="st4"
       id="path569"
       style="fill:#000000;stroke:#000000;stroke-width:0.00936162;stroke-linecap:round;stroke-linejoin:round" /><path
       d="m 372.093,39.182 c 0,-0.93 0.81,-1.72 1.76,-1.72 0.98,0 1.76,0.79 1.76,1.72 0,0.95 -0.78,1.72 -1.76,1.72 -0.95,0 -1.76,-0.77 -1.76,-1.72 z"
       class="st15"
       id="path601"
       style="fill:#009900;stroke:none;stroke-width:0.75;stroke-linecap:round;stroke-linejoin:round" /><path
       d="m 372.093,39.182 c 0,-0.93 0.81,-1.72 1.76,-1.72 0.98,0 1.76,0.79 1.76,1.72 0,0.95 -0.78,1.72 -1.76,1.72 -0.95,0 -1.76,-0.77 -1.76,-1.72"
       class="st6"
       id="path606"
       style="stroke:#000000;stroke-width:0.44935799;stroke-linecap:round;stroke-linejoin:round" /><path
       d="m 255.229,18.623 -7.75,2.55 0.15,0.42 7.74,-2.55 -0.14,-0.42 0,0 z m -7.67,0.79 -2.98,2.93 4.15,0.62 -1.17,-3.55 0,0 z"
       class="st4"
       id="path629"
       style="fill:#000000;stroke:#000000;stroke-width:0.00936162;stroke-linecap:round;stroke-linejoin:round" /><path
       d="m 276.064,157.2507 c 0,-0.94 0.8,-1.72 1.76,-1.72 0.98,0 1.76,0.78 1.76,1.72 0,0.95 -0.78,1.72 -1.76,1.72 -0.96,0 -1.76,-0.77 -1.76,-1.72 z"
       class="st12"
       id="path634"
       style="fill:#ff0000;stroke:none;stroke-width:0.75;stroke-linecap:round;stroke-linejoin:round" /><path
       d="m 276.064,157.2507 c 0,-0.94 0.8,-1.72 1.76,-1.72 0.98,0 1.76,0.78 1.76,1.72 0,0.95 -0.78,1.72 -1.76,1.72 -0.96,0 -1.76,-0.77 -1.76,-1.72"
       class="st6"
       id="path639"
       style="stroke:#000000;stroke-width:0.44935799;stroke-linecap:round;stroke-linejoin:round" /><path
       d="m 265.944,157.3255 c 0,-0.94 0.8,-1.72 1.76,-1.72 0.98,0 1.76,0.78 1.76,1.72 0,0.95 -0.78,1.72 -1.76,1.72 -0.96,0 -1.76,-0.77 -1.76,-1.72 z"
       class="st15"
       id="path644"
       style="fill:#009900;stroke:none;stroke-width:0.75;stroke-linecap:round;stroke-linejoin:round" /><path
       d="m 265.944,157.3255 c 0,-0.94 0.8,-1.72 1.76,-1.72 0.98,0 1.76,0.78 1.76,1.72 0,0.95 -0.78,1.72 -1.76,1.72 -0.96,0 -1.76,-0.77 -1.76,-1.72"
       class="st6"
       id="path649"
       style="stroke:#000000;stroke-width:0.44935799;stroke-linecap:round;stroke-linejoin:round" /><path
       d="m 270.723,153.2892 3.94,0 0,0.45 -3.94,0 0,-0.45 0,0 z m 0.62,2.09 -3.75,-1.87 3.75,-1.87 0,3.74 0,0 z m 2.7,-3.74 3.75,1.87 -3.75,1.87 0,-3.74 0,0 z"
       class="st4"
       id="path654"
       style="fill:#000000;stroke:#000000;stroke-width:0.00936162;stroke-linecap:round;stroke-linejoin:round" /><path
       d="m 268.493,152.9849 1.42,-5.91"
       class="st6"
       id="path677"
       style="stroke:#000000;stroke-width:0.44935799;stroke-linecap:round;stroke-linejoin:round" /><path
       d="m 269.917,147.0021 1.42,2.99"
       class="st6"
       id="path682"
       style="stroke:#000000;stroke-width:0.44935799;stroke-linecap:round;stroke-linejoin:round" /><path
       d="m 271.63,150.5158 1.97,-6.09 -0.43,-0.14 -1.96,6.09 0.42,0.14 0,0 z m 3.35,-4.98 -0.64,-4.15 -2.93,3 3.57,1.15 0,0 z"
       class="st4"
       id="path687"
       style="fill:#000000;stroke:#000000;stroke-width:0.00936162;stroke-linecap:round;stroke-linejoin:round" /><path
       d="m 149.825,136.0752 9.45,0"
       class="st6"
       id="path728"
       style="stroke:#000000;stroke-width:0.44935799;stroke-linecap:round;stroke-linejoin:round" /><path
       d="m 168.266,136.0414 c 0.53,-0.46 1.85,-2.88 2.98,-2.69 1.14,0.19 2.9,3.32 3.94,3.77 1.05,0.45 1.76,-0.77 2.54,-1.14 0.79,-0.33 1.15,-0.92 1.93,-0.85 0.79,0.05 1.84,1.1 2.63,1.24 0.79,0.16 1.67,-0.27 2.1,-0.33"
       class="st6"
       id="path733"
       style="stroke:#000000;stroke-width:0.44935799;stroke-linecap:round;stroke-linejoin:round" /><path
       d="m 158.596,136.0298 c 0.53,-0.3 1.85,-2.05 2.99,-1.86 1.14,0.19 2.99,2.66 4.13,2.95 1.14,0.3 2.12,-0.92 2.55,-1.11"
       class="st6"
       id="path738"
       style="stroke:#000000;stroke-width:0.44935799;stroke-linecap:round;stroke-linejoin:round" /><path
       d="m 196.227,136.3537 c 0.47,-0.36 1.65,-2.45 2.59,-2.22 1.01,0.22 2.65,3.17 3.59,3.53 1.02,0.36 1.63,-0.8 2.26,-1.33 0.63,-0.53 1.1,-1.53 1.57,-1.75 0.47,-0.23 0.85,0.35 1.08,0.44"
       class="st6"
       id="path743"
       style="stroke:#000000;stroke-width:0.44935799;stroke-linecap:round;stroke-linejoin:round" /><path
       d="m 184.383,136.2996 12.22,0"
       class="st6"
       id="path748"
       style="stroke:#000000;stroke-width:0.44935799;stroke-linecap:round;stroke-linejoin:round" /><path
       d="m 207.472,134.878 c 0.55,-1.17 2.27,-4.54 3.44,-7.06 1.17,-2.52 2.42,-8 3.82,-8.12 1.49,-0.08 3.37,7.03 4.85,7.55 1.56,0.53 3.12,-4.1 4.45,-4.34 1.33,-0.21 2.73,2.76 3.75,3.05 0.93,0.28 1.71,-1.02 2.18,-1.3"
       class="st6"
       id="path753"
       style="stroke:#000000;stroke-width:0.44935799;stroke-linecap:round;stroke-linejoin:round" /><path
       d="m 229.961,124.627 3.75,0"
       class="st6"
       id="path758"
       style="stroke:#000000;stroke-width:0.44935799;stroke-linecap:round;stroke-linejoin:round" /><path
       d="m 233.11,124.553 49.85,0"
       class="st6"
       id="path763"
       style="stroke:#000000;stroke-width:0.44935799;stroke-linecap:round;stroke-linejoin:round" /><path
       d="m 282.736,123.8837 c 0.79,1.54 2.82,7.37 4.23,9.49 1.4,2.12 2.81,3.3 4.21,3.3 1.41,0 2.73,-3.03 4.14,-3.3 1.4,-0.28 3.51,1.37 4.21,1.66"
       class="st6"
       id="path768"
       style="stroke:#000000;stroke-width:0.44935799;stroke-linecap:round;stroke-linejoin:round" /><path
       d="m 245.854,116.771 1.42,-5.98"
       class="st6"
       id="path791"
       style="stroke:#000000;stroke-width:0.44935799;stroke-linecap:round;stroke-linejoin:round" /><path
       d="m 247.203,110.783 1.5,2.92"
       class="st6"
       id="path796"
       style="stroke:#000000;stroke-width:0.44935799;stroke-linecap:round;stroke-linejoin:round" /><path
       d="m 248.991,114.227 1.91,-6.01 -0.43,-0.13 -1.9,6 0.42,0.14 0,0 z m 3.29,-4.92 -0.66,-4.13 -2.91,3 3.57,1.13 0,0 z"
       class="st4"
       id="path801"
       style="fill:#000000;stroke:#000000;stroke-width:0.00936162;stroke-linecap:round;stroke-linejoin:round" /><path
       d="m 247.559,120.442 3.94,0 0,0.45 -3.94,0 0,-0.45 0,0 z m 0.62,2.09 -3.75,-1.87 3.75,-1.87 0,3.74 0,0 z m 2.7,-3.74 3.75,1.87 -3.75,1.87 0,-3.74 0,0 z"
       class="st4"
       id="path806"
       style="fill:#000000;stroke:#000000;stroke-width:0.00936162;stroke-linecap:round;stroke-linejoin:round" /><path
       d="m 252.825,124.553 c 0,-0.94 0.8,-1.72 1.76,-1.72 0.98,0 1.76,0.78 1.76,1.72 0,0.95 -0.78,1.72 -1.76,1.72 -0.96,0 -1.76,-0.77 -1.76,-1.72 z"
       class="st12"
       id="path811"
       style="fill:#ff0000;stroke:none;stroke-width:0.75;stroke-linecap:round;stroke-linejoin:round" /><path
       d="m 252.825,124.553 c 0,-0.94 0.8,-1.72 1.76,-1.72 0.98,0 1.76,0.78 1.76,1.72 0,0.95 -0.78,1.72 -1.76,1.72 -0.96,0 -1.76,-0.77 -1.76,-1.72"
       class="st6"
       id="path816"
       style="stroke:#000000;stroke-width:0.44935799;stroke-linecap:round;stroke-linejoin:round" /><path
       d="m 242.705,124.668 c 0,-0.93 0.8,-1.69 1.76,-1.69 0.98,0 1.76,0.76 1.76,1.69 0,0.93 -0.78,1.68 -1.76,1.68 -0.96,0 -1.76,-0.75 -1.76,-1.68 z"
       class="st15"
       id="path821"
       style="fill:#009900;stroke:none;stroke-width:0.75;stroke-linecap:round;stroke-linejoin:round" /><path
       d="m 242.705,124.668 c 0,-0.93 0.8,-1.69 1.76,-1.69 0.98,0 1.76,0.76 1.76,1.69 0,0.93 -0.78,1.68 -1.76,1.68 -0.96,0 -1.76,-0.75 -1.76,-1.68"
       class="st6"
       id="path826"
       style="stroke:#000000;stroke-width:0.44935799;stroke-linecap:round;stroke-linejoin:round" /><path
       d="m 265.869,124.628 c 0,-0.94 0.8,-1.72 1.76,-1.72 0.98,0 1.76,0.78 1.76,1.72 0,0.95 -0.78,1.72 -1.76,1.72 -0.96,0 -1.76,-0.77 -1.76,-1.72 z"
       class="st18"
       id="path849"
       style="fill:#ffc000;stroke:none;stroke-width:0.75;stroke-linecap:round;stroke-linejoin:round" /><path
       d="m 265.869,124.628 c 0,-0.94 0.8,-1.72 1.76,-1.72 0.98,0 1.76,0.78 1.76,1.72 0,0.95 -0.78,1.72 -1.76,1.72 -0.96,0 -1.76,-0.77 -1.76,-1.72"
       class="st6"
       id="path854"
       style="stroke:#000000;stroke-width:0.44935799;stroke-linecap:round;stroke-linejoin:round" /><path
       d="m 258.129,120.967 5.97,0 0,-0.45 -5.97,0 0,0.45 0,0 z m 0.62,-2.1 -3.75,1.87 3.75,1.87 0,-3.74 0,0 z m 4.72,3.74 3.75,-1.87 -3.75,-1.87 0,3.74 0,0 z"
       class="st4"
       id="path859"
       style="fill:#000000;stroke:#000000;stroke-width:0.00936162;stroke-linecap:round;stroke-linejoin:round" /><path
       d="m 299.528,134.878 36.28,0"
       class="st6"
       id="path864"
       style="stroke:#000000;stroke-width:0.44935799;stroke-linecap:round;stroke-linejoin:round" /><path
       d="m 356.126,134.878 14.32,0"
       class="st6"
       id="path869"
       style="stroke:#000000;stroke-width:0.44935799;stroke-linecap:round;stroke-linejoin:round" /><path
       d="m 343.382,134.9317 c 0.43,-0.43 1.48,-2.82 2.38,-2.63 0.9,0.18 2.31,3.27 3.13,3.72 0.84,0.43 1.39,-0.77 2.02,-1.12 0.62,-0.34 0.9,-0.92 1.54,-0.85 0.62,0.04 1.46,1.07 2.08,1.22 0.64,0.17 1.33,-0.26 1.67,-0.34"
       class="st6"
       id="path874"
       style="stroke:#000000;stroke-width:0.44935799;stroke-linecap:round;stroke-linejoin:round" /><path
       d="m 335.735,134.9903 c 0.43,-0.3 1.46,-2.06 2.38,-1.87 0.9,0.19 2.36,2.66 3.26,2.96 0.9,0.3 1.67,-0.92 2.01,-1.11"
       class="st6"
       id="path879"
       style="stroke:#000000;stroke-width:0.44935799;stroke-linecap:round;stroke-linejoin:round" /><path
       d="m 382.288,134.8568 c 0.66,-0.43 2.25,-2.82 3.62,-2.63 1.38,0.18 3.52,3.27 4.79,3.72 1.28,0.43 2.12,-0.77 3.08,-1.12 0.95,-0.34 1.39,-0.92 2.34,-0.85 0.96,0.04 2.23,1.07 3.19,1.22 0.95,0.17 2.02,-0.26 2.55,-0.34"
       class="st6"
       id="path884"
       style="stroke:#000000;stroke-width:0.44935799;stroke-linecap:round;stroke-linejoin:round" /><path
       d="m 370.669,134.9185 c 0.64,-0.3 2.23,-2.06 3.6,-1.87 1.37,0.19 3.6,2.65 4.96,2.95 1.37,0.3 2.53,-0.91 3.06,-1.1"
       class="st6"
       id="path889"
       style="stroke:#000000;stroke-width:0.44935799;stroke-linecap:round;stroke-linejoin:round" /><path
       d="m 370.669,105.1706 0.02,1.8 -0.45,0 -0.02,-1.8 0.45,0 0,0 z m 0.02,3.15 0,1.79 -0.45,0 0,-1.79 0.45,0 0,0 z m 0,3.14 0,1.8 -0.45,0 0,-1.8 0.45,0 0,0 z m 0,3.14 0,1.8 -0.45,0 0,-1.8 0.45,0 0,0 z m 0.02,3.14 0,1.8 -0.45,0 0,-1.8 0.45,0 0,0 z m 0,3.15 0,1.79 -0.45,0 0,-1.79 0.45,0 0,0 z m 0,3.14 0,1.8 -0.45,0 0,-1.8 0.45,0 0,0 z m 0,3.14 0,1.8 -0.45,0 0,-1.8 0.45,0 0,0 z m 0.02,3.14 0,1.8 -0.45,0 0,-1.8 0.45,0 0,0 z m 0,3.15 0,1.79 -0.45,0 0,-1.79 0.45,0 0,0 z m 0,3.14 0,1.8 -0.45,0 0,-1.8 0.45,0 0,0 z m 0,3.14 0,1.8 -0.45,0 0,-1.8 0.45,0 0,0 z m 0.01,3.14 0,1.8 -0.45,0 0,-1.8 0.45,0 0,0 z m 0,3.15 0,1.79 -0.45,0 0,-1.79 0.45,0 0,0 z m 0,3.14 0,1.8 -0.45,0 0,-1.8 0.45,0 0,0 z m 0,3.14 0.02,1.8 -0.45,0 -0.02,-1.8 0.45,0 0,0 z m 0.02,3.15 0,1.79 -0.45,0 0,-1.79 0.45,0 0,0 z m 0,3.14 0,1.79 -0.45,0 0,-1.79 0.45,0 0,0 z m 0,3.14 0,1.8 -0.45,0 0,-1.8 0.45,0 0,0 z m 0,3.14 0.02,1.8 -0.45,0 -0.02,-1.8 0.45,0 0,0 z m 0.02,3.15 0,1.79 -0.45,0 0,-1.79 0.45,0 0,0 z m 0,3.14 0,1.79 -0.45,0 0,-1.79 0.45,0 0,0 z m 0,3.14 0,1.8 -0.45,0 0,-1.8 0.45,0 0,0 z m 0,3.14 0.02,1.8 -0.45,0 -0.02,-1.8 0.45,0 0,0 z m 0.02,3.15 0,1.79 -0.45,0 0,-1.79 0.45,0 0,0 z m 0,3.14 0,1.79 -0.45,0 0,-1.79 0.45,0 0,0 z m 0,3.14 0,1.8 -0.45,0 0,-1.8 0.45,0 0,0 z m 0.02,3.14 0,1.8 -0.45,0 0,-1.8 0.45,0 0,0 z m 0,3.15 0,1.79 -0.45,0 0,-1.79 0.45,0 0,0 z m 0,3.14 0,1.79 -0.45,0 0,-1.79 0.45,0 0,0 z m 0,3.14 0,1.57 -0.45,0 0,-1.57 0.45,0 0,0 z"
       class="st7"
       id="path894"
       style="fill:#000000;stroke:#000000;stroke-width:0.0187232;stroke-linecap:round;stroke-linejoin:round" /><path
       d="m 162.925,52.504 78.53,0 0,0.45 -78.53,0 0,-0.45 0,0 z m 0.62,2.09 -3.75,-1.87 3.75,-1.87 0,3.74 0,0 z m 77.29,-3.74 3.74,1.87 -3.74,1.87 0,-3.74 0,0 z"
       class="st4"
       id="path908"
       style="fill:#000000;stroke:#000000;stroke-width:0.00936162;stroke-linecap:round;stroke-linejoin:round" /><path
       d="m 159.495,59.757 0,-1.79 -0.45,0 0,1.79 0.45,0 0,0 z m 0,-3.14 0,-1.8 -0.45,0 0,1.8 0.45,0 0,0 z m 0,-3.14 0,-1.8 -0.45,0 0,1.8 0.45,0 0,0 z m 0,-3.15 0,-1.64 -0.45,0 0,1.64 0.45,0 0,0 z"
       class="st5"
       id="path913"
       style="fill:#000000;stroke:#000000;stroke-width:0.00468081;stroke-linecap:round;stroke-linejoin:round" /><path
       d="m 115.173,82.882 125.76,0 0,0.45 -125.76,0 0,-0.45 0,0 z m 0.62,2.09 -3.75,-1.87 3.75,-1.87 0,3.74 0,0 z m 124.51,-3.74 3.75,1.87 -3.75,1.87 0,-3.74 0,0 z"
       class="st4"
       id="path945"
       style="fill:#000000;stroke:#000000;stroke-width:0.00936162;stroke-linecap:round;stroke-linejoin:round" /><path
       d="m 112.793,91.556 0,-1.79 -0.45,0 0,1.79 0.45,0 0,0 z m 0,-3.14 0,-1.8 -0.45,0 0,1.8 0.45,0 0,0 z m 0,-3.14 0,-1.8 -0.45,0 0,1.8 0.45,0 0,0 z m 0,-3.15 0,-1.64 -0.45,0 0,1.64 0.45,0 0,0 z"
       class="st5"
       id="path950"
       style="fill:#000000;stroke:#000000;stroke-width:0.00468081;stroke-linecap:round;stroke-linejoin:round" /><path
       d="m 372.093,69.41 c 0,-0.93 0.81,-1.72 1.76,-1.72 0.98,0 1.76,0.79 1.76,1.72 0,0.95 -0.78,1.72 -1.76,1.72 -0.95,0 -1.76,-0.77 -1.76,-1.72 z"
       class="st18"
       id="path982"
       style="fill:#ffc000;stroke:none;stroke-width:0.75;stroke-linecap:round;stroke-linejoin:round" /><path
       d="m 372.093,69.41 c 0,-0.93 0.81,-1.72 1.76,-1.72 0.98,0 1.76,0.79 1.76,1.72 0,0.95 -0.78,1.72 -1.76,1.72 -0.95,0 -1.76,-0.77 -1.76,-1.72"
       class="st6"
       id="path987"
       style="stroke:#000000;stroke-width:0.44935799;stroke-linecap:round;stroke-linejoin:round" /><path
       d="m 222.915,165.8511 0,5.54 59.67,0 0,-5.54 -59.67,0 0,0 z"
       class="st19"
       id="path1001"
       style="fill:#3399ff;stroke:none;stroke-width:0.75;stroke-linecap:round;stroke-linejoin:round" /><path
       d="m 222.915,165.8511 59.67,0 0,5.54 -59.67,0 0,-5.54"
       class="st20"
       id="path1006"
       style="stroke:#080808;stroke-width:0.44935799;stroke-linecap:round;stroke-linejoin:round" /><g
       id="g5947"><text
         style="font-style:normal;font-variant:normal;font-weight:normal;font-stretch:normal;font-size:7.99996805px;font-family:Arial;-inkscape-font-specification:Arial;fill:#000000"
         id="text146"
         v:langID="1033"
         class="st9"
         y="45.23"
         x="31.1996"><v:paragraph /><v:tabList />High side phase A</text>
<text
         style="font-style:normal;font-variant:normal;font-weight:normal;font-stretch:normal;font-size:4.33959579px;font-family:Arial;-inkscape-font-specification:Arial;fill:#000000"
         id="text190"
         v:langID="1033"
         class="st10"
         y="40.970001"
         x="286.75"><v:paragraph
   v:horizAlign="1" /><v:tabList />DT</text>
<text
         style="font-style:normal;font-variant:normal;font-weight:normal;font-stretch:normal;font-size:4.33959579px;font-family:Arial;-inkscape-font-specification:Arial;fill:#000000"
         id="text239"
         v:langID="1033"
         class="st10"
         y="28.032001"
         x="200.93201"><v:paragraph
   v:horizAlign="1" /><v:tabList />DT</text>
<text
         style="font-style:normal;font-variant:normal;font-weight:normal;font-stretch:normal;font-size:7.99996805px;font-family:Arial;-inkscape-font-specification:Arial;fill:#000000"
         id="text248"
         v:langID="1033"
         class="st9"
         y="29.953999"
         x="31.1996"><v:paragraph /><v:tabList />Low side phase A</text>
<text
         style="font-style:normal;font-variant:normal;font-weight:normal;font-stretch:normal;font-size:7.99996805px;font-family:Arial;-inkscape-font-specification:Arial;fill:#000000"
         id="text257"
         v:langID="1033"
         class="st9"
         y="64.032997"
         x="31.1996"><v:paragraph /><v:tabList />Low side phase B</text>
<text
         style="font-style:normal;font-variant:normal;font-weight:normal;font-stretch:normal;font-size:4.33959579px;font-family:Arial;-inkscape-font-specification:Arial;fill:#000000"
         id="text296"
         v:langID="1033"
         class="st10"
         y="60.474003"
         x="163.29401"><v:paragraph
   v:horizAlign="1" /><v:tabList />DT</text>
<text
         style="font-style:normal;font-variant:normal;font-weight:normal;font-stretch:normal;font-size:4.33959579px;font-family:Arial;-inkscape-font-specification:Arial;fill:#000000"
         id="text345"
         v:langID="1033"
         class="st10"
         y="73.256004"
         x="339.45901"><v:paragraph
   v:horizAlign="1" /><v:tabList />DT</text>
<text
         style="font-style:normal;font-variant:normal;font-weight:normal;font-stretch:normal;font-size:7.99996805px;font-family:Arial;-inkscape-font-specification:Arial;fill:#000000"
         id="text354"
         v:langID="1033"
         class="st9"
         y="75.723999"
         x="31.1996"><v:paragraph /><v:tabList />High side phase B</text>
<text
         style="font-style:normal;font-variant:normal;font-weight:normal;font-stretch:normal;font-size:4.33959579px;font-family:Arial;-inkscape-font-specification:Arial;fill:#000000"
         id="text398"
         v:langID="1033"
         class="st10"
         y="151.10471"
         x="212.959"><v:paragraph
   v:horizAlign="1" /><v:tabList />T</text>
<text
         style="font-style:normal;font-variant:normal;font-weight:normal;font-stretch:normal;font-size:2.91796803px;font-family:Arial;-inkscape-font-specification:Arial;fill:#000000"
         id="text407"
         v:langID="1033"
         class="st11"
         y="152.07089"
         x="215.397"><v:paragraph
   v:horizAlign="1" /><v:tabList />N</text>
<text
         style="font-style:normal;font-variant:normal;font-weight:normal;font-stretch:normal;font-size:7.99996805px;font-family:Arial;-inkscape-font-specification:Arial;fill:#000000"
         id="text421"
         v:langID="1033"
         class="st9"
         y="171.1232"
         x="31.1996"><v:paragraph /><v:tabList />Current feedback phase B  </text>
<text
         style="font-style:normal;font-variant:normal;font-weight:normal;font-stretch:normal;font-size:7.99996805px;font-family:Arial;-inkscape-font-specification:Arial;fill:#000000"
         id="text485"
         v:langID="1033"
         class="st9"
         y="193.7038"
         x="31.1996"><v:paragraph /><v:tabList />Current feedback phase C</text>
<text
         style="font-style:normal;font-variant:normal;font-weight:normal;font-stretch:normal;font-size:7.99996805px;font-family:Arial;-inkscape-font-specification:Arial;fill:#000000"
         id="text564"
         v:langID="1033"
         class="st9"
         y="57.161999"
         x="381.61899"><v:paragraph /><v:tabList />Sampling end</text>
<text
         style="font-style:normal;font-variant:normal;font-weight:normal;font-stretch:normal;font-size:5.61153603px;font-family:Arial;-inkscape-font-specification:Arial;fill:#000000"
         id="text578"
         v:langID="1033"
         class="st13"
         y="17.454996"
         x="217.69299"><v:paragraph
   v:horizAlign="1" /><v:tabList /></text>
<text
         style="font-style:normal;font-variant:normal;font-weight:normal;font-stretch:normal;font-size:5.61153603px;font-family:Arial;-inkscape-font-specification:Arial;fill:#000000"
         id="text587"
         v:langID="1033"
         class="st13"
         y="17.454996"
         x="222.021"><v:paragraph
   v:horizAlign="1" /><v:tabList />Duty</text>
<text
         style="font-style:normal;font-variant:normal;font-weight:normal;font-stretch:normal;font-size:3.7411201px;font-family:Arial;-inkscape-font-specification:Arial;fill:#000000"
         id="text596"
         v:langID="1033"
         class="st14"
         y="18.650993"
         x="232.59599"><v:paragraph
   v:horizAlign="1" /><v:tabList />A</text>
<text
         style="font-style:normal;font-variant:normal;font-weight:normal;font-stretch:normal;font-size:7.99996805px;font-family:Arial;-inkscape-font-specification:Arial;fill:#000000"
         id="text615"
         v:langID="1033"
         class="st9"
         y="42.820999"
         x="381.61899"><v:paragraph /><v:tabList />Sampling start</text>
<text
         style="font-style:normal;font-variant:normal;font-weight:normal;font-stretch:normal;font-size:5.99990416px;font-family:Arial;-inkscape-font-specification:Arial;fill:#000000"
         id="text624"
         v:langID="1033"
         class="st2"
         y="15.933997"
         x="257.78201"><v:paragraph
   v:horizAlign="1" /><v:tabList />Counter overflow</text>
<text
         style="font-style:normal;font-variant:normal;font-weight:normal;font-stretch:normal;font-size:5.01306009px;font-family:Arial;-inkscape-font-specification:Arial;fill:#000000"
         id="text663"
         v:langID="1033"
         class="st16"
         y="152.8813"
         x="261.60599"><v:paragraph
   v:horizAlign="1" /><v:tabList />T</text>
<text
         style="font-style:normal;font-variant:normal;font-weight:normal;font-stretch:normal;font-size:3.29205608px;font-family:Arial;-inkscape-font-specification:Arial;fill:#000000"
         id="text672"
         v:langID="1033"
         class="st17"
         y="153.92259"
         x="264.33899"><v:paragraph
   v:horizAlign="1" /><v:tabList />S</text>
<text
         style="font-style:normal;font-variant:normal;font-weight:normal;font-stretch:normal;font-size:7.99996805px;font-family:Arial;-inkscape-font-specification:Arial;fill:#000000"
         id="text696"
         v:langID="1033"
         class="st9"
         y="91.18"
         x="31.1996"><v:paragraph /><v:tabList />Low side phase C</text>
<text
         style="font-style:normal;font-variant:normal;font-weight:normal;font-stretch:normal;font-size:7.99996805px;font-family:Arial;-inkscape-font-specification:Arial;fill:#000000"
         id="text705"
         v:langID="1033"
         class="st9"
         y="102.921"
         x="31.1996"><v:paragraph /><v:tabList />High side phase C</text>
<text
         style="font-style:normal;font-variant:normal;font-weight:normal;font-stretch:normal;font-size:4.33959579px;font-family:Arial;-inkscape-font-specification:Arial;fill:#000000"
         id="text714"
         v:langID="1033"
         class="st10"
         y="93.289001"
         x="119.421"><v:paragraph
   v:horizAlign="1" /><v:tabList />DT</text>
<text
         style="font-style:normal;font-variant:normal;font-weight:normal;font-stretch:normal;font-size:4.33959579px;font-family:Arial;-inkscape-font-specification:Arial;fill:#000000"
         id="text723"
         v:langID="1033"
         class="st10"
         y="106.491"
         x="376.647"><v:paragraph
   v:horizAlign="1" /><v:tabList />DT</text>
<text
         style="font-style:normal;font-variant:normal;font-weight:normal;font-stretch:normal;font-size:5.01306009px;font-family:Arial;-inkscape-font-specification:Arial;fill:#000000"
         id="text777"
         v:langID="1033"
         class="st16"
         y="121.18201"
         x="239.095"><v:paragraph
   v:horizAlign="1" /><v:tabList />T</text>
<text
         style="font-style:normal;font-variant:normal;font-weight:normal;font-stretch:normal;font-size:3.29205608px;font-family:Arial;-inkscape-font-specification:Arial;fill:#000000"
         id="text786"
         v:langID="1033"
         class="st17"
         y="122.223"
         x="241.82899"><v:paragraph
   v:horizAlign="1" /><v:tabList />S</text>
<text
         style="font-style:normal;font-variant:normal;font-weight:normal;font-stretch:normal;font-size:5.01306009px;font-family:Arial;-inkscape-font-specification:Arial;fill:#000000"
         id="text835"
         v:langID="1033"
         class="st16"
         y="118.72"
         x="259.39401"><v:paragraph
   v:horizAlign="1" /><v:tabList />T</text>
<text
         style="font-style:normal;font-variant:normal;font-weight:normal;font-stretch:normal;font-size:3.29205608px;font-family:Arial;-inkscape-font-specification:Arial;fill:#000000"
         id="text844"
         v:langID="1033"
         class="st17"
         y="119.761"
         x="262.14801"><v:paragraph
   v:horizAlign="1" /><v:tabList />C</text>
<text
         style="font-style:normal;font-variant:normal;font-weight:normal;font-stretch:normal;font-size:7.99996805px;font-family:Arial;-inkscape-font-specification:Arial;fill:#000000"
         id="text903"
         v:langID="1033"
         class="st9"
         y="138.2742"
         x="31.1996"><v:paragraph /><v:tabList />Current feedback phase A  </text>
<text
         style="font-style:normal;font-variant:normal;font-weight:normal;font-stretch:normal;font-size:5.61153603px;font-family:Arial;-inkscape-font-specification:Arial;fill:#000000"
         id="text922"
         v:langID="1033"
         class="st13"
         y="49.424995"
         x="176.22"><v:paragraph
   v:horizAlign="1" /><v:tabList /></text>
<text
         style="font-style:normal;font-variant:normal;font-weight:normal;font-stretch:normal;font-size:5.61153603px;font-family:Arial;-inkscape-font-specification:Arial;fill:#000000"
         id="text931"
         v:langID="1033"
         class="st13"
         y="49.424995"
         x="180.548"><v:paragraph
   v:horizAlign="1" /><v:tabList />Duty</text>
<text
         style="font-style:normal;font-variant:normal;font-weight:normal;font-stretch:normal;font-size:3.7411201px;font-family:Arial;-inkscape-font-specification:Arial;fill:#000000"
         id="text940"
         v:langID="1033"
         class="st14"
         y="50.620995"
         x="191.123"><v:paragraph
   v:horizAlign="1" /><v:tabList />B</text>
<text
         style="font-style:normal;font-variant:normal;font-weight:normal;font-stretch:normal;font-size:5.61153603px;font-family:Arial;-inkscape-font-specification:Arial;fill:#000000"
         id="text959"
         v:langID="1033"
         class="st13"
         y="80.413994"
         x="137.63499"><v:paragraph
   v:horizAlign="1" /><v:tabList /></text>
<text
         style="font-style:normal;font-variant:normal;font-weight:normal;font-stretch:normal;font-size:5.61153603px;font-family:Arial;-inkscape-font-specification:Arial;fill:#000000"
         id="text968"
         v:langID="1033"
         class="st13"
         y="80.413994"
         x="141.963"><v:paragraph
   v:horizAlign="1" /><v:tabList />Duty</text>
<text
         style="font-style:normal;font-variant:normal;font-weight:normal;font-stretch:normal;font-size:3.7411201px;font-family:Arial;-inkscape-font-specification:Arial;fill:#000000"
         id="text977"
         v:langID="1033"
         class="st14"
         y="81.609993"
         x="152.547"><v:paragraph
   v:horizAlign="1" /><v:tabList />C</text>
<text
         style="font-style:normal;font-variant:normal;font-weight:normal;font-stretch:normal;font-size:7.99996805px;font-family:Arial;-inkscape-font-specification:Arial;fill:#000000"
         id="text996"
         v:langID="1033"
         class="st9"
         y="73.425995"
         x="381.61899"><v:paragraph /><v:tabList />Conversion end</text>
<text
         style="font-style:normal;font-variant:normal;font-weight:normal;font-stretch:normal;font-size:5.61153603px;font-family:Arial;-inkscape-font-specification:Arial;fill:#000000"
         id="text1015"
         v:langID="1033"
         class="st13"
         y="181.2428"
         x="232.968"><v:paragraph
   v:horizAlign="1" /><v:tabList />Space Available for sequence Sampling</text>
</g></g></svg>