<?xml version="1.0" encoding="UTF-8" standalone="no"?>
<svg
   xmlns:v="http://schemas.microsoft.com/visio/2003/SVGExtensions/"
   xmlns:dc="http://purl.org/dc/elements/1.1/"
   xmlns:cc="http://creativecommons.org/ns#"
   xmlns:rdf="http://www.w3.org/1999/02/22-rdf-syntax-ns#"
   xmlns:svg="http://www.w3.org/2000/svg"
   xmlns="http://www.w3.org/2000/svg"
   style="font-size:12px;overflow:visible;color-interpolation-filters:sRGB;fill:none;fill-rule:evenodd;stroke-linecap:square;stroke-miterlimit:3"
   version="1.1"
   id="svg2"
   class="st21"
   xml:space="preserve"
   viewBox="0 0 431.99991 161.99971"
   height="2.25in"
   width="6in"><metadata
     id="metadata713"><rdf:RDF><cc:Work
         rdf:about=""><dc:format>image/svg+xml</dc:format><dc:type
           rdf:resource="http://purl.org/dc/dcmitype/StillImage" /><dc:title></dc:title></cc:Work></rdf:RDF></metadata><defs
     id="defs711" /><v:documentProperties
     v:viewMarkup="false"
     v:langID="1033"><v:userDefs><v:ud
         v:val="VT0(1):26"
         v:nameU="msvNoAutoConnect" /><v:ud
         v:nameU="msvConvertTheme" /></v:userDefs></v:documentProperties><style
     id="style4"
     type="text/css"><![CDATA[
		.st1 {fill:none;stroke:none;stroke-linecap:butt;stroke-width:0.75}
		.st2 {fill:#000000;font-family:Arial;font-size:0.499992em}
		.st3 {fill:none;stroke:#ffffff;stroke-linecap:round;stroke-linejoin:round;stroke-width:0.25}
		.st4 {stroke:none;stroke-linecap:round;stroke-linejoin:round;stroke-width:0.75}
		.st5 {fill:#000000;font-family:Arial;font-size:0.666664em}
		.st6 {baseline-shift:-32.4939%;font-size:0.649878em}
		.st7 {font-size:1em}
		.st8 {stroke:#000000;stroke-linecap:round;stroke-linejoin:round;stroke-width:0.501128}
		.st9 {fill:#000000;stroke:#000000;stroke-linecap:round;stroke-linejoin:round;stroke-width:0.0104402}
		.st10 {fill:#000000;font-family:Arial;font-size:0.458336em}
		.st11 {fill:#000000;font-family:Arial;font-size:0.666664em;font-weight:bold}
		.st12 {fill:#000000;stroke:#000000;stroke-linecap:round;stroke-linejoin:round;stroke-width:0.00522008}
		.st13 {fill:#000000;stroke:#000000;stroke-linecap:round;stroke-linejoin:round;stroke-width:0.0208803}
		.st14 {fill:#ff0000;stroke:none;stroke-linecap:round;stroke-linejoin:round;stroke-width:0.75}
		.st15 {fill:#009900;stroke:none;stroke-linecap:round;stroke-linejoin:round;stroke-width:0.75}
		.st16 {fill:#ffc000;stroke:none;stroke-linecap:round;stroke-linejoin:round;stroke-width:0.75}
		.st17 {fill:#3399ff;stroke:none;stroke-linecap:round;stroke-linejoin:round;stroke-width:0.75}
		.st18 {stroke:#080808;stroke-linecap:round;stroke-linejoin:round;stroke-width:0.501128}
		.st19 {fill:#c55a11;stroke:none;stroke-linecap:round;stroke-linejoin:round;stroke-width:0.75}
		.st20 {baseline-shift:-32.4949%;font-size:0.649897em}
		.st21 {fill:none;fill-rule:evenodd;font-size:12px;overflow:visible;stroke-linecap:square;stroke-miterlimit:3}
	]]></style><g
     transform="translate(-4.7999991,-7.8523236)"
     id="g5405"><text
       x="160.642"
       y="16.576006"
       class="st5"
       v:langID="1033"
       id="text36"
       style="font-style:normal;font-variant:normal;font-weight:normal;font-stretch:normal;font-size:7.99996805px;font-family:Arial;-inkscape-font-specification:Arial;fill:#000000"><v:paragraph
   v:horizAlign="1" /><v:tabList />ΔDuty<tspan
   dy="0"
   class="st6"
   v:baseFontSize="8"
   id="tspan38"
   style="font-style:normal;font-variant:normal;font-weight:normal;font-stretch:normal;font-size:5.19900322px;font-family:Arial;-inkscape-font-specification:Arial;baseline-shift:-32.49390125%">AB</tspan></text>
<text
       x="193.07028"
       y="155.9509"
       class="st5"
       v:langID="1033"
       id="text47"
       style="font-style:normal;font-variant:normal;font-weight:normal;font-stretch:normal;font-size:7.99999857px;line-height:125%;font-family:Arial;-inkscape-font-specification:'Arial, Normal';text-align:center;writing-mode:lr-tb;text-anchor:middle;fill:#000000"><v:paragraph
         v:horizAlign="1" /><v:tabList /><tspan
         id="tspan5401"
         x="193.07028"
         y="155.9509">Space Available for</tspan><tspan
         id="tspan5403"
         x="193.07028"
         y="165.9509">sequence Sampling</tspan></text>
<path
       d="m 177.614,92.1884 45.14,0"
       class="st8"
       id="path54"
       style="stroke:#000000;stroke-width:0.50112802;stroke-linecap:round;stroke-linejoin:round" /><path
       d="m 182.043,62.1529 0,2 -0.5,0 0,-2 0.5,0 0,0 z m 0,3.5 0,2.01 -0.5,0 0,-2.01 0.5,0 0,0 z m 0,3.51 0,2 -0.5,0 0,-2 0.5,0 0,0 z m 0,3.5 0,2 -0.5,0 0,-2 0.5,0 0,0 z m 0,3.51 0,2 -0.5,0 0,-2 0.5,0 0,0 z m 0,3.5 0,2 -0.5,0 0,-2 0.5,0 0,0 z m 0,3.51 0,2 -0.5,0 0,-2 0.5,0 0,0 z m 0,3.5 0,2 -0.5,0 0,-2 0.5,0 0,0 z m 0,3.5 0,2.01 -0.5,0 0,-2.01 0.5,0 0,0 z m 0,3.51 0,2 -0.5,0 0,-2 0.5,0 0,0 z"
       class="st9"
       id="path59"
       style="fill:#000000;stroke:#000000;stroke-width:0.0104402;stroke-linecap:round;stroke-linejoin:round" /><path
       d="m 246.999,34.528 0,2.01 0.51,0.01 0,-2.01 -0.51,-0.01 0,0 z m -0.01,3.51 -0.01,2 0.5,0.01 0.01,-2 -0.5,-0.01 0,0 z m -0.01,3.5 -0.01,2.01 0.5,0.01 0.01,-2.01 -0.5,-0.01 0,0 z m -0.02,3.51 -0.01,2 0.5,0.01 0.01,-2 -0.5,-0.01 0,0 z m -0.01,3.5 -0.01,2 0.5,0.01 0.01,-2 -0.5,-0.01 0,0 z m -0.02,3.51 -0.01,1.33 0.5,0.01 0.01,-1.33 -0.5,-0.01 0,0 z"
       class="st9"
       id="path64"
       style="fill:#000000;stroke:#000000;stroke-width:0.0104402;stroke-linecap:round;stroke-linejoin:round" /><text
       x="249.701"
       y="44.720001"
       class="st10"
       v:langID="1033"
       id="text73"
       style="font-style:normal;font-variant:normal;font-weight:normal;font-stretch:normal;font-size:5.50003195px;font-family:Arial;-inkscape-font-specification:Arial;fill:#000000"><v:paragraph
   v:horizAlign="1" /><v:tabList />DT</text>
<path
       d="m 200.602,83.1786 0,2 -0.5,0 0,-2 0.5,0 0,0 z m 0,3.5 0,2.01 -0.5,0 0,-2.01 0.5,0 0,0 z m 0,3.51 0,2 -0.5,0 0,-2 0.5,0 0,0 z m 0,3.5 0,2.01 -0.5,0 0,-2.01 0.5,0 0,0 z m 0,3.51 0,2 -0.5,0 0,-2 0.5,0 0,0 z m 0,3.5 0,2.01 -0.5,0 0,-2.01 0.5,0 0,0 z m 0,3.51 0,2 -0.5,0 0,-2 0.5,0 0,0 z m 0,3.5 0,2 -0.5,0 0,-2 0.5,0 0,0 z m 0,3.51 0,2 -0.5,0 0,-2 0.5,0 0,0 z m 0,3.5 0,2 -0.5,0 0,-2 0.5,0 0,0 z m 0,3.51 0,2 -0.5,0 0,-2 0.5,0 0,0 z m 0,3.5 0,2 -0.5,0 0,-2 0.5,0 0,0 z m 0,3.5 0,2.01 -0.5,0 0,-2.01 0.5,0 0,0 z m 0,3.51 0,2 -0.5,0 0,-2 0.5,0 0,0 z"
       class="st9"
       id="path78"
       style="fill:#000000;stroke:#000000;stroke-width:0.0104402;stroke-linecap:round;stroke-linejoin:round" /><text
       x="339.30801"
       y="74.272003"
       class="st10"
       v:langID="1033"
       id="text87"
       style="font-style:normal;font-variant:normal;font-weight:normal;font-stretch:normal;font-size:5.50003195px;font-family:Arial;-inkscape-font-specification:Arial;fill:#000000"><v:paragraph
   v:horizAlign="1" /><v:tabList />DT</text>
<path
       d="m 209.462,34.8642 0,2 0.51,0.01 0,-2 -0.51,-0.01 0,0 z m -0.01,3.51 0,2 0.51,0.01 0,-2 -0.51,-0.01 0,0 z m -0.01,3.5 0,2 0.5,0.01 0,-2 -0.5,-0.01 0,0 z m -0.01,3.51 0,2 0.5,0.01 0,-2 -0.5,-0.01 0,0 z m -0.01,3.5 -0.01,2 0.5,0.01 0.01,-2 -0.5,-0.01 0,0 z m -0.01,3.5 -0.01,2.01 0.5,0.01 0.01,-2.01 -0.5,-0.01 0,0 z m -0.01,3.51 -0.01,2 0.5,0.01 0.01,-2 -0.5,-0.01 0,0 z m -0.01,3.5 -0.01,2.01 0.5,0.01 0.01,-2.01 -0.5,-0.01 0,0 z m -0.01,3.51 -0.01,2 0.5,0.01 0.01,-2 -0.5,-0.01 0,0 z m -0.01,3.5 -0.01,2.01 0.5,0.01 0.01,-2.01 -0.5,-0.01 0,0 z m -0.02,3.51 0,2 0.5,0.01 0,-2 -0.5,-0.01 0,0 z m -0.01,3.5 0,2 0.5,0.01 0,-2 -0.5,-0.01 0,0 z m -0.01,3.51 0,2 0.5,0.01 0,-2 -0.5,-0.01 0,0 z m -0.01,3.5 -0.01,2 0.5,0.01 0.01,-2 -0.5,-0.01 0,0 z m -0.01,3.51 -0.01,2 0.5,0.01 0.01,-2 -0.5,-0.01 0,0 z m -0.01,3.5 -0.01,2 0.5,0.01 0.01,-2 -0.5,-0.01 0,0 z m -0.01,3.5 -0.01,2.01 0.5,0.01 0.01,-2.01 -0.5,-0.01 0,0 z m -0.01,3.51 -0.01,2 0.5,0.01 0.01,-2 -0.5,-0.01 0,0 z m -0.01,3.5 -0.02,2.01 0.51,0.01 0.01,-2.01 -0.5,-0.01 0,0 z m -0.03,3.51 0,2 0.51,0.01 0,-2 -0.51,-0.01 0,0 z m -0.01,3.5 0,2.01 0.51,0.01 0,-2.01 -0.51,-0.01 0,0 z m -0.01,3.51 0,2 0.51,0.01 0,-2 -0.51,-0.01 0,0 z m -0.01,3.5 0,2 0.5,0.01 0,-2 -0.5,-0.01 0,0 z m -0.01,3.51 -0.01,2 0.5,0 0.01,-2 -0.5,0 0,0 z m -0.01,3.5 -0.01,2 0.5,0 0.01,-2 -0.5,0 0,0 z m -0.01,3.51 -0.01,2 0.5,0 0.01,-2 -0.5,0 0,0 z m -0.01,3.5 -0.01,2 0.5,0 0.01,-2 -0.5,0 0,0 z m -0.01,3.5 -0.01,2.01 0.5,0 0.01,-2.01 -0.5,0 0,0 z m -0.01,3.51 -0.01,2 0.5,0 0.01,-2 -0.5,0 0,0 z"
       class="st9"
       id="path92"
       style="fill:#000000;stroke:#000000;stroke-width:0.0104402;stroke-linecap:round;stroke-linejoin:round" /><path
       d="m 152.032,64.8222 0,2 0.5,0 0,-2 -0.5,0 0,0 z m 0,3.5 0,2.01 0.5,0 0,-2.01 -0.5,0 0,0 z m 0,3.51 0,2 0.5,0 0,-2 -0.5,0 0,0 z m 0,3.5 0,2.01 0.5,0 0,-2.01 -0.5,0 0,0 z m 0,3.51 0,2 0.5,0 0,-2 -0.5,0 0,0 z m 0,3.5 0,2 0.5,0 0,-2 -0.5,0 0,0 z m 0,3.51 0,2 0.5,0 0,-2 -0.5,0 0,0 z m 0,3.5 0,2 0.5,0 0,-2 -0.5,0 0,0 z m 0,3.51 0,2 0.5,0 0,-2 -0.5,0 0,0 z m 0,3.5 0,2 0.5,0 0,-2 -0.5,0 0,0 z m 0,3.5 0,2.01 0.5,0 0,-2.01 -0.5,0 0,0 z m 0,3.51 0,2 0.5,0 0,-2 -0.5,0 0,0 z"
       class="st9"
       id="path97"
       style="fill:#000000;stroke:#000000;stroke-width:0.0104402;stroke-linecap:round;stroke-linejoin:round" /><text
       x="32.1731"
       y="48.989994"
       class="st11"
       v:langID="1033"
       id="text106"
       style="font-style:normal;font-variant:normal;font-weight:normal;font-stretch:normal;font-size:7.99996805px;font-family:Arial;-inkscape-font-specification:Arial;fill:#000000"><v:paragraph
   v:horizAlign="1" /><v:tabList />High side phase A</text>
<path
       d="m 326.921,39.37 -67.63,0"
       class="st8"
       id="path111"
       style="stroke:#000000;stroke-width:0.50112802;stroke-linecap:round;stroke-linejoin:round" /><path
       d="m 259.542,39.455 0,9.51"
       class="st8"
       id="path116"
       style="stroke:#000000;stroke-width:0.50112802;stroke-linecap:round;stroke-linejoin:round" /><path
       d="m 209.633,39.706 0,9.51"
       class="st8"
       id="path121"
       style="stroke:#000000;stroke-width:0.50112802;stroke-linecap:round;stroke-linejoin:round" /><path
       d="m 209.463,39.37 -93.63,0"
       class="st8"
       id="path126"
       style="stroke:#000000;stroke-width:0.50112802;stroke-linecap:round;stroke-linejoin:round" /><path
       d="m 259.705,49.216 -50.49,0"
       class="st8"
       id="path131"
       style="stroke:#000000;stroke-width:0.50112802;stroke-linecap:round;stroke-linejoin:round" /><path
       d="m 259.373,39.62 -2,0 0,-0.5 2,0 0,0.5 0,0 z m -3.51,0 -2.01,0 0,-0.5 2.01,0 0,0.5 0,0 z m -3.51,0 -2.01,0 0,-0.5 2.01,0 0,0.5 0,0 z m -3.51,0 -1.59,0 0,-0.5 1.59,0 0,0.5 0,0 z"
       class="st9"
       id="path136"
       style="fill:#000000;stroke:#000000;stroke-width:0.0104402;stroke-linecap:round;stroke-linejoin:round" /><path
       d="m 250.492,46.135 5.57,0 0,0.5 -5.57,0 0,-0.5 0,0 z m 0.69,2.33 -4.18,-2.08 4.18,-2.09 0,4.17 0,0 z m 4.18,-4.17 4.18,2.09 -4.18,2.08 0,-4.17 0,0 z"
       class="st9"
       id="path141"
       style="fill:#000000;stroke:#000000;stroke-width:0.0104402;stroke-linecap:round;stroke-linejoin:round" /><path
       d="m 114.914,34.864 108.18,-0.08"
       class="st8"
       id="path146"
       style="stroke:#000000;stroke-width:0.50112802;stroke-linecap:round;stroke-linejoin:round" /><path
       d="m 222.758,34.613 0,-9.59"
       class="st8"
       id="path151"
       style="stroke:#000000;stroke-width:0.50112802;stroke-linecap:round;stroke-linejoin:round" /><path
       d="m 222.758,25.018 24.58,0"
       class="st8"
       id="path156"
       style="stroke:#000000;stroke-width:0.50112802;stroke-linecap:round;stroke-linejoin:round" /><path
       d="m 232.79,30.942 0,-4 0.5,0 0,4 -0.5,0 0,0 z m 0,-5.51 0,-4 0.5,0 0,4 -0.5,0 0,0 z m 0,-5.5 0,-1.84 0.5,0 0,1.84 -0.5,0 0,0 z"
       class="st9"
       id="path161"
       style="fill:#000000;stroke:#000000;stroke-width:0.0104402;stroke-linecap:round;stroke-linejoin:round" /><path
       d="m 247.253,34.446 0,-9.09"
       class="st8"
       id="path166"
       style="stroke:#000000;stroke-width:0.50112802;stroke-linecap:round;stroke-linejoin:round" /><path
       d="m 247.253,34.53 37.03,0"
       class="st8"
       id="path171"
       style="stroke:#000000;stroke-width:0.50112802;stroke-linecap:round;stroke-linejoin:round" /><path
       d="m 210.133,34.697 0,-2 -0.5,0 0,2 0.5,0 0,0 z m 0,-3.5 0,-2.01 -0.5,0 0,2.01 0.5,0 0,0 z m 0,-3.51 0,-2 -0.5,0 0,2 0.5,0 0,0 z m 0,-3.5 0,-2 -0.5,0 0,2 0.5,0 0,0 z m 0,-3.51 0,-2 -0.5,0 0,2 0.5,0 0,0 z m 0,-3.5 0,-0.25 -0.5,0 0,0.25 0.5,0 0,0 z"
       class="st9"
       id="path176"
       style="fill:#000000;stroke:#000000;stroke-width:0.0104402;stroke-linecap:round;stroke-linejoin:round" /><path
       d="m 209.549,24.768 2.01,0 0,0.5 -2.01,0 0,-0.5 0,0 z m 3.51,0 2.01,0 0,0.5 -2.01,0 0,-0.5 0,0 z m 3.51,0 2.01,0 0,0.5 -2.01,0 0,-0.5 0,0 z m 3.51,0 2.01,0 0,0.5 -2.01,0 0,-0.5 0,0 z"
       class="st9"
       id="path181"
       style="fill:#000000;stroke:#000000;stroke-width:0.0104402;stroke-linecap:round;stroke-linejoin:round" /><path
       d="m 213.374,32.116 5.57,0 0,0.5 -5.57,0 0,-0.5 0,0 z m 0.69,2.33 -4.18,-2.08 4.18,-2.09 0,4.17 0,0 z m 4.18,-4.17 4.18,2.09 -4.18,2.08 0,-4.17 0,0 z"
       class="st9"
       id="path186"
       style="fill:#000000;stroke:#000000;stroke-width:0.0104402;stroke-linecap:round;stroke-linejoin:round" /><text
       x="213.694"
       y="30.23"
       class="st10"
       v:langID="1033"
       id="text195"
       style="font-style:normal;font-variant:normal;font-weight:normal;font-stretch:normal;font-size:5.50003195px;font-family:Arial;-inkscape-font-specification:Arial;fill:#000000"><v:paragraph
   v:horizAlign="1" /><v:tabList />DT</text>
<text
       x="34.1087"
       y="31.953993"
       class="st11"
       v:langID="1033"
       id="text204"
       style="font-style:normal;font-variant:normal;font-weight:normal;font-stretch:normal;font-size:7.99996805px;font-family:Arial;-inkscape-font-specification:Arial;fill:#000000"><v:paragraph
   v:horizAlign="1" /><v:tabList />Low side phase A</text>
<text
       x="36.7183"
       y="63.504993"
       class="st11"
       v:langID="1033"
       id="text213"
       style="font-style:normal;font-variant:normal;font-weight:normal;font-stretch:normal;font-size:7.99996805px;font-family:Arial;-inkscape-font-specification:Arial;fill:#000000"><v:paragraph
   v:horizAlign="1" /><v:tabList />Low side phase B</text>
<path
       d="m 140.243,65.07 0,-2 -0.5,0 0,2 0.5,0 0,0 z m 0,-3.5 0,-2.01 -0.5,0 0,2.01 0.5,0 0,0 z m 0,-3.51 0,-2 -0.5,0 0,2 0.5,0 0,0 z"
       class="st12"
       id="path218"
       style="fill:#000000;stroke:#000000;stroke-width:0.00522008;stroke-linecap:round;stroke-linejoin:round" /><path
       d="m 139.994,54.223 2.01,0 0,0.5 -2.01,0 0,-0.5 0,0 z m 3.51,0 2.01,0 0,0.5 -2.01,0 0,-0.5 0,0 z m 3.51,0 2.01,0 0,0.5 -2.01,0 0,-0.5 0,0 z m 3.51,0 2.01,0 0,0.5 -2.01,0 0,-0.5 0,0 z"
       class="st9"
       id="path223"
       style="fill:#000000;stroke:#000000;stroke-width:0.0104402;stroke-linecap:round;stroke-linejoin:round" /><path
       d="m 336.455,64.986 0,-10.43"
       class="st8"
       id="path228"
       style="stroke:#000000;stroke-width:0.50112802;stroke-linecap:round;stroke-linejoin:round" /><path
       d="m 336.287,65.07 23.83,0"
       class="st8"
       id="path233"
       style="stroke:#000000;stroke-width:0.50112802;stroke-linecap:round;stroke-linejoin:round" /><path
       d="m 152.534,64.819 0,-10.18"
       class="st8"
       id="path238"
       style="stroke:#000000;stroke-width:0.50112802;stroke-linecap:round;stroke-linejoin:round" /><path
       d="m 119.094,64.986 33.44,0"
       class="st8"
       id="path243"
       style="stroke:#000000;stroke-width:0.50112802;stroke-linecap:round;stroke-linejoin:round" /><path
       d="m 152.534,54.473 184.09,0"
       class="st8"
       id="path248"
       style="stroke:#000000;stroke-width:0.50112802;stroke-linecap:round;stroke-linejoin:round" /><path
       d="m 143.484,62.239 5.57,0 0,0.5 -5.57,0 0,-0.5 0,0 z m 0.69,2.33 -4.18,-2.08 4.18,-2.09 0,4.17 0,0 z m 4.18,-4.17 4.18,2.09 -4.18,2.08 0,-4.17 0,0 z"
       class="st9"
       id="path253"
       style="fill:#000000;stroke:#000000;stroke-width:0.0104402;stroke-linecap:round;stroke-linejoin:round" /><text
       x="143.129"
       y="60.018002"
       class="st10"
       v:langID="1033"
       id="text262"
       style="font-style:normal;font-variant:normal;font-weight:normal;font-stretch:normal;font-size:5.50003195px;font-family:Arial;-inkscape-font-specification:Arial;fill:#000000"><v:paragraph
   v:horizAlign="1" /><v:tabList />DT</text>
<path
       d="m 140.243,19.1762 0,2 -0.5,0 0,-2 0.5,0 0,0 z m 0,3.51 0,2 -0.5,0 0,-2 0.5,0 0,0 z m 0,3.5 0,2 -0.5,0 0,-2 0.5,0 0,0 z m 0,3.51 0,2 -0.5,0 0,-2 0.5,0 0,0 z m 0,3.5 0,2 -0.5,0 0,-2 0.5,0 0,0 z m 0,3.51 0,2 -0.5,0 0,-2 0.5,0 0,0 z m 0,3.5 0,2 -0.5,0 0,-2 0.5,0 0,0 z m 0,3.5 0,2.01 -0.5,0 0,-2.01 0.5,0 0,0 z m 0,3.51 0,2 -0.5,0 0,-2 0.5,0 0,0 z m 0,3.5 0,2.01 -0.5,0 0,-2.01 0.5,0 0,0 z m 0,3.51 0,2 -0.5,0 0,-2 0.5,0 0,0 z m 0,3.5 0,2.01 -0.5,0 0,-2.01 0.5,0 0,0 z m 0,3.51 0,2 -0.5,0 0,-2 0.5,0 0,0 z m 0,3.5 0,2 -0.5,0 0,-2 0.5,0 0,0 z m 0,3.51 0,2 -0.5,0 0,-2 0.5,0 0,0 z m 0,3.5 0,2 -0.5,0 0,-2 0.5,0 0,0 z m 0,3.51 0,2 -0.5,0 0,-2 0.5,0 0,0 z m 0,3.5 0,2 -0.5,0 0,-2 0.5,0 0,0 z m 0,3.5 0,2.01 -0.5,0 0,-2.01 0.5,0 0,0 z m 0,3.51 0,2 -0.5,0 0,-2 0.5,0 0,0 z m 0,3.5 0,2.01 -0.5,0 0,-2.01 0.5,0 0,0 z m 0,3.51 0,2 -0.5,0 0,-2 0.5,0 0,0 z m 0,3.5 0,2.01 -0.5,0 0,-2.01 0.5,0 0,0 z m 0,3.51 0,2 -0.5,0 0,-2 0.5,0 0,0 z m 0,3.5 0,2 -0.5,0 0,-2 0.5,0 0,0 z m 0,3.51 0,2 -0.5,0 0,-2 0.5,0 0,0 z m 0,3.5 0,2 -0.5,0 0,-2 0.5,0 0,0 z m 0,3.51 0,2 -0.5,0 0,-2 0.5,0 0,0 z m 0,3.5 0,2 -0.5,0 0,-2 0.5,0 0,0 z m 0,3.5 0,2.01 -0.5,0 0,-2.01 0.5,0 0,0 z m 0,3.51 0,2 -0.5,0 0,-2 0.5,0 0,0 z"
       class="st12"
       id="path267"
       style="fill:#000000;stroke:#000000;stroke-width:0.00522008;stroke-linecap:round;stroke-linejoin:round" /><path
       d="m 223.174,36.9557 0,2 -0.5,0 0,-2 0.5,0 0,0 z m 0,3.5 0,2 -0.5,0 0,-2 0.5,0 0,0 z m 0,3.51 0,2 -0.5,0 0,-2 0.5,0 0,0 z m 0,3.5 0,2 -0.5,0 0,-2 0.5,0 0,0 z m 0,3.5 0,2.01 -0.5,0 0,-2.01 0.5,0 0,0 z m 0,3.51 0,2 -0.5,0 0,-2 0.5,0 0,0 z m 0,3.5 0,2.01 -0.5,0 0,-2.01 0.5,0 0,0 z m 0,3.51 0,2 -0.5,0 0,-2 0.5,0 0,0 z m 0,3.5 0,2.01 -0.5,0 0,-2.01 0.5,0 0,0 z m 0,3.51 0,2 -0.5,0 0,-2 0.5,0 0,0 z m 0,3.5 0,2 -0.5,0 0,-2 0.5,0 0,0 z m 0,3.51 0,2 -0.5,0 0,-2 0.5,0 0,0 z m 0,3.5 0,2 -0.5,0 0,-2 0.5,0 0,0 z m 0,3.51 0,2 -0.5,0 0,-2 0.5,0 0,0 z m 0,3.5 0,2 -0.5,0 0,-2 0.5,0 0,0 z m 0,3.5 0,2.01 -0.5,0 0,-2.01 0.5,0 0,0 z m 0,3.51 0,2 -0.5,0 0,-2 0.5,0 0,0 z m 0,3.5 0,2.01 -0.5,0 0,-2.01 0.5,0 0,0 z m 0,3.51 0,2 -0.5,0 0,-2 0.5,0 0,0 z m 0,3.5 0,2.01 -0.5,0 0,-2.01 0.5,0 0,0 z m 0,3.51 0,2 -0.5,0 0,-2 0.5,0 0,0 z m 0,3.5 0,2 -0.5,0 0,-2 0.5,0 0,0 z m 0,3.51 0,2 -0.5,0 0,-2 0.5,0 0,0 z m 0,3.5 0,2 -0.5,0 0,-2 0.5,0 0,0 z m 0,3.51 0,2 -0.5,0 0,-2 0.5,0 0,0 z m 0,3.5 0,2 -0.5,0 0,-2 0.5,0 0,0 z m 0,3.5 0,2.01 -0.5,0 0,-2.01 0.5,0 0,0 z m 0,3.51 0,2 -0.5,0 0,-2 0.5,0 0,0 z"
       class="st9"
       id="path272"
       style="fill:#000000;stroke:#000000;stroke-width:0.0104402;stroke-linecap:round;stroke-linejoin:round" /><path
       d="m 246.915,53.8916 0,2 0.51,0.01 0,-2 -0.51,-0.01 0,0 z m -0.01,3.5 -0.01,2.01 0.5,0.01 0.02,-2.01 -0.51,-0.01 0,0 z m -0.01,3.51 -0.01,2 0.5,0.01 0.01,-2 -0.5,-0.01 0,0 z m -0.02,3.5 -0.01,2.01 0.5,0.01 0.01,-2.01 -0.5,-0.01 0,0 z m -0.01,3.51 -0.01,2 0.5,0.01 0.01,-2 -0.5,-0.01 0,0 z m -0.02,3.5 0,2 0.5,0.01 0,-2 -0.5,-0.01 0,0 z m -0.01,3.51 -0.01,2 0.5,0.01 0.01,-2 -0.5,-0.01 0,0 z m -0.01,3.5 -0.01,2 0.5,0.01 0.01,-2 -0.5,-0.01 0,0 z m -0.02,3.51 0,2 0.5,0.01 0,-2 -0.5,-0.01 0,0 z m -0.01,3.5 -0.01,2 0.5,0.01 0.01,-2 -0.5,-0.01 0,0 z m -0.01,3.5 -0.01,2.01 0.5,0.01 0.01,-2.01 -0.5,-0.01 0,0 z m -0.02,3.51 -0.01,2 0.5,0.01 0.01,-2 -0.5,-0.01 0,0 z m -0.01,3.5 -0.01,2.01 0.5,0.01 0.01,-2.01 -0.5,-0.01 0,0 z m -0.02,3.51 0,2 0.5,0.01 0,-2 -0.5,-0.01 0,0 z m -0.01,3.5 -0.02,2.01 0.51,0.01 0.01,-2.01 -0.5,-0.01 0,0 z m -0.02,3.51 -0.01,2 0.51,0.01 0.01,-2 -0.51,-0.01 0,0 z m -0.02,3.5 -0.01,2 0.51,0.01 0.01,-2 -0.51,-0.01 0,0 z m -0.01,3.51 -0.01,2 0.5,0.01 0.02,-2 -0.51,-0.01 0,0 z m -0.02,3.5 0,2 0.5,0.01 0,-2 -0.5,-0.01 0,0 z m -0.01,3.51 -0.01,2 0.5,0.01 0.01,-2 -0.5,-0.01 0,0 z m -0.01,3.5 -0.01,2 0.5,0.01 0.01,-2 -0.5,-0.01 0,0 z m -0.02,3.5 -0.01,2.01 0.5,0.01 0.01,-2 -0.5,-0.02 0,0 z m -0.01,3.51 -0.01,2 0.5,0 0.01,-1.99 -0.5,-0.01 0,0 z"
       class="st9"
       id="path277"
       style="fill:#000000;stroke:#000000;stroke-width:0.0104402;stroke-linecap:round;stroke-linejoin:round" /><path
       d="m 336.704,79.5878 0.02,2.01 -0.5,0.02 -0.02,-2.01 0.5,-0.02 0,0 z m 0.02,3.51 0,2 -0.5,0.02 0,-2 0.5,-0.02 0,0 z m 0.02,3.5 0,2 -0.5,0.03 0,-2.01 0.5,-0.02 0,0 z m 0,3.51 0,2 -0.5,0.02 0,-2 0.5,-0.02 0,0 z m 0.02,3.5 0,2 -0.5,0.02 0,-2 0.5,-0.02 0,0 z m 0,3.51 0.03,2 -0.51,0.02 -0.02,-2 0.5,-0.02 0,0 z m 0.03,3.5 0,2 -0.51,0.02 0,-2 0.51,-0.02 0,0 z m 0,3.5 0.02,2.01 -0.51,0.02 -0.02,-2 0.51,-0.03 0,0 z m 0.02,3.51 0,2 -0.51,0 0,-2 0.51,0 0,0 z m 0.02,3.5 0,2.01 -0.5,0 0,-2.01 0.5,0 0,0 z m 0,3.51 0,2 -0.5,0 0,-2 0.5,0 0,0 z m 0.02,3.5 0,2.01 -0.5,0 0,-2.01 0.5,0 0,0 z m 0,3.51 0.02,2 -0.5,0 -0.02,-2 0.5,0 0,0 z m 0.02,3.5 0,2 -0.5,0 0,-2 0.5,0 0,0 z m 0,3.51 0,0.83 -0.5,0.02 0,-0.85 0.5,0 0,0 z"
       class="st13"
       id="path282"
       style="fill:#000000;stroke:#000000;stroke-width:0.0208803;stroke-linecap:round;stroke-linejoin:round" /><path
       d="m 336.204,65.41 0,2 0.5,0 0,-2 -0.5,0 0,0 z m 0,3.5 0,2 0.5,0 0,-2 -0.5,0 0,0 z m 0,3.5 0,2.01 0.5,0 0,-2.01 -0.5,0 0,0 z m 0,3.51 0,2 0.5,0 0,-2 -0.5,0 0,0 z"
       class="st13"
       id="path287"
       style="fill:#000000;stroke:#000000;stroke-width:0.0208803;stroke-linecap:round;stroke-linejoin:round" /><text
       x="34.9827"
       y="76.542992"
       class="st11"
       v:langID="1033"
       id="text296"
       style="font-style:normal;font-variant:normal;font-weight:normal;font-stretch:normal;font-size:7.99996805px;font-family:Arial;-inkscape-font-specification:Arial;fill:#000000"><v:paragraph
   v:horizAlign="1" /><v:tabList />High side phase B</text>
<path
       d="m 348.828,69.074 0,9.68"
       class="st8"
       id="path301"
       style="stroke:#000000;stroke-width:0.50112802;stroke-linecap:round;stroke-linejoin:round" /><path
       d="m 139.994,68.997 0,9.59"
       class="st8"
       id="path306"
       style="stroke:#000000;stroke-width:0.50112802;stroke-linecap:round;stroke-linejoin:round" /><path
       d="m 139.824,68.991 -20.73,0"
       class="st8"
       id="path311"
       style="stroke:#000000;stroke-width:0.50112802;stroke-linecap:round;stroke-linejoin:round" /><path
       d="m 359.78,68.991 -11.12,0"
       class="st8"
       id="path316"
       style="stroke:#000000;stroke-width:0.50112802;stroke-linecap:round;stroke-linejoin:round" /><path
       d="m 348.664,79.005 -208.67,-0.16"
       class="st8"
       id="path321"
       style="stroke:#000000;stroke-width:0.50112802;stroke-linecap:round;stroke-linejoin:round" /><path
       d="m 339.945,75.673 5.58,0 0,0.5 -5.58,0 0,-0.5 0,0 z m 0.69,2.33 -4.18,-2.08 4.18,-2.09 0,4.17 0,0 z m 4.18,-4.17 4.18,2.09 -4.18,2.08 0,-4.17 0,0 z"
       class="st13"
       id="path326"
       style="fill:#000000;stroke:#000000;stroke-width:0.0208803;stroke-linecap:round;stroke-linejoin:round" /><path
       d="m 336.455,68.742 2.01,0 0,0.5 -2.01,0 0,-0.5 0,0 z m 3.51,0 2.01,0 0,0.5 -2.01,0 0,-0.5 0,0 z m 3.51,0 2.01,0 0,0.5 -2.01,0 0,-0.5 0,0 z m 3.51,0 1.84,0 0,0.5 -1.84,0 0,-0.5 0,0 z"
       class="st13"
       id="path331"
       style="fill:#000000;stroke:#000000;stroke-width:0.0208803;stroke-linecap:round;stroke-linejoin:round" /><text
       x="10.907901"
       y="106.79109"
       class="st11"
       v:langID="1033"
       id="text340"
       style="font-style:normal;font-variant:normal;font-weight:normal;font-stretch:normal;font-size:7.99996805px;font-family:Arial;-inkscape-font-specification:Arial;fill:#000000"><v:paragraph
   v:horizAlign="1" /><v:tabList />Current feedback phase B  </text>
<path
       d="m 139.994,105.1889 c 0.52,-0.41 1.84,-2.74 2.88,-2.48 1.13,0.25 2.96,3.53 4.01,3.94 1.14,0.39 1.83,-0.9 2.53,-1.49 0.7,-0.59 1.22,-1.7 1.74,-1.95 0.52,-0.25 0.95,0.39 1.21,0.49"
       class="st8"
       id="path345"
       style="stroke:#000000;stroke-width:0.50112802;stroke-linecap:round;stroke-linejoin:round" /><path
       d="m 110.734,105.1219 29.26,0"
       class="st8"
       id="path350"
       style="stroke:#000000;stroke-width:0.50112802;stroke-linecap:round;stroke-linejoin:round" /><path
       d="m 152.283,103.5365 c 0.62,-1.3 2.56,-5.07 3.88,-7.87 1.31,-2.81 2.72,-8.92 4.3,-9.06 1.67,-0.09 3.79,7.84 5.46,8.42 1.75,0.6 3.52,-4.57 5.01,-4.84 1.5,-0.23 3.08,3.08 4.23,3.4 1.05,0.31 1.93,-1.14 2.45,-1.45"
       class="st8"
       id="path355"
       style="stroke:#000000;stroke-width:0.50112802;stroke-linecap:round;stroke-linejoin:round" /><path
       d="m 336.622,91.9366 c 0.88,1.73 3.14,8.22 4.72,10.6 1.57,2.36 3.14,3.67 4.71,3.67 1.56,0 3.03,-3.38 4.59,-3.67 1.57,-0.31 3.93,1.52 4.71,1.84"
       class="st8"
       id="path360"
       style="stroke:#000000;stroke-width:0.50112802;stroke-linecap:round;stroke-linejoin:round" /><path
       d="m 243.575,92.3553 93.05,-0.25"
       class="st8"
       id="path365"
       style="stroke:#000000;stroke-width:0.50112802;stroke-linecap:round;stroke-linejoin:round" /><path
       d="m 244.076,129.9876 92.55,0"
       class="st8"
       id="path370"
       style="stroke:#000000;stroke-width:0.50112802;stroke-linecap:round;stroke-linejoin:round" /><path
       d="m 160.309,130.0711 62.78,0"
       class="st8"
       id="path375"
       style="stroke:#000000;stroke-width:0.50112802;stroke-linecap:round;stroke-linejoin:round" /><path
       d="m 106.554,129.9876 33.44,0"
       class="st8"
       id="path380"
       style="stroke:#000000;stroke-width:0.50112802;stroke-linecap:round;stroke-linejoin:round" /><path
       d="m 147.601,129.4889 c 0.42,-0.9 1.45,-5.76 2.35,-5.37 0.9,0.37 2.28,6.65 3.12,7.56 0.82,0.9 1.37,-1.57 1.99,-2.28 0.63,-0.67 0.9,-1.86 1.53,-1.71 0.61,0.09 1.44,2.19 2.07,2.47 0.61,0.33 1.3,-0.52 1.65,-0.67"
       class="st8"
       id="path385"
       style="stroke:#000000;stroke-width:0.50112802;stroke-linecap:round;stroke-linejoin:round" /><path
       d="m 139.994,129.5348 c 0.42,-0.62 1.45,-4.22 2.36,-3.83 0.9,0.38 2.35,5.46 3.25,6.08 0.9,0.62 1.65,-1.92 2,-2.3"
       class="st8"
       id="path390"
       style="stroke:#000000;stroke-width:0.50112802;stroke-linecap:round;stroke-linejoin:round" /><path
       d="m 347.406,129.6935 c 0.61,-0.5 2.07,-3.21 3.32,-2.98 1.28,0.21 3.24,3.69 4.41,4.19 1.17,0.5 1.95,-0.87 2.82,-1.27 0.88,-0.35 1.28,-1.02 2.16,-0.94 0.88,0.04 2.05,1.21 2.92,1.38 0.88,0.19 1.86,-0.29 2.34,-0.38"
       class="st8"
       id="path395"
       style="stroke:#000000;stroke-width:0.50112802;stroke-linecap:round;stroke-linejoin:round" /><path
       d="m 336.622,129.6957 c 0.61,-0.33 2.07,-2.29 3.34,-2.08 1.28,0.2 3.33,2.96 4.6,3.29 1.28,0.34 2.36,-1.02 2.84,-1.23"
       class="st8"
       id="path400"
       style="stroke:#000000;stroke-width:0.50112802;stroke-linecap:round;stroke-linejoin:round" /><path
       d="m 142.898,22.27 64.34,0 0,-0.5 -64.34,0 0,0.5 0,0 z m 0.69,-2.34 -4.18,2.09 4.18,2.08 0,-4.17 0,0 z m 62.95,4.17 4.18,-2.08 -4.18,-2.09 0,4.17 0,0 z"
       class="st9"
       id="path405"
       style="fill:#000000;stroke:#000000;stroke-width:0.0104402;stroke-linecap:round;stroke-linejoin:round" /><path
       d="m 212.621,22.437 17.11,0 0,-0.5 -17.11,0 0,0.5 0,0 z m 0.69,-2.34 -4.18,2.09 4.18,2.08 0,-4.17 0,0 z m 15.72,4.17 4.18,-2.08 -4.18,-2.09 0,4.17 0,0 z"
       class="st9"
       id="path410"
       style="fill:#000000;stroke:#000000;stroke-width:0.0104402;stroke-linecap:round;stroke-linejoin:round" /><path
       d="m 185.451,85.1022 2.39,0 0,0.5 -2.39,0 0,-0.5 0,0 z m 0.69,2.33 -4.18,-2.08 4.18,-2.09 0,4.17 0,0 z m 1,-4.17 4.18,2.09 -4.18,2.08 0,-4.17 0,0 z"
       class="st9"
       id="path415"
       style="fill:#000000;stroke:#000000;stroke-width:0.0104402;stroke-linecap:round;stroke-linejoin:round" /><path
       d="m 188.566,91.8538 c 0,-1.05 0.89,-1.92 1.96,-1.92 1.09,0 1.97,0.87 1.97,1.92 0,1.07 -0.88,1.92 -1.97,1.92 -1.07,0 -1.96,-0.85 -1.96,-1.92 z"
       class="st14"
       id="path420"
       style="fill:#ff0000;stroke:none;stroke-width:0.75;stroke-linecap:round;stroke-linejoin:round" /><path
       d="m 188.566,91.8538 c 0,-1.05 0.89,-1.92 1.96,-1.92 1.09,0 1.97,0.87 1.97,1.92 0,1.07 -0.88,1.92 -1.97,1.92 -1.07,0 -1.96,-0.85 -1.96,-1.92"
       class="st8"
       id="path425"
       style="stroke:#000000;stroke-width:0.50112802;stroke-linecap:round;stroke-linejoin:round" /><path
       d="m 180.122,91.9772 c 0,-1.03 0.89,-1.87 1.96,-1.87 1.09,0 1.97,0.84 1.97,1.87 0,1.05 -0.88,1.88 -1.97,1.88 -1.07,0 -1.96,-0.83 -1.96,-1.88 z"
       class="st15"
       id="path430"
       style="fill:#009900;stroke:none;stroke-width:0.75;stroke-linecap:round;stroke-linejoin:round" /><path
       d="m 180.122,91.9772 c 0,-1.03 0.89,-1.87 1.96,-1.87 1.09,0 1.97,0.84 1.97,1.87 0,1.05 -0.88,1.88 -1.97,1.88 -1.07,0 -1.96,-0.83 -1.96,-1.88"
       class="st8"
       id="path435"
       style="stroke:#000000;stroke-width:0.50112802;stroke-linecap:round;stroke-linejoin:round" /><path
       d="m 198.096,91.9372 c 0,-1.05 0.89,-1.92 1.96,-1.92 1.09,0 1.97,0.87 1.97,1.92 0,1.07 -0.88,1.92 -1.97,1.92 -1.07,0 -1.96,-0.85 -1.96,-1.92 z"
       class="st16"
       id="path440"
       style="fill:#ffc000;stroke:none;stroke-width:0.75;stroke-linecap:round;stroke-linejoin:round" /><path
       d="m 198.096,91.9372 c 0,-1.05 0.89,-1.92 1.96,-1.92 1.09,0 1.97,0.87 1.97,1.92 0,1.07 -0.88,1.92 -1.97,1.92 -1.07,0 -1.96,-0.85 -1.96,-1.92"
       class="st8"
       id="path445"
       style="stroke:#000000;stroke-width:0.50112802;stroke-linecap:round;stroke-linejoin:round" /><path
       d="m 194.062,85.1856 2.73,0 0,0.5 -2.73,0 0,-0.5 0,0 z m 0.69,2.33 -4.18,-2.08 4.18,-2.09 0,4.17 0,0 z m 1.34,-4.17 4.18,2.09 -4.18,2.08 0,-4.17 0,0 z"
       class="st9"
       id="path450"
       style="fill:#000000;stroke:#000000;stroke-width:0.0104402;stroke-linecap:round;stroke-linejoin:round" /><path
       d="m 190.321,81.5976 0,2 0.5,0 0,-2 -0.5,0 0,0 z m 0,3.5 0,2 0.5,0 0,-2 -0.5,0 0,0 z m 0,3.5 0,0.42 0.5,0 0,-0.42 -0.5,0 0,0 z"
       class="st9"
       id="path455"
       style="fill:#000000;stroke:#000000;stroke-width:0.0104402;stroke-linecap:round;stroke-linejoin:round" /><path
       d="m 207.376,130.2371 c 0,-1.05 0.89,-1.92 1.96,-1.92 1.09,0 1.97,0.87 1.97,1.92 0,1.07 -0.88,1.92 -1.97,1.92 -1.07,0 -1.96,-0.85 -1.96,-1.92 z"
       class="st14"
       id="path460"
       style="fill:#ff0000;stroke:none;stroke-width:0.75;stroke-linecap:round;stroke-linejoin:round" /><path
       d="m 207.376,130.2371 c 0,-1.05 0.89,-1.92 1.96,-1.92 1.09,0 1.97,0.87 1.97,1.92 0,1.07 -0.88,1.92 -1.97,1.92 -1.07,0 -1.96,-0.85 -1.96,-1.92"
       class="st8"
       id="path465"
       style="stroke:#000000;stroke-width:0.50112802;stroke-linecap:round;stroke-linejoin:round" /><path
       d="m 198.932,130.3206 c 0,-1.05 0.89,-1.92 1.96,-1.92 1.09,0 1.97,0.87 1.97,1.92 0,1.07 -0.88,1.92 -1.97,1.92 -1.07,0 -1.96,-0.85 -1.96,-1.92 z"
       class="st15"
       id="path470"
       style="fill:#009900;stroke:none;stroke-width:0.75;stroke-linecap:round;stroke-linejoin:round" /><path
       d="m 198.932,130.3206 c 0,-1.05 0.89,-1.92 1.96,-1.92 1.09,0 1.97,0.87 1.97,1.92 0,1.07 -0.88,1.92 -1.97,1.92 -1.07,0 -1.96,-0.85 -1.96,-1.92"
       class="st8"
       id="path475"
       style="stroke:#000000;stroke-width:0.50112802;stroke-linecap:round;stroke-linejoin:round" /><path
       d="m 203.258,125.5103 3.98,0.04 0,0.5 -3.98,-0.03 0,-0.51 0,0 z m 0.68,2.35 -4.17,-2.13 4.2,-2.04 -0.03,4.17 0,0 z m 2.62,-4.16 4.16,2.12 -4.19,2.05 0.03,-4.17 0,0 z"
       class="st9"
       id="path480"
       style="fill:#000000;stroke:#000000;stroke-width:0.0104402;stroke-linecap:round;stroke-linejoin:round" /><text
       x="9.0078993"
       y="124.7254"
       class="st11"
       v:langID="1033"
       id="text489"
       style="font-style:normal;font-variant:normal;font-weight:normal;font-stretch:normal;font-size:7.99996805px;font-family:Arial;-inkscape-font-specification:Arial;fill:#000000"><v:paragraph
   v:horizAlign="1" /><v:tabList />Current feedback phase C</text>
<path
       d="m 368.39,91.6869 c 0,-1.04 0.9,-1.92 1.96,-1.92 1.09,0 1.97,0.88 1.97,1.92 0,1.07 -0.88,1.92 -1.97,1.92 -1.06,0 -1.96,-0.85 -1.96,-1.92 z"
       class="st14"
       id="path494"
       style="fill:#ff0000;stroke:none;stroke-width:0.75;stroke-linecap:round;stroke-linejoin:round" /><path
       d="m 368.39,91.6869 c 0,-1.04 0.9,-1.92 1.96,-1.92 1.09,0 1.97,0.88 1.97,1.92 0,1.07 -0.88,1.92 -1.97,1.92 -1.06,0 -1.96,-0.85 -1.96,-1.92"
       class="st8"
       id="path499"
       style="stroke:#000000;stroke-width:0.50112802;stroke-linecap:round;stroke-linejoin:round" /><text
       x="376.63501"
       y="94.087196"
       class="st5"
       v:langID="1033"
       id="text508"
       style="font-style:normal;font-variant:normal;font-weight:normal;font-stretch:normal;font-size:7.99996805px;font-family:Arial;-inkscape-font-specification:Arial;fill:#000000"><v:paragraph /><v:tabList />Sampling end</text>
<path
       d="m 368.39,76.123 c 0,-1.02 0.9,-1.87 1.96,-1.87 1.09,0 1.97,0.85 1.97,1.87 0,1.05 -0.88,1.88 -1.97,1.88 -1.06,0 -1.96,-0.83 -1.96,-1.88 z"
       class="st15"
       id="path513"
       style="fill:#009900;stroke:none;stroke-width:0.75;stroke-linecap:round;stroke-linejoin:round" /><path
       d="m 368.39,76.123 c 0,-1.02 0.9,-1.87 1.96,-1.87 1.09,0 1.97,0.85 1.97,1.87 0,1.05 -0.88,1.88 -1.97,1.88 -1.06,0 -1.96,-0.83 -1.96,-1.88"
       class="st8"
       id="path518"
       style="stroke:#000000;stroke-width:0.50112802;stroke-linecap:round;stroke-linejoin:round" /><text
       x="376.63501"
       y="78.524994"
       class="st5"
       v:langID="1033"
       id="text527"
       style="font-style:normal;font-variant:normal;font-weight:normal;font-stretch:normal;font-size:7.99996805px;font-family:Arial;-inkscape-font-specification:Arial;fill:#000000"><v:paragraph /><v:tabList />Sampling start</text>
<path
       d="m 368.39,109.7938 c 0,-1.04 0.9,-1.92 1.96,-1.92 1.09,0 1.97,0.88 1.97,1.92 0,1.07 -0.88,1.92 -1.97,1.92 -1.06,0 -1.96,-0.85 -1.96,-1.92 z"
       class="st16"
       id="path532"
       style="fill:#ffc000;stroke:none;stroke-width:0.75;stroke-linecap:round;stroke-linejoin:round" /><path
       d="m 368.39,109.7938 c 0,-1.04 0.9,-1.92 1.96,-1.92 1.09,0 1.97,0.88 1.97,1.92 0,1.07 -0.88,1.92 -1.97,1.92 -1.06,0 -1.96,-0.85 -1.96,-1.92"
       class="st8"
       id="path537"
       style="stroke:#000000;stroke-width:0.50112802;stroke-linecap:round;stroke-linejoin:round" /><text
       x="376.63501"
       y="112.19409"
       class="st5"
       v:langID="1033"
       id="text546"
       style="font-style:normal;font-variant:normal;font-weight:normal;font-stretch:normal;font-size:7.99996805px;font-family:Arial;-inkscape-font-specification:Arial;fill:#000000"><v:paragraph /><v:tabList />Conversion end</text>
<path
       d="m 177.447,136.41 0,8.18 32.44,0 0,-8.18 -32.44,0 0,0 z"
       class="st17"
       id="path551"
       style="fill:#3399ff;stroke:none;stroke-width:0.75;stroke-linecap:round;stroke-linejoin:round" /><path
       d="m 177.447,136.41 32.44,0 0,8.18 -32.44,0 0,-8.18"
       class="st18"
       id="path556"
       style="stroke:#080808;stroke-width:0.50112802;stroke-linecap:round;stroke-linejoin:round" /><path
       d="m 177.363,57.8968 0,2 0.5,0 0,-2 -0.5,0 0,0 z m 0,3.5 0,2.01 0.5,0 0,-2.01 -0.5,0 0,0 z m 0,3.51 0,2 0.5,0 0,-2 -0.5,0 0,0 z m 0,3.5 0,2.01 0.5,0 0,-2.01 -0.5,0 0,0 z m 0,3.51 0,2 0.5,0 0,-2 -0.5,0 0,0 z m 0,3.5 0,2 0.5,0 0,-2 -0.5,0 0,0 z m 0,3.51 0,2 0.5,0 0,-2 -0.5,0 0,0 z m 0,3.5 0,2 0.5,0 0,-2 -0.5,0 0,0 z m 0,3.51 0,2 0.5,0 0,-2 -0.5,0 0,0 z m 0,3.5 0,2 0.5,0 0,-2 -0.5,0 0,0 z m 0,3.5 0,2.01 0.5,0 0,-2.01 -0.5,0 0,0 z m 0,3.51 0,2 0.5,0 0,-2 -0.5,0 0,0 z m 0,3.5 0,2.01 0.5,0 0,-2.01 -0.5,0 0,0 z m 0,3.51 0,2 0.5,0 0,-2 -0.5,0 0,0 z m 0,3.5 0,2.01 0.5,0 0,-2.01 -0.5,0 0,0 z m 0,3.51 0,2 0.5,0 0,-2 -0.5,0 0,0 z m 0,3.5 0,2 0.5,0 0,-2 -0.5,0 0,0 z m 0,3.51 0,2 0.5,0 0,-2 -0.5,0 0,0 z m 0,3.5 0,2 0.5,0 0,-2 -0.5,0 0,0 z m 0,3.51 0,2 0.5,0 0,-2 -0.5,0 0,0 z m 0,3.5 0,2 0.5,0 0,-2 -0.5,0 0,0 z m 0,3.5 0,2.01 0.5,0 0,-2.01 -0.5,0 0,0 z m 0,3.51 0,2 0.5,0 0,-2 -0.5,0 0,0 z"
       class="st9"
       id="path561"
       style="fill:#000000;stroke:#000000;stroke-width:0.0104402;stroke-linecap:round;stroke-linejoin:round" /><path
       d="m 155.773,72.753 18.36,0 0,0.5 -18.36,0 0,-0.5 0,0 z m 0.69,2.33 -4.18,-2.08 4.18,-2.09 0,4.17 0,0 z m 16.97,-4.17 4.18,2.09 -4.18,2.08 0,-4.17 0,0 z"
       class="st9"
       id="path566"
       style="fill:#000000;stroke:#000000;stroke-width:0.0104402;stroke-linecap:round;stroke-linejoin:round" /><path
       d="m 185.284,67.579 20.7,0 0,-0.5 -20.7,0 0,0.5 0,0 z m 0.69,-2.34 -4.18,2.09 4.18,2.08 0,-4.17 0,0 z m 19.31,4.17 4.18,-2.08 -4.18,-2.09 0,4.17 0,0 z"
       class="st9"
       id="path571"
       style="fill:#000000;stroke:#000000;stroke-width:0.0104402;stroke-linecap:round;stroke-linejoin:round" /><path
       d="m 243.658,136.6603 0,8.18 3.43,0 0,-8.18 -3.43,0 0,0 z"
       class="st19"
       id="path576"
       style="fill:#c55a11;stroke:none;stroke-width:0.75;stroke-linecap:round;stroke-linejoin:round" /><path
       d="m 243.658,136.6603 3.43,0 0,8.18 -3.43,0 0,-8.18"
       class="st18"
       id="path581"
       style="stroke:#080808;stroke-width:0.50112802;stroke-linecap:round;stroke-linejoin:round" /><path
       d="m 226.164,72.336 13.93,0 0,0.5 -13.93,0 0,-0.5 0,0 z m 0.69,2.33 -4.18,-2.08 4.18,-2.09 0,4.17 0,0 z m 12.54,-4.17 4.18,2.09 -4.18,2.08 0,-4.17 0,0 z"
       class="st9"
       id="path586"
       style="fill:#000000;stroke:#000000;stroke-width:0.0104402;stroke-linecap:round;stroke-linejoin:round" /><path
       d="m 230.867,92.4406 c 0.42,-0.9 1.45,-5.76 2.35,-5.37 0.9,0.37 2.28,6.65 3.12,7.56 0.82,0.9 1.37,-1.57 1.99,-2.28 0.63,-0.67 0.9,-1.86 1.53,-1.71 0.61,0.09 1.44,2.19 2.07,2.47 0.61,0.33 1.3,-0.52 1.65,-0.67"
       class="st8"
       id="path591"
       style="stroke:#000000;stroke-width:0.50112802;stroke-linecap:round;stroke-linejoin:round" /><path
       d="m 223.26,92.5219 c 0.42,-0.61 1.45,-4.17 2.35,-3.78 0.91,0.37 2.36,5.39 3.26,6 0.9,0.62 1.65,-1.88 2,-2.27"
       class="st8"
       id="path596"
       style="stroke:#000000;stroke-width:0.50112802;stroke-linecap:round;stroke-linejoin:round" /><path
       d="m 230.951,129.9619 c 0.42,-0.91 1.45,-5.81 2.35,-5.43 0.9,0.39 2.28,6.73 3.12,7.64 0.82,0.91 1.37,-1.59 1.99,-2.31 0.63,-0.66 0.9,-1.86 1.53,-1.73 0.61,0.11 1.44,2.21 2.07,2.5 0.61,0.34 1.3,-0.53 1.65,-0.67"
       class="st8"
       id="path601"
       style="stroke:#000000;stroke-width:0.50112802;stroke-linecap:round;stroke-linejoin:round" /><path
       d="m 223.343,129.9874 c 0.42,-0.61 1.45,-4.17 2.35,-3.78 0.91,0.37 2.36,5.39 3.26,6 0.9,0.62 1.65,-1.88 2,-2.27"
       class="st8"
       id="path606"
       style="stroke:#000000;stroke-width:0.50112802;stroke-linecap:round;stroke-linejoin:round" /><path
       d="m 243.655,57.5584 0,2.01 0.5,0 0,-2.01 -0.5,0 0,0 z m 0,3.51 0,2 0.5,0 0,-2 -0.5,0 0,0 z m 0,3.5 0,2.01 0.5,0 0,-2.01 -0.5,0 0,0 z m -0.01,3.51 0,2 0.5,0 0,-2 -0.5,0 0,0 z m 0,3.5 0,2 0.5,0 0,-2 -0.5,0 0,0 z m 0,3.51 -0.01,2 0.5,0 0.01,-2 -0.5,0 0,0 z m -0.01,3.5 0,2 0.5,0 0,-2 -0.5,0 0,0 z m 0,3.51 0,2 0.5,0 0,-2 -0.5,0 0,0 z m 0,3.5 -0.01,2 0.5,0 0.01,-2 -0.5,0 0,0 z m -0.01,3.5 0,2.01 0.5,0 0,-2.01 -0.5,0 0,0 z m 0,3.51 0,2 0.5,0 0,-2 -0.5,0 0,0 z m -0.01,3.5 0,2.01 0.5,0 0,-2.01 -0.5,0 0,0 z m 0,3.51 0,2 0.5,0 0,-2 -0.5,0 0,0 z m 0,3.5 -0.01,2.01 0.5,0 0.01,-2.01 -0.5,0 0,0 z m -0.01,3.51 0,2 0.5,0 0,-2 -0.5,0 0,0 z m 0,3.5 0,2 0.5,0 0,-2 -0.5,0 0,0 z m 0,3.51 -0.01,2 0.5,0 0.01,-2 -0.5,0 0,0 z m -0.01,3.5 0,2 0.5,0 0,-2 -0.5,0 0,0 z m 0,3.51 0,2 0.5,0 0,-2 -0.5,0 0,0 z m -0.01,3.5 0,2 0.5,0 0,-2 -0.5,0 0,0 z m 0,3.5 0,2.01 0.5,0 0,-2.01 -0.5,0 0,0 z m 0,3.51 0,2 0.5,0 0,-2 -0.5,0 0,0 z"
       class="st9"
       id="path611"
       style="fill:#000000;stroke:#000000;stroke-width:0.0104402;stroke-linecap:round;stroke-linejoin:round" /><text
       x="210.44099"
       y="16.576006"
       class="st5"
       v:langID="1033"
       id="text620"
       style="font-style:normal;font-variant:normal;font-weight:normal;font-stretch:normal;font-size:7.99996805px;font-family:Arial;-inkscape-font-specification:Arial;fill:#000000"><v:paragraph
   v:horizAlign="1" /><v:tabList />ΔDuty<tspan
   dy="0"
   class="st6"
   v:baseFontSize="8"
   id="tspan622"
   style="font-style:normal;font-variant:normal;font-weight:normal;font-stretch:normal;font-size:5.19900322px;font-family:Arial;-inkscape-font-specification:Arial;baseline-shift:-32.49390125%">A</tspan></text>
<text
       x="161.8"
       y="69.524002"
       class="st5"
       v:langID="1033"
       id="text631"
       style="font-style:normal;font-variant:normal;font-weight:normal;font-stretch:normal;font-size:7.99996805px;font-family:Arial;-inkscape-font-specification:Arial;fill:#000000"><v:paragraph
   v:horizAlign="1" /><v:tabList />T<tspan
   dy="0"
   class="st6"
   v:baseFontSize="8"
   id="tspan633"
   style="font-style:normal;font-variant:normal;font-weight:normal;font-stretch:normal;font-size:5.19900322px;font-family:Arial;-inkscape-font-specification:Arial;baseline-shift:-32.49390125%">R</tspan></text>
<text
       x="200.825"
       y="120.54781"
       class="st5"
       v:langID="1033"
       id="text642"
       style="font-style:normal;font-variant:normal;font-weight:normal;font-stretch:normal;font-size:7.99996805px;font-family:Arial;-inkscape-font-specification:Arial;fill:#000000"><v:paragraph
   v:horizAlign="1" /><v:tabList />T<tspan
   dy="0"
   class="st6"
   v:baseFontSize="8"
   id="tspan644"
   style="font-style:normal;font-variant:normal;font-weight:normal;font-stretch:normal;font-size:5.19900322px;font-family:Arial;-inkscape-font-specification:Arial;baseline-shift:-32.49390125%">S</tspan></text>
<text
       x="182.84399"
       y="80.263"
       class="st2"
       v:langID="1033"
       id="text653"
       style="font-style:normal;font-variant:normal;font-weight:normal;font-stretch:normal;font-size:5.99990416px;font-family:Arial;-inkscape-font-specification:Arial;fill:#000000"><v:paragraph
   v:horizAlign="1" /><v:tabList />T<tspan
   dy="0"
   class="st20"
   v:baseFontSize="6"
   id="tspan655"
   style="font-style:normal;font-variant:normal;font-weight:normal;font-stretch:normal;font-size:3.89931965px;font-family:Arial;-inkscape-font-specification:Arial;baseline-shift:-32.49489963%">S</tspan></text>
<text
       x="181.312"
       y="63.855003"
       class="st5"
       v:langID="1033"
       id="text664"
       style="font-style:normal;font-variant:normal;font-weight:normal;font-stretch:normal;font-size:7.99996805px;font-family:Arial;-inkscape-font-specification:Arial;fill:#000000"><v:paragraph
   v:horizAlign="1" /><v:tabList />2T<tspan
   dy="0"
   class="st6"
   v:baseFontSize="8"
   id="tspan666"
   style="font-style:normal;font-variant:normal;font-weight:normal;font-stretch:normal;font-size:5.19900322px;font-family:Arial;-inkscape-font-specification:Arial;baseline-shift:-32.49390125%">S</tspan><tspan
   dy="0"
   class="st7"
   id="tspan668"
   style="font-style:normal;font-variant:normal;font-weight:normal;font-stretch:normal;font-size:7.99996805px;font-family:Arial;-inkscape-font-specification:Arial">+</tspan>T<tspan
   dy="0"
   class="st6"
   v:baseFontSize="8"
   id="tspan670"
   style="font-style:normal;font-variant:normal;font-weight:normal;font-stretch:normal;font-size:5.19900322px;font-family:Arial;-inkscape-font-specification:Arial;baseline-shift:-32.49390125%">C</tspan></text>
<text
       x="227.763"
       y="67.593002"
       class="st5"
       v:langID="1033"
       id="text679"
       style="font-style:normal;font-variant:normal;font-weight:normal;font-stretch:normal;font-size:7.99996805px;font-family:Arial;-inkscape-font-specification:Arial;fill:#000000"><v:paragraph
   v:horizAlign="1" /><v:tabList />T<tspan
   dy="0"
   class="st6"
   v:baseFontSize="8"
   id="tspan681"
   style="font-style:normal;font-variant:normal;font-weight:normal;font-stretch:normal;font-size:5.19900322px;font-family:Arial;-inkscape-font-specification:Arial;baseline-shift:-32.49390125%">N</tspan></text>
<text
       x="192.474"
       y="80.263"
       class="st2"
       v:langID="1033"
       id="text690"
       style="font-style:normal;font-variant:normal;font-weight:normal;font-stretch:normal;font-size:5.99990416px;font-family:Arial;-inkscape-font-specification:Arial;fill:#000000"><v:paragraph
   v:horizAlign="1" /><v:tabList />T<tspan
   dy="0"
   class="st20"
   v:baseFontSize="6"
   id="tspan692"
   style="font-style:normal;font-variant:normal;font-weight:normal;font-stretch:normal;font-size:3.89931965px;font-family:Arial;-inkscape-font-specification:Arial;baseline-shift:-32.49489963%">C</tspan></text>
<text
       x="241.145"
       y="156.3703"
       class="st5"
       v:langID="1033"
       id="text701"
       style="font-style:normal;font-variant:normal;font-weight:normal;font-stretch:normal;font-size:7.99996805px;font-family:Arial;-inkscape-font-specification:Arial;fill:#000000"><v:paragraph
   v:horizAlign="1" /><v:tabList />&lt;2T<tspan
   dy="0"
   class="st6"
   v:baseFontSize="8"
   id="tspan703"
   style="font-style:normal;font-variant:normal;font-weight:normal;font-stretch:normal;font-size:5.19900322px;font-family:Arial;-inkscape-font-specification:Arial;baseline-shift:-32.49390125%">S</tspan><tspan
   dy="0"
   class="st7"
   id="tspan705"
   style="font-style:normal;font-variant:normal;font-weight:normal;font-stretch:normal;font-size:7.99996805px;font-family:Arial;-inkscape-font-specification:Arial">+</tspan>T<tspan
   dy="0"
   class="st6"
   v:baseFontSize="8"
   id="tspan707"
   style="font-style:normal;font-variant:normal;font-weight:normal;font-stretch:normal;font-size:5.19900322px;font-family:Arial;-inkscape-font-specification:Arial;baseline-shift:-32.49390125%">C</tspan></text>
</g></svg>