<?xml version="1.0" encoding="UTF-8" standalone="no"?>
<svg
   xmlns:v="http://schemas.microsoft.com/visio/2003/SVGExtensions/"
   xmlns:dc="http://purl.org/dc/elements/1.1/"
   xmlns:cc="http://creativecommons.org/ns#"
   xmlns:rdf="http://www.w3.org/1999/02/22-rdf-syntax-ns#"
   xmlns:svg="http://www.w3.org/2000/svg"
   xmlns="http://www.w3.org/2000/svg"
   version="1.1"
   id="svg2"
   class="st19"
   color-interpolation-filters="sRGB"
   xml:space="preserve"
   viewBox="0 0 460.63 184.252"
   height="2.55906in"
   width="6.39764in"><metadata
     id="metadata682"><rdf:RDF><cc:Work
         rdf:about=""><dc:format>image/svg+xml</dc:format><dc:type
           rdf:resource="http://purl.org/dc/dcmitype/StillImage" /><dc:title></dc:title></cc:Work></rdf:RDF></metadata><defs
     id="defs680" /><v:documentProperties
     v:viewMarkup="false"
     v:langID="1033"><v:userDefs><v:ud
         v:val="VT0(1):26"
         v:nameU="msvNoAutoConnect" /><v:ud
         v:nameU="msvConvertTheme" /></v:userDefs></v:documentProperties><style
     id="style4"
     type="text/css"><![CDATA[
		.st1 {fill:none;stroke:none;stroke-linecap:butt;stroke-width:0.75}
		.st2 {fill:#000000;font-family:Arial;font-size:0.499992em}
		.st3 {fill:none;stroke:#ffffff;stroke-linecap:round;stroke-linejoin:round;stroke-width:0.25}
		.st4 {fill:#000000;stroke:#000000;stroke-linecap:round;stroke-linejoin:round;stroke-width:0.0149927}
		.st5 {stroke:none;stroke-linecap:round;stroke-linejoin:round;stroke-width:0.75}
		.st6 {fill:#000000;font-family:Arial;font-size:0.666664em;font-weight:bold}
		.st7 {stroke:#000000;stroke-linecap:round;stroke-linejoin:round;stroke-width:0.719651}
		.st8 {fill:#000000;font-family:Arial;font-size:0.458336em}
		.st9 {fill:#000000;stroke:#000000;stroke-linecap:round;stroke-linejoin:round;stroke-width:0.00749637}
		.st10 {fill:#000000;stroke:#000000;stroke-linecap:round;stroke-linejoin:round;stroke-width:0.0299855}
		.st11 {fill:#000000;font-family:Arial;font-size:0.666664em}
		.st12 {baseline-shift:-32.4939%;font-size:0.649878em}
		.st13 {fill:#009900;stroke:none;stroke-linecap:round;stroke-linejoin:round;stroke-width:0.75}
		.st14 {fill:#ff0000;stroke:none;stroke-linecap:round;stroke-linejoin:round;stroke-width:0.75}
		.st15 {fill:#ffc000;stroke:none;stroke-linecap:round;stroke-linejoin:round;stroke-width:0.75}
		.st16 {fill:#3399ff;stroke:none;stroke-linecap:round;stroke-linejoin:round;stroke-width:0.75}
		.st17 {stroke:#080808;stroke-linecap:round;stroke-linejoin:round;stroke-width:0.719651}
		.st18 {font-size:1em}
		.st19 {fill:none;fill-rule:evenodd;font-size:12px;overflow:visible;stroke-linecap:square;stroke-miterlimit:3}
	]]></style><path
     style="fill:#000000;stroke:#000000;stroke-width:0.0149927;stroke-linecap:round;stroke-linejoin:round"
     id="path32"
     class="st4"
     d="m 254.78,93.4833 -0.01,2.08 0.52,0.01 0.01,-2.08 -0.52,-0.01 0,0 z m -0.02,3.63 -0.01,2.08 0.52,0.01 0.01,-2.08 -0.52,-0.01 0,0 z m -0.02,3.63 -0.03,2.08 0.52,0.01 0.03,-2.08 -0.52,-0.01 0,0 z m -0.04,3.63 -0.01,2.07 0.52,0.01 0.01,-2.07 -0.52,-0.01 0,0 z m -0.02,3.63 -0.01,2.07 0.52,0.01 0.01,-2.07 -0.52,-0.01 0,0 z m -0.02,3.63 -0.02,2.07 0.52,0.01 0.02,-2.07 -0.52,-0.01 0,0 z m -0.03,3.63 -0.01,2.07 0.52,0.01 0.01,-2.07 -0.52,-0.01 0,0 z m -0.02,3.63 -0.01,2.07 0.52,0.01 0.01,-2.07 -0.52,-0.01 0,0 z m -0.03,3.63 -0.02,2.07 0.52,0.01 0.02,-2.07 -0.52,-0.01 0,0 z m -0.03,3.63 -0.01,2.07 0.52,0.01 0.01,-2.07 -0.52,-0.01 0,0 z m -0.02,3.62 -0.01,1.04 0.52,0.01 0.01,-1.03 -0.52,-0.02 0,0 z" /><path
     style="fill:#000000;stroke:#000000;stroke-width:0.0149927;stroke-linecap:round;stroke-linejoin:round"
     id="path37"
     class="st4"
     d="m 228.895,18.9984 0,2.08 -0.52,0 0,-2.08 0.52,0 0,0 z m 0,3.63 0,2.08 -0.52,0 0,-2.08 0.52,0 0,0 z m 0,3.63 0,2.08 -0.52,0 0,-2.08 0.52,0 0,0 z m 0,3.63 0,2.08 -0.52,0 0,-2.08 0.52,0 0,0 z m 0,3.63 0,2.07 -0.52,0 0,-2.07 0.52,0 0,0 z m 0,3.63 0,2.07 -0.52,0 0,-2.07 0.52,0 0,0 z m 0,3.63 0,2.07 -0.52,0 0,-2.07 0.52,0 0,0 z m 0,3.63 0,2.07 -0.52,0 0,-2.07 0.52,0 0,0 z m 0,3.63 0,2.07 -0.52,0 0,-2.07 0.52,0 0,0 z m 0,3.63 0,2.07 -0.52,0 0,-2.07 0.52,0 0,0 z m 0,3.63 0,2.07 -0.52,0 0,-2.07 0.52,0 0,0 z m 0,3.62 0,2.08 -0.52,0 0,-2.08 0.52,0 0,0 z m 0,3.63 0,2.08 -0.52,0 0,-2.08 0.52,0 0,0 z m 0,3.63 0,2.08 -0.52,0 0,-2.08 0.52,0 0,0 z m 0,3.63 0,2.08 -0.52,0 0,-2.08 0.52,0 0,0 z m 0,3.63 0,2.08 -0.52,0 0,-2.08 0.52,0 0,0 z m 0,3.63 0,2.07 -0.52,0 0,-2.07 0.52,0 0,0 z m 0,3.63 0,2.07 -0.52,0 0,-2.07 0.52,0 0,0 z m 0,3.63 0,2.07 -0.52,0 0,-2.07 0.52,0 0,0 z m 0,3.63 0,2.07 -0.52,0 0,-2.07 0.52,0 0,0 z m 0,3.63 0,2.07 -0.52,0 0,-2.07 0.52,0 0,0 z m 0,3.63 0,2.07 -0.52,0 0,-2.07 0.52,0 0,0 z m 0,3.63 0,2.07 -0.52,0 0,-2.07 0.52,0 0,0 z m 0,3.62 0,2.08 -0.52,0 0,-2.08 0.52,0 0,0 z m 0,3.63 0,2.08 -0.52,0 0,-2.08 0.52,0 0,0 z m 0,3.63 0,2.08 -0.52,0 0,-2.08 0.52,0 0,0 z m 0,3.63 0,2.08 -0.52,0 0,-2.08 0.52,0 0,0 z m 0,3.63 0,2.07 -0.52,0 0,-2.07 0.52,0 0,0 z m 0,3.63 0,2.07 -0.52,0 0,-2.07 0.52,0 0,0 z m 0,3.63 0,2.07 -0.52,0 0,-2.07 0.52,0 0,0 z m 0,3.63 0,2.07 -0.52,0 0,-2.07 0.52,0 0,0 z m 0,3.63 0,1.81 -0.52,0 0,-1.81 0.52,0 0,0 z" /><path
     style="fill:#000000;stroke:#000000;stroke-width:0.0149927;stroke-linecap:round;stroke-linejoin:round"
     id="path42"
     class="st4"
     d="m 173.056,49.939 0,2.07 0.52,0 0,-2.07 -0.52,0 0,0 z m 0,3.63 0,2.07 0.52,0 0,-2.07 -0.52,0 0,0 z m 0,3.63 0,2.07 0.52,0 0,-2.07 -0.52,0 0,0 z m 0,3.63 0,2.07 0.52,0 0,-2.07 -0.52,0 0,0 z m 0,3.62 0,2.08 0.52,0 0,-2.08 -0.52,0 0,0 z m 0,3.63 0,2.08 0.52,0 0,-2.08 -0.52,0 0,0 z m 0,3.63 0,2.08 0.52,0 0,-2.08 -0.52,0 0,0 z m 0,3.63 0,2.08 0.52,0 0,-2.08 -0.52,0 0,0 z m 0,3.63 0,2.07 0.52,0 0,-2.07 -0.52,0 0,0 z m 0,3.63 0,2.07 0.52,0 0,-2.07 -0.52,0 0,0 z m 0,3.63 0,2.07 0.52,0 0,-2.07 -0.52,0 0,0 z m 0,3.63 0,2.07 0.52,0 0,-2.07 -0.52,0 0,0 z" /><path
     style="fill:#000000;stroke:#000000;stroke-width:0.0149927;stroke-linecap:round;stroke-linejoin:round"
     id="path47"
     class="st4"
     d="m 272.876,34.208 0,2.08 0.52,0.01 0,-2.08 -0.52,-0.01 0,0 z m -0.01,3.63 -0.02,2.08 0.52,0.01 0.02,-2.08 -0.52,-0.01 0,0 z m -0.02,3.63 -0.01,2.08 0.52,0.01 0.01,-2.08 -0.52,-0.01 0,0 z m -0.02,3.63 -0.01,2.07 0.52,0.01 0.01,-2.07 -0.52,-0.01 0,0 z m -0.01,3.63 -0.01,2.07 0.52,0.01 0.01,-2.07 -0.52,-0.01 0,0 z m -0.02,3.63 -0.01,1.38 0.52,0.01 0.01,-1.38 -0.52,-0.01 0,0 z" /><path
     style="stroke:#000000;stroke-width:0.71965098;stroke-linecap:round;stroke-linejoin:round"
     id="path61"
     class="st7"
     d="m 355.639,39.134 -70.04,0" /><path
     style="stroke:#000000;stroke-width:0.71965098;stroke-linecap:round;stroke-linejoin:round"
     id="path66"
     class="st7"
     d="m 285.859,39.227 0,9.93" /><path
     style="stroke:#000000;stroke-width:0.71965098;stroke-linecap:round;stroke-linejoin:round"
     id="path71"
     class="st7"
     d="m 173.315,39.227 0,9.93" /><path
     style="stroke:#000000;stroke-width:0.71965098;stroke-linecap:round;stroke-linejoin:round"
     id="path76"
     class="st7"
     d="m 173.318,39.134 -69.26,0" /><path
     style="stroke:#000000;stroke-width:0.71965098;stroke-linecap:round;stroke-linejoin:round"
     id="path81"
     class="st7"
     d="m 285.945,49.33 -112.63,0" /><path
     style="fill:#000000;stroke:#000000;stroke-width:0.0149927;stroke-linecap:round;stroke-linejoin:round"
     id="path86"
     class="st4"
     d="m 285.683,39.393 -2.07,0 0,-0.52 2.07,0 0,0.52 0,0 z m -3.63,0 -2.08,0 0,-0.52 2.08,0 0,0.52 0,0 z m -3.64,0 -2.08,0 0,-0.52 2.08,0 0,0.52 0,0 z m -3.64,0 -1.64,0 0,-0.52 1.64,0 0,0.52 0,0 z" /><path
     style="fill:#000000;stroke:#000000;stroke-width:0.0149927;stroke-linecap:round;stroke-linejoin:round"
     id="path91"
     class="st4"
     d="m 276.483,46.132 5.77,0 0,0.52 -5.77,0 0,-0.52 0,0 z m 0.72,2.42 -4.33,-2.16 4.33,-2.16 0,4.32 0,0 z m 4.33,-4.32 4.33,2.16 -4.33,2.16 0,-4.32 0,0 z" /><path
     style="stroke:#000000;stroke-width:0.71965098;stroke-linecap:round;stroke-linejoin:round"
     id="path105"
     class="st7"
     d="m 104.058,34.554 82.24,0" /><path
     style="stroke:#000000;stroke-width:0.71965098;stroke-linecap:round;stroke-linejoin:round"
     id="path110"
     class="st7"
     d="m 186.301,34.295 0,-10.02" /><path
     style="stroke:#000000;stroke-width:0.71965098;stroke-linecap:round;stroke-linejoin:round"
     id="path115"
     class="st7"
     d="m 273.133,34.122 0,-9.5" /><path
     style="stroke:#000000;stroke-width:0.71965098;stroke-linecap:round;stroke-linejoin:round"
     id="path120"
     class="st7"
     d="m 273.219,34.209 83.02,0" /><path
     style="stroke:#000000;stroke-width:0.71965098;stroke-linecap:round;stroke-linejoin:round"
     id="path125"
     class="st7"
     d="m 181.972,24.445 91.16,0" /><path
     style="fill:#000000;stroke:#000000;stroke-width:0.0149927;stroke-linecap:round;stroke-linejoin:round"
     id="path130"
     class="st4"
     d="m 173.576,34.381 0,-2.07 -0.52,0 0,2.07 0.52,0 0,0 z m 0,-3.63 0,-2.07 -0.52,0 0,2.07 0.52,0 0,0 z m 0,-3.63 0,-2.07 -0.52,0 0,2.07 0.52,0 0,0 z m 0,-3.63 0,-2.07 -0.52,0 0,2.07 0.52,0 0,0 z m 0,-3.62 0,-2.08 -0.52,0 0,2.08 0.52,0 0,0 z" /><path
     style="fill:#000000;stroke:#000000;stroke-width:0.0149927;stroke-linecap:round;stroke-linejoin:round"
     id="path135"
     class="st4"
     d="m 173.315,24.184 2.08,0 0,0.52 -2.08,0 0,-0.52 0,0 z m 3.64,0 2.07,0 0,0.52 -2.07,0 0,-0.52 0,0 z m 3.63,0 1.39,0 0,0.52 -1.39,0 0,-0.52 0,0 z" /><path
     style="fill:#000000;stroke:#000000;stroke-width:0.0149927;stroke-linecap:round;stroke-linejoin:round"
     id="path140"
     class="st4"
     d="m 176.925,31.702 5.77,0 0,0.52 -5.77,0 0,-0.52 0,0 z m 0.72,2.42 -4.33,-2.16 4.33,-2.16 0,4.32 0,0 z m 4.33,-4.32 4.33,2.16 -4.33,2.16 0,-4.32 0,0 z" /><path
     style="fill:#000000;stroke:#000000;stroke-width:0.00749637;stroke-linecap:round;stroke-linejoin:round"
     id="path172"
     class="st9"
     d="m 130.29,65.747 0,-2.07 -0.52,0 0,2.07 0.52,0 0,0 z m 0,-3.63 0,-2.07 -0.52,0 0,2.07 0.52,0 0,0 z m 0,-3.63 0,-2.07 -0.52,0 0,2.07 0.52,0 0,0 z" /><path
     style="fill:#000000;stroke:#000000;stroke-width:0.00749637;stroke-linecap:round;stroke-linejoin:round"
     id="path177"
     class="st9"
     d="m 130.029,54.513 2.08,0 0,0.52 -2.08,0 0,-0.52 0,0 z m 3.64,0 2.07,0 0,0.52 -2.07,0 0,-0.52 0,0 z m 3.63,0 2.08,0 0,0.52 -2.08,0 0,-0.52 0,0 z m 3.64,0 2.08,0 0,0.52 -2.08,0 0,-0.52 0,0 z" /><path
     style="stroke:#000000;stroke-width:0.71965098;stroke-linecap:round;stroke-linejoin:round"
     id="path182"
     class="st7"
     d="m 333.473,65.661 0,-10.8" /><path
     style="stroke:#000000;stroke-width:0.71965098;stroke-linecap:round;stroke-linejoin:round"
     id="path187"
     class="st7"
     d="m 333.3,65.747 24.67,0" /><path
     style="stroke:#000000;stroke-width:0.71965098;stroke-linecap:round;stroke-linejoin:round"
     id="path192"
     class="st7"
     d="m 143.015,65.488 0,-10.54" /><path
     style="stroke:#000000;stroke-width:0.71965098;stroke-linecap:round;stroke-linejoin:round"
     id="path197"
     class="st7"
     d="m 108.386,65.661 34.63,0" /><path
     style="stroke:#000000;stroke-width:0.71965098;stroke-linecap:round;stroke-linejoin:round"
     id="path202"
     class="st7"
     d="m 143.015,54.774 190.63,0" /><path
     style="fill:#000000;stroke:#000000;stroke-width:0.00749637;stroke-linecap:round;stroke-linejoin:round"
     id="path207"
     class="st9"
     d="m 133.639,62.809 5.77,0 0,0.52 -5.77,0 0,-0.52 0,0 z m 0.72,2.42 -4.33,-2.16 4.33,-2.16 0,4.32 0,0 z m 4.33,-4.32 4.33,2.16 -4.33,2.16 0,-4.32 0,0 z" /><path
     style="fill:#000000;stroke:#000000;stroke-width:0.00749637;stroke-linecap:round;stroke-linejoin:round"
     id="path221"
     class="st9"
     d="m 130.29,18.2208 0,2.08 -0.52,0 0,-2.08 0.52,0 0,0 z m 0,3.63 0,2.08 -0.52,0 0,-2.08 0.52,0 0,0 z m 0,3.63 0,2.08 -0.52,0 0,-2.08 0.52,0 0,0 z m 0,3.63 0,2.08 -0.52,0 0,-2.08 0.52,0 0,0 z m 0,3.63 0,2.07 -0.52,0 0,-2.07 0.52,0 0,0 z m 0,3.63 0,2.07 -0.52,0 0,-2.07 0.52,0 0,0 z m 0,3.63 0,2.07 -0.52,0 0,-2.07 0.52,0 0,0 z m 0,3.63 0,2.07 -0.52,0 0,-2.07 0.52,0 0,0 z m 0,3.63 0,2.07 -0.52,0 0,-2.07 0.52,0 0,0 z m 0,3.63 0,2.07 -0.52,0 0,-2.07 0.52,0 0,0 z m 0,3.63 0,2.07 -0.52,0 0,-2.07 0.52,0 0,0 z m 0,3.62 0,2.08 -0.52,0 0,-2.08 0.52,0 0,0 z m 0,3.63 0,2.08 -0.52,0 0,-2.08 0.52,0 0,0 z m 0,3.63 0,2.08 -0.52,0 0,-2.08 0.52,0 0,0 z m 0,3.63 0,2.08 -0.52,0 0,-2.08 0.52,0 0,0 z m 0,3.63 0,2.08 -0.52,0 0,-2.08 0.52,0 0,0 z m 0,3.63 0,2.07 -0.52,0 0,-2.07 0.52,0 0,0 z m 0,3.63 0,2.07 -0.52,0 0,-2.07 0.52,0 0,0 z m 0,3.63 0,2.07 -0.52,0 0,-2.07 0.52,0 0,0 z m 0,3.63 0,2.07 -0.52,0 0,-2.07 0.52,0 0,0 z m 0,3.63 0,2.07 -0.52,0 0,-2.07 0.52,0 0,0 z m 0,3.63 0,2.07 -0.52,0 0,-2.07 0.52,0 0,0 z m 0,3.63 0,2.07 -0.52,0 0,-2.07 0.52,0 0,0 z m 0,3.62 0,2.08 -0.52,0 0,-2.08 0.52,0 0,0 z m 0,3.63 0,2.08 -0.52,0 0,-2.08 0.52,0 0,0 z m 0,3.63 0,2.08 -0.52,0 0,-2.08 0.52,0 0,0 z m 0,3.63 0,2.08 -0.52,0 0,-2.08 0.52,0 0,0 z m 0,3.63 0,2.07 -0.52,0 0,-2.07 0.52,0 0,0 z m 0,3.63 0,2.07 -0.52,0 0,-2.07 0.52,0 0,0 z m 0,3.63 0,2.07 -0.52,0 0,-2.07 0.52,0 0,0 z m 0,3.63 0,2.07 -0.52,0 0,-2.07 0.52,0 0,0 z" /><path
     style="fill:#000000;stroke:#000000;stroke-width:0.0149927;stroke-linecap:round;stroke-linejoin:round"
     id="path226"
     class="st4"
     d="m 186.561,25.3948 0,2.08 -0.52,0 0,-2.08 0.52,0 0,0 z m 0,3.63 0,2.08 -0.52,0 0,-2.08 0.52,0 0,0 z m 0,3.63 0,2.07 -0.52,0 0,-2.07 0.52,0 0,0 z m 0,3.63 0,2.07 -0.52,0 0,-2.07 0.52,0 0,0 z m 0,3.63 0,2.07 -0.52,0 0,-2.07 0.52,0 0,0 z m 0,3.63 0,2.07 -0.52,0 0,-2.07 0.52,0 0,0 z m 0,3.63 0,2.07 -0.52,0 0,-2.07 0.52,0 0,0 z m 0,3.63 0,2.07 -0.52,0 0,-2.07 0.52,0 0,0 z m 0,3.63 0,2.07 -0.52,0 0,-2.07 0.52,0 0,0 z m 0,3.62 0,2.08 -0.52,0 0,-2.08 0.52,0 0,0 z m 0,3.63 0,2.08 -0.52,0 0,-2.08 0.52,0 0,0 z m 0,3.63 0,2.08 -0.52,0 0,-2.08 0.52,0 0,0 z m 0,3.63 0,2.08 -0.52,0 0,-2.08 0.52,0 0,0 z m 0,3.63 0,2.07 -0.52,0 0,-2.07 0.52,0 0,0 z m 0,3.63 0,2.07 -0.52,0 0,-2.07 0.52,0 0,0 z m 0,3.63 0,2.07 -0.52,0 0,-2.07 0.52,0 0,0 z m 0,3.63 0,2.07 -0.52,0 0,-2.07 0.52,0 0,0 z" /><path
     style="fill:#000000;stroke:#000000;stroke-width:0.0149927;stroke-linecap:round;stroke-linejoin:round"
     id="path231"
     class="st4"
     d="m 203.789,84.5841 0.01,2.08 -0.52,0.01 -0.01,-2.08 0.52,-0.01 0,0 z m 0.01,3.63 0.01,2.08 -0.52,0.01 -0.01,-2.08 0.52,-0.01 0,0 z m 0.01,3.63 0.01,2.07 -0.52,0.02 -0.01,-2.08 0.52,-0.01 0,0 z m 0.01,3.63 0.01,2.07 -0.52,0.01 -0.01,-2.07 0.52,-0.01 0,0 z m 0.01,3.63 0.01,2.07 -0.52,0.01 -0.01,-2.07 0.52,-0.01 0,0 z m 0.01,3.63 0.01,2.07 -0.52,0.01 -0.01,-2.07 0.52,-0.01 0,0 z m 0.01,3.63 0,2.07 -0.52,0.01 0,-2.07 0.52,-0.01 0,0 z m 0.02,3.63 0,2.07 -0.52,0.01 0,-2.07 0.52,-0.01 0,0 z m 0.01,3.63 0,2.07 -0.52,0.01 0,-2.07 0.52,-0.01 0,0 z m 0.01,3.62 0,2.08 -0.52,0.01 0,-2.07 0.52,-0.02 0,0 z m 0.01,3.63 0,2.08 -0.52,0.01 0,-2.08 0.52,-0.01 0,0 z m 0,3.63 0.01,2.08 -0.52,0.01 -0.01,-2.08 0.52,-0.01 0,0 z m 0.01,3.63 0.01,2.08 -0.52,0.01 -0.01,-2.08 0.52,-0.01 0,0 z m 0.01,3.63 0.01,2.07 -0.52,0.02 -0.01,-2.08 0.52,-0.01 0,0 z m 0.01,3.63 0.01,2.07 -0.52,0.01 -0.01,-2.07 0.52,-0.01 0,0 z m 0.01,3.63 0.01,2.07 -0.52,0.01 -0.01,-2.07 0.52,-0.01 0,0 z m 0.01,3.63 0.01,2.07 -0.52,0.01 -0.01,-2.07 0.52,-0.01 0,0 z m 0.01,3.63 0,2.07 -0.52,0.01 0,-2.07 0.52,-0.01 0,0 z" /><path
     style="fill:#000000;stroke:#000000;stroke-width:0.0149927;stroke-linecap:round;stroke-linejoin:round"
     id="path236"
     class="st4"
     d="m 272.79,47.174 0,2.07 0.52,0 0,-2.07 -0.52,0 0,0 z m 0,3.63 0,2.07 0.52,0 0,-2.07 -0.52,0 0,0 z m 0,3.63 0,2.07 0.52,0 0,-2.07 -0.52,0 0,0 z m 0,3.63 -0.01,2.07 0.52,0 0.01,-2.07 -0.52,0 0,0 z m -0.01,3.62 0,2.08 0.52,0 0,-2.08 -0.52,0 0,0 z m 0,3.63 0,2.08 0.52,0 0,-2.08 -0.52,0 0,0 z m 0,3.63 -0.02,2.08 0.52,0 0.02,-2.08 -0.52,0 0,0 z m -0.02,3.63 0,2.08 0.52,0 0,-2.08 -0.52,0 0,0 z m 0,3.63 0,2.07 0.52,0 0,-2.07 -0.52,0 0,0 z m 0,3.63 0,2.07 0.52,0 0,-2.07 -0.52,0 0,0 z m -0.01,3.63 0,2.07 0.52,0 0,-2.07 -0.52,0 0,0 z m 0,3.63 0,2.07 0.52,0 0,-2.07 -0.52,0 0,0 z m 0,3.63 0,2.07 0.52,0 0,-2.07 -0.52,0 0,0 z m 0,3.63 -0.01,2.07 0.52,0 0.01,-2.07 -0.52,0 0,0 z m -0.01,3.63 0,2.07 0.52,0 0,-2.07 -0.52,0 0,0 z m 0,3.62 0,2.08 0.52,0 0,-2.08 -0.52,0 0,0 z m 0,3.63 -0.01,2.08 0.52,0 0.01,-2.08 -0.52,0 0,0 z m -0.01,3.63 0,2.08 0.52,0 0,-2.08 -0.52,0 0,0 z m 0,3.63 0,2.08 0.52,0 0,-2.08 -0.52,0 0,0 z m 0,3.63 0,2.07 0.52,0 0,-2.07 -0.52,0 0,0 z m -0.01,3.63 0,2.07 0.52,0 0,-2.07 -0.52,0 0,0 z m 0,3.63 0,2.07 0.52,0 0,-2.07 -0.52,0 0,0 z m 0,3.63 0,2.07 0.52,0 0,-2.07 -0.52,0 0,0 z m -0.01,3.63 0,2.07 0.52,0 0,-2.07 -0.52,0 0,0 z m 0,3.63 0,2.07 0.52,0 0,-2.07 -0.52,0 0,0 z m 0,3.63 0,2.07 0.52,0 0,-2.07 -0.52,0 0,0 z m 0,3.63 -0.01,1.03 0.52,0 0.01,-1.03 -0.52,0 0,0 z" /><path
     style="fill:#000000;stroke:#000000;stroke-width:0.0149927;stroke-linecap:round;stroke-linejoin:round"
     id="path241"
     class="st4"
     d="m 333.733,80.7851 0.01,2.07 -0.52,0.01 -0.01,-2.07 0.52,-0.01 0,0 z m 0.02,3.63 0,2.07 -0.52,0.01 0,-2.07 0.52,-0.01 0,0 z m 0.01,3.63 0,2.07 -0.52,0.01 0,-2.07 0.52,-0.01 0,0 z m 0.01,3.63 0,2.07 -0.52,0.01 0,-2.07 0.52,-0.01 0,0 z m 0.01,3.63 0.01,2.07 -0.52,0.01 -0.01,-2.07 0.52,-0.01 0,0 z m 0.01,3.62 0.02,2.08 -0.52,0.01 -0.02,-2.07 0.52,-0.02 0,0 z m 0.02,3.63 0.01,2.08 -0.52,0.01 -0.01,-2.08 0.52,-0.01 0,0 z m 0.01,3.63 0.01,2.08 -0.52,0.01 -0.01,-2.08 0.52,-0.01 0,0 z m 0.01,3.63 0.01,2.08 -0.52,0.01 -0.01,-2.08 0.52,-0.01 0,0 z m 0.02,3.63 0,2.08 -0.52,0.01 0,-2.08 0.52,-0.01 0,0 z m 0.01,3.63 0,2.07 -0.52,0.02 0,-2.08 0.52,-0.01 0,0 z m 0.01,3.63 0,2.07 -0.52,0.01 0,-2.07 0.52,-0.01 0,0 z m 0.01,3.63 0.01,2.07 -0.52,0.01 -0.01,-2.07 0.52,-0.01 0,0 z m 0.01,3.63 0.01,2.07 -0.52,0.01 -0.01,-2.07 0.52,-0.01 0,0 z m 0.01,3.63 0,0.86 -0.52,0.01 0,-0.86 0.52,-0.01 0,0 z" /><path
     style="fill:#000000;stroke:#000000;stroke-width:0.0149927;stroke-linecap:round;stroke-linejoin:round"
     id="path246"
     class="st4"
     d="m 333.213,66.181 0,2.07 0.52,0 0,-2.07 -0.52,0 0,0 z m 0,3.63 0,2.07 0.52,0 0,-2.07 -0.52,0 0,0 z m 0,3.63 0,2.07 0.52,0 0,-2.07 -0.52,0 0,0 z m 0,3.63 0,2.07 0.52,0 0,-2.07 -0.52,0 0,0 z" /><path
     style="stroke:#000000;stroke-width:0.71965098;stroke-linecap:round;stroke-linejoin:round"
     id="path269"
     class="st7"
     d="m 346.286,69.895 0,10.11" /><path
     style="stroke:#000000;stroke-width:0.71965098;stroke-linecap:round;stroke-linejoin:round"
     id="path274"
     class="st7"
     d="m 130.029,69.812 0,10.02" /><path
     style="stroke:#000000;stroke-width:0.71965098;stroke-linecap:round;stroke-linejoin:round"
     id="path279"
     class="st7"
     d="m 129.856,69.809 -21.47,0" /><path
     style="stroke:#000000;stroke-width:0.71965098;stroke-linecap:round;stroke-linejoin:round"
     id="path284"
     class="st7"
     d="m 357.623,69.809 -11.51,0" /><path
     style="stroke:#000000;stroke-width:0.71965098;stroke-linecap:round;stroke-linejoin:round"
     id="path289"
     class="st7"
     d="m 346.109,80.178 -216.08,-0.08" /><path
     style="fill:#000000;stroke:#000000;stroke-width:0.0299855;stroke-linecap:round;stroke-linejoin:round"
     id="path294"
     class="st10"
     d="m 337.083,76.807 5.78,0 0,0.52 -5.78,0 0,-0.52 0,0 z m 0.72,2.42 -4.33,-2.16 4.33,-2.16 0,4.32 0,0 z m 4.33,-4.32 4.33,2.16 -4.33,2.16 0,-4.32 0,0 z" /><path
     style="fill:#000000;stroke:#000000;stroke-width:0.0299855;stroke-linecap:round;stroke-linejoin:round"
     id="path299"
     class="st10"
     d="m 333.473,69.548 2.08,0 0,0.52 -2.08,0 0,-0.52 0,0 z m 3.64,0 2.07,0 0,0.52 -2.07,0 0,-0.52 0,0 z m 3.63,0 2.08,0 0,0.52 -2.08,0 0,-0.52 0,0 z m 3.64,0 1.9,0 0,0.52 -1.9,0 0,-0.52 0,0 z" /><path
     style="fill:#000000;stroke:#000000;stroke-width:0.0149927;stroke-linecap:round;stroke-linejoin:round"
     id="path326"
     class="st4"
     d="m 189.392,86.8304 10.1,0 0,0.52 -10.1,0 0,-0.52 0,0 z m 0.72,2.42 -4.33,-2.16 4.33,-2.16 0,4.32 0,0 z m 8.66,-4.32 4.32,2.16 -4.32,2.16 0,-4.32 0,0 z" /><path
     style="stroke:#000000;stroke-width:0.71965098;stroke-linecap:round;stroke-linejoin:round"
     id="path331"
     class="st7"
     d="m 130.029,107.2929 c 0.55,-0.42 1.9,-2.83 2.98,-2.57 1.18,0.26 3.07,3.66 4.15,4.07 1.18,0.42 1.9,-0.93 2.61,-1.54 0.73,-0.61 1.27,-1.76 1.81,-2.02 0.54,-0.25 0.99,0.42 1.26,0.51" /><path
     style="stroke:#000000;stroke-width:0.71965098;stroke-linecap:round;stroke-linejoin:round"
     id="path336"
     class="st7"
     d="m 99.7293,107.3096 30.3,0" /><path
     style="stroke:#000000;stroke-width:0.71965098;stroke-linecap:round;stroke-linejoin:round"
     id="path341"
     class="st7"
     d="m 143.015,105.6679 c 0.64,-1.35 2.62,-5.25 3.97,-8.15 1.35,-2.91 2.79,-9.24 4.42,-9.38 1.72,-0.1 3.88,8.11 5.59,8.72 1.81,0.61 3.6,-4.73 5.14,-5.01 1.54,-0.24 3.16,3.18 4.33,3.52 1.08,0.32 1.98,-1.18 2.52,-1.5" /><path
     style="stroke:#000000;stroke-width:0.71965098;stroke-linecap:round;stroke-linejoin:round"
     id="path346"
     class="st7"
     d="m 333.646,93.5765 c 0.91,1.79 3.25,8.51 4.89,10.97 1.62,2.44 3.25,3.8 4.87,3.8 1.62,0 3.14,-3.5 4.76,-3.8 1.63,-0.32 4.07,1.58 4.87,1.9" /><path
     style="stroke:#000000;stroke-width:0.71965098;stroke-linecap:round;stroke-linejoin:round"
     id="path351"
     class="st7"
     d="m 202.75,93.5708 70.47,0" /><path
     style="stroke:#000000;stroke-width:0.71965098;stroke-linecap:round;stroke-linejoin:round"
     id="path356"
     class="st7"
     d="m 302.134,93.4844 30.82,0" /><path
     style="stroke:#000000;stroke-width:0.71965098;stroke-linecap:round;stroke-linejoin:round"
     id="path361"
     class="st7"
     d="m 168.987,93.7436 4.33,0" /><path
     style="stroke:#000000;stroke-width:0.71965098;stroke-linecap:round;stroke-linejoin:round"
     id="path366"
     class="st7"
     d="m 283.608,93.5508 c 0.62,-0.51 2.14,-3.26 3.46,-3.05 1.32,0.22 3.36,3.78 4.57,4.29 1.22,0.51 2.03,-0.88 2.95,-1.29 0.91,-0.38 1.32,-1.05 2.23,-0.96 0.92,0.05 2.15,1.23 3.05,1.39 0.92,0.19 1.94,-0.29 2.44,-0.38" /><path
     style="stroke:#000000;stroke-width:0.71965098;stroke-linecap:round;stroke-linejoin:round"
     id="path371"
     class="st7"
     d="m 272.527,93.5777 c 0.61,-0.36 2.12,-2.42 3.43,-2.2 1.31,0.22 3.42,3.12 4.74,3.48 1.31,0.36 2.41,-1.09 2.91,-1.32" /><path
     style="stroke:#000000;stroke-width:0.71965098;stroke-linecap:round;stroke-linejoin:round"
     id="path376"
     class="st7"
     d="m 184.656,93.5508 c 0.62,-0.51 2.13,-3.26 3.44,-3.05 1.32,0.22 3.35,3.78 4.56,4.29 1.21,0.51 2.02,-0.88 2.93,-1.29 0.91,-0.38 1.32,-1.05 2.23,-0.96 0.91,0.05 2.12,1.23 3.03,1.39 0.91,0.19 1.93,-0.29 2.42,-0.38" /><path
     style="stroke:#000000;stroke-width:0.71965098;stroke-linecap:round;stroke-linejoin:round"
     id="path381"
     class="st7"
     d="m 173.488,93.5777 c 0.62,-0.36 2.13,-2.42 3.45,-2.2 1.32,0.22 3.45,3.12 4.77,3.48 1.32,0.36 2.45,-1.09 2.95,-1.32" /><path
     style="stroke:#000000;stroke-width:0.71965098;stroke-linecap:round;stroke-linejoin:round"
     id="path386"
     class="st7"
     d="m 302.827,132.7135 30.47,0" /><path
     style="stroke:#000000;stroke-width:0.71965098;stroke-linecap:round;stroke-linejoin:round"
     id="path391"
     class="st7"
     d="m 207.425,132.7135 65.1,0" /><path
     style="stroke:#000000;stroke-width:0.71965098;stroke-linecap:round;stroke-linejoin:round"
     id="path396"
     class="st7"
     d="m 95.4007,132.9727 34.63,0" /><path
     style="stroke:#000000;stroke-width:0.71965098;stroke-linecap:round;stroke-linejoin:round"
     id="path401"
     class="st7"
     d="m 160.156,132.7135 17.31,0" /><path
     style="stroke:#000000;stroke-width:0.71965098;stroke-linecap:round;stroke-linejoin:round"
     id="path406"
     class="st7"
     d="m 141.717,132.7794 c 0.61,-0.51 2.13,-3.26 3.44,-3.05 1.32,0.22 3.34,3.78 4.55,4.29 1.22,0.51 2.03,-0.89 2.94,-1.29 0.91,-0.38 1.31,-1.05 2.22,-0.97 0.91,0.05 2.13,1.24 3.04,1.4 0.91,0.19 1.92,-0.3 2.42,-0.38" /><path
     style="stroke:#000000;stroke-width:0.71965098;stroke-linecap:round;stroke-linejoin:round"
     id="path411"
     class="st7"
     d="m 130.549,132.8063 c 0.61,-0.36 2.14,-2.42 3.45,-2.2 1.32,0.22 3.45,3.12 4.77,3.48 1.32,0.36 2.44,-1.1 2.95,-1.31" /><path
     style="stroke:#000000;stroke-width:0.71965098;stroke-linecap:round;stroke-linejoin:round"
     id="path416"
     class="st7"
     d="m 188.638,132.6935 c 0.62,-0.51 2.13,-3.26 3.44,-3.05 1.32,0.22 3.35,3.78 4.56,4.29 1.21,0.51 2.02,-0.88 2.93,-1.29 0.91,-0.38 1.32,-1.05 2.23,-0.96 0.91,0.05 2.12,1.23 3.03,1.39 0.91,0.19 1.93,-0.29 2.42,-0.38" /><path
     style="stroke:#000000;stroke-width:0.71965098;stroke-linecap:round;stroke-linejoin:round"
     id="path421"
     class="st7"
     d="m 177.471,132.7204 c 0.62,-0.36 2.13,-2.42 3.45,-2.2 1.32,0.22 3.45,3.12 4.77,3.48 1.32,0.36 2.45,-1.09 2.95,-1.32" /><path
     style="stroke:#000000;stroke-width:0.71965098;stroke-linecap:round;stroke-linejoin:round"
     id="path426"
     class="st7"
     d="m 284.041,132.6935 c 0.62,-0.51 2.13,-3.26 3.44,-3.05 1.32,0.22 3.35,3.78 4.56,4.29 1.21,0.51 2.02,-0.88 2.93,-1.29 0.91,-0.38 1.32,-1.05 2.23,-0.96 0.91,0.05 2.12,1.23 3.03,1.39 0.91,0.19 1.93,-0.29 2.42,-0.38" /><path
     style="stroke:#000000;stroke-width:0.71965098;stroke-linecap:round;stroke-linejoin:round"
     id="path431"
     class="st7"
     d="m 272.873,132.7204 c 0.62,-0.36 2.13,-2.42 3.45,-2.2 1.32,0.22 3.45,3.12 4.77,3.48 1.32,0.36 2.45,-1.09 2.95,-1.32" /><path
     style="stroke:#000000;stroke-width:0.71965098;stroke-linecap:round;stroke-linejoin:round"
     id="path436"
     class="st7"
     d="m 344.814,132.6902 c 0.63,-0.49 2.14,-3.26 3.44,-3.04 1.32,0.21 3.36,3.78 4.57,4.3 1.21,0.49 2.01,-0.89 2.92,-1.3 0.91,-0.39 1.32,-1.06 2.23,-0.97 0.91,0.04 2.12,1.23 3.03,1.4 0.91,0.2 1.93,-0.3 2.42,-0.39" /><path
     style="stroke:#000000;stroke-width:0.71965098;stroke-linecap:round;stroke-linejoin:round"
     id="path441"
     class="st7"
     d="m 333.646,132.7204 c 0.62,-0.36 2.13,-2.42 3.45,-2.2 1.32,0.22 3.45,3.12 4.77,3.48 1.32,0.36 2.45,-1.09 2.95,-1.32" /><path
     style="fill:#000000;stroke:#000000;stroke-width:0.0149927;stroke-linecap:round;stroke-linejoin:round"
     id="path446"
     class="st4"
     d="m 176.925,21.679 48.11,0 0,0.52 -48.11,0 0,-0.52 0,0 z m 0.72,2.42 -4.33,-2.16 4.33,-2.16 0,4.32 0,0 z m 46.66,-4.32 4.33,2.16 -4.33,2.16 0,-4.32 0,0 z" /><path
     style="fill:#009900;stroke:none;stroke-width:0.75;stroke-linecap:round;stroke-linejoin:round"
     id="path462"
     class="st13"
     d="m 226.47,94.1366 c 0,-1.07 0.9,-1.95 1.99,-1.95 1.1,0 1.99,0.88 1.99,1.95 0,1.08 -0.89,1.94 -1.99,1.94 -1.09,0 -1.99,-0.86 -1.99,-1.94 z" /><path
     style="stroke:#000000;stroke-width:0.71965098;stroke-linecap:round;stroke-linejoin:round"
     id="path467"
     class="st7"
     d="m 226.47,94.1366 c 0,-1.07 0.9,-1.95 1.99,-1.95 1.1,0 1.99,0.88 1.99,1.95 0,1.08 -0.89,1.94 -1.99,1.94 -1.09,0 -1.99,-0.86 -1.99,-1.94" /><path
     style="fill:#000000;stroke:#000000;stroke-width:0.0149927;stroke-linecap:round;stroke-linejoin:round"
     id="path481"
     class="st4"
     d="m 240.855,18.764 -8.88,2.93 0.17,0.5 8.87,-2.94 -0.16,-0.49 0,0 z m -8.79,0.9 -3.43,3.4 4.79,0.7 -1.36,-4.1 0,0 z" /><path
     style="stroke:#000000;stroke-width:0.71965098;stroke-linecap:round;stroke-linejoin:round"
     id="path486"
     class="st7"
     d="m 230.02,85.1892 1.64,-6.82" /><path
     style="stroke:#000000;stroke-width:0.71965098;stroke-linecap:round;stroke-linejoin:round"
     id="path491"
     class="st7"
     d="m 231.578,78.283 1.73,3.45" /><path
     style="fill:#000000;stroke:#000000;stroke-width:0.0149927;stroke-linecap:round;stroke-linejoin:round"
     id="path496"
     class="st4"
     d="m 233.648,82.251 2.2,-6.94 -0.49,-0.15 -2.2,6.93 0.49,0.16 0,0 z m 3.8,-5.68 -0.76,-4.77 -3.37,3.46 4.13,1.31 0,0 z" /><path
     style="fill:#000000;stroke:#000000;stroke-width:0.0149927;stroke-linecap:round;stroke-linejoin:round"
     id="path501"
     class="st4"
     d="m 231.985,89.509 4.56,0 0,0.52 -4.56,0 0,-0.52 0,0 z m 0.72,2.42 -4.33,-2.16 4.33,-2.16 0,4.32 0,0 z m 3.12,-4.32 4.32,2.16 -4.32,2.16 0,-4.32 0,0 z" /><path
     style="fill:#ff0000;stroke:none;stroke-width:0.75;stroke-linecap:round;stroke-linejoin:round"
     id="path506"
     class="st14"
     d="m 238.071,94.2594 c 0,-1.09 0.92,-1.98 2.03,-1.98 1.13,0 2.04,0.89 2.04,1.98 0,1.11 -0.91,1.99 -2.04,1.99 -1.11,0 -2.03,-0.88 -2.03,-1.99 z" /><path
     style="stroke:#000000;stroke-width:0.71965098;stroke-linecap:round;stroke-linejoin:round"
     id="path511"
     class="st7"
     d="m 238.071,94.2594 c 0,-1.09 0.92,-1.98 2.03,-1.98 1.13,0 2.04,0.89 2.04,1.98 0,1.11 -0.91,1.99 -2.04,1.99 -1.11,0 -2.03,-0.88 -2.03,-1.99" /><path
     style="fill:#009900;stroke:none;stroke-width:0.75;stroke-linecap:round;stroke-linejoin:round"
     id="path516"
     class="st13"
     d="m 226.384,94.3458 c 0,-1.09 0.92,-1.98 2.03,-1.98 1.13,0 2.04,0.89 2.04,1.98 0,1.11 -0.91,1.99 -2.04,1.99 -1.11,0 -2.03,-0.88 -2.03,-1.99 z" /><path
     style="stroke:#000000;stroke-width:0.71965098;stroke-linecap:round;stroke-linejoin:round"
     id="path521"
     class="st7"
     d="m 226.384,94.3458 c 0,-1.09 0.92,-1.98 2.03,-1.98 1.13,0 2.04,0.89 2.04,1.98 0,1.11 -0.91,1.99 -2.04,1.99 -1.11,0 -2.03,-0.88 -2.03,-1.99" /><path
     style="fill:#ffc000;stroke:none;stroke-width:0.75;stroke-linecap:round;stroke-linejoin:round"
     id="path537"
     class="st15"
     d="m 253.134,94.2594 c 0,-1.09 0.92,-1.98 2.03,-1.98 1.13,0 2.04,0.89 2.04,1.98 0,1.11 -0.91,1.99 -2.04,1.99 -1.11,0 -2.03,-0.88 -2.03,-1.99 z" /><path
     style="stroke:#000000;stroke-width:0.71965098;stroke-linecap:round;stroke-linejoin:round"
     id="path542"
     class="st7"
     d="m 253.134,94.2594 c 0,-1.09 0.92,-1.98 2.03,-1.98 1.13,0 2.04,0.89 2.04,1.98 0,1.11 -0.91,1.99 -2.04,1.99 -1.11,0 -2.03,-0.88 -2.03,-1.99" /><path
     style="fill:#000000;stroke:#000000;stroke-width:0.0149927;stroke-linecap:round;stroke-linejoin:round"
     id="path547"
     class="st4"
     d="m 244.192,90.029 6.9,0 0,-0.52 -6.9,0 0,0.52 0,0 z m 0.72,-2.42 -4.33,2.16 4.33,2.16 0,-4.32 0,0 z m 5.45,4.32 4.33,-2.16 -4.33,-2.16 0,4.32 0,0 z" /><path
     style="fill:#ff0000;stroke:none;stroke-width:0.75;stroke-linecap:round;stroke-linejoin:round"
     id="path552"
     class="st14"
     d="m 264.649,132.6245 c 0,-1.09 0.92,-1.98 2.03,-1.98 1.13,0 2.04,0.89 2.04,1.98 0,1.11 -0.91,1.99 -2.04,1.99 -1.11,0 -2.03,-0.88 -2.03,-1.99 z" /><path
     style="stroke:#000000;stroke-width:0.71965098;stroke-linecap:round;stroke-linejoin:round"
     id="path557"
     class="st7"
     d="m 264.649,132.6245 c 0,-1.09 0.92,-1.98 2.03,-1.98 1.13,0 2.04,0.89 2.04,1.98 0,1.11 -0.91,1.99 -2.04,1.99 -1.11,0 -2.03,-0.88 -2.03,-1.99" /><path
     style="fill:#009900;stroke:none;stroke-width:0.75;stroke-linecap:round;stroke-linejoin:round"
     id="path562"
     class="st13"
     d="m 252.961,132.7109 c 0,-1.09 0.92,-1.98 2.03,-1.98 1.13,0 2.04,0.89 2.04,1.98 0,1.11 -0.91,1.99 -2.04,1.99 -1.11,0 -2.03,-0.88 -2.03,-1.99 z" /><path
     style="stroke:#000000;stroke-width:0.71965098;stroke-linecap:round;stroke-linejoin:round"
     id="path567"
     class="st7"
     d="m 252.961,132.7109 c 0,-1.09 0.92,-1.98 2.03,-1.98 1.13,0 2.04,0.89 2.04,1.98 0,1.11 -0.91,1.99 -2.04,1.99 -1.11,0 -2.03,-0.88 -2.03,-1.99" /><path
     style="fill:#000000;stroke:#000000;stroke-width:0.0149927;stroke-linecap:round;stroke-linejoin:round"
     id="path572"
     class="st4"
     d="m 258.476,127.9605 4.65,0 0,0.52 -4.65,0 0,-0.52 0,0 z m 0.72,2.42 -4.33,-2.16 4.33,-2.16 0,4.32 0,0 z m 3.2,-4.32 4.33,2.16 -4.33,2.16 0,-4.32 0,0 z" /><path
     style="stroke:#000000;stroke-width:0.71965098;stroke-linecap:round;stroke-linejoin:round"
     id="path588"
     class="st7"
     d="m 255.991,127.7018 1.64,-6.82" /><path
     style="stroke:#000000;stroke-width:0.71965098;stroke-linecap:round;stroke-linejoin:round"
     id="path593"
     class="st7"
     d="m 257.55,120.7955 1.64,3.45" /><path
     style="fill:#000000;stroke:#000000;stroke-width:0.0149927;stroke-linecap:round;stroke-linejoin:round"
     id="path598"
     class="st4"
     d="m 259.533,124.8504 2.27,-7.03 -0.5,-0.16 -2.26,7.03 0.49,0.16 0,0 z m 3.86,-5.75 -0.74,-4.79 -3.38,3.46 4.12,1.33 0,0 z" /><path
     style="fill:#3399ff;stroke:none;stroke-width:0.75;stroke-linecap:round;stroke-linejoin:round"
     id="path603"
     class="st16"
     d="m 203.789,143.0004 0,8.55 68.74,0 0,-8.55 -68.74,0 0,0 z" /><path
     style="stroke:#080808;stroke-width:0.71965098;stroke-linecap:round;stroke-linejoin:round"
     id="path608"
     class="st17"
     d="m 203.789,143.0004 68.74,0 0,8.55 -68.74,0 0,-8.55" /><path
     style="fill:#ff0000;stroke:none;stroke-width:0.75;stroke-linecap:round;stroke-linejoin:round"
     id="path624"
     class="st14"
     d="m 372.084,69.892 c 0,-1.08 0.93,-1.98 2.03,-1.98 1.13,0 2.04,0.9 2.04,1.98 0,1.11 -0.91,1.99 -2.04,1.99 -1.1,0 -2.03,-0.88 -2.03,-1.99 z" /><path
     style="stroke:#000000;stroke-width:0.71965098;stroke-linecap:round;stroke-linejoin:round"
     id="path629"
     class="st7"
     d="m 372.084,69.892 c 0,-1.08 0.93,-1.98 2.03,-1.98 1.13,0 2.04,0.9 2.04,1.98 0,1.11 -0.91,1.99 -2.04,1.99 -1.1,0 -2.03,-0.88 -2.03,-1.99" /><path
     style="fill:#009900;stroke:none;stroke-width:0.75;stroke-linecap:round;stroke-linejoin:round"
     id="path643"
     class="st13"
     d="m 372.084,53.821 c 0,-1.08 0.93,-1.98 2.03,-1.98 1.13,0 2.04,0.9 2.04,1.98 0,1.11 -0.91,1.99 -2.04,1.99 -1.1,0 -2.03,-0.88 -2.03,-1.99 z" /><path
     style="stroke:#000000;stroke-width:0.71965098;stroke-linecap:round;stroke-linejoin:round"
     id="path648"
     class="st7"
     d="m 372.084,53.724 c 0,-1.08 0.93,-1.98 2.03,-1.98 1.13,0 2.04,0.9 2.04,1.98 0,1.11 -0.91,1.99 -2.04,1.99 -1.1,0 -2.03,-0.88 -2.03,-1.99" /><path
     style="fill:#ffc000;stroke:none;stroke-width:0.75;stroke-linecap:round;stroke-linejoin:round"
     id="path662"
     class="st15"
     d="m 372.084,88.7293 c 0,-1.08 0.93,-1.98 2.03,-1.98 1.13,0 2.04,0.9 2.04,1.98 0,1.11 -0.91,1.99 -2.04,1.99 -1.1,0 -2.03,-0.88 -2.03,-1.99 z" /><path
     style="stroke:#000000;stroke-width:0.71965098;stroke-linecap:round;stroke-linejoin:round"
     id="path667"
     class="st7"
     d="m 372.084,88.7293 c 0,-1.08 0.93,-1.98 2.03,-1.98 1.13,0 2.04,0.9 2.04,1.98 0,1.11 -0.91,1.99 -2.04,1.99 -1.1,0 -2.03,-0.88 -2.03,-1.99" /><g
     id="g5343"><text
       x="28.320601"
       y="43.921001"
       class="st6"
       v:langID="1033"
       id="text56"
       style="font-weight:normal;font-size:7.99996805px;font-family:Arial;fill:#000000;-inkscape-font-specification:Arial;font-style:normal;font-stretch:normal;font-variant:normal;"><v:paragraph
   v:horizAlign="2" /><v:tabList />High side phase A</text>
<text
       x="276.44299"
       y="44.575001"
       class="st8"
       v:langID="1033"
       id="text100"
       style="font-size:5.50003195px;font-family:Arial;fill:#000000;-inkscape-font-specification:Arial;font-weight:normal;font-style:normal;font-stretch:normal;font-variant:normal;"><v:paragraph
   v:horizAlign="1" /><v:tabList />DT</text>
<text
       x="176.98"
       y="29.650993"
       class="st8"
       v:langID="1033"
       id="text149"
       style="font-size:5.50003195px;font-family:Arial;fill:#000000;-inkscape-font-specification:Arial;font-weight:normal;font-style:normal;font-stretch:normal;font-variant:normal;"><v:paragraph
   v:horizAlign="1" /><v:tabList />DT</text>
<text
       x="30.090601"
       y="33.534"
       class="st6"
       v:langID="1033"
       id="text158"
       style="font-weight:normal;font-size:7.99996805px;font-family:Arial;fill:#000000;-inkscape-font-specification:Arial;font-style:normal;font-stretch:normal;font-variant:normal;"><v:paragraph
   v:horizAlign="2" /><v:tabList />Low side phase A</text>
<text
       x="30.095301"
       y="64.435005"
       class="st6"
       v:langID="1033"
       id="text167"
       style="font-weight:normal;font-size:7.99996805px;font-family:Arial;fill:#000000;-inkscape-font-specification:Arial;font-style:normal;font-stretch:normal;font-variant:normal;"><v:paragraph
   v:horizAlign="2" /><v:tabList />Low side phase B</text>
<text
       x="133.37601"
       y="61.191002"
       class="st2"
       v:langID="1033"
       id="text216"
       style="font-size:5.99990416px;font-family:Arial;fill:#000000;-inkscape-font-specification:Arial;font-weight:normal;font-style:normal;font-stretch:normal;font-variant:normal;"><v:paragraph
   v:horizAlign="1" /><v:tabList />DT</text>
<text
       x="336.61099"
       y="74.685997"
       class="st8"
       v:langID="1033"
       id="text255"
       style="font-size:5.50003195px;font-family:Arial;fill:#000000;-inkscape-font-specification:Arial;font-weight:normal;font-style:normal;font-stretch:normal;font-variant:normal;"><v:paragraph
   v:horizAlign="1" /><v:tabList />DT</text>
<text
       x="28.312901"
       y="75.810005"
       class="st6"
       v:langID="1033"
       id="text264"
       style="font-weight:normal;font-size:7.99996805px;font-family:Arial;fill:#000000;-inkscape-font-specification:Arial;font-style:normal;font-stretch:normal;font-variant:normal;"><v:paragraph
   v:horizAlign="2" /><v:tabList />High side phase B</text>
<text
       x="218.53799"
       y="90.604004"
       class="st11"
       v:langID="1033"
       id="text308"
       style="font-size:7.99996805px;font-family:Arial;fill:#000000;-inkscape-font-specification:Arial;font-weight:normal;font-style:normal;font-stretch:normal;font-variant:normal;"><v:paragraph
   v:horizAlign="1" /><v:tabList />T<tspan
   class="st12"
   v:baseFontSize="8"
   id="tspan310"
   style="font-size:5.19900322px;baseline-shift:-32.49390125%;-inkscape-font-specification:Arial;font-family:Arial;font-weight:normal;font-style:normal;font-stretch:normal;font-variant:normal;">S</tspan></text>
<text
       x="190.009"
       y="77.453003"
       class="st11"
       v:langID="1033"
       id="text319"
       style="font-size:7.99996805px;font-family:Arial;fill:#000000;-inkscape-font-specification:Arial;font-weight:normal;font-style:normal;font-stretch:normal;font-variant:normal;"><v:paragraph
   v:horizAlign="1" /><v:tabList />T<tspan
   class="st12"
   v:baseFontSize="8"
   id="tspan321"
   style="font-size:5.19900322px;baseline-shift:-32.49390125%;-inkscape-font-specification:Arial;font-family:Arial;font-weight:normal;font-style:normal;font-stretch:normal;font-variant:normal;">N</tspan></text>
<text
       x="188.537"
       y="18.780006"
       class="st11"
       v:langID="1033"
       id="text455"
       style="font-size:7.99996805px;font-family:Arial;fill:#000000;-inkscape-font-specification:Arial;font-weight:normal;font-style:normal;font-stretch:normal;font-variant:normal;"><v:paragraph
   v:horizAlign="1" /><v:tabList />ΔDuty<tspan
   class="st12"
   v:baseFontSize="8"
   id="tspan457"
   style="font-size:5.19900322px;baseline-shift:-32.49390125%;-inkscape-font-specification:Arial;font-family:Arial;font-weight:normal;font-style:normal;font-stretch:normal;font-variant:normal;">A</tspan></text>
<text
       x="244.383"
       y="16.743006"
       class="st11"
       v:langID="1033"
       id="text476"
       style="font-size:7.99996805px;font-family:Arial;fill:#000000;-inkscape-font-specification:Arial;font-weight:normal;font-style:normal;font-stretch:normal;font-variant:normal;"><v:paragraph
   v:horizAlign="1" /><v:tabList />Counter overflow</text>
<text
       x="244.867"
       y="86.974197"
       class="st11"
       v:langID="1033"
       id="text530"
       style="font-size:7.99996805px;font-family:Arial;fill:#000000;-inkscape-font-specification:Arial;font-weight:normal;font-style:normal;font-stretch:normal;font-variant:normal;"><v:paragraph
   v:horizAlign="1" /><v:tabList />T<tspan
   class="st12"
   v:baseFontSize="8"
   id="tspan532"
   style="font-size:5.19900322px;baseline-shift:-32.49390125%;-inkscape-font-specification:Arial;font-family:Arial;font-weight:normal;font-style:normal;font-stretch:normal;font-variant:normal;">C</tspan></text>
<text
       x="244.07001"
       y="128.2374"
       class="st11"
       v:langID="1033"
       id="text581"
       style="font-size:7.99996805px;font-family:Arial;fill:#000000;-inkscape-font-specification:Arial;font-weight:normal;font-style:normal;font-stretch:normal;font-variant:normal;"><v:paragraph
   v:horizAlign="1" /><v:tabList />T<tspan
   class="st12"
   v:baseFontSize="8"
   id="tspan583"
   style="font-size:5.19900322px;baseline-shift:-32.49390125%;-inkscape-font-specification:Arial;font-family:Arial;font-weight:normal;font-style:normal;font-stretch:normal;font-variant:normal;">S</tspan></text>
<text
       x="167.48485"
       y="163.80849"
       class="st11"
       v:langID="1033"
       id="text617"
       style="font-style:normal;font-variant:normal;font-weight:normal;font-stretch:normal;font-size:7.99996805px;line-height:125%;font-family:Arial;-inkscape-font-specification:Arial;fill:#000000"><v:paragraph
         v:horizAlign="1" /><v:tabList /><tspan
         y="163.80849"
         x="167.48485"
         id="tspan5376">Space Available for sequence Sampling </tspan></text>
<text
       x="383.065"
       y="72.292"
       class="st11"
       v:langID="1033"
       id="text638"
       style="font-size:7.99996805px;font-family:Arial;fill:#000000;-inkscape-font-specification:Arial;font-weight:normal;font-style:normal;font-stretch:normal;font-variant:normal;"><v:paragraph /><v:tabList />Sampling end</text>
<text
       x="383.065"
       y="56.124001"
       class="st11"
       v:langID="1033"
       id="text657"
       style="font-size:7.99996805px;font-family:Arial;fill:#000000;-inkscape-font-specification:Arial;font-weight:normal;font-style:normal;font-stretch:normal;font-variant:normal;"><v:paragraph /><v:tabList />Sampling start</text>
<text
       x="383.065"
       y="91.129105"
       class="st11"
       v:langID="1033"
       id="text676"
       style="font-size:7.99996805px;font-family:Arial;fill:#000000;-inkscape-font-specification:Arial;font-weight:normal;font-style:normal;font-stretch:normal;font-variant:normal;"><v:paragraph /><v:tabList />Conversion end</text>
</g></svg>