<?xml version="1.0" encoding="UTF-8" standalone="no"?>
<svg
   xmlns:v="http://schemas.microsoft.com/visio/2003/SVGExtensions/"
   xmlns:dc="http://purl.org/dc/elements/1.1/"
   xmlns:cc="http://creativecommons.org/ns#"
   xmlns:rdf="http://www.w3.org/1999/02/22-rdf-syntax-ns#"
   xmlns:svg="http://www.w3.org/2000/svg"
   xmlns="http://www.w3.org/2000/svg"
   style="font-size:12px;overflow:visible;color-interpolation-filters:sRGB;fill:none;fill-rule:evenodd;stroke-linecap:square;stroke-miterlimit:3"
   version="1.1"
   id="svg2"
   class="st20"
   xml:space="preserve"
   viewBox="0 0 431.99991 161.99971"
   height="2.25in"
   width="6in"><metadata
     id="metadata728"><rdf:RDF><cc:Work
         rdf:about=""><dc:format>image/svg+xml</dc:format><dc:type
           rdf:resource="http://purl.org/dc/dcmitype/StillImage" /><dc:title></dc:title></cc:Work></rdf:RDF></metadata><defs
     id="defs726" /><v:documentProperties
     v:viewMarkup="false"
     v:langID="1033"><v:userDefs><v:ud
         v:val="VT0(1):26"
         v:nameU="msvNoAutoConnect" /><v:ud
         v:nameU="msvConvertTheme" /></v:userDefs></v:documentProperties><style
     id="style4"
     type="text/css"><![CDATA[
		.st1 {fill:none;stroke:none;stroke-linecap:butt;stroke-width:0.75}
		.st2 {fill:#000000;font-family:Arial;font-size:0.499992em}
		.st3 {fill:none;stroke:#ffffff;stroke-linecap:round;stroke-linejoin:round;stroke-width:0.25}
		.st4 {fill:#000000;stroke:#000000;stroke-linecap:round;stroke-linejoin:round;stroke-width:0.00938695}
		.st5 {stroke:none;stroke-linecap:round;stroke-linejoin:round;stroke-width:0.75}
		.st6 {fill:#000000;font-family:Arial;font-size:0.666664em}
		.st7 {baseline-shift:-32.4939%;font-size:0.649878em}
		.st8 {fill:#000000;font-family:Arial;font-size:0.458336em}
		.st9 {fill:#000000;font-family:Arial;font-size:0.666664em;font-weight:bold}
		.st10 {stroke:#000000;stroke-linecap:round;stroke-linejoin:round;stroke-width:0.450574}
		.st11 {fill:#000000;stroke:#000000;stroke-linecap:round;stroke-linejoin:round;stroke-width:0.00469347}
		.st12 {fill:#000000;stroke:#000000;stroke-linecap:round;stroke-linejoin:round;stroke-width:0.0187739}
		.st13 {fill:#ff0000;stroke:none;stroke-linecap:round;stroke-linejoin:round;stroke-width:0.75}
		.st14 {fill:#009900;stroke:none;stroke-linecap:round;stroke-linejoin:round;stroke-width:0.75}
		.st15 {fill:#ffc000;stroke:none;stroke-linecap:round;stroke-linejoin:round;stroke-width:0.75}
		.st16 {fill:#3399ff;stroke:none;stroke-linecap:round;stroke-linejoin:round;stroke-width:0.75}
		.st17 {stroke:#080808;stroke-linecap:round;stroke-linejoin:round;stroke-width:0.450574}
		.st18 {fill:#c55a11;stroke:none;stroke-linecap:round;stroke-linejoin:round;stroke-width:0.75}
		.st19 {font-size:1em}
		.st20 {fill:none;fill-rule:evenodd;font-size:12px;overflow:visible;stroke-linecap:square;stroke-miterlimit:3}
	]]></style><g
     transform="translate(1.5999998,-6.2523239)"
     id="g5522"><path
       d="m 237.433,115.1138 0,1.81 0.45,0 0,-1.81 -0.45,0 0,0 z m 0,3.16 0,1.8 0.45,0 0,-1.8 -0.45,0 0,0 z m 0,3.15 0,0.37 0.45,0 0,-0.37 -0.45,0 0,0 z"
       class="st4"
       id="path32"
       style="fill:#000000;stroke:#000000;stroke-width:0.00938695;stroke-linecap:round;stroke-linejoin:round" /><path
       d="m 195.398,82.9317 14.93,0 0,-0.45 -14.93,0 0,0.45 0,0 z m 0.62,-2.1 -3.76,1.88 3.76,1.87 0,-3.75 0,0 z m 13.68,3.75 3.76,-1.87 -3.76,-1.88 0,3.75 0,0 z"
       class="st4"
       id="path48"
       style="fill:#000000;stroke:#000000;stroke-width:0.00938695;stroke-linecap:round;stroke-linejoin:round" /><path
       d="m 240.068,37.171 0,1.8 0.45,0.01 0,-1.8 -0.45,-0.01 0,0 z m -0.01,3.15 -0.01,1.8 0.45,0.01 0.01,-1.8 -0.45,-0.01 0,0 z m -0.01,3.15 -0.01,1.8 0.45,0.01 0.01,-1.8 -0.45,-0.01 0,0 z m -0.02,3.15 -0.01,1.8 0.45,0.01 0.01,-1.8 -0.45,-0.01 0,0 z m -0.01,3.15 -0.01,1.8 0.45,0.01 0.01,-1.8 -0.45,-0.01 0,0 z m -0.02,3.15 -0.01,1.2 0.45,0.01 0.01,-1.2 -0.45,-0.01 0,0 z"
       class="st4"
       id="path53"
       style="fill:#000000;stroke:#000000;stroke-width:0.00938695;stroke-linecap:round;stroke-linejoin:round" /><path
       d="m 230.141,80.8344 0,1.8 -0.45,0 0,-1.8 0.45,0 0,0 z m 0,3.15 0,1.8 -0.45,0 0,-1.8 0.45,0 0,0 z m 0,3.15 0,1.8 -0.45,0 0,-1.8 0.45,0 0,0 z m 0,3.15 0,1.8 -0.45,0 0,-1.8 0.45,0 0,0 z m 0,3.15 0,1.8 -0.45,0 0,-1.8 0.45,0 0,0 z m 0,3.15 0,1.8 -0.45,0 0,-1.8 0.45,0 0,0 z m 0,3.15 0,1.8 -0.45,0 0,-1.8 0.45,0 0,0 z m 0,3.16 0,1.8 -0.45,0 0,-1.8 0.45,0 0,0 z m 0,3.15 0,1.8 -0.45,0 0,-1.8 0.45,0 0,0 z m 0,3.15 0,1.8 -0.45,0 0,-1.8 0.45,0 0,0 z m 0,3.15 0,1.8 -0.45,0 0,-1.8 0.45,0 0,0 z m 0,3.15 0,1.8 -0.45,0 0,-1.8 0.45,0 0,0 z m 0,3.15 0,1.8 -0.45,0 0,-1.8 0.45,0 0,0 z m 0,3.15 0,1.8 -0.45,0 0,-1.8 0.45,0 0,0 z"
       class="st4"
       id="path67"
       style="fill:#000000;stroke:#000000;stroke-width:0.00938695;stroke-linecap:round;stroke-linejoin:round" /><path
       d="m 213.98,21.2664 0,1.8 -0.45,0 0,-1.8 0.45,0 0,0 z m 0,3.15 0,1.8 -0.45,0 0,-1.8 0.45,0 0,0 z m 0,3.15 0,1.8 -0.45,0 0,-1.8 0.45,0 0,0 z m 0,3.15 0,1.8 -0.45,0 0,-1.8 0.45,0 0,0 z m 0,3.15 0,1.8 -0.45,0 0,-1.8 0.45,0 0,0 z m 0,3.15 0,1.8 -0.45,0 0,-1.8 0.45,0 0,0 z m 0,3.15 0,1.8 -0.45,0 0,-1.8 0.45,0 0,0 z m 0,3.15 0,1.8 -0.45,0 0,-1.8 0.45,0 0,0 z m 0,3.15 0,1.81 -0.45,0 0,-1.81 0.45,0 0,0 z m 0,3.16 0,1.8 -0.45,0 0,-1.8 0.45,0 0,0 z m 0,3.15 0,1.8 -0.45,0 0,-1.8 0.45,0 0,0 z m 0,3.15 0,1.8 -0.45,0 0,-1.8 0.45,0 0,0 z m 0,3.15 0,1.8 -0.45,0 0,-1.8 0.45,0 0,0 z m 0,3.15 0,1.8 -0.45,0 0,-1.8 0.45,0 0,0 z m 0,3.15 0,1.8 -0.45,0 0,-1.8 0.45,0 0,0 z m 0,3.15 0,1.8 -0.45,0 0,-1.8 0.45,0 0,0 z m 0,3.15 0,1.8 -0.45,0 0,-1.8 0.45,0 0,0 z m 0,3.15 0,1.8 -0.45,0 0,-1.8 0.45,0 0,0 z m 0,3.16 0,1.8 -0.45,0 0,-1.8 0.45,0 0,0 z m 0,3.15 0,1.8 -0.45,0 0,-1.8 0.45,0 0,0 z m 0,3.15 0,1.8 -0.45,0 0,-1.8 0.45,0 0,0 z m 0,3.15 0,1.8 -0.45,0 0,-1.8 0.45,0 0,0 z m 0,3.15 0,1.8 -0.45,0 0,-1.8 0.45,0 0,0 z m 0,3.15 0,1.8 -0.45,0 0,-1.8 0.45,0 0,0 z m 0,3.15 0,1.8 -0.45,0 0,-1.8 0.45,0 0,0 z m 0,3.15 0,1.8 -0.45,0 0,-1.8 0.45,0 0,0 z m 0,3.15 0,1.8 -0.45,0 0,-1.8 0.45,0 0,0 z m 0,3.15 0,1.8 -0.45,0 0,-1.8 0.45,0 0,0 z m 0,3.16 0,1.8 -0.45,0 0,-1.8 0.45,0 0,0 z m 0,3.15 0,1.8 -0.45,0 0,-1.8 0.45,0 0,0 z m 0,3.15 0,1.8 -0.45,0 0,-1.8 0.45,0 0,0 z m 0,3.15 0,1.8 -0.45,0 0,-1.8 0.45,0 0,0 z m 0,3.15 0,1.8 -0.45,0 0,-1.8 0.45,0 0,0 z m 0,3.15 0,1.8 -0.45,0 0,-1.8 0.45,0 0,0 z m 0,3.15 0,1.5 -0.45,0 0,-1.5 0.45,0 0,0 z"
       class="st4"
       id="path81"
       style="fill:#000000;stroke:#000000;stroke-width:0.00938695;stroke-linecap:round;stroke-linejoin:round" /><path
       d="m 181.658,50.5217 0.01,1.8 -0.45,0 -0.01,-1.8 0.45,0 0,0 z m 0.01,3.15 0,1.8 -0.45,0 0,-1.8 0.45,0 0,0 z m 0,3.15 0,1.8 -0.45,0 0,-1.8 0.45,0 0,0 z m 0,3.15 0.01,1.8 -0.45,0 -0.01,-1.8 0.45,0 0,0 z m 0.01,3.15 0,1.81 -0.45,0 0,-1.81 0.45,0 0,0 z m 0,3.16 0,1.8 -0.45,0 0,-1.8 0.45,0 0,0 z m 0,3.15 0.01,1.8 -0.45,0 -0.01,-1.8 0.45,0 0,0 z m 0.01,3.15 0,1.8 -0.45,0 0,-1.8 0.45,0 0,0 z m 0,3.15 0,1.8 -0.45,0 0,-1.8 0.45,0 0,0 z m 0,3.15 0,1.8 -0.45,0 0,-1.8 0.45,0 0,0 z m 0.01,3.15 0,1.8 -0.45,0 0,-1.8 0.45,0 0,0 z m 0,3.15 0,1.8 -0.45,0 0,-1.8 0.45,0 0,0 z m 0,3.15 0,1.8 -0.45,0 0,-1.8 0.45,0 0,0 z m 0.01,3.15 0,1.8 -0.45,0 0,-1.8 0.45,0 0,0 z m 0,3.16 0,1.8 -0.45,0 0,-1.8 0.45,0 0,0 z m 0,3.15 0,1.8 -0.45,0 0,-1.8 0.45,0 0,0 z m 0,3.15 0.01,1.8 -0.45,0 -0.01,-1.8 0.45,0 0,0 z m 0.01,3.15 0,1.8 -0.45,0 0,-1.8 0.45,0 0,0 z m 0,3.15 0,1.8 -0.45,0 0,-1.8 0.45,0 0,0 z m 0,3.15 0.01,1.8 -0.45,0 -0.01,-1.8 0.45,0 0,0 z m 0.01,3.15 0,1.8 -0.45,0 0,-1.8 0.45,0 0,0 z m 0,3.15 0,1.8 -0.45,0 0,-1.8 0.45,0 0,0 z m 0,3.15 0.01,1.8 -0.45,0 -0.01,-1.8 0.45,0 0,0 z m 0.01,3.15 0,1.8 -0.45,0 0,-1.8 0.45,0 0,0 z m 0,3.16 0,1.8 -0.45,0 0,-1.8 0.45,0 0,0 z m 0,3.15 0,1.57 -0.45,0 0,-1.57 0.45,0 0,0 z"
       class="st4"
       id="path86"
       style="fill:#000000;stroke:#000000;stroke-width:0.00938695;stroke-linecap:round;stroke-linejoin:round" /><path
       d="m 311.928,41.443 -60.89,0"
       class="st10"
       id="path100"
       style="stroke:#000000;stroke-width:0.45057401;stroke-linecap:round;stroke-linejoin:round" /><path
       d="m 251.339,41.515 0,8.63"
       class="st10"
       id="path105"
       style="stroke:#000000;stroke-width:0.45057401;stroke-linecap:round;stroke-linejoin:round" /><path
       d="m 181.434,41.515 0,8.63"
       class="st10"
       id="path110"
       style="stroke:#000000;stroke-width:0.45057401;stroke-linecap:round;stroke-linejoin:round" /><path
       d="m 181.435,41.443 -62.38,0"
       class="st10"
       id="path115"
       style="stroke:#000000;stroke-width:0.45057401;stroke-linecap:round;stroke-linejoin:round" /><path
       d="m 251.494,50.076 -70.06,0.22"
       class="st10"
       id="path120"
       style="stroke:#000000;stroke-width:0.45057401;stroke-linecap:round;stroke-linejoin:round" /><path
       d="m 251.109,41.668 -1.8,0 0,-0.45 1.8,0 0,0.45 0,0 z m -3.15,0 -1.81,0 0,-0.45 1.81,0 0,0.45 0,0 z m -3.16,0 -1.8,0 0,-0.45 1.8,0 0,0.45 0,0 z m -3.16,0 -1.35,0 0,-0.45 1.35,0 0,0.45 0,0 z"
       class="st4"
       id="path125"
       style="fill:#000000;stroke:#000000;stroke-width:0.00938695;stroke-linecap:round;stroke-linejoin:round" /><path
       d="m 243.204,47.52 5.01,0 0,0.45 -5.01,0 0,-0.45 0,0 z m 0.62,2.1 -3.76,-1.87 3.76,-1.88 0,3.75 0,0 z m 3.76,-3.75 3.76,1.88 -3.76,1.87 0,-3.75 0,0 z"
       class="st4"
       id="path130"
       style="fill:#000000;stroke:#000000;stroke-width:0.00938695;stroke-linecap:round;stroke-linejoin:round" /><path
       d="m 119.055,37.466 73.65,0"
       class="st10"
       id="path135"
       style="stroke:#000000;stroke-width:0.45057401;stroke-linecap:round;stroke-linejoin:round" /><path
       d="m 192.709,37.241 0,-8.7"
       class="st10"
       id="path140"
       style="stroke:#000000;stroke-width:0.45057401;stroke-linecap:round;stroke-linejoin:round" /><path
       d="m 192.709,28.538 47.96,0"
       class="st10"
       id="path145"
       style="stroke:#000000;stroke-width:0.45057401;stroke-linecap:round;stroke-linejoin:round" /><path
       d="m 211.8,33.865 0,-3.6 -0.45,0 0,3.6 0.45,0 0,0 z m 0,-4.95 0,-3.6 -0.45,0 0,3.6 0.45,0 0,0 z m 0,-4.95 0,-0.15 -0.45,0 0,0.15 0.45,0 0,0 z"
       class="st4"
       id="path150"
       style="fill:#000000;stroke:#000000;stroke-width:0.00938695;stroke-linecap:round;stroke-linejoin:round" /><path
       d="m 240.515,37.091 0,-8.25"
       class="st10"
       id="path155"
       style="stroke:#000000;stroke-width:0.45057401;stroke-linecap:round;stroke-linejoin:round" /><path
       d="m 240.59,37.166 72.01,0"
       class="st10"
       id="path160"
       style="stroke:#000000;stroke-width:0.45057401;stroke-linecap:round;stroke-linejoin:round" /><path
       d="m 181.658,37.316 0,-1.8 -0.45,0 0,1.8 0.45,0 0,0 z m 0,-3.15 0,-1.8 -0.45,0 0,1.8 0.45,0 0,0 z m 0,-3.15 0,-1.8 -0.45,0 0,1.8 0.45,0 0,0 z m 0,-3.15 0,-1.8 -0.45,0 0,1.8 0.45,0 0,0 z m 0,-3.15 0,-1.8 -0.45,0 0,1.8 0.45,0 0,0 z m 0,-3.15 0,-0.3 -0.45,0 0,0.3 0.45,0 0,0 z"
       class="st4"
       id="path165"
       style="fill:#000000;stroke:#000000;stroke-width:0.00938695;stroke-linecap:round;stroke-linejoin:round" /><path
       d="m 181.434,28.764 1.8,0 0,-0.45 -1.8,0 0,0.45 0,0 z m 3.16,0 1.8,0 0,-0.45 -1.8,0 0,0.45 0,0 z m 3.15,0 1.81,0 0,-0.45 -1.81,0 0,0.45 0,0 z m 3.16,0 1.35,0 0,-0.45 -1.35,0 0,0.45 0,0 z"
       class="st4"
       id="path170"
       style="fill:#000000;stroke:#000000;stroke-width:0.00938695;stroke-linecap:round;stroke-linejoin:round" /><path
       d="m 184.574,34.991 5.01,0 0,0.45 -5.01,0 0,-0.45 0,0 z m 0.62,2.1 -3.76,-1.87 3.76,-1.88 0,3.75 0,0 z m 3.76,-3.75 3.76,1.88 -3.76,1.87 0,-3.75 0,0 z"
       class="st4"
       id="path175"
       style="fill:#000000;stroke:#000000;stroke-width:0.00938695;stroke-linecap:round;stroke-linejoin:round" /><path
       d="m 144.075,64.55 0,-1.8 -0.45,0 0,1.8 0.45,0 0,0 z m 0,-3.15 0,-1.8 -0.45,0 0,1.8 0.45,0 0,0 z m 0,-3.15 0,-1.8 -0.45,0 0,1.8 0.45,0 0,0 z"
       class="st11"
       id="path207"
       style="fill:#000000;stroke:#000000;stroke-width:0.00469347;stroke-linecap:round;stroke-linejoin:round" /><path
       d="m 143.85,54.797 1.8,0 0,0.45 -1.8,0 0,-0.45 0,0 z m 3.16,0 1.8,0 0,0.45 -1.8,0 0,-0.45 0,0 z m 3.15,0 1.81,0 0,0.45 -1.81,0 0,-0.45 0,0 z m 3.16,0 1.81,0 0,0.45 -1.81,0 0,-0.45 0,0 z"
       class="st4"
       id="path212"
       style="fill:#000000;stroke:#000000;stroke-width:0.00938695;stroke-linecap:round;stroke-linejoin:round" /><path
       d="m 320.492,64.475 0,-9.38"
       class="st10"
       id="path217"
       style="stroke:#000000;stroke-width:0.45057401;stroke-linecap:round;stroke-linejoin:round" /><path
       d="m 320.342,64.55 21.42,0"
       class="st10"
       id="path222"
       style="stroke:#000000;stroke-width:0.45057401;stroke-linecap:round;stroke-linejoin:round" /><path
       d="m 155.125,64.325 0,-9.15"
       class="st10"
       id="path227"
       style="stroke:#000000;stroke-width:0.45057401;stroke-linecap:round;stroke-linejoin:round" /><path
       d="m 119.055,64.475 36.07,0"
       class="st10"
       id="path232"
       style="stroke:#000000;stroke-width:0.45057401;stroke-linecap:round;stroke-linejoin:round" /><path
       d="m 155.125,55.022 165.52,0"
       class="st10"
       id="path237"
       style="stroke:#000000;stroke-width:0.45057401;stroke-linecap:round;stroke-linejoin:round" /><path
       d="m 146.99,62 5.01,0 0,0.45 -5.01,0 0,-0.45 0,0 z m 0.62,2.1 -3.76,-1.87 3.76,-1.88 0,3.75 0,0 z m 3.76,-3.75 3.76,1.88 -3.76,1.87 0,-3.75 0,0 z"
       class="st4"
       id="path242"
       style="fill:#000000;stroke:#000000;stroke-width:0.00938695;stroke-linecap:round;stroke-linejoin:round" /><path
       d="m 144.075,23.2881 0,1.8 -0.45,0 0,-1.8 0.45,0 0,0 z m 0,3.15 0,1.8 -0.45,0 0,-1.8 0.45,0 0,0 z m 0,3.15 0,1.8 -0.45,0 0,-1.8 0.45,0 0,0 z m 0,3.15 0,1.8 -0.45,0 0,-1.8 0.45,0 0,0 z m 0,3.15 0,1.81 -0.45,0 0,-1.81 0.45,0 0,0 z m 0,3.16 0,1.8 -0.45,0 0,-1.8 0.45,0 0,0 z m 0,3.15 0,1.8 -0.45,0 0,-1.8 0.45,0 0,0 z m 0,3.15 0,1.8 -0.45,0 0,-1.8 0.45,0 0,0 z m 0,3.15 0,1.8 -0.45,0 0,-1.8 0.45,0 0,0 z m 0,3.15 0,1.8 -0.45,0 0,-1.8 0.45,0 0,0 z m 0,3.15 0,1.8 -0.45,0 0,-1.8 0.45,0 0,0 z m 0,3.15 0,1.8 -0.45,0 0,-1.8 0.45,0 0,0 z m 0,3.15 0,1.8 -0.45,0 0,-1.8 0.45,0 0,0 z m 0,3.15 0,1.8 -0.45,0 0,-1.8 0.45,0 0,0 z m 0,3.15 0,1.81 -0.45,0 0,-1.81 0.45,0 0,0 z m 0,3.16 0,1.8 -0.45,0 0,-1.8 0.45,0 0,0 z m 0,3.15 0,1.8 -0.45,0 0,-1.8 0.45,0 0,0 z m 0,3.15 0,1.8 -0.45,0 0,-1.8 0.45,0 0,0 z m 0,3.15 0,1.8 -0.45,0 0,-1.8 0.45,0 0,0 z m 0,3.15 0,1.8 -0.45,0 0,-1.8 0.45,0 0,0 z m 0,3.15 0,1.8 -0.45,0 0,-1.8 0.45,0 0,0 z m 0,3.15 0,1.8 -0.45,0 0,-1.8 0.45,0 0,0 z m 0,3.15 0,1.8 -0.45,0 0,-1.8 0.45,0 0,0 z m 0,3.15 0,1.8 -0.45,0 0,-1.8 0.45,0 0,0 z m 0,3.16 0,1.8 -0.45,0 0,-1.8 0.45,0 0,0 z m 0,3.15 0,1.8 -0.45,0 0,-1.8 0.45,0 0,0 z m 0,3.15 0,1.8 -0.45,0 0,-1.8 0.45,0 0,0 z m 0,3.15 0,1.8 -0.45,0 0,-1.8 0.45,0 0,0 z m 0,3.15 0,1.8 -0.45,0 0,-1.8 0.45,0 0,0 z m 0,3.15 0,1.8 -0.45,0 0,-1.8 0.45,0 0,0 z m 0,3.15 0,1.8 -0.45,0 0,-1.8 0.45,0 0,0 z"
       class="st11"
       id="path256"
       style="fill:#000000;stroke:#000000;stroke-width:0.00469347;stroke-linecap:round;stroke-linejoin:round" /><path
       d="m 192.933,39.346 0,1.8 -0.45,0 0,-1.8 0.45,0 0,0 z m 0,3.15 0,1.8 -0.45,0 0,-1.8 0.45,0 0,0 z m 0,3.15 0,1.8 -0.45,0 0,-1.8 0.45,0 0,0 z m 0,3.15 0,1.8 -0.45,0 0,-1.8 0.45,0 0,0 z m 0,3.15 0,1.8 -0.45,0 0,-1.8 0.45,0 0,0 z m 0,3.15 0,1.8 -0.45,0 0,-1.8 0.45,0 0,0 z m 0,3.15 0,1.8 -0.45,0 0,-1.8 0.45,0 0,0 z m 0,3.16 0,1.8 -0.45,0 0,-1.8 0.45,0 0,0 z m 0,3.15 0,1.8 -0.45,0 0,-1.8 0.45,0 0,0 z m 0,3.15 0,1.8 -0.45,0 0,-1.8 0.45,0 0,0 z m 0,3.15 0,1.8 -0.45,0 0,-1.8 0.45,0 0,0 z m 0,3.15 0,1.8 -0.45,0 0,-1.8 0.45,0 0,0 z m 0,3.15 0,1.8 -0.45,0 0,-1.8 0.45,0 0,0 z m 0,3.15 0,1.8 -0.45,0 0,-1.8 0.45,0 0,0 z"
       class="st4"
       id="path261"
       style="fill:#000000;stroke:#000000;stroke-width:0.00938695;stroke-linecap:round;stroke-linejoin:round" /><path
       d="m 213.905,80.1569 0.03,1.8 -0.45,0.01 -0.03,-1.8 0.45,-0.01 0,0 z m 0.04,3.15 0.02,1.8 -0.45,0.01 -0.02,-1.8 0.45,-0.01 0,0 z m 0.04,3.15 0,0.75 -0.45,0.01 0,-0.75 0.45,-0.01 0,0 z"
       class="st4"
       id="path266"
       style="fill:#000000;stroke:#000000;stroke-width:0.00938695;stroke-linecap:round;stroke-linejoin:round" /><path
       d="m 239.993,54.1239 0,1.8 0.45,0 0,-1.8 -0.45,0 0,0 z m 0,3.15 0,1.8 0.45,0 0,-1.8 -0.45,0 0,0 z m 0,3.15 0,1.8 0.45,0 0,-1.8 -0.45,0 0,0 z m -0.01,3.15 0,1.8 0.45,0 0,-1.8 -0.45,0 0,0 z m 0,3.15 0,1.8 0.45,0 0,-1.8 -0.45,0 0,0 z m 0,3.15 -0.01,1.81 0.45,0 0.01,-1.81 -0.45,0 0,0 z m -0.01,3.16 0,1.8 0.45,0 0,-1.8 -0.45,0 0,0 z m 0,3.15 0,1.8 0.45,0 0,-1.8 -0.45,0 0,0 z m 0,3.15 -0.01,1.8 0.45,0 0.01,-1.8 -0.45,0 0,0 z m -0.01,3.15 0,1.8 0.45,0 0,-1.8 -0.45,0 0,0 z m 0,3.15 0,1.8 0.45,0 0,-1.8 -0.45,0 0,0 z m -0.01,3.15 0,1.8 0.45,0 0,-1.8 -0.45,0 0,0 z m 0,3.15 0,1.8 0.45,0 0,-1.8 -0.45,0 0,0 z m 0,3.15 -0.01,1.8 0.45,0 0.01,-1.8 -0.45,0 0,0 z m -0.01,3.15 0,1.8 0.45,0 0,-1.8 -0.45,0 0,0 z m 0,3.16 0,1.8 0.45,0 0,-1.8 -0.45,0 0,0 z m 0,3.15 -0.01,1.8 0.45,0 0.01,-1.8 -0.45,0 0,0 z m -0.01,3.15 0,1.8 0.45,0 0,-1.8 -0.45,0 0,0 z m 0,3.15 0,1.8 0.45,0 0,-1.8 -0.45,0 0,0 z m -0.01,3.15 0,1.8 0.45,0 0,-1.8 -0.45,0 0,0 z m 0,3.15 0,1.8 0.45,0 0,-1.8 -0.45,0 0,0 z m 0,3.15 0,1.8 0.45,0 0,-1.8 -0.45,0 0,0 z"
       class="st4"
       id="path271"
       style="fill:#000000;stroke:#000000;stroke-width:0.00938695;stroke-linecap:round;stroke-linejoin:round" /><path
       d="m 320.717,77.6077 0.02,1.8 -0.45,0.02 -0.02,-1.8 0.45,-0.02 0,0 z m 0.02,3.15 0,1.8 -0.45,0.02 0,-1.8 0.45,-0.02 0,0 z m 0.02,3.15 0,1.8 -0.45,0.02 0,-1.8 0.45,-0.02 0,0 z m 0,3.15 0,1.8 -0.45,0.02 0,-1.8 0.45,-0.02 0,0 z m 0.02,3.15 0,1.8 -0.45,0.02 0,-1.8 0.45,-0.02 0,0 z m 0,3.15 0.02,1.8 -0.45,0.02 -0.02,-1.8 0.45,-0.02 0,0 z m 0.02,3.15 0,1.81 -0.45,0.01 0,-1.8 0.45,-0.02 0,0 z m 0,3.16 0.01,1.8 -0.45,0.02 -0.01,-1.81 0.45,-0.01 0,0 z m 0.01,3.15 0,1.8 -0.45,0 0,-1.8 0.45,0 0,0 z m 0.02,3.15 0,1.8 -0.45,0 0,-1.8 0.45,0 0,0 z m 0,3.15 0,1.8 -0.45,0 0,-1.8 0.45,0 0,0 z m 0.02,3.15 0,1.8 -0.45,0 0,-1.8 0.45,0 0,0 z m 0,3.15 0.02,1.8 -0.45,0 -0.02,-1.8 0.45,0 0,0 z m 0.02,3.15 0,1.8 -0.45,0 0,-1.8 0.45,0 0,0 z m 0,3.15 0,0.75 -0.45,0.02 0,-0.77 0.45,0 0,0 z"
       class="st12"
       id="path276"
       style="fill:#000000;stroke:#000000;stroke-width:0.0187739;stroke-linecap:round;stroke-linejoin:round" /><path
       d="m 320.267,64.854 0,1.8 0.45,0 0,-1.8 -0.45,0 0,0 z m 0,3.15 0,1.8 0.45,0 0,-1.8 -0.45,0 0,0 z m 0,3.15 0,1.8 0.45,0 0,-1.8 -0.45,0 0,0 z m 0,3.15 0,1.8 0.45,0 0,-1.8 -0.45,0 0,0 z"
       class="st12"
       id="path281"
       style="fill:#000000;stroke:#000000;stroke-width:0.0187739;stroke-linecap:round;stroke-linejoin:round" /><path
       d="m 331.617,68.149 0,8.78"
       class="st10"
       id="path295"
       style="stroke:#000000;stroke-width:0.45057401;stroke-linecap:round;stroke-linejoin:round" /><path
       d="m 143.85,68.079 0,8.7"
       class="st10"
       id="path300"
       style="stroke:#000000;stroke-width:0.45057401;stroke-linecap:round;stroke-linejoin:round" /><path
       d="m 143.695,68.076 -24.64,0"
       class="st10"
       id="path305"
       style="stroke:#000000;stroke-width:0.45057401;stroke-linecap:round;stroke-linejoin:round" /><path
       d="m 341.466,68.076 -10,0"
       class="st10"
       id="path310"
       style="stroke:#000000;stroke-width:0.45057401;stroke-linecap:round;stroke-linejoin:round" /><path
       d="M 331.47,77.079 143.85,77.009"
       class="st10"
       id="path315"
       style="stroke:#000000;stroke-width:0.45057401;stroke-linecap:round;stroke-linejoin:round" /><path
       d="m 323.632,74.079 5.02,0 0,0.45 -5.02,0 0,-0.45 0,0 z m 0.62,2.1 -3.76,-1.87 3.76,-1.88 0,3.75 0,0 z m 3.76,-3.75 3.76,1.88 -3.76,1.87 0,-3.75 0,0 z"
       class="st12"
       id="path320"
       style="fill:#000000;stroke:#000000;stroke-width:0.0187739;stroke-linecap:round;stroke-linejoin:round" /><path
       d="m 320.492,67.851 1.8,0 0,0.45 -1.8,0 0,-0.45 0,0 z m 3.16,0 1.8,0 0,0.45 -1.8,0 0,-0.45 0,0 z m 3.15,0 1.81,0 0,0.45 -1.81,0 0,-0.45 0,0 z m 3.16,0 1.65,0 0,0.45 -1.65,0 0,-0.45 0,0 z"
       class="st12"
       id="path325"
       style="fill:#000000;stroke:#000000;stroke-width:0.0187739;stroke-linecap:round;stroke-linejoin:round" /><path
       d="m 143.85,100.6197 c 0.47,-0.37 1.65,-2.46 2.59,-2.23 1.02,0.22 2.66,3.18 3.6,3.54 1.03,0.36 1.65,-0.8 2.28,-1.34 0.63,-0.52 1.09,-1.53 1.56,-1.75 0.47,-0.23 0.86,0.35 1.09,0.44"
       class="st10"
       id="path339"
       style="stroke:#000000;stroke-width:0.45057401;stroke-linecap:round;stroke-linejoin:round" /><path
       d="m 119.055,100.5619 24.8,0"
       class="st10"
       id="path344"
       style="stroke:#000000;stroke-width:0.45057401;stroke-linecap:round;stroke-linejoin:round" /><path
       d="m 154.9,99.2114 c 0.55,-1.17 2.3,-4.56 3.49,-7.08 1.18,-2.52 2.45,-8.02 3.87,-8.14 1.5,-0.08 3.4,7.04 4.9,7.57 1.58,0.53 3.17,-4.11 4.51,-4.35 1.35,-0.21 2.76,2.76 3.8,3.06 0.95,0.28 1.74,-1.03 2.21,-1.31"
       class="st10"
       id="path349"
       style="stroke:#000000;stroke-width:0.45057401;stroke-linecap:round;stroke-linejoin:round" /><path
       d="m 320.642,88.7072 c 0.79,1.56 2.82,7.39 4.25,9.53 1.41,2.12 2.82,3.3 4.23,3.3 1.4,0 2.72,-3.04 4.13,-3.3 1.41,-0.28 3.53,1.37 4.23,1.65"
       class="st10"
       id="path354"
       style="stroke:#000000;stroke-width:0.45057401;stroke-linecap:round;stroke-linejoin:round" /><path
       d="m 213.68,88.633 26.46,0"
       class="st10"
       id="path359"
       style="stroke:#000000;stroke-width:0.45057401;stroke-linecap:round;stroke-linejoin:round" /><path
       d="m 265.771,88.633 54.57,0"
       class="st10"
       id="path364"
       style="stroke:#000000;stroke-width:0.45057401;stroke-linecap:round;stroke-linejoin:round" /><path
       d="m 177.675,88.858 4.59,0"
       class="st10"
       id="path369"
       style="stroke:#000000;stroke-width:0.45057401;stroke-linecap:round;stroke-linejoin:round" /><path
       d="m 249.76,88.6942 c 0.54,-0.44 1.85,-2.84 2.99,-2.65 1.14,0.19 2.9,3.28 3.95,3.73 1.06,0.44 1.76,-0.77 2.55,-1.13 0.79,-0.33 1.15,-0.91 1.94,-0.83 0.78,0.04 1.84,1.06 2.63,1.21 0.79,0.16 1.67,-0.26 2.1,-0.33"
       class="st10"
       id="path374"
       style="stroke:#000000;stroke-width:0.45057401;stroke-linecap:round;stroke-linejoin:round" /><path
       d="m 240.064,88.7127 c 0.54,-0.31 1.85,-2.1 3,-1.91 1.14,0.19 2.99,2.71 4.14,3.02 1.15,0.31 2.12,-0.94 2.56,-1.14"
       class="st10"
       id="path379"
       style="stroke:#000000;stroke-width:0.45057401;stroke-linecap:round;stroke-linejoin:round" /><path
       d="m 193.31,88.9942 c 0.64,-0.44 2.22,-2.84 3.59,-2.65 1.37,0.19 3.48,3.28 4.74,3.73 1.26,0.44 2.11,-0.77 3.06,-1.13 0.95,-0.33 1.37,-0.91 2.32,-0.83 0.95,0.04 2.21,1.06 3.16,1.21 0.94,0.16 2,-0.26 2.52,-0.33"
       class="st10"
       id="path384"
       style="stroke:#000000;stroke-width:0.45057401;stroke-linecap:round;stroke-linejoin:round" /><path
       d="m 181.734,89.0128 c 0.64,-0.31 2.22,-2.1 3.58,-1.91 1.37,0.19 3.58,2.71 4.95,3.02 1.36,0.31 2.52,-0.94 3.05,-1.14"
       class="st10"
       id="path389"
       style="stroke:#000000;stroke-width:0.45057401;stroke-linecap:round;stroke-linejoin:round" /><path
       d="m 265.32,122.6941 55.32,0"
       class="st10"
       id="path394"
       style="stroke:#000000;stroke-width:0.45057401;stroke-linecap:round;stroke-linejoin:round" /><path
       d="m 210.749,122.544 29.47,0"
       class="st10"
       id="path399"
       style="stroke:#000000;stroke-width:0.45057401;stroke-linecap:round;stroke-linejoin:round" /><path
       d="m 119.055,122.9191 24.8,0"
       class="st10"
       id="path404"
       style="stroke:#000000;stroke-width:0.45057401;stroke-linecap:round;stroke-linejoin:round" /><path
       d="m 170.008,122.6941 15.03,0"
       class="st10"
       id="path409"
       style="stroke:#000000;stroke-width:0.45057401;stroke-linecap:round;stroke-linejoin:round" /><path
       d="m 153.998,122.7552 c 0.54,-0.44 1.85,-2.84 2.99,-2.65 1.14,0.19 2.9,3.28 3.95,3.73 1.06,0.44 1.76,-0.77 2.55,-1.13 0.79,-0.33 1.15,-0.91 1.94,-0.83 0.78,0.04 1.84,1.06 2.63,1.21 0.79,0.16 1.67,-0.26 2.1,-0.33"
       class="st10"
       id="path414"
       style="stroke:#000000;stroke-width:0.45057401;stroke-linecap:round;stroke-linejoin:round" /><path
       d="m 144.301,122.7734 c 0.53,-0.31 1.86,-2.1 3,-1.91 1.14,0.19 2.99,2.71 4.14,3.02 1.15,0.31 2.12,-0.95 2.56,-1.14"
       class="st10"
       id="path419"
       style="stroke:#000000;stroke-width:0.45057401;stroke-linecap:round;stroke-linejoin:round" /><path
       d="m 194.738,122.6802 c 0.54,-0.44 1.85,-2.84 2.99,-2.65 1.14,0.19 2.9,3.28 3.95,3.73 1.06,0.44 1.76,-0.77 2.55,-1.13 0.79,-0.33 1.15,-0.91 1.94,-0.83 0.78,0.04 1.84,1.06 2.63,1.21 0.79,0.16 1.67,-0.26 2.1,-0.33"
       class="st10"
       id="path424"
       style="stroke:#000000;stroke-width:0.45057401;stroke-linecap:round;stroke-linejoin:round" /><path
       d="m 185.042,122.6988 c 0.54,-0.31 1.85,-2.1 3,-1.91 1.14,0.19 2.99,2.71 4.14,3.02 1.15,0.31 2.12,-0.94 2.56,-1.14"
       class="st10"
       id="path429"
       style="stroke:#000000;stroke-width:0.45057401;stroke-linecap:round;stroke-linejoin:round" /><path
       d="m 249.835,122.6802 c 0.54,-0.44 1.85,-2.84 2.99,-2.65 1.14,0.19 2.9,3.28 3.95,3.73 1.06,0.44 1.76,-0.77 2.55,-1.13 0.79,-0.33 1.15,-0.91 1.94,-0.83 0.78,0.04 1.84,1.06 2.63,1.21 0.79,0.16 1.67,-0.26 2.1,-0.33"
       class="st10"
       id="path434"
       style="stroke:#000000;stroke-width:0.45057401;stroke-linecap:round;stroke-linejoin:round" /><path
       d="m 240.139,122.6988 c 0.54,-0.31 1.85,-2.1 3,-1.91 1.14,0.19 2.99,2.71 4.14,3.02 1.15,0.31 2.12,-0.94 2.56,-1.14"
       class="st10"
       id="path439"
       style="stroke:#000000;stroke-width:0.45057401;stroke-linecap:round;stroke-linejoin:round" /><path
       d="m 330.339,122.676 c 0.54,-0.43 1.86,-2.83 2.99,-2.64 1.14,0.18 2.91,3.28 3.96,3.73 1.06,0.43 1.75,-0.77 2.54,-1.13 0.79,-0.33 1.15,-0.92 1.94,-0.84 0.78,0.04 1.84,1.07 2.63,1.22 0.79,0.17 1.67,-0.26 2.1,-0.34"
       class="st10"
       id="path444"
       style="stroke:#000000;stroke-width:0.45057401;stroke-linecap:round;stroke-linejoin:round" /><path
       d="m 320.642,122.6937 c 0.54,-0.3 1.86,-2.1 3.01,-1.89 1.14,0.19 2.98,2.7 4.13,3.02 1.15,0.3 2.12,-0.96 2.56,-1.15"
       class="st10"
       id="path449"
       style="stroke:#000000;stroke-width:0.45057401;stroke-linecap:round;stroke-linejoin:round" /><path
       d="m 147.592,26.288 30.41,0 0,0.45 -30.41,0 0,-0.45 0,0 z m 0.62,2.1 -3.76,-1.87 3.76,-1.88 0,3.75 0,0 z m 29.16,-3.75 3.76,1.88 -3.76,1.87 0,-3.75 0,0 z"
       class="st4"
       id="path454"
       style="fill:#000000;stroke:#000000;stroke-width:0.00938695;stroke-linecap:round;stroke-linejoin:round" /><path
       d="m 184.574,26.72 24.32,-0.18 0,-0.45 -24.32,0.18 0,0.45 0,0 z m 0.61,-2.1 -3.75,1.9 3.78,1.85 -0.03,-3.75 0,0 z m 23.1,3.57 3.74,-1.9 -3.76,-1.85 0.02,3.75 0,0 z"
       class="st4"
       id="path459"
       style="fill:#000000;stroke:#000000;stroke-width:0.00938695;stroke-linecap:round;stroke-linejoin:round" /><path
       d="m 216.444,82.5567 2.23,0 0,0.45 -2.23,0 0,-0.45 0,0 z m 0.62,2.1 -3.76,-1.87 3.76,-1.88 0,3.75 0,0 z m 0.98,-3.75 3.75,1.88 -3.75,1.87 0,-3.75 0,0 z"
       class="st4"
       id="path464"
       style="fill:#000000;stroke:#000000;stroke-width:0.00938695;stroke-linecap:round;stroke-linejoin:round" /><path
       d="m 219.318,88.7136 c 0,-0.95 0.8,-1.73 1.77,-1.73 0.97,0 1.76,0.78 1.76,1.73 0,0.95 -0.79,1.72 -1.76,1.72 -0.97,0 -1.77,-0.77 -1.77,-1.72 z"
       class="st13"
       id="path469"
       style="fill:#ff0000;stroke:none;stroke-width:0.75;stroke-linecap:round;stroke-linejoin:round" /><path
       d="m 219.318,88.7136 c 0,-0.95 0.8,-1.73 1.77,-1.73 0.97,0 1.76,0.78 1.76,1.73 0,0.95 -0.79,1.72 -1.76,1.72 -0.97,0 -1.77,-0.77 -1.77,-1.72"
       class="st10"
       id="path474"
       style="stroke:#000000;stroke-width:0.45057401;stroke-linecap:round;stroke-linejoin:round" /><path
       d="m 211.651,88.7886 c 0,-0.95 0.8,-1.73 1.77,-1.73 0.97,0 1.76,0.78 1.76,1.73 0,0.95 -0.79,1.72 -1.76,1.72 -0.97,0 -1.77,-0.77 -1.77,-1.72 z"
       class="st14"
       id="path479"
       style="fill:#009900;stroke:none;stroke-width:0.75;stroke-linecap:round;stroke-linejoin:round" /><path
       d="m 211.651,88.7886 c 0,-0.95 0.8,-1.73 1.77,-1.73 0.97,0 1.76,0.78 1.76,1.73 0,0.95 -0.79,1.72 -1.76,1.72 -0.97,0 -1.77,-0.77 -1.77,-1.72"
       class="st10"
       id="path484"
       style="stroke:#000000;stroke-width:0.45057401;stroke-linecap:round;stroke-linejoin:round" /><path
       d="m 227.887,88.7136 c 0,-0.95 0.8,-1.73 1.77,-1.73 0.97,0 1.76,0.78 1.76,1.73 0,0.95 -0.79,1.72 -1.76,1.72 -0.97,0 -1.77,-0.77 -1.77,-1.72 z"
       class="st15"
       id="path500"
       style="fill:#ffc000;stroke:none;stroke-width:0.75;stroke-linecap:round;stroke-linejoin:round" /><path
       d="m 227.887,88.7136 c 0,-0.95 0.8,-1.73 1.77,-1.73 0.97,0 1.76,0.78 1.76,1.73 0,0.95 -0.79,1.72 -1.76,1.72 -0.97,0 -1.77,-0.77 -1.77,-1.72"
       class="st10"
       id="path505"
       style="stroke:#000000;stroke-width:0.45057401;stroke-linecap:round;stroke-linejoin:round" /><path
       d="m 224.186,82.6317 2.53,0 0,0.45 -2.53,0 0,-0.45 0,0 z m 0.62,2.1 -3.76,-1.87 3.76,-1.88 0,3.75 0,0 z m 1.28,-3.75 3.75,1.88 -3.75,1.87 0,-3.75 0,0 z"
       class="st4"
       id="path510"
       style="fill:#000000;stroke:#000000;stroke-width:0.00938695;stroke-linecap:round;stroke-linejoin:round" /><path
       d="m 220.896,79.4772 0,1.81 0.45,0 0,-1.81 -0.45,0 0,0 z m 0,3.16 0,1.8 0.45,0 0,-1.8 -0.45,0 0,0 z m 0,3.15 0,0.37 0.45,0 0,-0.37 -0.45,0 0,0 z"
       class="st4"
       id="path526"
       style="fill:#000000;stroke:#000000;stroke-width:0.00938695;stroke-linecap:round;stroke-linejoin:round" /><path
       d="m 235.629,122.8046 c 0,-0.92 0.8,-1.68 1.77,-1.68 0.97,0 1.76,0.76 1.76,1.68 0,0.94 -0.79,1.69 -1.76,1.69 -0.97,0 -1.77,-0.75 -1.77,-1.69 z"
       class="st13"
       id="path531"
       style="fill:#ff0000;stroke:none;stroke-width:0.75;stroke-linecap:round;stroke-linejoin:round" /><path
       d="m 235.629,122.8046 c 0,-0.92 0.8,-1.68 1.77,-1.68 0.97,0 1.76,0.76 1.76,1.68 0,0.94 -0.79,1.69 -1.76,1.69 -0.97,0 -1.77,-0.75 -1.77,-1.69"
       class="st10"
       id="path536"
       style="stroke:#000000;stroke-width:0.45057401;stroke-linecap:round;stroke-linejoin:round" /><path
       d="m 228.037,122.9247 c 0,-0.95 0.8,-1.73 1.77,-1.73 0.97,0 1.76,0.78 1.76,1.73 0,0.95 -0.79,1.72 -1.76,1.72 -0.97,0 -1.77,-0.77 -1.77,-1.72 z"
       class="st14"
       id="path541"
       style="fill:#009900;stroke:none;stroke-width:0.75;stroke-linecap:round;stroke-linejoin:round" /><path
       d="m 228.037,122.9247 c 0,-0.95 0.8,-1.73 1.77,-1.73 0.97,0 1.76,0.78 1.76,1.73 0,0.95 -0.79,1.72 -1.76,1.72 -0.97,0 -1.77,-0.77 -1.77,-1.72"
       class="st10"
       id="path546"
       style="stroke:#000000;stroke-width:0.45057401;stroke-linecap:round;stroke-linejoin:round" /><path
       d="m 232.605,118.8685 2.23,0 0,0.45 -2.23,0 0,-0.45 0,0 z m 0.62,2.1 -3.76,-1.87 3.76,-1.88 0,3.75 0,0 z m 0.98,-3.75 3.75,1.88 -3.75,1.87 0,-3.75 0,0 z"
       class="st4"
       id="path562"
       style="fill:#000000;stroke:#000000;stroke-width:0.00938695;stroke-linecap:round;stroke-linejoin:round" /><path
       d="m 349.206,88.5185 c 0,-0.92 0.81,-1.68 1.77,-1.68 0.97,0 1.76,0.76 1.76,1.68 0,0.94 -0.79,1.69 -1.76,1.69 -0.96,0 -1.77,-0.75 -1.77,-1.69 z"
       class="st13"
       id="path576"
       style="fill:#ff0000;stroke:none;stroke-width:0.75;stroke-linecap:round;stroke-linejoin:round" /><path
       d="m 349.206,88.5185 c 0,-0.92 0.81,-1.68 1.77,-1.68 0.97,0 1.76,0.76 1.76,1.68 0,0.94 -0.79,1.69 -1.76,1.69 -0.96,0 -1.77,-0.75 -1.77,-1.69"
       class="st10"
       id="path581"
       style="stroke:#000000;stroke-width:0.45057401;stroke-linecap:round;stroke-linejoin:round" /><path
       d="m 349.206,74.534 c 0,-0.94 0.81,-1.73 1.77,-1.73 0.97,0 1.76,0.79 1.76,1.73 0,0.95 -0.79,1.72 -1.76,1.72 -0.96,0 -1.77,-0.77 -1.77,-1.72 z"
       class="st14"
       id="path595"
       style="fill:#009900;stroke:none;stroke-width:0.75;stroke-linecap:round;stroke-linejoin:round" /><path
       d="m 349.206,74.534 c 0,-0.94 0.81,-1.73 1.77,-1.73 0.97,0 1.76,0.79 1.76,1.73 0,0.95 -0.79,1.72 -1.76,1.72 -0.96,0 -1.77,-0.77 -1.77,-1.72"
       class="st10"
       id="path600"
       style="stroke:#000000;stroke-width:0.45057401;stroke-linecap:round;stroke-linejoin:round" /><path
       d="m 349.206,104.8438 c 0,-0.94 0.81,-1.73 1.77,-1.73 0.97,0 1.76,0.79 1.76,1.73 0,0.95 -0.79,1.72 -1.76,1.72 -0.96,0 -1.77,-0.77 -1.77,-1.72 z"
       class="st15"
       id="path614"
       style="fill:#ffc000;stroke:none;stroke-width:0.75;stroke-linecap:round;stroke-linejoin:round" /><path
       d="m 349.206,104.8438 c 0,-0.94 0.81,-1.73 1.77,-1.73 0.97,0 1.76,0.79 1.76,1.73 0,0.95 -0.79,1.72 -1.76,1.72 -0.96,0 -1.77,-0.77 -1.77,-1.72"
       class="st10"
       id="path619"
       style="stroke:#000000;stroke-width:0.45057401;stroke-linecap:round;stroke-linejoin:round" /><path
       d="m 213.379,129.8988 0,7.35 26.68,0 0,-7.35 -26.68,0 0,0 z"
       class="st16"
       id="path633"
       style="fill:#3399ff;stroke:none;stroke-width:0.75;stroke-linecap:round;stroke-linejoin:round" /><path
       d="m 213.379,129.8988 26.68,0 0,7.35 -26.68,0 0,-7.35"
       class="st17"
       id="path638"
       style="stroke:#080808;stroke-width:0.45057401;stroke-linecap:round;stroke-linejoin:round" /><path
       d="m 175.27,131.094 0,6.68 6.16,0 0,-6.68 -6.16,0 0,0 z"
       class="st18"
       id="path643"
       style="fill:#c55a11;stroke:none;stroke-width:0.75;stroke-linecap:round;stroke-linejoin:round" /><path
       d="m 175.27,131.094 6.16,0 0,6.68 -6.16,0 0,-6.68"
       class="st17"
       id="path648"
       style="stroke:#080808;stroke-width:0.45057401;stroke-linecap:round;stroke-linejoin:round" /><path
       d="m 157.589,73.028 14.93,0 0,-0.45 -14.93,0 0,0.45 0,0 z m 0.62,-2.1 -3.76,1.88 3.76,1.87 0,-3.75 0,0 z m 13.68,3.75 3.76,-1.87 -3.76,-1.88 0,3.75 0,0 z"
       class="st4"
       id="path653"
       style="fill:#000000;stroke:#000000;stroke-width:0.00938695;stroke-linecap:round;stroke-linejoin:round" /><path
       d="m 154.674,64.9271 0,1.8 0.45,0 0,-1.8 -0.45,0 0,0 z m 0,3.15 0,1.8 0.45,0 0,-1.8 -0.45,0 0,0 z m 0,3.15 0,1.8 0.45,0 0,-1.8 -0.45,0 0,0 z m 0,3.15 0,1.8 0.45,0 0,-1.8 -0.45,0 0,0 z m 0,3.15 0,1.8 0.45,0 0,-1.8 -0.45,0 0,0 z m 0,3.16 0,1.8 0.45,0 0,-1.8 -0.45,0 0,0 z m 0,3.15 0,1.8 0.45,0 0,-1.8 -0.45,0 0,0 z m 0,3.15 0,1.8 0.45,0 0,-1.8 -0.45,0 0,0 z m 0,3.15 0,1.8 0.45,0 0,-1.8 -0.45,0 0,0 z m 0,3.15 0,1.8 0.45,0 0,-1.8 -0.45,0 0,0 z m 0,3.15 0,1.8 0.45,0 0,-1.8 -0.45,0 0,0 z m 0,3.15 0,1.8 0.45,0 0,-1.8 -0.45,0 0,0 z"
       class="st4"
       id="path658"
       style="fill:#000000;stroke:#000000;stroke-width:0.00938695;stroke-linecap:round;stroke-linejoin:round" /><path
       d="m 175.5,66.8064 0,1.8 0.45,0 0,-1.8 -0.45,0 0,0 z m 0,3.15 0,1.8 0.45,0 0,-1.8 -0.45,0 0,0 z m 0,3.15 -0.01,1.8 0.45,0 0.01,-1.8 -0.45,0 0,0 z m -0.01,3.15 0,1.8 0.45,0 0,-1.8 -0.45,0 0,0 z m 0,3.15 0,1.8 0.45,0 0,-1.8 -0.45,0 0,0 z m -0.01,3.15 0,1.8 0.45,0 0,-1.8 -0.45,0 0,0 z m 0,3.15 0,1.8 0.45,0 0,-1.8 -0.45,0 0,0 z m 0,3.15 -0.01,1.8 0.45,0 0.01,-1.8 -0.45,0 0,0 z m -0.01,3.15 0,1.81 0.45,0 0,-1.81 -0.45,0 0,0 z m 0,3.16 0,1.8 0.45,0 0,-1.8 -0.45,0 0,0 z m -0.01,3.15 0,1.8 0.45,0 0,-1.8 -0.45,0 0,0 z m 0,3.15 0,1.8 0.45,0 0,-1.8 -0.45,0 0,0 z m 0,3.15 -0.01,1.8 0.45,0 0.01,-1.8 -0.45,0 0,0 z m -0.01,3.15 0,1.8 0.45,0 0,-1.8 -0.45,0 0,0 z m 0,3.15 0,1.8 0.45,0 0,-1.8 -0.45,0 0,0 z m -0.01,3.15 0,1.8 0.45,0 0,-1.8 -0.45,0 0,0 z m 0,3.15 0,1.8 0.45,0 0,-1.8 -0.45,0 0,0 z m 0,3.15 -0.01,1.8 0.45,0 0.01,-1.8 -0.45,0 0,0 z m -0.01,3.15 0,1.81 0.45,0 0,-1.81 -0.45,0 0,0 z m 0,3.16 0,1.8 0.45,0 0,-1.8 -0.45,0 0,0 z m -0.01,3.15 0,0.07 0.45,0 0,-0.07 -0.45,0 0,0 z"
       class="st4"
       id="path663"
       style="fill:#000000;stroke:#000000;stroke-width:0.00938695;stroke-linecap:round;stroke-linejoin:round" /><text
       x="198.19099"
       y="80.486"
       class="st6"
       v:langID="1033"
       id="text41"
       style="font-style:normal;font-variant:normal;font-weight:normal;font-stretch:normal;font-size:7.99996805px;font-family:Arial;-inkscape-font-specification:Arial;fill:#000000"><v:paragraph
   v:horizAlign="1" /><v:tabList />T<tspan
   class="st7"
   v:baseFontSize="8"
   id="tspan43"
   style="font-style:normal;font-variant:normal;font-weight:normal;font-stretch:normal;font-size:5.19900322px;font-family:Arial;-inkscape-font-specification:Arial;baseline-shift:-32.49390125%">N</tspan></text>
<text
       x="242.433"
       y="46.446995"
       class="st8"
       v:langID="1033"
       id="text62"
       style="font-style:normal;font-variant:normal;font-weight:normal;font-stretch:normal;font-size:5.50003195px;font-family:Arial;-inkscape-font-specification:Arial;fill:#000000"><v:paragraph
   v:horizAlign="1" /><v:tabList />DT</text>
<text
       x="322.46899"
       y="73.01799"
       class="st8"
       v:langID="1033"
       id="text76"
       style="font-style:normal;font-variant:normal;font-weight:normal;font-stretch:normal;font-size:5.50003195px;font-family:Arial;-inkscape-font-specification:Arial;fill:#000000"><v:paragraph
   v:horizAlign="1" /><v:tabList />DT</text>
<text
       x="44.033798"
       y="47.326004"
       class="st9"
       v:langID="1033"
       id="text95"
       style="font-style:normal;font-variant:normal;font-weight:normal;font-stretch:normal;font-size:7.99996805px;font-family:Arial;-inkscape-font-specification:Arial;fill:#000000"><v:paragraph
   v:horizAlign="2" /><v:tabList />High side phase A</text>
<text
       x="183.299"
       y="33.793995"
       class="st8"
       v:langID="1033"
       id="text184"
       style="font-style:normal;font-variant:normal;font-weight:normal;font-stretch:normal;font-size:5.50003195px;font-family:Arial;-inkscape-font-specification:Arial;fill:#000000"><v:paragraph
   v:horizAlign="1" /><v:tabList />DT</text>
<text
       x="45.816399"
       y="38.892006"
       class="st9"
       v:langID="1033"
       id="text193"
       style="font-style:normal;font-variant:normal;font-weight:normal;font-stretch:normal;font-size:7.99996805px;font-family:Arial;-inkscape-font-specification:Arial;fill:#000000"><v:paragraph
   v:horizAlign="2" /><v:tabList />Low side phase A</text>
<text
       x="45.816399"
       y="66.180008"
       class="st9"
       v:langID="1033"
       id="text202"
       style="font-style:normal;font-variant:normal;font-weight:normal;font-stretch:normal;font-size:7.99996805px;font-family:Arial;-inkscape-font-specification:Arial;fill:#000000"><v:paragraph
   v:horizAlign="2" /><v:tabList />Low side phase B</text>
<text
       x="146.27699"
       y="60.200993"
       class="st8"
       v:langID="1033"
       id="text251"
       style="font-style:normal;font-variant:normal;font-weight:normal;font-stretch:normal;font-size:5.50003195px;font-family:Arial;-inkscape-font-specification:Arial;fill:#000000"><v:paragraph
   v:horizAlign="1" /><v:tabList />DT</text>
<text
       x="44.033798"
       y="74.327003"
       class="st9"
       v:langID="1033"
       id="text290"
       style="font-style:normal;font-variant:normal;font-weight:normal;font-stretch:normal;font-size:7.99996805px;font-family:Arial;-inkscape-font-specification:Arial;fill:#000000"><v:paragraph
   v:horizAlign="2" /><v:tabList />High side phase B</text>
<text
       x="14.24929"
       y="103.5135"
       class="st9"
       v:langID="1033"
       id="text334"
       style="font-style:normal;font-variant:normal;font-weight:normal;font-stretch:normal;font-size:7.99996805px;font-family:Arial;-inkscape-font-specification:Arial;fill:#000000"><v:paragraph
   v:horizAlign="2" /><v:tabList />Current feedback phase B  </text>
<text
       x="220.97301"
       y="77.591003"
       class="st6"
       v:langID="1033"
       id="text493"
       style="font-style:normal;font-variant:normal;font-weight:normal;font-stretch:normal;font-size:7.99996805px;font-family:Arial;-inkscape-font-specification:Arial;fill:#000000"><v:paragraph
   v:horizAlign="1" /><v:tabList />T<tspan
   class="st7"
   v:baseFontSize="8"
   id="tspan495"
   style="font-style:normal;font-variant:normal;font-weight:normal;font-stretch:normal;font-size:5.19900322px;font-family:Arial;-inkscape-font-specification:Arial;baseline-shift:-32.49390125%">C</tspan></text>
<text
       x="213.214"
       y="96.984802"
       class="st6"
       v:langID="1033"
       id="text519"
       style="font-style:normal;font-variant:normal;font-weight:normal;font-stretch:normal;font-size:7.99996805px;font-family:Arial;-inkscape-font-specification:Arial;fill:#000000"><v:paragraph
   v:horizAlign="1" /><v:tabList />T<tspan
   class="st7"
   v:baseFontSize="8"
   id="tspan521"
   style="font-style:normal;font-variant:normal;font-weight:normal;font-stretch:normal;font-size:5.19900322px;font-family:Arial;-inkscape-font-specification:Arial;baseline-shift:-32.49390125%">S</tspan></text>
<text
       x="230.08"
       y="114.50311"
       class="st6"
       v:langID="1033"
       id="text555"
       style="font-style:normal;font-variant:normal;font-weight:normal;font-stretch:normal;font-size:7.99996805px;font-family:Arial;-inkscape-font-specification:Arial;fill:#000000"><v:paragraph
   v:horizAlign="1" /><v:tabList />T<tspan
   class="st7"
   v:baseFontSize="8"
   id="tspan557"
   style="font-style:normal;font-variant:normal;font-weight:normal;font-stretch:normal;font-size:5.19900322px;font-family:Arial;-inkscape-font-specification:Arial;baseline-shift:-32.49390125%">S</tspan></text>
<text
       x="14.24044"
       y="124.21071"
       class="st9"
       v:langID="1033"
       id="text571"
       style="font-style:normal;font-variant:normal;font-weight:normal;font-stretch:normal;font-size:7.99996805px;font-family:Arial;-inkscape-font-specification:Arial;fill:#000000"><v:paragraph
   v:horizAlign="2" /><v:tabList />Current feedback phase C</text>
<text
       x="358.73599"
       y="90.9189"
       class="st6"
       v:langID="1033"
       id="text590"
       style="font-style:normal;font-variant:normal;font-weight:normal;font-stretch:normal;font-size:7.99996805px;font-family:Arial;-inkscape-font-specification:Arial;fill:#000000"><v:paragraph /><v:tabList />Sampling end</text>
<text
       x="358.73599"
       y="76.927002"
       class="st6"
       v:langID="1033"
       id="text609"
       style="font-style:normal;font-variant:normal;font-weight:normal;font-stretch:normal;font-size:7.99996805px;font-family:Arial;-inkscape-font-specification:Arial;fill:#000000"><v:paragraph /><v:tabList />Sampling start</text>
<text
       x="358.73599"
       y="107.2367"
       class="st6"
       v:langID="1033"
       id="text628"
       style="font-style:normal;font-variant:normal;font-weight:normal;font-stretch:normal;font-size:7.99996805px;font-family:Arial;-inkscape-font-specification:Arial;fill:#000000"><v:paragraph /><v:tabList />Conversion end</text>
<text
       x="161.972"
       y="70.209007"
       class="st6"
       v:langID="1033"
       id="text672"
       style="font-style:normal;font-variant:normal;font-weight:normal;font-stretch:normal;font-size:7.99996805px;font-family:Arial;-inkscape-font-specification:Arial;fill:#000000"><v:paragraph
   v:horizAlign="1" /><v:tabList />T<tspan
   class="st7"
   v:baseFontSize="8"
   id="tspan674"
   style="font-style:normal;font-variant:normal;font-weight:normal;font-stretch:normal;font-size:5.19900322px;font-family:Arial;-inkscape-font-specification:Arial;baseline-shift:-32.49390125%">R</tspan></text>
<text
       x="150.041"
       y="20.880007"
       class="st6"
       v:langID="1033"
       id="text683"
       style="font-style:normal;font-variant:normal;font-weight:normal;font-stretch:normal;font-size:7.99996805px;font-family:Arial;-inkscape-font-specification:Arial;fill:#000000"><v:paragraph
   v:horizAlign="1" /><v:tabList />ΔDuty<tspan
   class="st7"
   v:baseFontSize="8"
   id="tspan685"
   style="font-style:normal;font-variant:normal;font-weight:normal;font-stretch:normal;font-size:5.19900322px;font-family:Arial;-inkscape-font-specification:Arial;baseline-shift:-32.49390125%">AB</tspan></text>
<text
       x="187.207"
       y="20.880007"
       class="st6"
       v:langID="1033"
       id="text694"
       style="font-style:normal;font-variant:normal;font-weight:normal;font-stretch:normal;font-size:7.99996805px;font-family:Arial;-inkscape-font-specification:Arial;fill:#000000"><v:paragraph
   v:horizAlign="1" /><v:tabList />ΔDuty<tspan
   class="st7"
   v:baseFontSize="8"
   id="tspan696"
   style="font-style:normal;font-variant:normal;font-weight:normal;font-stretch:normal;font-size:5.19900322px;font-family:Arial;-inkscape-font-specification:Arial;baseline-shift:-32.49390125%">A</tspan></text>
<text
       x="229.95329"
       y="147.838"
       class="st6"
       v:langID="1033"
       id="text705"
       style="font-style:normal;font-variant:normal;font-weight:normal;font-stretch:normal;font-size:7.99999857px;line-height:125%;font-family:Arial;-inkscape-font-specification:'Arial, Normal';text-align:center;writing-mode:lr-tb;text-anchor:middle;fill:#000000"><v:paragraph
         v:horizAlign="1" /><v:tabList /><tspan
         id="tspan4856"
         x="229.95329"
         y="147.838">Space Available for</tspan><tspan
         id="tspan4858"
         x="229.95329"
         y="157.838">sequence Sampling</tspan></text>
<text
       x="161.2"
       y="149.6808"
       class="st6"
       v:langID="1033"
       id="text716"
       style="font-style:normal;font-variant:normal;font-weight:normal;font-stretch:normal;font-size:7.99996805px;font-family:Arial;-inkscape-font-specification:Arial;fill:#000000"><v:paragraph
   v:horizAlign="1" /><v:tabList />&lt;2T<tspan
   class="st7"
   v:baseFontSize="8"
   id="tspan718"
   style="font-style:normal;font-variant:normal;font-weight:normal;font-stretch:normal;font-size:5.19900322px;font-family:Arial;-inkscape-font-specification:Arial;baseline-shift:-32.49390125%">S</tspan><tspan
   class="st19"
   id="tspan720"
   style="font-style:normal;font-variant:normal;font-weight:normal;font-stretch:normal;font-size:7.99996805px;font-family:Arial;-inkscape-font-specification:Arial">+</tspan>T<tspan
   class="st7"
   v:baseFontSize="8"
   id="tspan722"
   style="font-style:normal;font-variant:normal;font-weight:normal;font-stretch:normal;font-size:5.19900322px;font-family:Arial;-inkscape-font-specification:Arial;baseline-shift:-32.49390125%">C</tspan></text>
</g></svg>