<?xml version="1.0" encoding="UTF-8" standalone="no"?>
<!-- Generated by Microsoft Visio, SVG Export state-machine.svg Page-1 -->

<svg
   width="9.3306322in"
   height="8.3760004in"
   viewBox="0 0 466.5316 418.80002"
   xml:space="preserve"
   color-interpolation-filters="sRGB"
   class="st13"
   version="1.1"
   id="svg328"
   sodipodi:docname="state-machine.svg"
   inkscape:version="1.1.2 (b8e25be833, 2022-02-05)"
   xmlns:inkscape="http://www.inkscape.org/namespaces/inkscape"
   xmlns:sodipodi="http://sodipodi.sourceforge.net/DTD/sodipodi-0.dtd"
   xmlns:xlink="http://www.w3.org/1999/xlink"
   xmlns="http://www.w3.org/2000/svg"
   xmlns:svg="http://www.w3.org/2000/svg"
   xmlns:v="http://schemas.microsoft.com/visio/2003/SVGExtensions/"><sodipodi:namedview
   id="namedview330"
   pagecolor="#ffffff"
   bordercolor="#666666"
   borderopacity="1.0"
   inkscape:pageshadow="2"
   inkscape:pageopacity="0.0"
   inkscape:pagecheckerboard="0"
   inkscape:document-units="in"
   showgrid="false"
   scale-x="50"
   inkscape:zoom="1.2876067"
   inkscape:cx="302.4992"
   inkscape:cy="279.58847"
   inkscape:window-width="1920"
   inkscape:window-height="1017"
   inkscape:window-x="-8"
   inkscape:window-y="-8"
   inkscape:window-maximized="1"
   inkscape:current-layer="svg328" />
	<v:documentProperties
   v:langID="1033"
   v:metric="true"
   v:viewMarkup="false">
		<v:userDefs>
			<v:ud
   v:nameU="msvConvertTheme" />
		</v:userDefs>
	</v:documentProperties>

	<style
   type="text/css"
   id="style2">
	<![CDATA[
		.st1 {fill:none;stroke:none;stroke-linecap:round;stroke-linejoin:round;stroke-width:0.72}
		.st2 {fill:#0070c0;font-family:Arial;font-size:0.666664em}
		.st3 {font-size:1em}
		.st4 {fill:#ffffff;stroke:#00b0f0;stroke-linecap:round;stroke-linejoin:round;stroke-width:1.2}
		.st5 {fill:#0070c0;font-family:Arial;font-size:0.666664em;font-weight:bold}
		.st6 {marker-end:url(#mrkr5-25);stroke:#1f477d;stroke-linecap:round;stroke-linejoin:round;stroke-width:0.72}
		.st7 {fill:#1f477d;fill-opacity:1;stroke:#1f477d;stroke-opacity:1;stroke-width:0.22222222222222}
		.st8 {marker-end:url(#mrkr5-76);stroke:#1f477d;stroke-linecap:round;stroke-linejoin:round;stroke-width:0.72}
		.st9 {fill:#ffffff;stroke:#00b0f0;stroke-dasharray:1.2,2.4;stroke-linecap:round;stroke-linejoin:round;stroke-width:1.2}
		.st10 {marker-end:url(#mrkr5-111);stroke:#002060;stroke-linecap:round;stroke-linejoin:round;stroke-width:0.72}
		.st11 {fill:#002060;fill-opacity:1;stroke:#002060;stroke-opacity:1;stroke-width:0.22222222222222}
		.st12 {marker-end:url(#mrkr5-156);stroke:#1f477d;stroke-linecap:round;stroke-linejoin:round;stroke-width:0.72}
		.st13 {fill:none;fill-rule:evenodd;font-size:12px;overflow:visible;stroke-linecap:square;stroke-miterlimit:3}
	]]>
	</style>

	<defs
   id="Markers">
		<g
   id="lend5">
			<path
   d="M 2,1 0,0 1.98117,-0.993387 C 1.67173,-0.364515 1.67301,0.372641 1.98465,1.00043"
   style="stroke:none"
   id="path4" />
		</g>
		<marker
   id="mrkr5-25"
   class="st7"
   v:arrowType="5"
   v:arrowSize="2"
   v:setback="7.375"
   refX="-7.375"
   orient="auto"
   markerUnits="strokeWidth"
   overflow="visible">
			<use
   xlink:href="#lend5"
   transform="scale(-4.5)"
   id="use7"
   x="0"
   y="0"
   width="100%"
   height="100%" />
		</marker>
		<marker
   id="mrkr5-76"
   class="st7"
   v:arrowType="5"
   v:arrowSize="2"
   v:setback="7.875"
   refX="-7.875"
   orient="auto"
   markerUnits="strokeWidth"
   overflow="visible">
			<use
   xlink:href="#lend5"
   transform="scale(-4.5)"
   id="use10"
   x="0"
   y="0"
   width="100%"
   height="100%" />
		</marker>
		<marker
   id="mrkr5-111"
   class="st11"
   v:arrowType="5"
   v:arrowSize="2"
   v:setback="7.375"
   refX="-7.375"
   orient="auto"
   markerUnits="strokeWidth"
   overflow="visible">
			<use
   xlink:href="#lend5"
   transform="scale(-4.5)"
   id="use13"
   x="0"
   y="0"
   width="100%"
   height="100%" />
		</marker>
		<marker
   id="mrkr5-156"
   class="st7"
   v:arrowType="5"
   v:arrowSize="2"
   v:setback="0"
   refX="0"
   orient="auto"
   markerUnits="strokeWidth"
   overflow="visible">
			<use
   xlink:href="#lend5"
   transform="scale(-4.5)"
   id="use16"
   x="0"
   y="0"
   width="100%"
   height="100%" />
		</marker>
	</defs>
	<g
   v:mID="0"
   v:index="1"
   v:groupContext="foregroundPage"
   id="g326"
   transform="translate(-6.8853788,-1.180172e-5)">
		<title
   id="title20">Page-1</title>
		<v:pageProperties
   v:drawingScale="1"
   v:pageScale="1"
   v:drawingUnits="0"
   v:shadowOffsetX="9"
   v:shadowOffsetY="-9" />
		<v:layer
   v:name="Connector"
   v:index="0" />
		<g
   id="shape46-1"
   v:mID="46"
   v:groupContext="shape"
   transform="translate(369.017,-137.4)">
			<title
   id="title22">Sheet.46</title>
			<desc
   id="desc24">From Any State</desc>
			<v:textBlock
   v:margins="rect(1,1,1,1)" />
			<v:textRect
   cx="45.72"
   cy="411.6"
   width="91.44"
   height="14.4" />
			<rect
   x="0"
   y="404.39999"
   width="91.440002"
   height="14.4"
   class="st1"
   id="rect26" />
			<text
   x="1"
   y="414"
   class="st2"
   v:langID="1033"
   id="text28"><v:paragraph /><v:tabList />From Any State</text>		</g>
		<g
   id="shape47-4"
   v:mID="47"
   v:groupContext="shape"
   transform="translate(369.017,-101.4)">
			<title
   id="title31">Sheet.47</title>
			<desc
   id="desc33">From Any State but: ICL WAIT, IDLE, FAULT NOW, FAULT OVER</desc>
			<v:textBlock
   v:margins="rect(1,1,1,1)"
   v:verticalAlign="0" />
			<v:textRect
   cx="52.2"
   cy="404.4"
   width="104.4"
   height="28.8" />
			<rect
   x="0"
   y="390"
   width="104.4"
   height="28.799999"
   class="st1"
   id="rect35" />
			<text
   x="1"
   y="398.20001"
   class="st2"
   v:langID="1033"
   id="text43"><v:paragraph /><v:tabList />From Any State but: <v:newlineChar /><tspan
   x="1"
   dy="1.2em"
   class="st3"
   id="tspan37">ICL WAIT, IDLE, <v:newlineChar /></tspan><tspan
   x="1"
   dy="1.2em"
   class="st3"
   id="tspan39">FAULT NOW</tspan><tspan
   class="st3"
   v:langID="1036"
   id="tspan41">, </tspan>FAULT OVER</text>		</g>
		<g
   id="shape49-10"
   v:mID="49"
   v:groupContext="shape"
   transform="translate(244.527,-0.6)">
			<title
   id="title46">Sheet.49</title>
			<desc
   id="desc48">START</desc>
			<v:textBlock
   v:margins="rect(1,1,1,1)" />
			<v:textRect
   cx="28.8"
   cy="397.2"
   width="57.6"
   height="43.2" />
			<ellipse
   cx="28.799999"
   cy="397.20001"
   rx="28.799999"
   ry="21.6"
   class="st4"
   id="ellipse50" />
			<text
   x="15.47"
   y="399.60001"
   class="st5"
   v:langID="1036"
   id="text52"><v:paragraph
   v:horizAlign="1" /><v:tabList />START</text>		</g>
		<g
   id="shape50-13"
   v:mID="50"
   v:groupContext="shape"
   transform="translate(306.447,-43.8)">
			<title
   id="title55">Sheet.50</title>
			<desc
   id="desc57">SWITCH OVER</desc>
			<v:textBlock
   v:margins="rect(1,1,1,1)" />
			<v:textRect
   cx="28.8"
   cy="397.2"
   width="57.6"
   height="43.2" />
			<ellipse
   cx="28.799999"
   cy="397.20001"
   rx="28.799999"
   ry="21.6"
   class="st4"
   id="ellipse59" />
			<text
   x="13.02"
   y="394.79999"
   class="st5"
   v:langID="1036"
   id="text63"><v:paragraph
   v:horizAlign="1" /><v:tabList />SWITCH <tspan
   x="17.459999"
   dy="1.2em"
   class="st3"
   id="tspan61">OVER</tspan></text>		</g>
		<g
   id="shape39-17"
   v:mID="39"
   v:groupContext="shape"
   transform="translate(244.527,-87)">
			<title
   id="title66">Sheet.39</title>
			<desc
   id="desc68">RUN</desc>
			<v:textBlock
   v:margins="rect(1,1,1,1)" />
			<v:textRect
   cx="28.8"
   cy="397.2"
   width="57.6"
   height="43.2" />
			<ellipse
   cx="28.799999"
   cy="397.20001"
   rx="28.799999"
   ry="21.6"
   class="st4"
   id="ellipse70" />
			<text
   x="20.129999"
   y="399.60001"
   class="st5"
   v:langID="1036"
   id="text72"><v:paragraph
   v:horizAlign="1" /><v:tabList />RUN</text>		</g>
		<g
   id="shape51-20"
   v:mID="51"
   v:groupContext="shape"
   v:layerMember="0"
   transform="translate(302.127,-22.2)">
			<title
   id="title75">Dynamic connector.51</title>
			<path
   d="m 0,418.8 c 8.28,0 21.4,0 27.59,-4.52 3.77,-2.75 4.97,-7.17 5.35,-11.41 l 0.01,-0.36"
   class="st6"
   id="path77" />
		</g>
		<g
   id="shape55-26"
   v:mID="55"
   v:groupContext="shape"
   transform="translate(244.527,-303)">
			<title
   id="title80">Sheet.55</title>
			<desc
   id="desc82">IDLE</desc>
			<v:textBlock
   v:margins="rect(1,1,1,1)" />
			<v:textRect
   cx="28.8"
   cy="397.2"
   width="57.6"
   height="43.2" />
			<ellipse
   cx="28.799999"
   cy="397.20001"
   rx="28.799999"
   ry="21.6"
   class="st4"
   id="ellipse84" />
			<text
   x="19.690001"
   y="399.60001"
   class="st5"
   v:langID="1036"
   id="text86"><v:paragraph
   v:horizAlign="1" /><v:tabList />IDLE</text>		</g>
		<g
   id="shape64-29"
   v:mID="64"
   v:groupContext="shape"
   v:layerMember="0"
   transform="translate(244.527,-324.6)">
			<title
   id="title89">Dynamic connector.64</title>
			<path
   d="m 0,418.8 c -19.8,0 -48.24,0 -63.07,18.6 -15.04,18.87 -16.06,56.89 -16.13,83.86 v 0.36"
   class="st6"
   id="path91" />
		</g>
		<g
   id="shape65-34"
   v:mID="65"
   v:groupContext="shape"
   v:layerMember="0"
   transform="translate(165.327,-173.4)">
			<title
   id="title94">Dynamic connector.65</title>
			<path
   d="m 0,418.8 c 0,5.4 0,13.5 4.05,17.55 2.78,2.78 7.47,3.65 11.88,3.93 h 0.36"
   class="st6"
   id="path96" />
		</g>
		<g
   id="shape68-39"
   v:mID="68"
   v:groupContext="shape"
   v:layerMember="0"
   transform="translate(114.927,-216.6)">
			<title
   id="title99">Dynamic connector.68</title>
			<path
   d="m 0,418.8 c 0,48.6 0,125.44 27,161.78 22.84,30.76 65.03,32.51 96.93,32.61 h 0.36"
   class="st6"
   id="path101" />
		</g>
		<g
   id="shape69-44"
   v:mID="69"
   v:groupContext="shape"
   v:layerMember="0"
   transform="translate(244.527,-324.6)">
			<title
   id="title104">Dynamic connector.69</title>
			<path
   d="m 0,418.8 c -32.4,0 -85.1,0 -109.23,14.32 -18.08,10.73 -20.11,29.5 -20.34,44.94 v 0.36"
   class="st6"
   id="path106" />
		</g>
		<g
   id="shape71-49"
   v:mID="71"
   v:groupContext="shape"
   transform="translate(35.7265,-259.8)">
			<title
   id="title109">Sheet.71</title>
			<desc
   id="desc111">OFFSET MEAS.</desc>
			<v:textBlock
   v:margins="rect(1,1,1,1)" />
			<v:textRect
   cx="28.8"
   cy="397.2"
   width="57.6"
   height="43.2" />
			<ellipse
   cx="28.799999"
   cy="397.20001"
   rx="28.799999"
   ry="21.6"
   class="st4"
   id="ellipse113" />
			<text
   x="13.02"
   y="394.79999"
   class="st5"
   v:langID="1036"
   id="text117"><v:paragraph
   v:horizAlign="1" /><v:tabList />OFFSET <tspan
   x="16.129999"
   dy="1.2em"
   class="st3"
   id="tspan115">MEAS.</tspan></text>		</g>
		<g
   id="shape72-53"
   v:mID="72"
   v:groupContext="shape"
   v:layerMember="0"
   transform="translate(244.527,-324.6)">
			<title
   id="title120">Dynamic connector.72</title>
			<path
   d="m 0,418.8 c -50.4,0 -79.99,-8.27 -113.35,-7.09 -22.98,0.81 -47.75,6.1 -57.26,24.18 l -0.14,0.33"
   class="st6"
   id="path122" />
		</g>
		<g
   id="shape73-58"
   v:mID="73"
   v:groupContext="shape"
   v:layerMember="0"
   transform="translate(64.5265,-259.8)">
			<title
   id="title125">Dynamic connector.73</title>
			<path
   d="m 0,418.8 c 0,5.4 0,13.5 4.05,17.55 2.78,2.78 7.47,3.65 11.88,3.93 h 0.36"
   class="st6"
   id="path127" />
		</g>
		<g
   id="shape76-63"
   v:mID="76"
   v:groupContext="shape"
   v:layerMember="0"
   transform="translate(64.5265,-259.8)">
			<title
   id="title130">Dynamic connector.76</title>
			<path
   d="m 0,418.8 c 0,59.4 0,151.88 36.36,196.37 32.31,39.53 93.33,41.16 137.97,41.23 h 0.36"
   class="st6"
   id="path132" />
		</g>
		<g
   id="shape33-68"
   v:mID="33"
   v:groupContext="shape"
   transform="translate(244.527,-375)">
			<title
   id="title135">Sheet.33</title>
			<desc
   id="desc137">ICL WAIT</desc>
			<v:textBlock
   v:margins="rect(1,1,1,1)" />
			<v:textRect
   cx="28.8"
   cy="397.2"
   width="57.6"
   height="43.2" />
			<ellipse
   cx="28.799999"
   cy="397.20001"
   rx="28.799999"
   ry="21.6"
   class="st4"
   id="ellipse139" />
			<text
   x="11.03"
   y="399.60001"
   class="st5"
   v:langID="1036"
   id="text141"><v:paragraph
   v:horizAlign="1" /><v:tabList />ICL WAIT</text>		</g>
		<g
   id="shape34-71"
   v:mID="34"
   v:groupContext="shape"
   v:layerMember="0"
   transform="translate(266.127,-375)">
			<title
   id="title144">Dynamic connector.34</title>
			<path
   d="m 7.2,418.8 c 0,5.64 0,15.68 0,23.26"
   class="st8"
   id="path146" />
		</g>
		<g
   id="shape35-77"
   v:mID="35"
   v:groupContext="shape"
   transform="translate(302.127,-223.8)">
			<title
   id="title149">Sheet.35</title>
			<desc
   id="desc151">STOP</desc>
			<v:textBlock
   v:margins="rect(1,1,1,1)" />
			<v:textRect
   cx="28.8"
   cy="397.2"
   width="57.6"
   height="43.2" />
			<ellipse
   cx="28.799999"
   cy="397.20001"
   rx="28.799999"
   ry="21.6"
   class="st4"
   id="ellipse153" />
			<text
   x="17.91"
   y="399.60001"
   class="st5"
   v:langID="1036"
   id="text155"><v:paragraph
   v:horizAlign="1" /><v:tabList />STOP</text>		</g>
		<g
   id="shape78-80"
   v:mID="78"
   v:groupContext="shape"
   v:layerMember="0"
   transform="translate(330.927,-266.87)">
			<title
   id="title158">Dynamic connector.78</title>
			<path
   d="m 0,418.8 c 0,-14.43 0,-37.92 -6.35,-48.66 -4.05,-6.85 -10.68,-8.53 -16.78,-8.94 h -0.36"
   class="st6"
   id="path160" />
		</g>
		<g
   id="shape80-85"
   v:mID="80"
   v:groupContext="shape"
   transform="translate(359.727,-339)">
			<title
   id="title163">Sheet.80</title>
			<desc
   id="desc165">FAULT OVER</desc>
			<v:textBlock
   v:margins="rect(1,1,1,1)" />
			<v:textRect
   cx="28.8"
   cy="397.2"
   width="57.6"
   height="43.2" />
			<ellipse
   cx="28.799999"
   cy="397.20001"
   rx="28.799999"
   ry="21.6"
   class="st4"
   id="ellipse167" />
			<text
   x="15.69"
   y="394.79999"
   class="st5"
   v:langID="1036"
   id="text171"><v:paragraph
   v:horizAlign="1" /><v:tabList />FAULT<v:lf /><tspan
   x="17.459999"
   dy="1.2em"
   class="st3"
   id="tspan169">OVER</tspan></text>		</g>
		<g
   id="shape81-89"
   v:mID="81"
   v:groupContext="shape"
   transform="translate(359.727,-267)">
			<title
   id="title174">Sheet.81</title>
			<desc
   id="desc176">FAULT NOW</desc>
			<v:textBlock
   v:margins="rect(1,1,1,1)" />
			<v:textRect
   cx="28.8"
   cy="397.2"
   width="57.6"
   height="43.2" />
			<ellipse
   cx="28.799999"
   cy="397.20001"
   rx="28.799999"
   ry="21.6"
   class="st4"
   id="ellipse178" />
			<text
   x="15.69"
   y="394.79999"
   class="st5"
   v:langID="1036"
   id="text182"><v:paragraph
   v:horizAlign="1" /><v:tabList />FAULT<v:lf /><tspan
   x="19.02"
   dy="1.2em"
   class="st3"
   id="tspan180">NOW</tspan></text>		</g>
		<g
   id="shape82-93"
   v:mID="82"
   v:groupContext="shape"
   v:layerMember="0"
   transform="translate(359.727,-360.6)">
			<title
   id="title185">Dynamic connector.82</title>
			<path
   d="m 0,418.8 c -12.9,0 -13.47,32.85 -51.93,35.79 l -0.36,0.01"
   class="st6"
   id="path187" />
		</g>
		<g
   id="shape83-98"
   v:mID="83"
   v:groupContext="shape"
   v:layerMember="0"
   transform="translate(381.327,-310.07)">
			<title
   id="title190">Dynamic connector.83</title>
			<path
   d="m 7.2,418.8 c 0,-5.64 0,-15.68 0,-23.26"
   class="st8"
   id="path192" />
		</g>
		<g
   id="shape85-103"
   v:mID="85"
   v:groupContext="shape"
   transform="translate(344.746,-166.2)">
			<title
   id="title195">Sheet.85</title>
			<desc
   id="desc197">2</desc>
			<v:textBlock
   v:margins="rect(1,1,1,1)" />
			<v:textRect
   cx="7.49048"
   cy="411.6"
   width="14.99"
   height="14.4" />
			<ellipse
   cx="7.4904799"
   cy="411.60001"
   rx="7.4904799"
   ry="7.1999998"
   class="st9"
   id="ellipse199" />
			<text
   x="5.27"
   y="414"
   class="st5"
   v:langID="1033"
   id="text201"><v:paragraph
   v:horizAlign="1" /><v:tabList />2</text>		</g>
		<g
   id="shape86-106"
   v:mID="86"
   v:groupContext="shape"
   v:layerMember="0"
   transform="translate(352.236,-180.557)">
			<title
   id="title204">Dynamic connector.86</title>
			<path
   d="m 0,418.8 c 0,-12.62 -18.51,-13.48 -21.03,-37.58 l -0.01,-0.36"
   class="st10"
   id="path206" />
		</g>
		<g
   id="shape87-112"
   v:mID="87"
   v:groupContext="shape"
   transform="translate(402.346,-209.4)">
			<title
   id="title209">Sheet.87</title>
			<desc
   id="desc211">1</desc>
			<v:textBlock
   v:margins="rect(1,1,1,1)" />
			<v:textRect
   cx="7.49048"
   cy="411.6"
   width="14.99"
   height="14.4" />
			<ellipse
   cx="7.4904799"
   cy="411.60001"
   rx="7.4904799"
   ry="7.1999998"
   class="st9"
   id="ellipse213" />
			<text
   x="5.27"
   y="414"
   class="st5"
   v:langID="1036"
   id="text215"><v:paragraph
   v:horizAlign="1" /><v:tabList />1</text>		</g>
		<g
   id="shape88-115"
   v:mID="88"
   v:groupContext="shape"
   v:layerMember="0"
   transform="translate(409.836,-223.757)">
			<title
   id="title218">Dynamic connector.88</title>
			<path
   d="m 0,418.8 c 0,-12.62 -18.51,-13.48 -21.03,-37.58 l -0.01,-0.36"
   class="st10"
   id="path220" />
		</g>
		<g
   id="shape89-120"
   v:mID="89"
   v:groupContext="shape"
   v:layerMember="0"
   transform="translate(57.3265,-302.28)">
			<title
   id="title223">Dynamic connector.89</title>
			<path
   d="m 0,418.8 c -7.2,-22.32 26.23,-35.06 65.88,-39.07 42.43,-4.29 92,1.41 117.04,9.16 l 0.34,0.11"
   class="st6"
   id="path225" />
		</g>
		<g
   id="shape90-125"
   v:mID="90"
   v:groupContext="shape"
   transform="translate(346.836,-137.4)">
			<title
   id="title228">Sheet.90</title>
			<desc
   id="desc230">1</desc>
			<v:textBlock
   v:margins="rect(1,1,1,1)" />
			<v:textRect
   cx="7.49048"
   cy="411.6"
   width="14.99"
   height="14.4" />
			<ellipse
   cx="7.4904799"
   cy="411.60001"
   rx="7.4904799"
   ry="7.1999998"
   class="st9"
   id="ellipse232" />
			<text
   x="5.27"
   y="414"
   class="st5"
   v:langID="1036"
   id="text234"><v:paragraph
   v:horizAlign="1" /><v:tabList />1</text>		</g>
		<g
   id="shape91-128"
   v:mID="91"
   v:groupContext="shape"
   transform="translate(346.836,-115.8)">
			<title
   id="title237">Sheet.91</title>
			<desc
   id="desc239">2</desc>
			<v:textBlock
   v:margins="rect(1,1,1,1)" />
			<v:textRect
   cx="7.49048"
   cy="411.6"
   width="14.99"
   height="14.4" />
			<ellipse
   cx="7.4904799"
   cy="411.60001"
   rx="7.4904799"
   ry="7.1999998"
   class="st9"
   id="ellipse241" />
			<text
   x="5.27"
   y="414"
   class="st5"
   v:langID="1036"
   id="text243"><v:paragraph
   v:horizAlign="1" /><v:tabList />2</text>		</g>
		<g
   id="shape2-131"
   v:mID="2"
   v:groupContext="shape"
   v:layerMember="0"
   transform="translate(330.927,-266.87)">
			<title
   id="title246">Dynamic connector.2</title>
			<path
   d="m 0,418.8 c 0,-32.43 0,-87.35 -6.88,-111.27 -4,-13.89 -10.31,-17.33 -16.26,-18.18 l -0.36,-0.02"
   class="st6"
   id="path248" />
		</g>
		<g
   id="shape3-136"
   v:mID="3"
   v:groupContext="shape"
   v:layerMember="0"
   transform="translate(359.727,-360.6)">
			<title
   id="title251">Dynamic connector.3</title>
			<path
   d="m 0,418.8 c -12.9,0 -13.47,-32.85 -51.93,-35.79 L -52.29,383"
   class="st6"
   id="path253" />
		</g>
		<g
   id="shape57-141"
   v:mID="57"
   v:groupContext="shape"
   v:layerMember="0"
   transform="translate(306.447,-65.4)">
			<title
   id="title256">Dynamic connector.57</title>
			<path
   d="m 0,418.8 c -8.28,0 -21.4,0 -27.59,-4.52 -3.77,-2.75 -4.97,-7.17 -5.35,-11.41 l -0.01,-0.36"
   class="st6"
   id="path258" />
		</g>
		<g
   id="shape59-146"
   v:mID="59"
   v:groupContext="shape"
   v:layerMember="0"
   transform="translate(114.927,-216.6)">
			<title
   id="title261">Dynamic connector.59</title>
			<path
   d="m 0,418.8 c 0,27 0,66.48 23.09,86.71 22.91,20.08 68.54,21.22 100.84,21.29 h 0.36"
   class="st6"
   id="path263" />
		</g>
		<g
   id="shape77-151"
   v:mID="77"
   v:groupContext="shape"
   v:layerMember="0"
   transform="translate(253.887,-336.12)">
			<title
   id="title266">Dynamic connector.77</title>
			<path
   d="M -5.04,418.8 C -347.76,286.32 -304.56,787.44 -9.36,732.72"
   class="st12"
   id="path268" />
		</g>
		<g
   id="shape53-157"
   v:mID="53"
   v:groupContext="shape"
   v:layerMember="0"
   transform="translate(302.127,-108.6)">
			<title
   id="title271">Dynamic connector.53</title>
			<path
   d="m 0,418.8 c 7.2,0 16.64,0 21.96,-16.52 6.41,-19.92 6.81,-63.86 6.84,-93.01 v -0.36"
   class="st10"
   id="path273" />
		</g>
		<g
   id="shape92-162"
   v:mID="92"
   v:groupContext="shape"
   v:layerMember="0"
   transform="translate(215.727,-130.2)">
			<title
   id="title276">Dynamic connector.92</title>
			<path
   d="m 0,418.8 c 0,27 0,72.49 6.81,92.43 4.01,11.72 10.36,14.62 16.32,15.33 l 0.36,0.02"
   class="st6"
   id="path278" />
		</g>
		<g
   id="shape93-167"
   v:mID="93"
   v:groupContext="shape"
   v:layerMember="0"
   transform="translate(114.927,-216.6)">
			<title
   id="title281">Dynamic connector.93</title>
			<path
   d="m 0,418.8 c 0,5.4 0,13.5 4.05,17.55 2.78,2.78 7.47,3.65 11.88,3.93 h 0.36"
   class="st6"
   id="path283" />
		</g>
		<g
   id="shape95-172"
   v:mID="95"
   v:groupContext="shape"
   transform="translate(186.927,-130.2)">
			<title
   id="title286">Sheet.95</title>
			<desc
   id="desc288">WAIT STOP MOTOR</desc>
			<v:textBlock
   v:margins="rect(1,1,1,1)" />
			<v:textRect
   cx="28.8"
   cy="397.2"
   width="57.6"
   height="43.2" />
			<ellipse
   cx="28.799999"
   cy="397.20001"
   rx="28.799999"
   ry="21.6"
   class="st4"
   id="ellipse290" />
			<text
   x="18.58"
   y="390"
   class="st5"
   v:langID="1036"
   id="text296"><v:paragraph
   v:horizAlign="1" /><v:tabList />WAIT <v:lf /><tspan
   x="17.91"
   dy="1.2em"
   class="st3"
   id="tspan292">STOP <v:lf /></tspan><tspan
   x="13.91"
   dy="1.2em"
   class="st3"
   id="tspan294">MOTOR</tspan></text>		</g>
		<g
   id="shape97-177"
   v:mID="97"
   v:groupContext="shape"
   transform="translate(86.1265,-216.6)">
			<title
   id="title299">Sheet.97</title>
			<desc
   id="desc301">CHARGE BOOT CAP</desc>
			<v:textBlock
   v:margins="rect(1,1,1,1)" />
			<v:textRect
   cx="28.8"
   cy="397.2"
   width="57.6"
   height="43.2" />
			<ellipse
   cx="28.799999"
   cy="397.20001"
   rx="28.799999"
   ry="21.6"
   class="st4"
   id="ellipse303" />
			<text
   x="11.47"
   y="390"
   class="st5"
   v:langID="1036"
   id="text309"><v:paragraph
   v:horizAlign="1" /><v:tabList />CHARGE <v:lf /><tspan
   x="17.25"
   dy="1.2em"
   class="st3"
   id="tspan305">BOOT <v:lf /></tspan><tspan
   x="20.35"
   dy="1.2em"
   class="st3"
   id="tspan307">CAP</tspan></text>		</g>
		<g
   id="shape98-182"
   v:mID="98"
   v:groupContext="shape"
   transform="translate(136.527,-173.4)">
			<title
   id="title312">Sheet.98</title>
			<desc
   id="desc314">ALIGNMENT</desc>
			<v:textBlock
   v:margins="rect(1,1,1,1)" />
			<v:textRect
   cx="28.8"
   cy="397.2"
   width="57.6"
   height="43.2" />
			<ellipse
   cx="28.799999"
   cy="397.20001"
   rx="28.799999"
   ry="21.6"
   class="st4"
   id="ellipse316" />
			<text
   x="5.02"
   y="399.60001"
   class="st5"
   v:langID="1036"
   id="text318"><v:paragraph
   v:horizAlign="1" /><v:tabList />ALIGNMENT</text>		</g>
		<g
   id="shape99-185"
   v:mID="99"
   v:groupContext="shape"
   v:layerMember="0"
   transform="translate(215.727,-130.2)">
			<title
   id="title321">Dynamic connector.99</title>
			<path
   d="m 0,418.8 c 0,5.4 0,13.18 4.98,17.23 4.12,3.33 11.62,4.12 18.15,4.31 l 0.36,0.01"
   class="st6"
   id="path323" />
		</g>
	</g>
</svg>
