<?xml version="1.0" encoding="UTF-8" standalone="no"?>
<svg
   xmlns:v="http://schemas.microsoft.com/visio/2003/SVGExtensions/"
   xmlns:dc="http://purl.org/dc/elements/1.1/"
   xmlns:cc="http://creativecommons.org/ns#"
   xmlns:rdf="http://www.w3.org/1999/02/22-rdf-syntax-ns#"
   xmlns:svg="http://www.w3.org/2000/svg"
   xmlns="http://www.w3.org/2000/svg"
   style="font-size:12px;overflow:visible;color-interpolation-filters:sRGB;fill:none;fill-rule:evenodd;stroke-linecap:square;stroke-miterlimit:3"
   version="1.1"
   id="svg2"
   class="st18"
   xml:space="preserve"
   viewBox="0 0 403.937 252.00025"
   height="3.5in"
   width="5.61024in"><metadata
     id="metadata320"><rdf:RDF><cc:Work
         rdf:about=""><dc:format>image/svg+xml</dc:format><dc:type
           rdf:resource="http://purl.org/dc/dcmitype/StillImage" /><dc:title></dc:title></cc:Work></rdf:RDF></metadata><defs
     id="defs318" /><v:documentProperties
     v:viewMarkup="false"
     v:langID="1033"><v:userDefs><v:ud
         v:val="VT0(1):26"
         v:nameU="msvNoAutoConnect" /><v:ud
         v:nameU="msvConvertTheme" /></v:userDefs></v:documentProperties><style
     id="style4"
     type="text/css"><![CDATA[
		.st1 {fill:none;stroke:none;stroke-linecap:butt;stroke-width:0.75}
		.st2 {fill:#000000;font-family:Arial;font-size:0.499992em}
		.st3 {fill:#000000;stroke:#000000;stroke-linecap:round;stroke-linejoin:round;stroke-width:0.0166754}
		.st4 {fill:#000000;stroke:#000000;stroke-linecap:round;stroke-linejoin:round;stroke-width:0.00833769}
		.st5 {stroke:#000000;stroke-linecap:round;stroke-linejoin:round;stroke-width:0.400209}
		.st6 {stroke:#ff0000;stroke-linecap:round;stroke-linejoin:round;stroke-width:1.26733}
		.st7 {stroke:#080808;stroke-linecap:round;stroke-linejoin:round;stroke-width:1.26733}
		.st8 {stroke:none;stroke-linecap:round;stroke-linejoin:round;stroke-width:0.75}
		.st9 {fill:#080808;font-family:Arial;font-size:0.666664em}
		.st10 {fill:#080808;stroke:none;stroke-linecap:round;stroke-linejoin:round;stroke-width:0.75}
		.st11 {fill:#006600;stroke:none;stroke-linecap:round;stroke-linejoin:round;stroke-width:0.75}
		.st12 {fill:#000000;font-family:Arial;font-size:0.666664em}
		.st13 {font-size:1em}
		.st14 {fill:#ffffff;stroke:#080808;stroke-linecap:round;stroke-linejoin:round;stroke-width:0.400209}
		.st15 {fill:#000000;stroke:#000000;stroke-linecap:round;stroke-linejoin:round;stroke-width:0.00416884}
		.st16 {fill:#080808;font-family:Arial;font-size:0.499992em}
		.st17 {baseline-shift:-32.4949%;font-size:0.649897em}
		.st18 {fill:none;fill-rule:evenodd;font-size:12px;overflow:visible;stroke-linecap:square;stroke-miterlimit:3}
	]]></style><g
     transform="translate(-9.6000102,-12.264735)"
     id="g4716"><path
       d="m 77.7027,172.723 264.91,0 0,1.27 -264.91,0 0,-1.27 0,0 z m 264.25,-1.26 3.81,1.9 -3.81,1.89 0,-3.79 0,0 z"
       class="st3"
       id="path22"
       style="fill:#000000;stroke:#000000;stroke-width:0.0166754;stroke-linecap:round;stroke-linejoin:round" /><path
       d="m 213.468,25.319 0,3.2 -0.4,0 0,-3.2 0.4,0 0,0 z m 0,4.4 0,3.2 -0.4,0 0,-3.2 0.4,0 0,0 z m 0,4.4 0,3.2 -0.4,0 0,-3.2 0.4,0 0,0 z m 0,4.4 0,3.2 -0.4,0 0,-3.2 0.4,0 0,0 z m 0,4.39 0,3.2 -0.4,0 0,-3.2 0.4,0 0,0 z m 0,4.4 0,3.2 -0.4,0 0,-3.2 0.4,0 0,0 z m 0,4.4 0,3.2 -0.4,0 0,-3.2 0.4,0 0,0 z m 0,4.4 0,3.2 -0.4,0 0,-3.2 0.4,0 0,0 z m 0,4.4 0,3.2 -0.4,0 0,-3.2 0.4,0 0,0 z m 0,4.4 0,3.19 -0.4,0 0,-3.19 0.4,0 0,0 z m 0,4.39 0,3.2 -0.4,0 0,-3.2 0.4,0 0,0 z m 0,4.4 0,3.2 -0.4,0 0,-3.2 0.4,0 0,0 z m 0,4.4 0,3.2 -0.4,0 0,-3.2 0.4,0 0,0 z m 0,4.4 0,3.2 -0.4,0 0,-3.2 0.4,0 0,0 z m 0,4.4 0,3.19 -0.4,0 0,-3.19 0.4,0 0,0 z m 0,4.39 0,3.2 -0.4,0 0,-3.2 0.4,0 0,0 z m 0,4.4 0,3.2 -0.4,0 0,-3.2 0.4,0 0,0 z m 0,4.4 0,3.2 -0.4,0 0,-3.2 0.4,0 0,0 z m 0,4.4 0,3.2 -0.4,0 0,-3.2 0.4,0 0,0 z m 0,4.4 0,3.2 -0.4,0 0,-3.2 0.4,0 0,0 z m 0,4.39 0,3.2 -0.4,0 0,-3.2 0.4,0 0,0 z m 0,4.4 0,3.2 -0.4,0 0,-3.2 0.4,0 0,0 z m 0,4.4 0,3.2 -0.4,0 0,-3.2 0.4,0 0,0 z m 0,4.4 0,3.2 -0.4,0 0,-3.2 0.4,0 0,0 z m 0,4.4 0,3.2 -0.4,0 0,-3.2 0.4,0 0,0 z m 0,4.4 0,3.19 -0.4,0 0,-3.19 0.4,0 0,0 z m 0,4.39 0,3.2 -0.4,0 0,-3.2 0.4,0 0,0 z m 0,4.4 0,3.2 -0.4,0 0,-3.2 0.4,0 0,0 z m 0,4.4 0,3.2 -0.4,0 0,-3.2 0.4,0 0,0 z m 0,4.4 0,3.2 -0.4,0 0,-3.2 0.4,0 0,0 z m 0,4.4 0,3.19 -0.4,0 0,-3.19 0.4,0 0,0 z m 0,4.39 0,3.2 -0.4,0 0,-3.2 0.4,0 0,0 z m 0,4.4 0,3.2 -0.4,0 0,-3.2 0.4,0 0,0 z m 0,4.4 0,3.2 -0.4,0 0,-3.2 0.4,0 0,0 z m 0,4.4 0,1.66 -0.4,0 0,-1.66 0.4,0 0,0 z"
       class="st4"
       id="path27"
       style="fill:#000000;stroke:#000000;stroke-width:0.00833769;stroke-linecap:round;stroke-linejoin:round" /><path
       d="M 90.2211,173.32 213.2711,59.97"
       class="st5"
       id="path32"
       style="stroke:#000000;stroke-width:0.40020901;stroke-linecap:round;stroke-linejoin:round" /><path
       d="M 336.319,173.32 213.269,59.97"
       class="st5"
       id="path37"
       style="stroke:#000000;stroke-width:0.40020901;stroke-linecap:round;stroke-linejoin:round" /><path
       d="m 213.415,60.118 2.36,-2.15 -0.28,-0.3 -2.36,2.16 0.28,0.29 0,0 z m 3.24,-2.96 2.36,-2.17 -0.26,-0.29 -2.37,2.16 0.27,0.3 0,0 z m 3.26,-2.97 2.36,-2.16 -0.28,-0.3 -2.36,2.16 0.28,0.3 0,0 z m 3.24,-2.97 2.36,-2.17 -0.26,-0.29 -2.36,2.16 0.26,0.3 0,0 z m 3.25,-2.97 2.37,-2.16 -0.28,-0.3 -2.36,2.16 0.27,0.3 0,0 z m 3.25,-2.97 2.37,-2.16 -0.27,-0.3 -2.37,2.16 0.27,0.3 0,0 z m 3.25,-2.97 2.37,-2.16 -0.27,-0.3 -2.37,2.17 0.27,0.29 0,0 z m 3.26,-2.98 2.36,-2.15 -0.27,-0.3 -2.37,2.16 0.28,0.29 0,0 z m 3.24,-2.96 2.36,-2.16 -0.26,-0.3 -2.37,2.16 0.27,0.3 0,0 z m 3.26,-2.98 2.36,-2.15 -0.28,-0.29 -2.36,2.15 0.28,0.29 0,0 z m 3.24,-2.96 2.36,-2.16 -0.26,-0.3 -2.36,2.16 0.26,0.3 0,0 z m 3.26,-2.97 2.17,-1.99 -0.28,-0.29 -2.17,1.98 0.28,0.3 0,0 z"
       class="st4"
       id="path42"
       style="fill:#000000;stroke:#000000;stroke-width:0.00833769;stroke-linecap:round;stroke-linejoin:round" /><path
       d="m 213.2673,59.768 -3.2,0 0,0.4 3.2,0 0,-0.4 0,0 z m -4.41,0 -3.2,0 0,0.4 3.2,0 0,-0.4 0,0 z m -4.4,0 -3.21,0 0,0.4 3.21,0 0,-0.4 0,0 z m -4.41,0 -3.2,0 0,0.4 3.2,0 0,-0.4 0,0 z m -4.4,0 -3.21,0 0,0.4 3.21,0 0,-0.4 0,0 z m -4.41,0 -3.21,0 0,0.4 3.21,0 0,-0.4 0,0 z m -4.41,0 -3.2,0 0,0.4 3.2,0 0,-0.4 0,0 z m -4.4,0 -3.21,0 0,0.4 3.21,0 0,-0.4 0,0 z m -4.41,0 -3.21,0 0,0.4 3.21,0 0,-0.4 0,0 z m -4.41,0 -3.2,0 0,0.4 3.2,0 0,-0.4 0,0 z m -4.4,0 -3.21,0 0,0.4 3.21,0 0,-0.4 0,0 z m -4.41,0 -3.2,0 0,0.4 3.2,0 0,-0.4 0,0 z m -4.41,0 -3.2,0 0,0.4 3.2,0 0,-0.4 0,0 z m -4.4,0 -3.21,0 0,0.4 3.21,0 0,-0.4 0,0 z m -4.41,0 -3.2,0 0,0.4 3.2,0 0,-0.4 0,0 z m -4.41,0 -3.2,0 0,0.4 3.2,0 0,-0.4 0,0 z m -4.4,0 -3.21,0 0,0.4 3.21,0 0,-0.4 0,0 z m -4.41,0 -3.2,0 0,0.4 3.2,0 0,-0.4 0,0 z m -4.41,0 -3.2,0 0,0.4 3.2,0 0,-0.4 0,0 z m -4.4,0 -3.21,0 0,0.4 3.21,0 0,-0.4 0,0 z m -4.41,0 -3.2,0 0,0.4 3.2,0 0,-0.4 0,0 z m -4.4,0 -3.21,0 0,0.4 3.21,0 0,-0.4 0,0 z m -4.41,0 -3.21,0 0,0.4 3.21,0 0,-0.4 0,0 z m -4.41,0 -3.2,0 0,0.4 3.2,0 0,-0.4 0,0 z m -4.4,0 -3.21,0 0,0.4 3.21,0 0,-0.4 0,0 z m -4.41,0 -3.21,0 0,0.4 3.21,0 0,-0.4 0,0 z m -4.41,0 -3.2,0 0,0.4 3.2,0 0,-0.4 0,0 z m -4.4,0 -3.21,0 0,0.4 3.21,0 0,-0.4 0,0 z m -4.41,0 -3.2,0 0,0.4 3.2,0 0,-0.4 0,0 z m -4.41,0 -3.2,0 0,0.4 3.2,0 0,-0.4 0,0 z m -4.4,0 -0.27,0 0,0.4 0.27,0 0,-0.4 0,0 z"
       class="st4"
       id="path47"
       style="fill:#000000;stroke:#000000;stroke-width:0.00833769;stroke-linecap:round;stroke-linejoin:round" /><path
       d="m 263.7473,103.816 -3.21,0 0,0.4 3.21,0 0,-0.4 0,0 z m -4.41,0 -3.21,0 0,0.4 3.21,0 0,-0.4 0,0 z m -4.41,0 -3.2,0 0,0.4 3.2,0 0,-0.4 0,0 z m -4.4,0 -3.21,0 0,0.4 3.21,0 0,-0.4 0,0 z m -4.41,0 -3.21,0 0,0.4 3.21,0 0,-0.4 0,0 z m -4.41,0 -3.2,0 0,0.4 3.2,0 0,-0.4 0,0 z m -4.4,0 -3.21,0 0,0.4 3.21,0 0,-0.4 0,0 z m -4.41,0 -3.2,0 0,0.4 3.2,0 0,-0.4 0,0 z m -4.41,0 -3.2,0 0,0.4 3.2,0 0,-0.4 0,0 z m -4.4,0 -3.21,0 0,0.4 3.21,0 0,-0.4 0,0 z m -4.41,0 -3.2,0 0,0.4 3.2,0 0,-0.4 0,0 z m -4.41,0 -3.2,0 0,0.4 3.2,0 0,-0.4 0,0 z m -4.4,0 -3.21,0 0,0.4 3.21,0 0,-0.4 0,0 z m -4.41,0 -3.2,0 0,0.4 3.2,0 0,-0.4 0,0 z m -4.41,0 -3.2,0 0,0.4 3.2,0 0,-0.4 0,0 z m -4.4,0 -3.21,0 0,0.4 3.21,0 0,-0.4 0,0 z m -4.41,0 -3.2,0 0,0.4 3.2,0 0,-0.4 0,0 z m -4.4,0 -3.21,0 0,0.4 3.21,0 0,-0.4 0,0 z m -4.41,0 -3.21,0 0,0.4 3.21,0 0,-0.4 0,0 z m -4.41,0 -3.2,0 0,0.4 3.2,0 0,-0.4 0,0 z m -4.4,0 -3.21,0 0,0.4 3.21,0 0,-0.4 0,0 z m -4.41,0 -3.21,0 0,0.4 3.21,0 0,-0.4 0,0 z m -4.41,0 -3.2,0 0,0.4 3.2,0 0,-0.4 0,0 z m -4.4,0 -3.21,0 0,0.4 3.21,0 0,-0.4 0,0 z m -4.41,0 -3.2,0 0,0.4 3.2,0 0,-0.4 0,0 z m -4.41,0 -3.2,0 0,0.4 3.2,0 0,-0.4 0,0 z m -4.4,0 -3.21,0 0,0.4 3.21,0 0,-0.4 0,0 z m -4.41,0 -3.2,0 0,0.4 3.2,0 0,-0.4 0,0 z m -4.41,0 -3.2,0 0,0.4 3.2,0 0,-0.4 0,0 z m -4.4,0 -3.21,0 0,0.4 3.21,0 0,-0.4 0,0 z m -4.41,0 -3.2,0 0,0.4 3.2,0 0,-0.4 0,0 z m -4.41,0 -3.2,0 0,0.4 3.2,0 0,-0.4 0,0 z m -4.4,0 -3.21,0 0,0.4 3.21,0 0,-0.4 0,0 z m -4.41,0 -3.2,0 0,0.4 3.2,0 0,-0.4 0,0 z m -4.4,0 -3.21,0 0,0.4 3.21,0 0,-0.4 0,0 z m -4.41,0 -3.21,0 0,0.4 3.21,0 0,-0.4 0,0 z m -4.41,0 -3.2,0 0,0.4 3.2,0 0,-0.4 0,0 z m -4.4,0 -3.21,0 0,0.4 3.21,0 0,-0.4 0,0 z m -4.41,0 -3.21,0 0,0.4 3.21,0 0,-0.4 0,0 z m -4.41,0 -3.2,0 0,0.4 3.2,0 0,-0.4 0,0 z m -4.4,0 -3.21,0 0,0.4 3.21,0 0,-0.4 0,0 z m -4.41,0 -2.27,0 0,0.4 2.27,0 0,-0.4 0,0 z"
       class="st4"
       id="path52"
       style="fill:#000000;stroke:#000000;stroke-width:0.00833769;stroke-linecap:round;stroke-linejoin:round" /><path
       d="m 238.5044,81.826 -3.2,0 0,0.4 3.2,0 0,-0.4 0,0 z m -4.41,0 -3.2,0 0,0.4 3.2,0 0,-0.4 0,0 z m -4.4,0 -3.21,0 0,0.4 3.21,0 0,-0.4 0,0 z m -4.41,0 -3.2,0 0,0.4 3.2,0 0,-0.4 0,0 z m -4.4,0 -3.21,0 0,0.4 3.21,0 0,-0.4 0,0 z m -4.41,0 -3.21,0 0,0.4 3.21,0 0,-0.4 0,0 z m -4.41,0 -3.2,0 0,0.4 3.2,0 0,-0.4 0,0 z m -4.4,0 -3.21,0 0,0.4 3.21,0 0,-0.4 0,0 z m -4.41,0 -3.21,0 0,0.4 3.21,0 0,-0.4 0,0 z m -4.41,0 -3.2,0 0,0.4 3.2,0 0,-0.4 0,0 z m -4.4,0 -3.21,0 0,0.4 3.21,0 0,-0.4 0,0 z m -4.41,0 -3.2,0 0,0.4 3.2,0 0,-0.4 0,0 z m -4.41,0 -3.2,0 0,0.4 3.2,0 0,-0.4 0,0 z m -4.4,0 -3.21,0 0,0.4 3.21,0 0,-0.4 0,0 z m -4.41,0 -3.2,0 0,0.4 3.2,0 0,-0.4 0,0 z m -4.41,0 -3.2,0 0,0.4 3.2,0 0,-0.4 0,0 z m -4.4,0 -3.21,0 0,0.4 3.21,0 0,-0.4 0,0 z m -4.41,0 -3.2,0 0,0.4 3.2,0 0,-0.4 0,0 z m -4.41,0 -3.2,0 0,0.4 3.2,0 0,-0.4 0,0 z m -4.4,0 -3.21,0 0,0.4 3.21,0 0,-0.4 0,0 z m -4.41,0 -3.2,0 0,0.4 3.2,0 0,-0.4 0,0 z m -4.4,0 -3.21,0 0,0.4 3.21,0 0,-0.4 0,0 z m -4.41,0 -3.21,0 0,0.4 3.21,0 0,-0.4 0,0 z m -4.41,0 -3.2,0 0,0.4 3.2,0 0,-0.4 0,0 z m -4.4,0 -3.21,0 0,0.4 3.21,0 0,-0.4 0,0 z m -4.41,0 -3.21,0 0,0.4 3.21,0 0,-0.4 0,0 z m -4.41,0 -3.2,0 0,0.4 3.2,0 0,-0.4 0,0 z m -4.4,0 -3.21,0 0,0.4 3.21,0 0,-0.4 0,0 z m -4.41,0 -3.2,0 0,0.4 3.2,0 0,-0.4 0,0 z m -4.41,0 -3.2,0 0,0.4 3.2,0 0,-0.4 0,0 z m -4.4,0 -3.21,0 0,0.4 3.21,0 0,-0.4 0,0 z m -4.41,0 -3.2,0 0,0.4 3.2,0 0,-0.4 0,0 z m -4.41,0 -3.2,0 0,0.4 3.2,0 0,-0.4 0,0 z m -4.4,0 -3.21,0 0,0.4 3.21,0 0,-0.4 0,0 z m -4.41,0 -3.2,0 0,0.4 3.2,0 0,-0.4 0,0 z m -4.41,0 -3.2,0 0,0.4 3.2,0 0,-0.4 0,0 z"
       class="st4"
       id="path57"
       style="fill:#000000;stroke:#000000;stroke-width:0.00833769;stroke-linecap:round;stroke-linejoin:round" /><path
       d="m 166.199,104.0174 0,3.2 -0.4,0 0,-3.2 0.4,0 0,0 z m 0,4.4 0,3.2 -0.4,0 0,-3.2 0.4,0 0,0 z m 0,4.4 0,3.2 -0.4,0 0,-3.2 0.4,0 0,0 z m 0,4.4 0,3.2 -0.4,0 0,-3.2 0.4,0 0,0 z m 0,4.4 0,3.19 -0.4,0 0,-3.19 0.4,0 0,0 z m 0,4.39 0,3.2 -0.4,0 0,-3.2 0.4,0 0,0 z m 0,4.4 0,3.2 -0.4,0 0,-3.2 0.4,0 0,0 z m 0,4.4 0,3.2 -0.4,0 0,-3.2 0.4,0 0,0 z m 0,4.4 0,3.2 -0.4,0 0,-3.2 0.4,0 0,0 z m 0,4.4 0,3.2 -0.4,0 0,-3.2 0.4,0 0,0 z m 0,4.39 0,3.2 -0.4,0 0,-3.2 0.4,0 0,0 z m 0,4.4 0,3.2 -0.4,0 0,-3.2 0.4,0 0,0 z m 0,4.4 0,3.2 -0.4,0 0,-3.2 0.4,0 0,0 z m 0,4.4 0,3.2 -0.4,0 0,-3.2 0.4,0 0,0 z m 0,4.4 0,3.2 -0.4,0 0,-3.2 0.4,0 0,0 z m 0,4.4 0,3.19 -0.4,0 0,-3.19 0.4,0 0,0 z m 0,4.39 0,3.2 -0.4,0 0,-3.2 0.4,0 0,0 z m 0,4.4 0,3.2 -0.4,0 0,-3.2 0.4,0 0,0 z m 0,4.4 0,3.2 -0.4,0 0,-3.2 0.4,0 0,0 z m 0,4.4 0,3.2 -0.4,0 0,-3.2 0.4,0 0,0 z m 0,4.4 0,3.19 -0.4,0 0,-3.19 0.4,0 0,0 z"
       class="st4"
       id="path62"
       style="fill:#000000;stroke:#000000;stroke-width:0.00833769;stroke-linecap:round;stroke-linejoin:round" /><path
       d="m 188.231,82.0337 0,3.2 -0.4,0 0,-3.2 0.4,0 0,0 z m 0,4.39 0,3.2 -0.4,0 0,-3.2 0.4,0 0,0 z m 0,4.4 0,3.2 -0.4,0 0,-3.2 0.4,0 0,0 z m 0,4.4 0,3.2 -0.4,0 0,-3.2 0.4,0 0,0 z m 0,4.4 0,3.2 -0.4,0 0,-3.2 0.4,0 0,0 z m 0,4.4 0,3.2 -0.4,0 0,-3.2 0.4,0 0,0 z m 0,4.4 0,3.19 -0.4,0 0,-3.19 0.4,0 0,0 z m 0,4.39 0,3.2 -0.4,0 0,-3.2 0.4,0 0,0 z m 0,4.4 0,3.2 -0.4,0 0,-3.2 0.4,0 0,0 z m 0,4.4 0,3.2 -0.4,0 0,-3.2 0.4,0 0,0 z m 0,4.4 0,3.2 -0.4,0 0,-3.2 0.4,0 0,0 z m 0,4.4 0,3.19 -0.4,0 0,-3.19 0.4,0 0,0 z m 0,4.39 0,3.2 -0.4,0 0,-3.2 0.4,0 0,0 z m 0,4.4 0,3.2 -0.4,0 0,-3.2 0.4,0 0,0 z m 0,4.4 0,3.2 -0.4,0 0,-3.2 0.4,0 0,0 z m 0,4.4 0,3.2 -0.4,0 0,-3.2 0.4,0 0,0 z m 0,4.4 0,3.2 -0.4,0 0,-3.2 0.4,0 0,0 z m 0,4.39 0,3.2 -0.4,0 0,-3.2 0.4,0 0,0 z m 0,4.4 0,3.2 -0.4,0 0,-3.2 0.4,0 0,0 z m 0,4.4 0,3.2 -0.4,0 0,-3.2 0.4,0 0,0 z m 0,4.4 0,3.2 -0.4,0 0,-3.2 0.4,0 0,0 z m 0,4.4 0,3.2 -0.4,0 0,-3.2 0.4,0 0,0 z m 0,4.4 0,3.19 -0.4,0 0,-3.19 0.4,0 0,0 z m 0,4.39 0,3.2 -0.4,0 0,-3.2 0.4,0 0,0 z m 0,4.4 0,3.2 -0.4,0 0,-3.2 0.4,0 0,0 z m 0,4.4 0,3.2 -0.4,0 0,-3.2 0.4,0 0,0 z m 0,4.4 0,3.2 -0.4,0 0,-3.2 0.4,0 0,0 z m 0,4.4 0,3.19 -0.4,0 0,-3.19 0.4,0 0,0 z"
       class="st4"
       id="path67"
       style="fill:#000000;stroke:#000000;stroke-width:0.00833769;stroke-linecap:round;stroke-linejoin:round" /><path
       d="m 238.705,82.0337 0,3.2 -0.4,0 0,-3.2 0.4,0 0,0 z m 0,4.39 0,3.2 -0.4,0 0,-3.2 0.4,0 0,0 z m 0,4.4 0,3.2 -0.4,0 0,-3.2 0.4,0 0,0 z m 0,4.4 0,3.2 -0.4,0 0,-3.2 0.4,0 0,0 z m 0,4.4 0,3.2 -0.4,0 0,-3.2 0.4,0 0,0 z m 0,4.4 0,3.2 -0.4,0 0,-3.2 0.4,0 0,0 z m 0,4.4 0,3.19 -0.4,0 0,-3.19 0.4,0 0,0 z m 0,4.39 0,3.2 -0.4,0 0,-3.2 0.4,0 0,0 z m 0,4.4 0,3.2 -0.4,0 0,-3.2 0.4,0 0,0 z m 0,4.4 0,3.2 -0.4,0 0,-3.2 0.4,0 0,0 z m 0,4.4 0,3.2 -0.4,0 0,-3.2 0.4,0 0,0 z m 0,4.4 0,3.19 -0.4,0 0,-3.19 0.4,0 0,0 z m 0,4.39 0,3.2 -0.4,0 0,-3.2 0.4,0 0,0 z m 0,4.4 0,3.2 -0.4,0 0,-3.2 0.4,0 0,0 z m 0,4.4 0,3.2 -0.4,0 0,-3.2 0.4,0 0,0 z m 0,4.4 0,3.2 -0.4,0 0,-3.2 0.4,0 0,0 z m 0,4.4 0,3.2 -0.4,0 0,-3.2 0.4,0 0,0 z m 0,4.39 0,3.2 -0.4,0 0,-3.2 0.4,0 0,0 z m 0,4.4 0,3.2 -0.4,0 0,-3.2 0.4,0 0,0 z m 0,4.4 0,3.2 -0.4,0 0,-3.2 0.4,0 0,0 z m 0,4.4 0,3.2 -0.4,0 0,-3.2 0.4,0 0,0 z m 0,4.4 0,3.2 -0.4,0 0,-3.2 0.4,0 0,0 z m 0,4.4 0,3.19 -0.4,0 0,-3.19 0.4,0 0,0 z m 0,4.39 0,3.2 -0.4,0 0,-3.2 0.4,0 0,0 z m 0,4.4 0,3.2 -0.4,0 0,-3.2 0.4,0 0,0 z m 0,4.4 0,3.2 -0.4,0 0,-3.2 0.4,0 0,0 z m 0,4.4 0,3.2 -0.4,0 0,-3.2 0.4,0 0,0 z m 0,4.4 0,3.19 -0.4,0 0,-3.19 0.4,0 0,0 z"
       class="st4"
       id="path72"
       style="fill:#000000;stroke:#000000;stroke-width:0.00833769;stroke-linecap:round;stroke-linejoin:round" /><path
       d="m 260.804,104.0174 0,3.2 -0.4,0 0,-3.2 0.4,0 0,0 z m 0,4.4 0,3.2 -0.4,0 0,-3.2 0.4,0 0,0 z m 0,4.4 0,3.2 -0.4,0 0,-3.2 0.4,0 0,0 z m 0,4.4 0,3.2 -0.4,0 0,-3.2 0.4,0 0,0 z m 0,4.4 0,3.19 -0.4,0 0,-3.19 0.4,0 0,0 z m 0,4.39 0,3.2 -0.4,0 0,-3.2 0.4,0 0,0 z m 0,4.4 0,3.2 -0.4,0 0,-3.2 0.4,0 0,0 z m 0,4.4 0,3.2 -0.4,0 0,-3.2 0.4,0 0,0 z m 0,4.4 0,3.2 -0.4,0 0,-3.2 0.4,0 0,0 z m 0,4.4 0,3.2 -0.4,0 0,-3.2 0.4,0 0,0 z m 0,4.39 0,3.2 -0.4,0 0,-3.2 0.4,0 0,0 z m 0,4.4 0,3.2 -0.4,0 0,-3.2 0.4,0 0,0 z m 0,4.4 0,3.2 -0.4,0 0,-3.2 0.4,0 0,0 z m 0,4.4 0,3.2 -0.4,0 0,-3.2 0.4,0 0,0 z m 0,4.4 0,3.2 -0.4,0 0,-3.2 0.4,0 0,0 z m 0,4.4 0,3.19 -0.4,0 0,-3.19 0.4,0 0,0 z m 0,4.39 0,3.2 -0.4,0 0,-3.2 0.4,0 0,0 z m 0,4.4 0,3.2 -0.4,0 0,-3.2 0.4,0 0,0 z m 0,4.4 0,3.2 -0.4,0 0,-3.2 0.4,0 0,0 z m 0,4.4 0,3.2 -0.4,0 0,-3.2 0.4,0 0,0 z m 0,4.4 0,3.19 -0.4,0 0,-3.19 0.4,0 0,0 z"
       class="st4"
       id="path77"
       style="fill:#000000;stroke:#000000;stroke-width:0.00833769;stroke-linecap:round;stroke-linejoin:round" /><path
       d="m 166.0327,195.4107 -88.33,0"
       class="st6"
       id="path82"
       style="stroke:#ff0000;stroke-width:1.26733005;stroke-linecap:round;stroke-linejoin:round" /><path
       d="m 348.968,195.4107 -88.33,0"
       class="st6"
       id="path87"
       style="stroke:#ff0000;stroke-width:1.26733005;stroke-linecap:round;stroke-linejoin:round" /><path
       d="m 166.032,182.749 94.61,0"
       class="st6"
       id="path92"
       style="stroke:#ff0000;stroke-width:1.26733005;stroke-linecap:round;stroke-linejoin:round" /><path
       d="m 166.032,182.7507 0,12.66"
       class="st6"
       id="path97"
       style="stroke:#ff0000;stroke-width:1.26733005;stroke-linecap:round;stroke-linejoin:round" /><path
       d="m 260.638,182.7507 0,12.66"
       class="st6"
       id="path102"
       style="stroke:#ff0000;stroke-width:1.26733005;stroke-linecap:round;stroke-linejoin:round" /><path
       d="m 188.0627,217.4013 -110.36,0"
       class="st7"
       id="path107"
       style="stroke:#080808;stroke-width:1.26733005;stroke-linecap:round;stroke-linejoin:round" /><path
       d="m 348.969,217.4013 -110.43,0"
       class="st7"
       id="path112"
       style="stroke:#080808;stroke-width:1.26733005;stroke-linecap:round;stroke-linejoin:round" /><path
       d="m 188.065,204.8733 50.47,0"
       class="st7"
       id="path117"
       style="stroke:#080808;stroke-width:1.26733005;stroke-linecap:round;stroke-linejoin:round" /><path
       d="m 188.065,204.8113 0,12.59"
       class="st7"
       id="path122"
       style="stroke:#080808;stroke-width:1.26733005;stroke-linecap:round;stroke-linejoin:round" /><path
       d="m 238.539,204.8113 0,12.59"
       class="st7"
       id="path127"
       style="stroke:#080808;stroke-width:1.26733005;stroke-linecap:round;stroke-linejoin:round" /><path
       d="m 169.202,163.26 15.69,0 0,1.27 -15.69,0 0,-1.27 0,0 z m 0.64,2.53 -3.81,-1.89 3.81,-1.9 0,3.79 0,0 z m 14.42,-3.79 3.8,1.9 -3.8,1.89 0,-3.79 0,0 z"
       class="st4"
       id="path150"
       style="fill:#000000;stroke:#000000;stroke-width:0.00833769;stroke-linecap:round;stroke-linejoin:round" /><path
       d="m 238.685,199.4423 3.34,-3.59"
       class="st5"
       id="path164"
       style="stroke:#000000;stroke-width:0.40020901;stroke-linecap:round;stroke-linejoin:round" /><path
       d="m 242.023,195.853 3.34,1.79"
       class="st5"
       id="path169"
       style="stroke:#000000;stroke-width:0.40020901;stroke-linecap:round;stroke-linejoin:round" /><path
       d="m 245.63,197.8013 4.52,-3.7 -0.26,-0.31 -4.52,3.71 0.26,0.3 0,0 z m 5.02,-2.21 1.52,-3.41 -3.64,0.83 2.12,2.58 0,0 z"
       class="st4"
       id="path174"
       style="fill:#000000;stroke:#000000;stroke-width:0.00833769;stroke-linecap:round;stroke-linejoin:round" /><path
       d="m 101.5607,151.123 -1.14,1 1.93,3.52 -0.95,0.83 -1.92,-3.51 -1.13,0.99 -0.46,-0.84 3.2,-2.83 0.47,0.84 z m 1.51,-1 1.79,3.29 -0.88,0.79 -1.79,-3.3 0.88,-0.78 z m -0.67,-1.29 0.44,0.8 -0.93,0.82 -0.44,-0.8 0.93,-0.82 z m 6.33,-2.63 c 0.04,0.05 0.08,0.11 0.13,0.17 0.05,0.07 0.09,0.14 0.13,0.21 l 1.17,2.15 -0.89,0.79 -0.9,-1.65 c -0.06,-0.11 -0.12,-0.22 -0.18,-0.32 -0.06,-0.1 -0.11,-0.18 -0.16,-0.23 -0.08,-0.1 -0.17,-0.15 -0.26,-0.14 -0.09,0 -0.2,0.06 -0.34,0.18 -0.06,0.05 -0.12,0.13 -0.17,0.23 -0.06,0.1 -0.11,0.23 -0.17,0.39 l 1.27,2.34 -0.89,0.79 -0.89,-1.65 c -0.06,-0.09 -0.11,-0.2 -0.18,-0.31 -0.06,-0.11 -0.12,-0.18 -0.16,-0.23 -0.09,-0.1 -0.18,-0.15 -0.27,-0.15 -0.08,0 -0.2,0.06 -0.33,0.17 -0.07,0.07 -0.13,0.15 -0.19,0.26 -0.05,0.1 -0.11,0.23 -0.16,0.38 l 1.27,2.33 -0.88,0.78 -1.79,-3.29 0.88,-0.78 0.2,0.36 c 0.07,-0.28 0.15,-0.51 0.23,-0.71 0.09,-0.19 0.21,-0.36 0.38,-0.51 0.18,-0.16 0.37,-0.25 0.56,-0.28 0.2,-0.03 0.39,0.01 0.58,0.12 0.07,-0.35 0.16,-0.64 0.26,-0.87 0.11,-0.23 0.24,-0.42 0.4,-0.56 0.24,-0.21 0.47,-0.32 0.71,-0.31 0.23,0.01 0.44,0.12 0.64,0.34 z m 2.93,-1.87 c -0.02,-0.04 -0.04,-0.07 -0.05,-0.09 -0.02,-0.03 -0.05,-0.06 -0.07,-0.08 -0.11,-0.13 -0.24,-0.19 -0.38,-0.19 -0.14,0 -0.29,0.07 -0.44,0.2 -0.18,0.16 -0.29,0.35 -0.32,0.55 -0.04,0.21 -0.01,0.43 0.08,0.66 l 1.18,-1.05 z m 0.93,2.38 c -0.47,0.42 -0.93,0.64 -1.36,0.65 -0.44,0.02 -0.82,-0.15 -1.14,-0.51 -0.22,-0.25 -0.38,-0.52 -0.49,-0.8 -0.1,-0.28 -0.14,-0.57 -0.12,-0.87 0.01,-0.28 0.09,-0.57 0.24,-0.86 0.14,-0.29 0.35,-0.55 0.61,-0.79 0.41,-0.36 0.8,-0.55 1.15,-0.57 0.35,-0.01 0.67,0.14 0.96,0.46 0.1,0.11 0.18,0.23 0.26,0.35 0.07,0.13 0.13,0.26 0.19,0.39 l -2.04,1.81 c 0,0.01 0.01,0.02 0.02,0.03 0.01,0 0.02,0.02 0.03,0.02 0.17,0.19 0.36,0.28 0.59,0.27 0.23,-0.01 0.48,-0.14 0.76,-0.38 0.19,-0.17 0.34,-0.36 0.46,-0.58 0.11,-0.22 0.2,-0.42 0.26,-0.62 l 0.1,-0.08 0.46,0.85 c -0.11,0.22 -0.24,0.44 -0.39,0.64 -0.16,0.21 -0.34,0.4 -0.55,0.59 z m 2.42,-5.67 -0.08,0.07 c -0.05,0.02 -0.11,0.06 -0.19,0.12 -0.08,0.05 -0.15,0.11 -0.22,0.17 -0.11,0.11 -0.22,0.21 -0.31,0.32 -0.09,0.11 -0.18,0.24 -0.26,0.38 l 1.2,2.2 -0.88,0.79 -1.8,-3.3 0.89,-0.78 0.26,0.48 c 0.06,-0.26 0.14,-0.51 0.24,-0.73 0.09,-0.22 0.22,-0.41 0.39,-0.56 0.03,-0.02 0.07,-0.06 0.11,-0.09 0.04,-0.03 0.07,-0.06 0.1,-0.08 l 0.55,1.01 z m 6.16,-2.07 -2.42,2.15 -0.41,-0.76 0.76,-0.68 -1.26,-2.31 -0.76,0.68 -0.4,-0.71 c 0.12,-0.1 0.23,-0.21 0.33,-0.32 0.1,-0.12 0.18,-0.23 0.22,-0.33 0.06,-0.12 0.08,-0.23 0.09,-0.35 0,-0.12 -0.03,-0.24 -0.09,-0.37 l 0.81,-0.72 1.97,3.62 0.75,-0.66 0.41,0.76 z m 4.43,-3.79 c -0.49,0.44 -0.98,0.65 -1.46,0.65 -0.48,0 -0.92,-0.23 -1.32,-0.68 -0.31,-0.36 -0.54,-0.73 -0.68,-1.12 -0.14,-0.4 -0.2,-0.79 -0.18,-1.19 0.02,-0.38 0.12,-0.76 0.3,-1.12 0.18,-0.36 0.42,-0.68 0.73,-0.96 0.25,-0.22 0.51,-0.4 0.77,-0.54 0.26,-0.14 0.52,-0.23 0.78,-0.29 l 0.56,1.07 -0.1,0.1 c -0.3,-0.03 -0.56,-0.02 -0.79,0.04 -0.22,0.06 -0.43,0.18 -0.64,0.36 -0.36,0.32 -0.53,0.73 -0.51,1.23 0.03,0.5 0.24,0.97 0.63,1.42 0.26,0.29 0.51,0.44 0.76,0.45 0.25,0.02 0.49,-0.08 0.74,-0.3 0.23,-0.2 0.4,-0.43 0.52,-0.7 0.11,-0.26 0.2,-0.54 0.25,-0.84 l 0.1,-0.08 0.55,1.05 c -0.04,0.1 -0.1,0.2 -0.16,0.33 -0.06,0.13 -0.12,0.25 -0.19,0.35 -0.09,0.14 -0.17,0.26 -0.26,0.37 -0.09,0.11 -0.22,0.24 -0.4,0.4 z m 3.42,-6.25 c 0.23,0.26 0.4,0.54 0.52,0.84 0.11,0.29 0.16,0.59 0.14,0.89 -0.01,0.31 -0.09,0.61 -0.22,0.89 -0.13,0.28 -0.34,0.55 -0.63,0.8 -0.41,0.36 -0.81,0.54 -1.2,0.54 -0.39,0 -0.74,-0.18 -1.04,-0.52 -0.22,-0.24 -0.38,-0.51 -0.5,-0.8 -0.11,-0.29 -0.16,-0.59 -0.15,-0.9 0.01,-0.3 0.08,-0.6 0.22,-0.89 0.14,-0.3 0.36,-0.57 0.63,-0.81 0.41,-0.37 0.81,-0.55 1.2,-0.55 0.39,0 0.73,0.17 1.03,0.51 z m -0.34,1.91 c -0.03,-0.18 -0.08,-0.36 -0.16,-0.53 -0.09,-0.17 -0.21,-0.34 -0.38,-0.54 -0.15,-0.17 -0.3,-0.26 -0.46,-0.29 -0.15,-0.02 -0.31,0.04 -0.46,0.18 -0.13,0.11 -0.21,0.23 -0.25,0.38 -0.04,0.14 -0.05,0.3 -0.02,0.47 0.02,0.16 0.08,0.33 0.18,0.52 0.09,0.18 0.22,0.36 0.36,0.51 0.16,0.19 0.32,0.29 0.48,0.3 0.15,0 0.3,-0.06 0.44,-0.19 0.11,-0.09 0.19,-0.21 0.23,-0.35 0.05,-0.15 0.06,-0.3 0.04,-0.46 z m 3.11,-6.14 1.79,3.29 -0.88,0.78 -0.2,-0.36 c -0.03,0.13 -0.07,0.26 -0.11,0.38 -0.04,0.13 -0.09,0.24 -0.14,0.33 -0.06,0.12 -0.12,0.23 -0.18,0.31 -0.07,0.09 -0.14,0.16 -0.22,0.23 -0.24,0.21 -0.48,0.32 -0.72,0.33 -0.24,0 -0.46,-0.1 -0.66,-0.33 -0.06,-0.06 -0.1,-0.12 -0.14,-0.18 -0.05,-0.06 -0.09,-0.13 -0.13,-0.2 l -1.17,-2.15 0.89,-0.78 0.89,1.63 c 0.07,0.13 0.13,0.24 0.18,0.32 0.06,0.09 0.11,0.15 0.15,0.21 0.1,0.1 0.19,0.16 0.29,0.16 0.09,0 0.21,-0.06 0.36,-0.19 0.07,-0.06 0.14,-0.15 0.2,-0.26 0.07,-0.12 0.13,-0.25 0.19,-0.41 l -1.27,-2.33 0.88,-0.78 z m 3.94,-2.39 c 0.04,0.05 0.09,0.1 0.13,0.17 0.04,0.06 0.09,0.13 0.13,0.2 l 1.17,2.15 -0.89,0.78 -0.9,-1.63 c -0.06,-0.12 -0.12,-0.22 -0.17,-0.3 -0.05,-0.09 -0.1,-0.16 -0.16,-0.22 -0.09,-0.11 -0.19,-0.16 -0.28,-0.16 -0.1,0 -0.22,0.06 -0.37,0.19 -0.06,0.06 -0.13,0.14 -0.2,0.26 -0.06,0.11 -0.12,0.24 -0.18,0.4 l 1.27,2.34 -0.88,0.78 -1.8,-3.29 0.88,-0.79 0.2,0.37 c 0.08,-0.28 0.16,-0.52 0.25,-0.72 0.09,-0.2 0.23,-0.38 0.4,-0.53 0.25,-0.22 0.49,-0.33 0.74,-0.33 0.24,-0.01 0.46,0.11 0.66,0.33 z m 3.31,0.94 c -0.3,0.27 -0.56,0.41 -0.78,0.43 -0.22,0.01 -0.42,-0.07 -0.59,-0.27 -0.05,-0.05 -0.09,-0.11 -0.12,-0.16 -0.04,-0.06 -0.08,-0.13 -0.12,-0.2 l -0.85,-1.56 -0.37,0.32 -0.37,-0.7 0.36,-0.32 -0.52,-0.94 0.88,-0.78 0.52,0.94 0.82,-0.73 0.38,0.7 -0.82,0.73 0.65,1.18 c 0.04,0.09 0.09,0.17 0.13,0.25 0.05,0.08 0.09,0.15 0.14,0.2 0.08,0.09 0.17,0.14 0.26,0.13 0.09,-0.01 0.19,-0.07 0.3,-0.17 0.05,-0.04 0.1,-0.1 0.16,-0.18 0.06,-0.08 0.1,-0.16 0.13,-0.21 l 0.07,-0.07 0.38,0.71 c -0.07,0.11 -0.16,0.22 -0.26,0.33 -0.1,0.11 -0.22,0.24 -0.38,0.37 z m 1.9,-4.83 c -0.03,-0.04 -0.05,-0.07 -0.07,-0.1 -0.02,-0.02 -0.04,-0.05 -0.06,-0.07 -0.12,-0.13 -0.24,-0.2 -0.38,-0.19 -0.14,0 -0.29,0.07 -0.44,0.2 -0.18,0.16 -0.29,0.34 -0.33,0.55 -0.03,0.21 0,0.43 0.09,0.66 l 1.19,-1.05 z m 0.91,2.38 c -0.46,0.41 -0.91,0.63 -1.35,0.65 -0.44,0.02 -0.82,-0.15 -1.14,-0.52 -0.22,-0.24 -0.38,-0.51 -0.48,-0.79 -0.11,-0.28 -0.15,-0.57 -0.13,-0.87 0.01,-0.28 0.09,-0.57 0.23,-0.86 0.15,-0.29 0.36,-0.55 0.63,-0.79 0.4,-0.36 0.78,-0.55 1.14,-0.57 0.35,-0.02 0.67,0.14 0.96,0.46 0.1,0.11 0.18,0.23 0.25,0.35 0.07,0.13 0.14,0.26 0.2,0.39 l -2.04,1.81 c 0.01,0.01 0.02,0.02 0.02,0.03 0.01,0 0.02,0.01 0.03,0.02 0.17,0.19 0.37,0.28 0.6,0.27 0.22,-0.01 0.48,-0.14 0.75,-0.38 0.19,-0.17 0.35,-0.37 0.46,-0.58 0.12,-0.22 0.2,-0.43 0.26,-0.62 l 0.09,-0.08 0.47,0.85 c -0.11,0.22 -0.24,0.44 -0.39,0.64 -0.16,0.2 -0.34,0.4 -0.56,0.59 z m 2.43,-5.67 -0.08,0.07 c -0.05,0.02 -0.11,0.05 -0.19,0.11 -0.07,0.06 -0.15,0.12 -0.22,0.18 -0.11,0.1 -0.22,0.21 -0.31,0.32 -0.09,0.12 -0.18,0.24 -0.26,0.38 l 1.21,2.2 -0.89,0.79 -1.79,-3.3 0.88,-0.78 0.26,0.48 c 0.06,-0.27 0.14,-0.51 0.23,-0.73 0.1,-0.22 0.23,-0.41 0.4,-0.56 0.03,-0.03 0.07,-0.06 0.11,-0.09 0.04,-0.03 0.07,-0.06 0.11,-0.08 l 0.54,1.01 z"
       class="st10"
       id="path197"
       style="fill:#080808;stroke:none;stroke-width:0.75;stroke-linecap:round;stroke-linejoin:round" /><path
       d="m 237.016,199.6449 c 0,-0.84 0.72,-1.53 1.6,-1.53 0.9,0 1.6,0.69 1.6,1.53 0,0.85 -0.7,1.53 -1.6,1.53 -0.88,0 -1.6,-0.68 -1.6,-1.53 z"
       class="st11"
       id="path211"
       style="fill:#006600;stroke:none;stroke-width:0.75;stroke-linecap:round;stroke-linejoin:round" /><path
       d="m 237.016,199.6449 c 0,-0.84 0.72,-1.53 1.6,-1.53 0.9,0 1.6,0.69 1.6,1.53 0,0.85 -0.7,1.53 -1.6,1.53 -0.88,0 -1.6,-0.68 -1.6,-1.53"
       class="st5"
       id="path216"
       style="stroke:#000000;stroke-width:0.40020901;stroke-linecap:round;stroke-linejoin:round" /><path
       d="m 90.4208,25.319 0,3.2 -0.4,0 0,-3.2 0.4,0 0,0 z m 0,4.4 0,3.2 -0.4,0 0,-3.2 0.4,0 0,0 z m 0,4.4 0,3.2 -0.4,0 0,-3.2 0.4,0 0,0 z m 0,4.4 0,3.2 -0.4,0 0,-3.2 0.4,0 0,0 z m 0,4.39 0,3.2 -0.4,0 0,-3.2 0.4,0 0,0 z m 0,4.4 0,3.2 -0.4,0 0,-3.2 0.4,0 0,0 z m 0,4.4 0,3.2 -0.4,0 0,-3.2 0.4,0 0,0 z m 0,4.4 0,3.2 -0.4,0 0,-3.2 0.4,0 0,0 z m 0,4.4 0,3.2 -0.4,0 0,-3.2 0.4,0 0,0 z m 0,4.4 0,3.19 -0.4,0 0,-3.19 0.4,0 0,0 z m 0,4.39 0,3.2 -0.4,0 0,-3.2 0.4,0 0,0 z m 0,4.4 0,3.2 -0.4,0 0,-3.2 0.4,0 0,0 z m 0,4.4 0,3.2 -0.4,0 0,-3.2 0.4,0 0,0 z m 0,4.4 0,3.2 -0.4,0 0,-3.2 0.4,0 0,0 z m 0,4.4 0,3.19 -0.4,0 0,-3.19 0.4,0 0,0 z m 0,4.39 0,3.2 -0.4,0 0,-3.2 0.4,0 0,0 z m 0,4.4 0,3.2 -0.4,0 0,-3.2 0.4,0 0,0 z m 0,4.4 0,3.2 -0.4,0 0,-3.2 0.4,0 0,0 z m 0,4.4 0,3.2 -0.4,0 0,-3.2 0.4,0 0,0 z m 0,4.4 0,3.2 -0.4,0 0,-3.2 0.4,0 0,0 z m 0,4.39 0,3.2 -0.4,0 0,-3.2 0.4,0 0,0 z m 0,4.4 0,3.2 -0.4,0 0,-3.2 0.4,0 0,0 z m 0,4.4 0,3.2 -0.4,0 0,-3.2 0.4,0 0,0 z m 0,4.4 0,3.2 -0.4,0 0,-3.2 0.4,0 0,0 z m 0,4.4 0,3.2 -0.4,0 0,-3.2 0.4,0 0,0 z m 0,4.4 0,3.19 -0.4,0 0,-3.19 0.4,0 0,0 z m 0,4.39 0,3.2 -0.4,0 0,-3.2 0.4,0 0,0 z m 0,4.4 0,3.2 -0.4,0 0,-3.2 0.4,0 0,0 z m 0,4.4 0,3.2 -0.4,0 0,-3.2 0.4,0 0,0 z m 0,4.4 0,3.2 -0.4,0 0,-3.2 0.4,0 0,0 z m 0,4.4 0,3.19 -0.4,0 0,-3.19 0.4,0 0,0 z m 0,4.39 0,3.2 -0.4,0 0,-3.2 0.4,0 0,0 z m 0,4.4 0,3.2 -0.4,0 0,-3.2 0.4,0 0,0 z m 0,4.4 0,3.2 -0.4,0 0,-3.2 0.4,0 0,0 z m 0,4.4 0,1.66 -0.4,0 0,-1.66 0.4,0 0,0 z"
       class="st4"
       id="path232"
       style="fill:#000000;stroke:#000000;stroke-width:0.00833769;stroke-linecap:round;stroke-linejoin:round" /><path
       d="m 336.516,25.319 0,3.2 -0.4,0 0,-3.2 0.4,0 0,0 z m 0,4.4 0,3.2 -0.4,0 0,-3.2 0.4,0 0,0 z m 0,4.4 0,3.2 -0.4,0 0,-3.2 0.4,0 0,0 z m 0,4.4 0,3.2 -0.4,0 0,-3.2 0.4,0 0,0 z m 0,4.39 0,3.2 -0.4,0 0,-3.2 0.4,0 0,0 z m 0,4.4 0,3.2 -0.4,0 0,-3.2 0.4,0 0,0 z m 0,4.4 0,3.2 -0.4,0 0,-3.2 0.4,0 0,0 z m 0,4.4 0,3.2 -0.4,0 0,-3.2 0.4,0 0,0 z m 0,4.4 0,3.2 -0.4,0 0,-3.2 0.4,0 0,0 z m 0,4.4 0,3.19 -0.4,0 0,-3.19 0.4,0 0,0 z m 0,4.39 0,3.2 -0.4,0 0,-3.2 0.4,0 0,0 z m 0,4.4 0,3.2 -0.4,0 0,-3.2 0.4,0 0,0 z m 0,4.4 0,3.2 -0.4,0 0,-3.2 0.4,0 0,0 z m 0,4.4 0,3.2 -0.4,0 0,-3.2 0.4,0 0,0 z m 0,4.4 0,3.19 -0.4,0 0,-3.19 0.4,0 0,0 z m 0,4.39 0,3.2 -0.4,0 0,-3.2 0.4,0 0,0 z m 0,4.4 0,3.2 -0.4,0 0,-3.2 0.4,0 0,0 z m 0,4.4 0,3.2 -0.4,0 0,-3.2 0.4,0 0,0 z m 0,4.4 0,3.2 -0.4,0 0,-3.2 0.4,0 0,0 z m 0,4.4 0,3.2 -0.4,0 0,-3.2 0.4,0 0,0 z m 0,4.39 0,3.2 -0.4,0 0,-3.2 0.4,0 0,0 z m 0,4.4 0,3.2 -0.4,0 0,-3.2 0.4,0 0,0 z m 0,4.4 0,3.2 -0.4,0 0,-3.2 0.4,0 0,0 z m 0,4.4 0,3.2 -0.4,0 0,-3.2 0.4,0 0,0 z m 0,4.4 0,3.2 -0.4,0 0,-3.2 0.4,0 0,0 z m 0,4.4 0,3.19 -0.4,0 0,-3.19 0.4,0 0,0 z m 0,4.39 0,3.2 -0.4,0 0,-3.2 0.4,0 0,0 z m 0,4.4 0,3.2 -0.4,0 0,-3.2 0.4,0 0,0 z m 0,4.4 0,3.2 -0.4,0 0,-3.2 0.4,0 0,0 z m 0,4.4 0,3.2 -0.4,0 0,-3.2 0.4,0 0,0 z m 0,4.4 0,3.19 -0.4,0 0,-3.19 0.4,0 0,0 z m 0,4.39 0,3.2 -0.4,0 0,-3.2 0.4,0 0,0 z m 0,4.4 0,3.2 -0.4,0 0,-3.2 0.4,0 0,0 z m 0,4.4 0,3.2 -0.4,0 0,-3.2 0.4,0 0,0 z m 0,4.4 0,1.66 -0.4,0 0,-1.66 0.4,0 0,0 z"
       class="st3"
       id="path237"
       style="fill:#000000;stroke:#000000;stroke-width:0.0166754;stroke-linecap:round;stroke-linejoin:round" /><path
       d="m 269.402,201.976 c 0,-1.36 1.14,-2.46 2.57,-2.46 l 125.27,0 c 1.43,0 2.55,1.1 2.55,2.46 l 0,9.82 c 0,1.36 -1.12,2.44 -2.55,2.44 l -125.27,0 c -1.43,0 -2.57,-1.08 -2.57,-2.44 l 0,-9.82 z"
       class="st14"
       id="path242"
       style="fill:#ffffff;stroke:#080808;stroke-width:0.40020901;stroke-linecap:round;stroke-linejoin:round" /><path
       d="m 90.2211,38.911 3.34,-3.59"
       class="st5"
       id="path256"
       style="stroke:#000000;stroke-width:0.40020901;stroke-linecap:round;stroke-linejoin:round" /><path
       d="m 93.5594,35.321 3.34,1.79"
       class="st5"
       id="path261"
       style="stroke:#000000;stroke-width:0.40020901;stroke-linecap:round;stroke-linejoin:round" /><path
       d="m 97.1559,37.27 4.53,-3.7 -0.25,-0.31 -4.53,3.7 0.25,0.31 0,0 z m 5.03,-2.22 1.52,-3.4 -3.64,0.83 2.12,2.57 0,0 z"
       class="st15"
       id="path266"
       style="fill:#000000;stroke:#000000;stroke-width:0.00416884;stroke-linecap:round;stroke-linejoin:round" /><path
       d="m 336.316,39.444 3.34,-3.59"
       class="st5"
       id="path271"
       style="stroke:#000000;stroke-width:0.40020901;stroke-linecap:round;stroke-linejoin:round" /><path
       d="m 339.654,35.854 3.34,1.79"
       class="st5"
       id="path276"
       style="stroke:#000000;stroke-width:0.40020901;stroke-linecap:round;stroke-linejoin:round" /><path
       d="m 343.259,37.811 4.52,-3.71 -0.25,-0.3 -4.52,3.7 0.25,0.31 0,0 z m 5.02,-2.21 1.52,-3.42 -3.64,0.84 2.12,2.58 0,0 z"
       class="st3"
       id="path281"
       style="fill:#000000;stroke:#000000;stroke-width:0.0166754;stroke-linecap:round;stroke-linejoin:round" /><g
       id="g4698"><text
         style="font-style:normal;font-variant:normal;font-weight:normal;font-stretch:normal;font-size:7.66660786px;line-height:125%;font-family:Arial;-inkscape-font-specification:'Arial, Normal';text-align:start;writing-mode:lr-tb;text-anchor:start;fill:#080808"
         id="text136"
         v:langID="1033"
         class="st9"
         y="106.91798"
         x="42.7584"><v:paragraph
   v:horizAlign="1" /><v:tabList />CCR A</text>
<text
         style="font-style:normal;font-variant:normal;font-weight:normal;font-stretch:normal;font-size:7.66660786px;line-height:125%;font-family:Arial;-inkscape-font-specification:'Arial, Normal';text-align:start;writing-mode:lr-tb;text-anchor:start;fill:#080808"
         id="text145"
         v:langID="1033"
         class="st9"
         y="85.537987"
         x="43.445202"><v:paragraph
   v:horizAlign="1" /><v:tabList />CCR 4</text>
<text
         style="font-style:normal;font-variant:normal;font-weight:normal;font-stretch:normal;font-size:7.66660786px;line-height:125%;font-family:Arial;-inkscape-font-specification:'Arial, Normal';text-align:start;writing-mode:lr-tb;text-anchor:start;fill:#080808"
         id="text159"
         v:langID="1033"
         class="st9"
         y="63.463985"
         x="19.155701"><v:paragraph
   v:horizAlign="1" /><v:tabList />PWM_VALUE</text>
<text
         style="font-style:normal;font-variant:normal;font-weight:normal;font-stretch:normal;font-size:7.66660786px;line-height:125%;font-family:Arial;-inkscape-font-specification:'Arial, Normal';text-align:start;writing-mode:lr-tb;text-anchor:start;fill:#080808"
         id="text183"
         v:langID="1033"
         class="st9"
         y="198.89268"
         x="39.983799"><v:paragraph
   v:horizAlign="1" /><v:tabList />PWM A</text>
<text
         style="font-style:normal;font-variant:normal;font-weight:normal;font-stretch:normal;font-size:7.66660786px;line-height:125%;font-family:Arial;-inkscape-font-specification:'Arial, Normal';text-align:start;writing-mode:lr-tb;text-anchor:start;fill:#080808"
         id="text192"
         v:langID="1033"
         class="st9"
         y="220.61958"
         x="40.660599"><v:paragraph
   v:horizAlign="1" /><v:tabList />PWM 4</text>
<text
         style="font-style:normal;font-variant:normal;font-weight:normal;font-stretch:normal;font-size:7.66660786px;line-height:125%;font-family:Arial;-inkscape-font-specification:'Arial, Normal';text-align:start;writing-mode:lr-tb;text-anchor:start;fill:#080808"
         id="text206"
         v:langID="1033"
         class="st9"
         y="192.619"
         x="252.686"><v:paragraph
   v:horizAlign="1" /><v:tabList />ADC Start</text>
<text
         style="font-style:normal;font-variant:normal;font-weight:normal;font-stretch:normal;font-size:7.66660786px;line-height:125%;font-family:Arial;-inkscape-font-specification:'Arial, Normal';text-align:center;writing-mode:lr-tb;text-anchor:middle;fill:#000000"
         id="text225"
         v:langID="1033"
         class="st12"
         y="241.37959"
         x="215.65816"><v:paragraph /><v:tabList /><v:lf /><tspan
           y="241.37959"
           x="215.65816"
           id="tspan4448">If CCR A + Delay &gt; PWM_VALUE it is possible to set the CCR 4 equal to CCR A</tspan><tspan
           y="250.96286"
           x="215.65816"
           id="tspan4450"> plus the delay and set a falling ADC External trigger</tspan></text>
<text
         style="font-style:normal;font-variant:normal;font-weight:normal;font-stretch:normal;font-size:7.66660786px;line-height:125%;font-family:Arial;-inkscape-font-specification:'Arial, Normal';text-align:start;writing-mode:lr-tb;text-anchor:start;fill:#000000"
         id="text251"
         v:langID="1033"
         class="st12"
         y="210.47729"
         x="269.11899"><v:paragraph
   v:horizAlign="1" /><v:tabList />Sampling is on falling edge of PWM4</text>
<text
         style="font-style:normal;font-variant:normal;font-weight:normal;font-stretch:normal;font-size:7.66660786px;line-height:125%;font-family:Arial;-inkscape-font-specification:'Arial, Normal';text-align:start;writing-mode:lr-tb;text-anchor:start;fill:#080808"
         id="text290"
         v:langID="1033"
         class="st9"
         y="34.934986"
         x="109.693"><v:paragraph
   v:horizAlign="1" /><v:tabList />PWM Update</text>
<text
         style="font-style:normal;font-variant:normal;font-weight:normal;font-stretch:normal;font-size:7.66660786px;line-height:125%;font-family:Arial;-inkscape-font-specification:'Arial, Normal';text-align:start;writing-mode:lr-tb;text-anchor:start;fill:#080808"
         id="text299"
         v:langID="1033"
         class="st9"
         y="38.682987"
         x="352.54901"><v:paragraph
   v:horizAlign="1" /><v:tabList />PWM Update</text>
<text
         style="font-style:normal;font-variant:normal;font-weight:normal;font-stretch:normal;font-size:7.66660786px;line-height:125%;font-family:Arial;-inkscape-font-specification:'Arial, Normal';text-align:start;writing-mode:lr-tb;text-anchor:start;fill:#080808"
         id="text308"
         v:langID="1033"
         class="st16"
         y="158.92999"
         x="168.713"><v:paragraph
   v:horizAlign="1" /><v:tabList />D<tspan
   style="font-style:normal;font-variant:normal;font-weight:normal;font-stretch:normal;font-size:7.66660786px;line-height:125%;font-family:Arial;-inkscape-font-specification:'Arial, Normal';text-align:start;writing-mode:lr-tb;baseline-shift:-32.49489963%;text-anchor:start"
   id="tspan310"
   v:baseFontSize="6"
   class="st17">T</tspan><tspan
   style="font-style:normal;font-variant:normal;font-weight:normal;font-stretch:normal;font-size:7.66660786px;line-height:125%;font-family:Arial;-inkscape-font-specification:'Arial, Normal';text-align:start;writing-mode:lr-tb;text-anchor:start"
   id="tspan312"
   class="st13">+</tspan>T<tspan
   style="font-style:normal;font-variant:normal;font-weight:normal;font-stretch:normal;font-size:7.66660786px;line-height:125%;font-family:Arial;-inkscape-font-specification:'Arial, Normal';text-align:start;writing-mode:lr-tb;baseline-shift:-32.49489963%;text-anchor:start"
   id="tspan314"
   v:baseFontSize="6"
   class="st17">N</tspan></text>
</g></g></svg>